<svg xmlns="http://www.w3.org/2000/svg" viewBox="0 0 21.53 27.86"><defs><style>.cls-1{fill:#fff;stroke:#81827c;stroke-miterlimit:10;stroke-width:0.92px;}</style></defs><g id="레이어_2" data-name="레이어 2"><g id="Layer_1" data-name="Layer 1"><path class="cls-1" d="M8.54,9.88l4.86,8a.8.8,0,0,0,1.1.27l.28-.16a4.37,4.37,0,0,1,2.55-.63l3.74,6.17c0,2-4.1,3.42-4.1,3.42l-.43.19c-2,.94-5.87-.64-11.93-10.66C-.78,7.62,0,4.14,1.78,2.8l.38-.28S5,.34,7.08.46l3.73,6.17a4.31,4.31,0,0,1-1.73,2l-.27.16A.8.8,0,0,0,8.54,9.88Z"/></g></g></svg>