<svg xmlns="http://www.w3.org/2000/svg" viewBox="0 0 19.88 19.88"><defs><style>.cls-1{fill:#6f7071;}</style></defs><g id="레이어_2" data-name="레이어 2"><g id="레이어_1-2" data-name="레이어 1"><path class="cls-1" d="M9.42,10.46l-1,0-6.11.31a2.19,2.19,0,0,1-.93-4.23L16.78.18A2.21,2.21,0,0,1,19.87,2.3a2.51,2.51,0,0,1-.18.81L14.91,14.6a.69.69,0,0,1-.92.45.7.7,0,0,1-.34-1Q16,8.36,18.4,2.66A1,1,0,0,0,18.47,2a.85.85,0,0,0-1.16-.51L14,2.79C10,4.46,6,6.14,2,7.8a.87.87,0,0,0-.6.74.82.82,0,0,0,.85.91c.6,0,1.21,0,1.81-.09l3.8-.19,2.23-.11a.67.67,0,0,1,.76.77c-.1,2-.21,4.08-.31,6.13,0,.54-.06,1.09-.08,1.63a.84.84,0,0,0,1.63.35l.39-1a.68.68,0,0,1,.9-.39.69.69,0,0,1,.36.92l-.42,1a2.15,2.15,0,0,1-2.24,1.35,2.12,2.12,0,0,1-2-1.86,9.79,9.79,0,0,1,0-1.43c.06-1.26.13-2.53.19-3.79,0-.71.08-1.42.11-2.13Z"/></g></g></svg>