<svg xmlns="http://www.w3.org/2000/svg" viewBox="0 0 18.34 22.65"><defs><style>.cls-1{fill:#6f7071;}</style></defs><g id="레이어_2" data-name="레이어 2"><g id="레이어_1-2" data-name="레이어 1"><path class="cls-1" d="M18.34,3.62a1,1,0,0,0,0-.17,1.4,1.4,0,0,0-1.44-1.4h-.6V1.5A1.42,1.42,0,0,0,14.79,0H3.41a.82.82,0,0,0-.63.26Q1.55,1.51.32,2.72A1,1,0,0,0,0,3.48C0,8.66,0,13.84,0,19c0,.1,0,.21,0,.31A1.4,1.4,0,0,0,1.4,20.6h.65c0,.23,0,.43,0,.64a1.42,1.42,0,0,0,1.42,1.41H16.93a1.37,1.37,0,0,0,1.13-.58,1.57,1.57,0,0,0,.28-1C18.33,15.26,18.34,9.44,18.34,3.62ZM2.69,2.11v.57H2.1ZM1.58,19.42c-.35,0-.39,0-.39-.38V3.87h1.5a1.08,1.08,0,0,0,1.19-1.2V1.18H14.73c.32,0,.38.06.38.38V19.05c0,.32-.06.37-.38.37Zm15.57,1.63c0,.39,0,.42-.42.42H3.65c-.37,0-.42,0-.42-.42V20.6h.28c3.74,0,7.48,0,11.22,0A1.51,1.51,0,0,0,16.3,19c0-5.16,0-10.33,0-15.49v-.3h.61a.24.24,0,0,1,.25.25V21.05Z"/><path class="cls-1" d="M3.78,10.68H12.5a1,1,0,0,0,.25,0,.59.59,0,0,0,.44-.77.62.62,0,0,0-.65-.39H3.82a1.23,1.23,0,0,0-.27,0,.55.55,0,0,0-.47.53C3.05,10.44,3.33,10.68,3.78,10.68Z"/><path class="cls-1" d="M12.56,12.58H3.64a.57.57,0,0,0-.56.61.58.58,0,0,0,.64.57h8.84a.59.59,0,0,0,.63-.42A.58.58,0,0,0,12.56,12.58Z"/><path class="cls-1" d="M3.72,7.6h8.87a.58.58,0,0,0,.61-.43c.11-.42-.18-.75-.66-.75H3.61A.59.59,0,1,0,3.72,7.6Z"/><path class="cls-1" d="M12.79,15.68l-.27,0H3.62a.59.59,0,1,0,.1,1.18h9a.58.58,0,0,0,.55-.54A.57.57,0,0,0,12.79,15.68Z"/></g></g></svg>