<svg xmlns="http://www.w3.org/2000/svg" viewBox="0 0 21.63 20.69"><defs><style>.cls-1{fill:#6f7071;}.cls-2{fill:#d05559;}</style></defs><g id="레이어_2" data-name="레이어 2"><g id="레이어_1-2" data-name="레이어 1"><path class="cls-1" d="M20.66,7.1l-2.09-.24-3.75-.42A.64.64,0,0,1,14.24,6c-.8-1.79-1.63-3.57-2.44-5.36a1.05,1.05,0,0,0-2,0Q8.61,3.37,7.37,6.08a.54.54,0,0,1-.47.35L1.55,7,1,7.1a1,1,0,0,0-1,.71A1,1,0,0,0,.38,9c1.46,1.34,2.92,2.69,4.39,4a.53.53,0,0,1,.18.56c-.41,2-.8,3.92-1.19,5.87a1,1,0,0,0,0,.46,1,1,0,0,0,1.57.65q2.56-1.44,5.12-2.89a.65.65,0,0,1,.72,0l5.13,2.91a1,1,0,0,0,1.56-1.15c-.39-1.94-.77-3.88-1.17-5.82a.56.56,0,0,1,.19-.6l4.36-4a1.06,1.06,0,0,0,.38-.81A1,1,0,0,0,20.66,7.1Z"/><path class="cls-2" d="M10.81,0V17.52a.71.71,0,0,0-.35.11c-1.7,1-3.41,1.94-5.12,2.9a1,1,0,0,1-1.57-.65,1,1,0,0,1,0-.46c.39-2,.78-3.91,1.19-5.87A.54.54,0,0,0,4.77,13L.38,9A1,1,0,0,1,.06,7.82a1,1,0,0,1,1-.71L1.55,7l5.34-.61a.52.52,0,0,0,.48-.34Q8.6,3.38,9.85.66A1,1,0,0,1,10.81,0Z"/></g></g></svg>