<svg xmlns="http://www.w3.org/2000/svg" xmlns:xlink="http://www.w3.org/1999/xlink" viewBox="0 0 126.68 126.68"><defs><style>.cls-1,.cls-20{fill:none;}.cls-2{fill:#a43029;}.cls-3{fill:#b18858;}.cls-4{fill:#c9c5bd;}.cls-5{fill:#627371;stroke:#231815;stroke-width:2.28px;}.cls-20,.cls-5{stroke-miterlimit:10;}.cls-6{fill:url(#새_패턴_견본_7);}.cls-7{fill:url(#새_패턴_견본_3);}.cls-8{fill:url(#새_패턴_견본_4);}.cls-9{clip-path:url(#clip-path);}.cls-10{fill:#f7c5b6;}.cls-11{fill:#fff;}.cls-12{fill:#040000;}.cls-13{fill:url(#새_패턴_견본_4-7);}.cls-14{fill:#fde0af;}.cls-15{fill:#838684;}.cls-16{clip-path:url(#clip-path-2);}.cls-17{clip-path:url(#clip-path-3);}.cls-18{clip-path:url(#clip-path-4);}.cls-19{fill:#f6d8cf;}.cls-20{stroke:#040000;stroke-linecap:round;stroke-width:1.28px;}</style><pattern id="새_패턴_견본_7" data-name="새 패턴 견본 7" width="68" height="68" patternTransform="translate(166.27 48.02) rotate(-27.23) scale(0.35)" patternUnits="userSpaceOnUse" viewBox="0 0 68 68"><rect class="cls-1" width="68" height="68"/><rect class="cls-4" width="68" height="68"/></pattern><pattern id="새_패턴_견본_3" data-name="새 패턴 견본 3" width="68" height="68" patternTransform="translate(166.27 48.02) rotate(-27.23) scale(0.35)" patternUnits="userSpaceOnUse" viewBox="0 0 68 68"><rect class="cls-1" width="68" height="68"/><rect class="cls-2" width="68" height="68"/></pattern><pattern id="새_패턴_견본_4" data-name="새 패턴 견본 4" width="68" height="68" patternTransform="translate(166.27 48.02) rotate(-27.23) scale(0.35)" patternUnits="userSpaceOnUse" viewBox="0 0 68 68"><rect class="cls-1" width="68" height="68"/><rect class="cls-3" width="68" height="68"/></pattern><clipPath id="clip-path"><ellipse class="cls-1" cx="55.83" cy="53.34" rx="27.14" ry="23.78" transform="translate(-18.22 31.46) rotate(-27.23)"/></clipPath><pattern id="새_패턴_견본_4-7" data-name="새 패턴 견본 4" width="68" height="68" patternTransform="translate(203.62 61.92) rotate(-27.23) scale(0.38)" patternUnits="userSpaceOnUse" viewBox="0 0 68 68"><rect class="cls-1" width="68" height="68"/><rect class="cls-3" width="68" height="68"/></pattern><clipPath id="clip-path-2"><path class="cls-1" d="M84.87,82.23c2.72,5.29-.84,10.7-7,13.88s-12.65,3-15.38-2.35S61.79,80.12,68,76.94,82.14,76.93,84.87,82.23Z"/></clipPath><clipPath id="clip-path-3"><path class="cls-1" d="M79.23,98.8c8.69-4.47-.12,5.53,8.68,7,6.44,1,11.1-9.23,12.25-20.39a54,54,0,0,0-.69-17.52c-.23-1.06-.47-2.11-.72-3.17-.31-1.32-.62-2.65-1-4-.17-.68.72-2.41.92-3.1q.51-1.74,1-3.48.95-3.39,1.76-6.81c1.38-5.9,2.62-12.09,1.87-18.16-.52-4.21-2.17-9.43-7.08-10-2.87-.34-4.83,2.17-5.71,4.6-1.11,3.08-1,6.47-1.18,9.65-.08,1.28-.19,2.55-.33,3.82a39.79,39.79,0,0,0-5.15-6.77A35.73,35.73,0,0,0,71,21.56C61.07,17.77,50.3,20,41.1,24.72s-17.26,12.21-20,22.5a35.58,35.58,0,0,0-.28,15.64A39.3,39.3,0,0,0,23,70c1.9,5.24,2.41,8.2,2.5,9.78-2.33-1.57-4.81-3.65-7.41-3.31-3.38.45-5,3.23-4.9,6.16.13,4.08,3.33,7.25,6.47,9.44,3,2.08,8.72,5.16,12.51,4.69a5.92,5.92,0,0,0,5.25-5l0-.06c.92,1.07,1.84,2.13,2.75,3.16q1.07,1.23,2.16,2.43A53.84,53.84,0,0,0,56.13,108c9.76,5.55,20.83,7.73,23.72,1.88C83.79,101.92,70.54,103.28,79.23,98.8Z"/></clipPath><clipPath id="clip-path-4"><path class="cls-1" d="M45.58,33.09c-13,6.72-18.75,21.64-12.73,33.33S52.35,78.31,65.4,71.6,86.12,53.79,80.1,42.1,58.63,26.38,45.58,33.09Z"/></clipPath></defs><g id="레이어_2" data-name="레이어 2"><g id="레이어_1-2" data-name="레이어 1"><circle class="cls-5" cx="63.34" cy="63.34" r="62.2"/><path class="cls-6" d="M47.4,23.83c2.5-2.62,3.15-6.25,3.36-9.72A6.31,6.31,0,0,1,51,12.56c.42-1.25,2-1.36,3-.85a6.37,6.37,0,0,1,2.41,2.45,11.25,11.25,0,0,1,1.19,2.53,12.63,12.63,0,0,1,.26,5.8"/><path d="M58.63,22.6l-1.39-.22A11.84,11.84,0,0,0,57,16.9a10.31,10.31,0,0,0-1.11-2.37,5.66,5.66,0,0,0-2.13-2.19,2,2,0,0,0-1.54-.1.85.85,0,0,0-.53.55,5.29,5.29,0,0,0-.24,1.37c-.19,3.2-.77,7.24-3.55,10.15l-1-1c2.47-2.59,3-6.32,3.17-9.28a6.87,6.87,0,0,1,.31-1.73,2.29,2.29,0,0,1,1.32-1.4,3.4,3.4,0,0,1,2.7.14,6.94,6.94,0,0,1,2.7,2.7,11.93,11.93,0,0,1,1.26,2.7A13.18,13.18,0,0,1,58.63,22.6Z"/><path class="cls-6" d="M36.71,29.33c-3.58.51-6.91-1.07-9.86-2.91a6,6,0,0,0-1.42-.68c-1.27-.38-2.27.84-2.46,2a6.4,6.4,0,0,0,.59,3.38,11.06,11.06,0,0,0,1.37,2.44,12.81,12.81,0,0,0,4.57,3.58"/><path d="M29.18,37.75A13.24,13.24,0,0,1,24.37,34a11.62,11.62,0,0,1-1.46-2.6,6.83,6.83,0,0,1-.63-3.76,3.36,3.36,0,0,1,1.45-2.28,2.25,2.25,0,0,1,1.9-.26,6.16,6.16,0,0,1,1.59.76c2.52,1.57,5.86,3.31,9.4,2.81L36.81,30c-4,.56-7.61-1.32-10.33-3a5.59,5.59,0,0,0-1.25-.6.9.9,0,0,0-.76.11,2,2,0,0,0-.81,1.32,5.68,5.68,0,0,0,.55,3,10.07,10.07,0,0,0,1.28,2.29,12,12,0,0,0,4.33,3.37Z"/><path class="cls-7" d="M98.22,57.56c2.52,7.51,8.78,16.74,15.28,21.56a34.76,34.76,0,0,0-4.42,1.93,66.81,66.81,0,0,0-5.58,3.87c-6.37,4.41-8.64,3.74-15,8.17"/><path d="M88.82,93.71a.7.7,0,0,1-.72-1.2,39,39,0,0,1,7.63-4.17,36.82,36.82,0,0,0,7.37-4c.61-.42,1.22-.88,1.81-1.32a33.29,33.29,0,0,1,3.83-2.58,28.79,28.79,0,0,1,3.35-1.53A50.81,50.81,0,0,1,97.55,57.78a.7.7,0,0,1,1.33-.44c2.61,7.77,8.93,16.69,15,21.22a.68.68,0,0,1,.28.66.73.73,0,0,1-.44.56,32,32,0,0,0-4.33,1.89,33.72,33.72,0,0,0-3.67,2.48c-.6.44-1.22.91-1.86,1.34a38.78,38.78,0,0,1-7.6,4.14,37,37,0,0,0-7.39,4Z"/><path class="cls-7" d="M34.63,90.29c4.65,6.42,8.52,16.88,8.67,25a33.26,33.26,0,0,1,4.14-2.47,67.45,67.45,0,0,1,6.39-2.3c7.28-2.62,8.06-4.85,15.36-7.45"/><path d="M69.51,103.65l-.08,0a37,37,0,0,0-7.58,3.67,39.07,39.07,0,0,1-7.79,3.78c-.72.26-1.46.5-2.17.73a33.86,33.86,0,0,0-4.15,1.54,31.24,31.24,0,0,0-4.05,2.43.71.71,0,0,1-.72,0,.7.7,0,0,1-.37-.61c-.14-7.59-3.73-17.92-8.54-24.56a.71.71,0,0,1,.16-1,.7.7,0,0,1,1,.15A50.92,50.92,0,0,1,44,114a29.25,29.25,0,0,1,3.18-1.84,36,36,0,0,1,4.33-1.61c.7-.22,1.43-.46,2.13-.71a37.65,37.65,0,0,0,7.54-3.66,38.79,38.79,0,0,1,7.82-3.8.7.7,0,0,1,.56,1.29Z"/><path class="cls-8" d="M71.2,16.17c1.16,2.62-.87,3.06-2.09,4.75a28.68,28.68,0,0,0-4.27-1,5.53,5.53,0,0,1,0-.71c.19-1.68,1.1-4.12,2.6-4.89S70.53,14.63,71.2,16.17Z"/><path d="M69.39,21.74l-.49-.15a27.87,27.87,0,0,0-4.16-.95l-.6-.09v-.61a7.21,7.21,0,0,1,0-.79c.19-1.67,1.14-4.49,3-5.43a2.9,2.9,0,0,1,2.34-.17,4.3,4.3,0,0,1,2.35,2.34c1,2.34-.12,3.41-1.13,4.34a7.77,7.77,0,0,0-1,1.1Zm-3.82-2.39a28.51,28.51,0,0,1,3.29.76,11.15,11.15,0,0,1,.91-.91c.94-.88,1.42-1.32.79-2.74h0A2.86,2.86,0,0,0,69,14.88,1.51,1.51,0,0,0,67.8,15c-1.15.59-2,2.68-2.22,4.35Z"/><path class="cls-8" d="M16.65,44.25c1.46,2.46,3,1.07,5.07,1.06a30.06,30.06,0,0,1,1.69-4.05,4.67,4.67,0,0,0-.6-.38c-1.47-.82-4-1.5-5.49-.73S15.79,42.8,16.65,44.25Z"/><path d="M22.23,46h-.5a7.42,7.42,0,0,0-1.5.2c-1.35.28-2.88.6-4.18-1.6a4.23,4.23,0,0,1-.54-3.27A2.89,2.89,0,0,1,17,39.53c1.83-.94,4.68-.08,6.15.74a7,7,0,0,1,.67.42l.49.36-.27.53a28.4,28.4,0,0,0-1.65,4Zm-4.59-5.23a1.46,1.46,0,0,0-.78.95,2.8,2.8,0,0,0,.39,2.16h0c.8,1.34,1.43,1.21,2.7,1a10.67,10.67,0,0,1,1.26-.21,30.21,30.21,0,0,1,1.3-3.12l0,0C21,40.68,18.79,40.19,17.64,40.78Z"/><path class="cls-8" d="M79.23,98.8c8.69-4.47-.12,5.53,8.68,7,6.44,1,11.1-9.23,12.25-20.39a54,54,0,0,0-.69-17.52c-.23-1.06-.47-2.11-.72-3.17-.31-1.32-.62-2.65-1-4-.17-.68.72-2.41.92-3.1q.51-1.74,1-3.48.95-3.39,1.76-6.81c1.38-5.9,2.62-12.09,1.87-18.16-.52-4.21-2.17-9.43-7.08-10-2.87-.34-4.83,2.17-5.71,4.6-1.11,3.08-1,6.47-1.18,9.65-.08,1.28-.19,2.55-.33,3.82a39.79,39.79,0,0,0-5.15-6.77A35.73,35.73,0,0,0,71,21.56C61.07,17.77,50.3,20,41.1,24.72s-17.26,12.21-20,22.5a35.58,35.58,0,0,0-.28,15.64A39.3,39.3,0,0,0,23,70c1.9,5.24,2.41,8.2,2.5,9.78-2.33-1.57-4.81-3.65-7.41-3.31-3.38.45-5,3.23-4.9,6.16.13,4.08,3.33,7.25,6.47,9.44,3,2.08,8.72,5.16,12.51,4.69a5.92,5.92,0,0,0,5.25-5l0-.06c.92,1.07,1.84,2.13,2.75,3.16q1.07,1.23,2.16,2.43A53.84,53.84,0,0,0,56.13,108c9.76,5.55,20.83,7.73,23.72,1.88C83.79,101.92,70.54,103.28,79.23,98.8Z"/><g class="cls-9"><circle class="cls-10" cx="77.15" cy="37.29" r="9.03"/><circle class="cls-10" cx="30.38" cy="61.36" r="9.03"/></g><path d="M30.35,85.15h0a.7.7,0,0,1-.94-.33c-.94-2-4.28-4.43-4.32-4.46a.7.7,0,0,1,.83-1.13c.15.11,3.66,2.7,4.76,5A.72.72,0,0,1,30.35,85.15Z"/><path class="cls-11" d="M44.88,31.74C31,38.86,25,54.77,31.47,67.27S52.23,80,66.07,72.9,88,54,81.59,41.47,58.72,24.62,44.88,31.74Z"/><path class="cls-12" d="M58.79,29.8c9.33,0,17.56,4.73,21.48,12.35a16.55,16.55,0,0,1-.14,16.34c-2.74,5-7.84,9.54-14.74,13.1-5.78,3-11.49,4.54-16.53,4.54-7.3,0-12.86-3.3-16.07-9.54-6.05-11.75-.32-26.8,12.77-33.53A29,29,0,0,1,58.79,29.8m0-1.48a30.42,30.42,0,0,0-13.91,3.42C31,38.86,25,54.77,31.47,67.27c3.71,7.2,10,10.34,17.39,10.34,5.4,0,11.35-1.69,17.21-4.71C79.91,65.78,88,54,81.59,41.47c-4.34-8.42-13.23-13.15-22.8-13.15Z"/><polygon class="cls-13" points="36.72 27.64 36.72 27.64 36.72 27.64 36.72 27.64"/><path class="cls-14" d="M84.87,82.23c2.72,5.29-.84,10.7-7,13.88s-12.65,3-15.38-2.35S61.79,80.12,68,76.94,82.14,76.93,84.87,82.23Z"/><path d="M78.16,96.74c-7.07,3.64-13.63,2.57-16.32-2.66-2.78-5.4-.85-14.34,5.81-17.77s15.06.2,17.84,5.6C88.18,87.14,85.24,93.09,78.16,96.74ZM68.3,77.56c-6,3.07-7.7,11-5.21,15.88,2.84,5.53,9.55,4.56,14.43,2s9.57-7.41,6.72-12.94C81.76,77.72,74.25,74.49,68.3,77.56Z"/><path class="cls-14" d="M54.76,34.46a5.15,5.15,0,0,1-2.55,2.82c-1.35.59-2.26,1.72-3.59,2.41s-2.78.76-4,1.51a5.09,5.09,0,0,1-3.78.44C38.18,41,37.46,38.2,38,35.79a10.6,10.6,0,0,1,13.57-7h0C53.9,29.74,55.76,32,54.76,34.46Z"/><path d="M48.94,40.31a11.49,11.49,0,0,1-2,.75,8,8,0,0,0-2,.74,5.83,5.83,0,0,1-4.3.53c-3-.75-3.94-3.94-3.29-6.7a11.32,11.32,0,0,1,14.52-7.47c2.63,1.07,4.69,3.66,3.54,6.56h0a5.77,5.77,0,0,1-2.92,3.2,8.3,8.3,0,0,0-1.75,1.16A10.53,10.53,0,0,1,48.94,40.31Zm-4.42.13a10.41,10.41,0,0,1,2-.73,9.52,9.52,0,0,0,1.79-.65A9.13,9.13,0,0,0,49.87,38a9.58,9.58,0,0,1,2.05-1.35,4.4,4.4,0,0,0,2.19-2.43h0c.85-2.14-.84-4-2.77-4.74A9.92,9.92,0,0,0,38.72,36c-.48,2,0,4.46,2.25,5a4.36,4.36,0,0,0,3.25-.36Z"/><ellipse cx="42.97" cy="49.96" rx="3.26" ry="3.76" transform="translate(-18.1 25.2) rotate(-27.23)"/><circle class="cls-11" cx="43.52" cy="48.55" r="0.97"/><ellipse cx="60.27" cy="41.05" rx="3.26" ry="3.76" transform="translate(-12.11 32.13) rotate(-27.23)"/><circle class="cls-11" cx="60.82" cy="39.65" r="0.97"/><path class="cls-15" d="M48.62,39.69a5.12,5.12,0,0,1-6.89-2.21.52.52,0,0,1,.22-.7.51.51,0,0,1,.69.22,4.09,4.09,0,0,0,7.28-3.74.5.5,0,0,1,.22-.69.51.51,0,0,1,.69.22A5.12,5.12,0,0,1,48.62,39.69Z"/><path d="M50.14,32.57a.51.51,0,0,1,.69.22,5.12,5.12,0,1,1-9.1,4.69.52.52,0,0,1,.22-.7.51.51,0,0,1,.69.22,4.09,4.09,0,0,0,7.28-3.74.5.5,0,0,1,.22-.69m-.64-1.25a1.91,1.91,0,0,0-.83,2.58,2.69,2.69,0,0,1-4.78,2.46,1.92,1.92,0,1,0-3.41,1.76,6.52,6.52,0,0,0,11.6-6,1.91,1.91,0,0,0-2.58-.83Z"/><g class="cls-16"><path class="cls-8" d="M78.11,80.4c.22-.77-.25-1.19-.9-1.45l-.12-.09-.09,0h-.14a10.89,10.89,0,0,0-1.24-.25.42.42,0,0,0-.28,0h-.1c-.2.14-.21.37-.27.57h0l0,.19h0l-.17.34a30.08,30.08,0,0,1-1.9,2.72c-.15,0-.3-.09-.45-.12s-.34,0-.51-.08v0c-.08-.15-.22-.12-.36-.1a1.52,1.52,0,0,0-.21,0l-.39-.07a.43.43,0,0,0-.24.06c-.13,0-.2.07-.26.17l0,0a.48.48,0,0,0,.06.57c.35.37.71.75,1.05,1.14l-1,1.2c-.26.29-.51.6-.8.88-.09.09-.43.46-.58.42l-.07,0v0a.44.44,0,0,0,0-.3.36.36,0,0,0,.07-.37,1.33,1.33,0,0,0-.1-.24,1.23,1.23,0,0,0-.45-.67,4,4,0,0,0-2.11-.68.45.45,0,0,0-.43.24l-.12.11a.39.39,0,0,0-.21.26,25.65,25.65,0,0,1-1.63,3.82,2.57,2.57,0,0,0-.19,1,.2.2,0,0,0,0,.15.25.25,0,0,1,0,.07,2.15,2.15,0,0,0,.16.64A4.36,4.36,0,0,0,65,92c.4.37,1.16.81,1.67.39a1.07,1.07,0,0,0,.34-.73c.07-.35.15-.7.25-1s.18-.57.28-.85c.72,0,1.44-.09,2.16-.17a4.3,4.3,0,0,0,2.08-.86,13.13,13.13,0,0,0,1.57-1.31c.2.36.26.78.43,1.15l.16.37a.4.4,0,0,0,0,.27,3.55,3.55,0,0,1-.78,1.2,1.37,1.37,0,0,0-.25.23.87.87,0,0,0-.17.16l-.2.17c-.22.12-.49.17-.65.39l-.6.33h0c-.18,0-.28.16-.42.25s-.28.15-.43.22-.34.16-.24.4a.05.05,0,0,0,.06.06c.17.23.28.51.57.64h0a.84.84,0,0,0,.25.31,1.71,1.71,0,0,0,.78.37.46.46,0,0,0,.39.1l.13,0,.39-.05a1.64,1.64,0,0,0,.3-.14,12.71,12.71,0,0,0,1.69-.63.31.31,0,0,0,0,.1,13.21,13.21,0,0,1,.45,2.86c.11,1,.2,2,.25,3a27.67,27.67,0,0,1,0,2.88,1.92,1.92,0,0,0,0,1.14,1.46,1.46,0,0,0,.6.45c0,.1.06.2.18.24a3,3,0,0,0,1,1,1.13,1.13,0,0,0,.77,0,.14.14,0,0,0,.15,0,.18.18,0,0,0,.2-.08h0l.08-.13h0c.3-.26.16-.58.11-.88h0c0-.22.09-.44,0-.66h0a2.16,2.16,0,0,0,0-.84h0v-.15h0a1.24,1.24,0,0,0,0-.47h0l0-.12c-.11-.15.07-.34-.07-.48.14-.1.06-.25.07-.38,0-.29,0-.59,0-.88h0l-.06-.27a4.62,4.62,0,0,0-.15-.74v0h0c.09-.09.06-.18,0-.28a1.81,1.81,0,0,0-.1-.8l0-.28c-.11-.2,0-.43-.08-.64h0A7.31,7.31,0,0,0,78,95.66l0,0h0c0-.15,0-.31,0-.47h0l-.09-.24a.7.7,0,0,0-.07-.43.84.84,0,0,0,0-.35c0-.26-.07-.52-.12-.78,0,0,0,0,0-.07a7.5,7.5,0,0,0-.29-1.13v0l-.06-.28a.31.31,0,0,0,0-.2h0a8.59,8.59,0,0,1,2.32-3.27h0a.71.71,0,0,0,.54-.54.75.75,0,0,0-.33-.8,6.39,6.39,0,0,0-1.06-.49c-.29.12-.57,0-.86-.05h0a.45.45,0,0,0-.45,0h0c-.33-.06-.39,0-.65.42v0c-.06,0-.13.09-.18.14a4.59,4.59,0,0,0-.36.41l-.08.1h0l0,0c-.31-.75-.63-1.49-1-2.24,0-.07.11-.14.15-.21.36-.55.7-1.11,1-1.67a2.15,2.15,0,0,0,.46-.73c.41-.66.86-1.32,1.21-2A.84.84,0,0,0,78,80.6.29.29,0,0,0,78.11,80.4Z"/></g><path d="M78.16,96.74c-7.07,3.64-13.63,2.57-16.32-2.66-2.78-5.4-.85-14.34,5.81-17.77s15.06.2,17.84,5.6C88.18,87.14,85.24,93.09,78.16,96.74ZM68.3,77.56c-6,3.07-7.7,11-5.21,15.88,2.84,5.53,9.55,4.56,14.43,2s9.57-7.41,6.72-12.94C81.76,77.72,74.25,74.49,68.3,77.56Z"/><path class="cls-10" d="M60.75,48.41c1.1,2.13-.66,5.21-3.91,6.89s-6.78,1.31-7.88-.82l5.89-3Z"/><path d="M57.16,55.92c-3.66,1.88-7.53,1.39-8.82-1.12a.69.69,0,0,1,.3-.94l11.79-6.07a.7.7,0,0,1,.94.3C62.67,50.6,60.81,54,57.16,55.92ZM50,54.73c1.24,1.21,4,1.24,6.51,0s4.09-3.55,3.82-5.27Z"/><polygon points="37.07 28.31 36.37 26.97 36.38 26.97 37.07 28.31"/><polygon points="37.07 28.31 36.37 26.97 36.38 26.97 37.07 28.31"/><g class="cls-17"><path class="cls-7" d="M88,30.3c-1.22.65-5.12,1.93-4.56,3.88.3,1.07,1.67,1.61,2.62,1.9a25.39,25.39,0,0,0,3,.67"/><path d="M89,37.44a24.85,24.85,0,0,1-3.1-.69c-.65-.2-2.64-.81-3.09-2.38-.62-2.18,2.33-3.51,4.09-4.3.33-.15.62-.28.82-.39l.66,1.24c-.24.13-.55.26-.91.43-1.17.52-3.6,1.62-3.31,2.64.16.55.88,1,2.15,1.42a23.75,23.75,0,0,0,2.92.65Z"/><path class="cls-7" d="M19.57,67.34a23.15,23.15,0,0,0,3.29,3.35,13.23,13.23,0,0,0,4.9,2.49c1.27.37,2.9.38,3.93,1.29C34.55,77,27.42,80,25.49,79.8"/><path d="M29.9,79.22a10.11,10.11,0,0,1-4.47,1.28l.12-1.4c1.29.11,5.37-1.49,6-3.06.11-.26.15-.59-.36-1a5.21,5.21,0,0,0-2.41-.87c-.41-.08-.85-.16-1.25-.28a13.71,13.71,0,0,1-5.16-2.62A23.54,23.54,0,0,1,19,67.77l1.09-.87a24,24,0,0,0,3.2,3.26A12.47,12.47,0,0,0,28,72.51c.34.1.72.17,1.13.25A6.18,6.18,0,0,1,32.16,74a2.19,2.19,0,0,1,.72,2.64A6.31,6.31,0,0,1,29.9,79.22Z"/></g><path d="M91.74,105.81a6.24,6.24,0,0,1-3.94.65c-5-.82-5-4.33-5-6.42,0-.61,0-1.52-.19-1.64s-.62-.24-3.09,1-2.63,1.82-2.63,1.92.73.75,1.22,1.1c1.72,1.2,4.58,3.22,2.34,7.77a6.57,6.57,0,0,1-4.17,3.38c-4.73,1.45-12.6-.45-20.53-5a54.53,54.53,0,0,1-14-10.88C41,97,40.3,96.14,39.59,95.33s-1.21-1.39-1.82-2.09a6.79,6.79,0,0,1-5.52,4.24c-4.09.5-10.09-2.79-13-4.81-4.38-3-6.65-6.41-6.77-10-.09-3.05,1.57-6.36,5.5-6.88,2.4-.32,4.64,1.16,6.64,2.54a45.34,45.34,0,0,0-2.29-8.08A40.42,40.42,0,0,1,20.18,63a36.14,36.14,0,0,1,.29-16C23.59,35.11,33.23,28,40.78,24.1s19-7.59,30.47-3.19a35.91,35.91,0,0,1,13.15,9,39.33,39.33,0,0,1,4.14,5.18c0-.59.09-1.19.13-1.79s.07-1.38.1-2.06a25.29,25.29,0,0,1,1.13-7.79c1-2.7,3.18-5.44,6.44-5.06,4.24.5,6.9,4.18,7.7,10.63.77,6.26-.51,12.52-1.89,18.4-.5,2.15-1.08,4.39-1.76,6.84-.31,1.1-.63,2.24-1,3.49-.07.23-.19.54-.34.9a6.85,6.85,0,0,0-.57,1.84c.33,1.34.65,2.68,1,4,.24,1,.48,2.12.71,3.18a54.43,54.43,0,0,1,.71,17.74C99.92,94.51,96.9,102,93,105A7.81,7.81,0,0,1,91.74,105.81ZM78.91,98.18c2.34-1.2,3.64-1.49,4.47-1s.86,1.65.85,2.84c0,2.16,0,4.4,3.79,5a5.19,5.19,0,0,0,4.09-1.16c3.58-2.74,6.47-10,7.36-18.61A53.13,53.13,0,0,0,98.78,68c-.22-1-.46-2.12-.71-3.16-.31-1.31-.63-2.65-1-4a5.24,5.24,0,0,1,.64-2.7c.13-.31.25-.6.3-.77.36-1.24.68-2.37,1-3.46.67-2.44,1.24-4.66,1.74-6.79,1.35-5.76,2.61-11.88,1.86-17.91-.49-4-2-8.88-6.46-9.41-2.45-.28-4.17,2-5,4.14a24.64,24.64,0,0,0-1,7.37c0,.69,0,1.4-.1,2.1-.08,1.31-.19,2.61-.34,3.85a.69.69,0,0,1-.54.61.7.7,0,0,1-.75-.32,39,39,0,0,0-5.06-6.66,34.54,34.54,0,0,0-12.63-8.68c-11-4.22-22-.63-29.33,3.13S24.81,36,21.83,47.4a34.51,34.51,0,0,0-.27,15.32,38.73,38.73,0,0,0,2.09,7c1.94,5.35,2.45,8.38,2.54,10a.7.7,0,0,1-1.09.62l-1-.68c-1.95-1.36-4-2.77-5.94-2.51-3.28.43-4.36,3.2-4.29,5.44.1,3.12,2.18,6.11,6.17,8.89,3.56,2.47,8.84,5,12,4.57a5.27,5.27,0,0,0,4.61-4.21.7.7,0,0,1,1.21-.63c.92,1.06,1.83,2.12,2.74,3.15.71.81,1.43,1.62,2.16,2.41a52.71,52.71,0,0,0,13.68,10.61c7.49,4.26,15.11,6.16,19.42,4.84a5.2,5.2,0,0,0,3.32-2.66c1.71-3.47-.12-4.76-1.89-6-1-.69-1.88-1.33-1.81-2.35S76.57,99.39,78.91,98.18Z"/><g class="cls-18"><ellipse class="cls-19" cx="79.72" cy="43.15" rx="8.84" ry="9.05" transform="translate(-10.91 41.26) rotate(-27.23)"/><ellipse class="cls-19" cx="33.93" cy="66.72" rx="8.84" ry="9.05" transform="translate(-26.77 22.92) rotate(-27.23)"/></g><path class="cls-20" d="M85.13,96.9s-7.09.65-10.82,5.75"/></g></g></svg>