<svg xmlns="http://www.w3.org/2000/svg" viewBox="0 0 47.04 47.04"><defs><style>.cls-1{fill:#a75255;}.cls-2{fill:#fff;stroke:#a75255;stroke-miterlimit:10;stroke-width:0.75px;}</style></defs><g id="레이어_2" data-name="레이어 2"><g id="Layer_1" data-name="Layer 1"><circle class="cls-1" cx="23.52" cy="23.52" r="23.52"/><path class="cls-2" d="M21.7,20.2l4,6.58a.65.65,0,0,0,.9.22l.23-.13a3.52,3.52,0,0,1,2.09-.51L32,31.41c0,1.6-3.36,2.8-3.36,2.8l-.35.16c-1.65.77-4.81-.53-9.79-8.74-4.41-7.28-3.75-10.13-2.31-11.23l.31-.23s2.28-1.79,4-1.69l3.06,5.06a3.47,3.47,0,0,1-1.42,1.62l-.22.14A.65.65,0,0,0,21.7,20.2Z"/></g></g></svg>