<svg xmlns="http://www.w3.org/2000/svg" viewBox="0 0 15.24 14.94"><defs><style>.cls-1{fill:#81837c;}</style></defs><g id="레이어_2" data-name="레이어 2"><g id="Layer_1" data-name="Layer 1"><path class="cls-1" d="M10.72,4.73h-.28V8a.53.53,0,0,1-.73.51A.47.47,0,0,1,9.37,8c0-1.17,0-2.33,0-3.49a1.37,1.37,0,0,1,1.41-1.38h3a1.35,1.35,0,0,1,1.45,1.28,3.11,3.11,0,0,1,0,.43V8a.52.52,0,0,1-.7.52A.5.5,0,0,1,14.17,8c0-1,0-2.06,0-3.08V4.74H13.9v4.5h-.28v4.59a1.1,1.1,0,0,1,0,.26.52.52,0,0,1-.53.37.5.5,0,0,1-.5-.41,1.79,1.79,0,0,1,0-.23V9.25h-.49v.17c0,1.48,0,2.95,0,4.42a.92.92,0,0,1,0,.29.53.53,0,0,1-.55.34A.51.51,0,0,1,11,14V9.25h-.27Z"/><path class="cls-1" d="M2.53,4.3H2.24a.2.2,0,0,0-.09.11c-.24.81-.47,1.62-.7,2.43-.14.46-.27.92-.41,1.39a.51.51,0,0,1-.74.33A.5.5,0,0,1,0,8c.29-1,.59-2,.88-3,.12-.4.23-.8.35-1.2a.51.51,0,0,1,.56-.42H5.06a.51.51,0,0,1,.53.39L6.82,7.93a.53.53,0,1,1-1,.28c-.37-1.27-.73-2.53-1.1-3.79l0-.12H4.31L5.65,9.43H4.74v4.46a.5.5,0,0,1-.48.57A.5.5,0,0,1,3.68,14V9.44H3.17v4.48a.52.52,0,0,1-.7.52.48.48,0,0,1-.36-.5V9.43H1.2Z"/><path class="cls-1" d="M7.43,0h1V14.94h-1Z"/><path class="cls-1" d="M13.67,1.38A1.37,1.37,0,1,1,12.31,0,1.37,1.37,0,0,1,13.67,1.38Z"/><path class="cls-1" d="M3.42.18A1.36,1.36,0,1,1,2.06,1.55,1.36,1.36,0,0,1,3.42.18Z"/></g></g></svg>