<svg xmlns="http://www.w3.org/2000/svg" viewBox="0 0 12.48 17.17"><defs><style>.cls-1{fill:#81837c;stroke:#81827c;stroke-miterlimit:10;stroke-width:0.57px;}</style></defs><g id="레이어_2" data-name="레이어 2"><g id="Layer_1" data-name="Layer 1"><path class="cls-1" d="M11,8.31h.32a.65.65,0,0,1,.64.35,1.57,1.57,0,0,1,0,1.67.67.67,0,0,1-.64.36H11v.18c0,1.76,0,3.52,0,5.29a.7.7,0,0,1-.68.72c-.43,0-.87,0-1.3,0a.66.66,0,0,1-.66-.72V15H4.12V16.2a.65.65,0,0,1-.61.67c-.48,0-.95,0-1.43,0a.64.64,0,0,1-.6-.68v-5.5H1.17a.66.66,0,0,1-.65-.36,1.62,1.62,0,0,1,0-1.66.68.68,0,0,1,.66-.36h.31V8.12c0-2.1,0-4.19,0-6.29A1.55,1.55,0,0,1,2.9.3l.31,0H9.3a1.82,1.82,0,0,1,1.2.41A1.4,1.4,0,0,1,11,1.77V8.31Zm-.37,0c0-.05,0-.08,0-.12q0-3.21,0-6.43a1,1,0,0,0-.39-.8,1.46,1.46,0,0,0-1-.3h-6l-.32,0A1.19,1.19,0,0,0,1.84,1.83c0,2.1,0,4.2,0,6.31V8.3Zm-4.39,2h5a.43.43,0,0,0,.45-.28,1.35,1.35,0,0,0,0-1.08.44.44,0,0,0-.44-.29H1.21A.45.45,0,0,0,.77,9a1.31,1.31,0,0,0-.07.87c.09.4.22.5.62.5Zm2.5.37v.11c0,1.79,0,3.59,0,5.38,0,.22.11.33.34.33h1.21c.24,0,.35-.12.35-.37V10.85s0-.1,0-.16Zm-6.89,0v5.44c0,.28.1.38.38.39H3.37c.28,0,.38-.11.38-.39V10.86c0-.06,0-.11,0-.17Zm2.28,0V12.9H8.35V10.69Zm4.23,2.6H4.13v1.27H8.36Z"/><path class="cls-1" d="M6.23,3.15A5.3,5.3,0,0,1,7,2.8,1.36,1.36,0,0,1,8.61,4.24a2.39,2.39,0,0,1-1,1.66,12.74,12.74,0,0,1-1.23.77.24.24,0,0,1-.2,0A4.67,4.67,0,0,1,4.29,5.27,1.77,1.77,0,0,1,3.89,4a1.33,1.33,0,0,1,.85-1.12,1.3,1.3,0,0,1,1.37.25l.12.1h0Zm-2,.94a1.69,1.69,0,0,0,.4,1A4.36,4.36,0,0,0,6.18,6.29a.22.22,0,0,0,.16,0c.28-.17.58-.33.85-.53a2.6,2.6,0,0,0,.92-1,1.26,1.26,0,0,0,.1-.83A1,1,0,0,0,6.5,3.46c-.26.27-.26.27-.53,0A1,1,0,0,0,4.85,3.2,1,1,0,0,0,4.24,4.09Z"/></g></g></svg>