<svg xmlns="http://www.w3.org/2000/svg" viewBox="0 0 15.08 15.07"><defs><style>.cls-1{fill:#81837c;}</style></defs><g id="레이어_2" data-name="레이어 2"><g id="Layer_1" data-name="Layer 1"><path class="cls-1" d="M0,7.54a7.54,7.54,0,1,1,7.56,7.53A7.52,7.52,0,0,1,0,7.54ZM4.31,3.78V7.07l-.42-.28a.21.21,0,0,1-.12-.22V3.78H2.71s0,0,0,0V7A.55.55,0,0,0,3,7.47l1.22.8a.28.28,0,0,1,.13.25c0,1.23,0,2.45,0,3.68v.17H5.39V8.52a.27.27,0,0,1,.12-.25l1.2-.79A.61.61,0,0,0,7,6.93V3.78H5.93v2.8s0,.13,0,.15-.32.22-.51.35V3.78Zm6.3,8.59V8.64a.16.16,0,0,1,.11-.18A1.82,1.82,0,0,0,11.4,8a2.84,2.84,0,0,0,.66-2,2.82,2.82,0,0,0-.57-1.63A1.74,1.74,0,0,0,10,3.51a1.7,1.7,0,0,0-1.37.75,2.91,2.91,0,0,0-.42,2.8A2.2,2.2,0,0,0,9.38,8.44a.24.24,0,0,1,.16.27v3.5s0,.11,0,.16Z"/><path class="cls-1" d="M11,6.06a1.86,1.86,0,0,1-.36,1.16.65.65,0,0,1-1.12,0,1.88,1.88,0,0,1-.34-1.38,1.59,1.59,0,0,1,.47-1.06.58.58,0,0,1,.87,0A1.62,1.62,0,0,1,11,5.83,1.69,1.69,0,0,1,11,6.06Z"/></g></g></svg>