<svg xmlns="http://www.w3.org/2000/svg" viewBox="0 0 14 13.66"><defs><style>.cls-1{fill:#81837c;}</style></defs><g id="레이어_2" data-name="레이어 2"><g id="Layer_1" data-name="Layer 1"><g id="g4011"><polygon class="cls-1" points="2.58 10.35 12.7 10.35 14 3.96 4.04 2.81 3.83 4.63 11.81 5.55 11.2 8.52 4.09 8.52 2.49 0.2 0.16 0 0 1.82 0.95 1.91 2.58 10.35"/><path id="path4007" class="cls-1" d="M9.41,12.1a1.56,1.56,0,0,0,3.11,0v0a1.56,1.56,0,0,0-3.11,0Z"/><path id="path4009" class="cls-1" d="M2.9,12.1a1.55,1.55,0,0,0,3.1,0v0a1.55,1.55,0,1,0-3.1,0Z"/></g></g></g></svg>