<svg xmlns="http://www.w3.org/2000/svg" viewBox="0 0 13.74 13.74"><defs><style>.cls-1{fill:#81837c;}</style></defs><g id="레이어_2" data-name="레이어 2"><g id="Layer_1" data-name="Layer 1"><path class="cls-1" d="M6.87,13.74a6.87,6.87,0,1,1,6.87-6.88A6.88,6.88,0,0,1,6.87,13.74Zm0-1.38a5.49,5.49,0,1,0-5.5-5.43A5.48,5.48,0,0,0,6.88,12.36Z"/><path class="cls-1" d="M5.83,7.82v2.82H4.29V3.09H7.73a2.37,2.37,0,0,1,.43,4.7,4.19,4.19,0,0,1-.5,0Zm0-1.55c.68,0,1.35,0,2,0a.79.79,0,0,0,.73-.76.82.82,0,0,0-.86-.87H5.84Z"/></g></g></svg>