<svg xmlns="http://www.w3.org/2000/svg" viewBox="0 0 17.51 16.61"><defs><style>.cls-1{fill:#81837c;}</style></defs><g id="레이어_2" data-name="레이어 2"><g id="Layer_1" data-name="Layer 1"><path class="cls-1" d="M15.37,9.14l.11.09a1.09,1.09,0,0,1,.45.87c0,.8,0,1.61,0,2.41a1,1,0,0,1-.62,1L9,16.5a1.07,1.07,0,0,1-1,0l-5.82-3a1,1,0,0,1-.6-1V10.12a1.13,1.13,0,0,1,.55-1L2,9.05.63,8.3A1.13,1.13,0,0,1,.32,6.5c.42-.46.85-.92,1.27-1.39v0L1.49,5,.41,3.89A1.13,1.13,0,0,1,.79,2L5.48.09a1.13,1.13,0,0,1,.95,0L8.65,1.19a.33.33,0,0,0,.22,0c.7-.33,1.4-.67,2.1-1a1.23,1.23,0,0,1,1.09,0L16.7,2a1.13,1.13,0,0,1,.38,1.93L16,5l-.12.13L17,6.26c.09.1.19.2.27.3a1.12,1.12,0,0,1-.31,1.71c-.46.27-.93.52-1.4.78ZM6.19,11.87,6,11.78,2.9,10c-.22-.13-.42-.05-.41.23,0,.74,0,1.47,0,2.21a.32.32,0,0,0,.2.32q2.82,1.44,5.62,2.9a.43.43,0,0,0,.44,0l2.31-1.1,3.76-1.8a.28.28,0,0,0,.2-.32c0-.1,0-.21,0-.31V10.17c0-.25-.15-.34-.37-.22l-.07,0-3.1,1.79-.15.08-.13-.11L9,9.64c-.2-.2-.28-.2-.49,0l-.28.27Zm-3-6.82L3.34,5,8.26,2.49c.1-.05.2-.1.21-.24s-.11-.2-.22-.25c-.72-.34-1.43-.7-2.16-1a.42.42,0,0,0-.33,0L1.17,2.81c-.27.12-.3.26-.09.47l1.61,1.6a1.49,1.49,0,0,0,.2.15l-.1.11L1,7.06c-.19.21-.17.34.07.47L6,10.24c.21.12.26.11.42-.07L8.33,8.09c.21-.24.19-.35-.1-.5L3.82,5.38Zm11.47,0,.15-.13,1.62-1.59c.24-.23.21-.37-.1-.5l-.54-.22L11.73,1a.42.42,0,0,0-.29,0c-.76.36-1.5.73-2.25,1.1a.22.22,0,0,0,0,.42l.1,0L14.17,5l.17.09-.16.08L9.25,7.61c-.24.12-.27.25-.09.45l1.95,2.14a.27.27,0,0,0,.37.06l5-2.74c.2-.12.22-.26.06-.43l-.74-.81ZM5.19,5l.11.07L8.66,6.79a.28.28,0,0,0,.22,0l3.3-1.65.14-.08-.05,0L8.84,3.3a.28.28,0,0,0-.2,0c-.41.19-.81.4-1.22.6Z"/></g></g></svg>