<svg xmlns="http://www.w3.org/2000/svg" viewBox="0 0 26.74 34.38"><defs><style>.cls-1{fill:#00913a;}.cls-1,.cls-2,.cls-3,.cls-4,.cls-5,.cls-6{stroke:#231815;stroke-miterlimit:10;}.cls-1,.cls-2,.cls-3,.cls-4{stroke-width:0.63px;}.cls-2{fill:#2ea7e0;}.cls-3,.cls-6{fill:#c30d23;}.cls-4,.cls-5{fill:#faee00;}.cls-5{stroke-width:0.55px;}.cls-6{stroke-width:0.38px;}</style></defs><g id="레이어_2" data-name="레이어 2"><g id="Layer_1" data-name="Layer 1"><path class="cls-1" d="M21.11,8.35.71,25.93V12.57A4.22,4.22,0,0,1,4.93,8.35Z"/><path class="cls-2" d="M26.43,12.62V29.86a3.08,3.08,0,0,1-.05.61l-8.8-10.22Z"/><path class="cls-2" d="M20.62,34.07H4.93a4.24,4.24,0,0,1-2.47-.8l10-8.64Z"/><path class="cls-3" d="M26.43,12.62l-8.85,7.63,8.8,10.22a4.2,4.2,0,0,1-4.16,3.6h-1.6l-8.13-9.44-10,8.64A4.18,4.18,0,0,1,.71,29.86V25.93L21.11,8.35h1.11a4.22,4.22,0,0,1,4.21,4.22Z"/><path class="cls-4" d="M26.43,12.57v0l-8.85,7.63-5.09,4.38-10,8.64A4.18,4.18,0,0,1,.71,29.86V25.93L21.11,8.35h1.11A4.22,4.22,0,0,1,26.43,12.57Z"/><path class="cls-5" d="M26.38,30.47a4.2,4.2,0,0,1-4.16,3.6h-1.6l-8.13-9.44-.09-.11,5.08-4.38.1.11Z"/><path class="cls-6" d="M7.54.19A7.35,7.35,0,0,0,.19,7.54,9.76,9.76,0,0,0,1.6,11.86L7.54,22.14l5.94-10.28a7.54,7.54,0,0,0,1.41-4.32A7.35,7.35,0,0,0,7.54.19ZM7.54,11a4.33,4.33,0,1,1,4.32-4.32A4.32,4.32,0,0,1,7.54,11Z"/></g></g></svg>