<svg xmlns="http://www.w3.org/2000/svg" viewBox="0 0 47.04 47.04"><defs><style>.cls-1{fill:#a75255;}.cls-2,.cls-4{fill:#fff;}.cls-3{fill:none;}.cls-3,.cls-4{stroke:#a75255;stroke-miterlimit:10;stroke-width:0.8px;}</style></defs><g id="레이어_2" data-name="레이어 2"><g id="Layer_1" data-name="Layer 1"><circle class="cls-1" cx="23.52" cy="23.52" r="23.52"/><path class="cls-2" d="M31.21,15.14H13.93a4.67,4.67,0,0,0-4.67,4.67v6.33a4.67,4.67,0,0,0,4.67,4.67H26.62l6,3.88-.39-4a4.66,4.66,0,0,0,3.62-4.54V19.81A4.68,4.68,0,0,0,31.21,15.14Z"/><circle class="cls-3" cx="15.47" cy="22.98" r="1.83"/><circle class="cls-3" cx="22.57" cy="22.98" r="1.83"/><circle class="cls-3" cx="29.67" cy="22.98" r="1.83"/><path class="cls-4" d="M37.37,12.6a1.65,1.65,0,0,0-2.22.51L27,22.92a1.51,1.51,0,0,0-.32.72l-.3,2.2,2.1-.71a1.35,1.35,0,0,0,.65-.45l8.12-9.8A1.64,1.64,0,0,0,37.37,12.6Z"/></g></g></svg>