<svg xmlns="http://www.w3.org/2000/svg" viewBox="0 0 47.04 47.04"><defs><style>.cls-1{fill:#a75255;}.cls-2,.cls-4{fill:#fff;}.cls-3{fill:none;}.cls-3,.cls-4{stroke:#a75255;stroke-miterlimit:10;stroke-width:0.65px;}</style></defs><g id="레이어_2" data-name="레이어 2"><g id="Layer_1" data-name="Layer 1"><circle class="cls-1" cx="23.52" cy="23.52" r="23.52"/><path class="cls-2" d="M29.79,16.69H15.7a3.8,3.8,0,0,0-3.81,3.81v5.15a3.8,3.8,0,0,0,3.81,3.81H26.05L31,32.63l-.32-3.27a3.81,3.81,0,0,0,3-3.71V20.5A3.8,3.8,0,0,0,29.79,16.69Z"/><circle class="cls-3" cx="16.95" cy="23.08" r="1.49"/><circle class="cls-3" cx="22.75" cy="23.08" r="1.49"/><circle class="cls-3" cx="28.54" cy="23.08" r="1.49"/><path class="cls-4" d="M34.81,14.62A1.33,1.33,0,0,0,33,15l-6.62,8a1.17,1.17,0,0,0-.26.59l-.24,1.79,1.71-.57a1.16,1.16,0,0,0,.53-.37l6.62-8A1.33,1.33,0,0,0,34.81,14.62Z"/></g></g></svg>