<svg xmlns="http://www.w3.org/2000/svg" viewBox="0 0 21.88 24"><defs><style>.cls-1{fill:#6f7071;}</style></defs><g id="레이어_2" data-name="레이어 2"><g id="레이어_1-2" data-name="레이어 1"><path class="cls-1" d="M10.11,9.56l2-1.27c.39-.25.79-.5,1.17-.77a.78.78,0,0,0,.35-.83.72.72,0,0,0-.56-.6.81.81,0,0,0-.72.12L10.24,7.52l-1.09.69a5.44,5.44,0,0,0-7.49,0,5.36,5.36,0,1,0,8.45,1.39Zm-4.7,6.07A3.63,3.63,0,1,1,9,12,3.62,3.62,0,0,1,5.41,15.63Z"/><path class="cls-1" d="M18.9,15.82A4,4,0,0,0,14.61,17a1.71,1.71,0,0,0-.11.14L14.27,17l-2.81-1.78a.87.87,0,0,0-.34-.15.82.82,0,0,0-.94.49.83.83,0,0,0,.32,1l3,2a.26.26,0,0,1,.14.34A4.64,4.64,0,0,0,13.51,20a4.18,4.18,0,1,0,8.32-.76A4,4,0,0,0,18.9,15.82Zm-1.21,6.5a2.51,2.51,0,1,1,2.51-2.5A2.48,2.48,0,0,1,17.69,22.32Z"/><path class="cls-1" d="M17.7,0a4.19,4.19,0,1,0,4.18,4.19A4.21,4.21,0,0,0,17.7,0Zm0,6.7A2.51,2.51,0,1,1,20.2,4.2,2.5,2.5,0,0,1,17.68,6.7Z"/></g></g></svg>