<svg width="40" height="39" viewBox="0 0 40 39" fill="none" xmlns="http://www.w3.org/2000/svg">
<line x1="1.5" y1="21.9783" x2="1.5" y2="36.9493" stroke="white" stroke-width="3" stroke-linecap="round"/>
<line x1="37.6426" y1="21.9783" x2="37.6426" y2="36.9493" stroke="white" stroke-width="3" stroke-linecap="round"/>
<line x1="1.5" y1="36.9493" x2="38.5" y2="36.9493" stroke="white" stroke-width="3" stroke-linecap="round"/>
<path d="M18.9393 28.3951C19.5251 28.9809 20.4749 28.9809 21.0607 28.3951L30.6066 18.8492C31.1924 18.2634 31.1924 17.3136 30.6066 16.7278C30.0208 16.1421 29.0711 16.1421 28.4853 16.7278L20 25.2131L11.5147 16.7278C10.9289 16.1421 9.97918 16.1421 9.3934 16.7278C8.80761 17.3136 8.80761 18.2634 9.3934 18.8492L18.9393 28.3951ZM21.5 1.94983C21.5 1.1214 20.8284 0.449828 20 0.449828C19.1716 0.449828 18.5 1.1214 18.5 1.94983L21.5 1.94983ZM20 27.3344L21.5 27.3344L21.5 1.94983L20 1.94983L18.5 1.94983L18.5 27.3344L20 27.3344Z" fill="white"/>
</svg>
