<svg xmlns="http://www.w3.org/2000/svg" xmlns:xlink="http://www.w3.org/1999/xlink" viewBox="0 0 164.79 125.27"><defs><style>.cls-1{fill:none;}.cls-2{fill:#4c3622;}.cls-3{fill:#6d5134;}.cls-4{fill:#a43029;}.cls-5{fill:#b18858;}.cls-6{fill:#c9c5bd;}.cls-7{fill:#916e47;}.cls-8{fill:url(#새_패턴_견본_13);}.cls-9{fill:url(#새_패턴_견본_10);}.cls-10{fill:url(#새_패턴_견본_8);}.cls-11{fill:url(#새_패턴_견본_3);}.cls-12{fill:url(#새_패턴_견본_4);}.cls-13{fill:#fff;}.cls-14{clip-path:url(#clip-path);}.cls-15{fill:#f7c5b6;}.cls-16{fill:url(#새_패턴_견본_3-3);}.cls-17{fill:#fde0af;}.cls-18{fill:url(#새_패턴_견본_7);}.cls-19{fill:#838684;}</style><pattern id="새_패턴_견본_13" data-name="새 패턴 견본 13" width="68" height="68" patternTransform="translate(156.21 116.22) scale(0.49)" patternUnits="userSpaceOnUse" viewBox="0 0 68 68"><rect class="cls-1" width="68" height="68"/><rect class="cls-3" width="68" height="68"/></pattern><pattern id="새_패턴_견본_10" data-name="새 패턴 견본 10" width="68" height="68" patternTransform="translate(156.21 116.22) scale(0.49)" patternUnits="userSpaceOnUse" viewBox="0 0 68 68"><rect class="cls-1" width="68" height="68"/><rect class="cls-2" width="68" height="68"/></pattern><pattern id="새_패턴_견본_8" data-name="새 패턴 견본 8" width="68" height="68" patternTransform="translate(102.54 169.88) scale(0.49)" patternUnits="userSpaceOnUse" viewBox="0 0 68 68"><rect class="cls-1" width="68" height="68"/><rect class="cls-7" width="68" height="68"/></pattern><pattern id="새_패턴_견본_3" data-name="새 패턴 견본 3" width="68" height="68" patternTransform="translate(129.37 143.05) scale(0.49)" patternUnits="userSpaceOnUse" viewBox="0 0 68 68"><rect class="cls-1" width="68" height="68"/><rect class="cls-4" width="68" height="68"/></pattern><pattern id="새_패턴_견본_4" data-name="새 패턴 견본 4" width="68" height="68" patternTransform="translate(129.37 143.05) scale(0.49)" patternUnits="userSpaceOnUse" viewBox="0 0 68 68"><rect class="cls-1" width="68" height="68"/><rect class="cls-5" width="68" height="68"/></pattern><clipPath id="clip-path"><ellipse class="cls-1" cx="94.03" cy="51.23" rx="30.12" ry="26.39" transform="translate(-11.66 34.06) rotate(-19.36)"/></clipPath><pattern id="새_패턴_견본_3-3" data-name="새 패턴 견본 3" width="68" height="68" patternTransform="translate(102.54 169.88) scale(0.49)" patternUnits="userSpaceOnUse" viewBox="0 0 68 68"><rect class="cls-1" width="68" height="68"/><rect class="cls-4" width="68" height="68"/></pattern><pattern id="새_패턴_견본_7" data-name="새 패턴 견본 7" width="68" height="68" patternTransform="translate(129.37 143.05) scale(0.49)" patternUnits="userSpaceOnUse" viewBox="0 0 68 68"><rect class="cls-1" width="68" height="68"/><rect class="cls-6" width="68" height="68"/></pattern></defs><g id="레이어_2" data-name="레이어 2"><g id="레이어_1-2" data-name="레이어 1"><path class="cls-8" d="M113.55,114.38h-.11l-7.8-.88a1,1,0,0,1-.86-1,.94.94,0,0,1,.31-.7l-3.5-.18a1,1,0,0,1-.93-1,1,1,0,0,1,.45-.84H99.45a1,1,0,0,1,0-2h22.11a1,1,0,0,1,1,.93,1,1,0,0,1-.89,1l-6.18.56,1.25.07a1,1,0,0,1,0,1.94l-2.59.26a1,1,0,0,1-.63,1.72Z"/><path class="cls-9" d="M93.46,109.27h-.08l-3.9-.44a.72.72,0,0,1-.65-.73.57.57,0,0,1,0-.13l-1.38-.07a.73.73,0,0,1-.69-.71.58.58,0,0,1,0-.19h-.38a.73.73,0,1,1,0-1.46h11a.73.73,0,0,1,.07,1.46l-1.89.17a.67.67,0,0,1,.11.37.72.72,0,0,1-.66.74l-.92.1a.69.69,0,0,1,0,.25A.73.73,0,0,1,93.46,109.27Z"/><path class="cls-10" d="M82,93.88s1.12,17.33,16.27,10.21c3-1.41,2.3-2.72,2.11-4.8-.33-3.54-2.59-2.89-2.59-2.89l.82-3.72Z"/><path d="M91.65,106.78A9.12,9.12,0,0,1,87,105.56c-5.37-3.17-6-11.27-6-11.62L81,93l18.88-1.37L99,95.49a2.58,2.58,0,0,1,.78.36,4.31,4.31,0,0,1,1.58,3.35c0,.27.06.53.09.77.23,1.71.46,3.49-2.76,5A16.67,16.67,0,0,1,91.65,106.78Zm-8.58-12c.31,2.09,1.41,7,4.91,9.1,2.48,1.46,5.79,1.23,9.85-.68,1.93-.9,1.86-1.43,1.66-3,0-.26-.07-.55-.1-.84a2.68,2.68,0,0,0-.73-1.9.84.84,0,0,0-.64-.14l-1.57.45.37-1.6.54-2.44Z"/><path d="M95.16,99.16a1,1,0,0,1-.51-1.8c1.46-.91,1.8-1.18,1.82-1.19a1,1,0,0,1,1.23,1.52c-.06,0-.45.34-2,1.32A1,1,0,0,1,95.16,99.16Z"/><path class="cls-11" d="M53,38S50.35,48.47,24.22,51.23C8,53,1,52.76,1,52.76S.47,58.19,4.68,64.31s12.77,7.09,9,16.68,4.36,22.73,12.7,19,20.4-4,20.2,4S73.86,110,107.88,68.38"/><path d="M52.54,108.58a11,11,0,0,1-3.78-.57,4.25,4.25,0,0,1-3.12-4.1,4.36,4.36,0,0,0-2-4c-3.34-2.22-10.57-1.79-16.82,1-3.29,1.47-6.88.69-9.86-2.14-4-3.77-6.76-11.4-4.15-18.1,2.29-5.88-.33-8-4-10.88a23.93,23.93,0,0,1-5-4.89C-.49,58.52,0,52.9,0,52.67a1,1,0,0,1,1-.88c.07,0,7.13.16,23.1-1.53,24.94-2.64,27.9-12.4,27.93-12.5a1,1,0,0,1,1.19-.69,1,1,0,0,1,.7,1.18c-.11.46-3.12,11.15-29.61,14C11.42,53.57,4.4,53.73,2,53.74a19.14,19.14,0,0,0,3.53,10,21.79,21.79,0,0,0,4.58,4.47c3.62,2.9,7.37,5.9,4.56,13.11-2.22,5.71.13,12.61,3.68,16,1.39,1.32,4.25,3.31,7.71,1.77,5.94-2.66,14.27-3.81,18.7-.85A6.32,6.32,0,0,1,47.59,104c0,1,.6,1.75,1.85,2.22,6.58,2.44,29.33-3.73,57.68-38.41A1,1,0,1,1,108.63,69c-15.57,19-28.88,28.68-37.31,33.41C63.2,107,56.81,108.58,52.54,108.58Z"/><path class="cls-12" d="M154.92,29c-4-.88-8.09-.88-12.07-1.26-9.73-.95-13.57.33-20-6a42.15,42.15,0,0,0-5.7-6.39A34.69,34.69,0,0,0,91.17,6.65,50.45,50.45,0,0,0,82.53,8c-10.26,2.51-20,8-25.16,17.57A45.94,45.94,0,0,0,52.48,41h0A73.84,73.84,0,0,0,52.61,60c.36,3,.84,6,1.4,8.94a303.23,303.23,0,0,0,8,33.53c1.39,4.49,2.35,9.23,4.31,13.58,2.58,5.73,10.44,11.82,16.25,5.83,4.31-4.44,3.6-12.66,1.82-18.44-1.81-5.93-2-16.47,3.25-17.67l1,2.08c3.57.49,7.14,1.51,9.63,4.28,3.2,3.55,4.31,8.06,6.07,12.35.52,1.27,1.14,2.83,2.36,3.58a5,5,0,0,0,2.83.54,8.78,8.78,0,0,0,3.47-.43,7.4,7.4,0,0,0,2.4-2.26,32.43,32.43,0,0,0,2.8-4.49,62.89,62.89,0,0,0,2.74-5.74c2.08-5,4.65-9.63,6.36-14.79a92.07,92.07,0,0,0,3.75-16A83.47,83.47,0,0,0,131.87,48a34.7,34.7,0,0,1,4.29-1,54.29,54.29,0,0,1,8.44-.78c2.45-.09,4.91.11,7.34,0,3.93-.19,8.29-1.26,10.62-4.7C166.56,35.65,160.14,30.14,154.92,29Z"/><ellipse class="cls-13" cx="94.03" cy="51.23" rx="30.12" ry="26.39" transform="translate(-11.66 34.06) rotate(-19.36)"/><g class="cls-14"><circle class="cls-15" cx="123.28" cy="46.57" r="10.03"/><circle class="cls-15" cx="68.21" cy="65.91" r="10.03"/></g><ellipse cx="82.79" cy="52.48" rx="3.62" ry="4.17" transform="translate(-12.71 30.41) rotate(-19.36)"/><circle class="cls-13" cx="83.61" cy="51.02" r="1.08"/><ellipse cx="103.16" cy="45.32" rx="3.62" ry="4.17" transform="translate(-9.19 36.75) rotate(-19.36)"/><circle class="cls-13" cx="103.98" cy="43.86" r="1.08"/><path class="cls-15" d="M102.58,53.49c.88,2.5-1.52,5.63-5.35,7s-7.66.41-8.54-2.1l6.94-2.43Z"/><path d="M93.73,62.06c-2.86,0-5.2-1.22-6-3.37a1,1,0,0,1,0-.75,1,1,0,0,1,.56-.5l13.88-4.87a1,1,0,0,1,.75,0,1,1,0,0,1,.5.55c1.07,3.06-1.54,6.67-6,8.22A11.59,11.59,0,0,1,93.73,62.06Zm-3.59-3.17c1.24,1.29,4,1.61,6.76.65s4.71-3,4.87-4.74Z"/><path class="cls-12" d="M81,94.5s23.16,3.73,36.81-7.5L90.63,84.58,83,84.22Z"/><path d="M100,95.31a1,1,0,0,1-1-.82,1,1,0,0,1,.81-1.12c7.17-1.14,13-3.54,17.38-7.13a1,1,0,0,1,1.24,1.51c-4.64,3.81-10.8,6.36-18.31,7.55Z"/><path d="M131.88,49a1,1,0,0,1-1-.86l0-.37c-.78-6.56-1.52-12.77-4.64-18.34a1,1,0,0,1,1.71-1c3.3,5.92,4.06,12.31,4.87,19.07l0,.36A1,1,0,0,1,132,49Z"/><path d="M83.25,95.75h0a1,1,0,0,1-1-1c.12-5.7,2-9.25,5.16-10a1,1,0,1,1,.43,1.9c-3.15.72-3.59,5.92-3.64,8.12A1,1,0,0,1,83.25,95.75Z"/><path class="cls-16" d="M60.15,58.67C58.75,61.11,55,60.61,52.61,60a73.84,73.84,0,0,1-.13-18.9c.4,1.17.67,2.39,1.18,3.53a25.39,25.39,0,0,0,2.56,4.11c1,1.48,2.2,2.89,3.13,4.42S61.15,57,60.15,58.67Z"/><path d="M56.16,61.46a14.8,14.8,0,0,1-3.81-.57,1,1,0,0,1-.71-.82,74.19,74.19,0,0,1-.12-19.16,1,1,0,0,1,.87-.84,1,1,0,0,1,1,.66c.14.42.26.84.39,1.26a17.59,17.59,0,0,0,.75,2.19,21,21,0,0,0,2.14,3.48l.33.47c.38.55.79,1.11,1.2,1.65.67.9,1.37,1.83,2,2.82.71,1.17,2.21,4.14.81,6.55C60.12,60.68,58.45,61.46,56.16,61.46ZM53.5,59.17c2,.45,4.81.75,5.81-1h0c.9-1.55-.38-3.89-.79-4.57-.55-.9-1.22-1.8-1.87-2.67-.41-.55-.83-1.12-1.24-1.69l-.32-.47A25.88,25.88,0,0,1,53,45.51,78.65,78.65,0,0,0,53.5,59.17Z"/><path class="cls-17" d="M111.53,86.89c.22,1.84-4,3.79-9.45,5S92.17,93.05,92,91.21s3.91-4.8,9.32-6S111.3,85.05,111.53,86.89Z"/><path class="cls-12" d="M102.09,92.11h0a1.52,1.52,0,0,0,.24-.4s0,0,0,0h0l.13-.16h0l0-.09c.09,0,.07-.1.08-.15a.24.24,0,0,0,.09-.12c.06-.09.12-.18.17-.27s0,0,0,0a1.67,1.67,0,0,0,.16-.4h0l0-.1a.13.13,0,0,0,0-.07h0a14.06,14.06,0,0,1,2.7-1.18h0a1.26,1.26,0,0,0,.56-.2c.15-.1.15-.22,0-.28a4.34,4.34,0,0,0-.6-.16,2.9,2.9,0,0,1-.59,0h0a.57.57,0,0,0-.32,0h0a.91.91,0,0,0-.6.15h0l-.18.05-.38.15-.09,0h0l-.06,0c0-.26,0-.52,0-.78l.17-.08,1.27-.6a4.38,4.38,0,0,0,.57-.26c.5-.24,1-.48,1.5-.73a.26.26,0,0,0,.09,0l.12-.07c.4-.27.21-.42-.17-.5l0,0H107a7.64,7.64,0,0,0-.8-.07.5.5,0,0,0-.21,0,.16.16,0,0,0-.07,0,1.12,1.12,0,0,0-.38.2h0l-.09.07h0l-.23.12c-.71.34-1.46.67-2.23,1l-.27,0-.34,0h0s-.12,0-.22,0L102,87l-.25,0a.43.43,0,0,0-.19,0,.53.53,0,0,0-.24.06l0,0c-.13.06-.2.15-.14.2l.38.39-1.13.44-.85.32a2.72,2.72,0,0,1-.54.15h0a.28.28,0,0,0,.11-.11c.12,0,.15-.09.17-.14a.22.22,0,0,0,0-.08c0-.08,0-.16-.11-.23a3.13,3.13,0,0,0-1.27-.21.76.76,0,0,0-.38.08l-.12,0a.61.61,0,0,0-.23.1c-.64.49-1.63.91-2.39,1.37a2,2,0,0,0-.46.35s-.06,0-.07.06,0,0,0,0a.54.54,0,0,0-.1.22.61.61,0,0,0,.24.51,1.33,1.33,0,0,0,1.53-.14l.52-.37c.15-.11.31-.21.47-.31.52,0,1,0,1.59-.08a7.83,7.83,0,0,0,1.74-.33q.8-.21,1.53-.48c0,.13-.06.27-.06.4v.13c-.06,0-.06.07-.06.1a6,6,0,0,1-.95.43,1.25,1.25,0,0,0-.25.09l-.17,0-.19.06a3.92,3.92,0,0,0-.59.15l-.53.12h0a1.78,1.78,0,0,0-.38.1l-.38.08c-.11,0-.29.06-.29.14s0,0,0,0,0,.18.2.22h0s0,.08.07.11a1,1,0,0,0,.44.12.34.34,0,0,0,.24,0H99l.28,0,.26,0c.47-.07.93-.15,1.4-.24l0,0a3.88,3.88,0,0,1-.6,1c-.18.25-.37.51-.57.76l2.37-.52S102.09,92.13,102.09,92.11Z"/><path class="cls-11" d="M126.07,27a13,13,0,0,0,1.87-1.42,19.89,19.89,0,0,1-5.13-3.78,41.41,41.41,0,0,0-4.07-4.81h0Z"/><path class="cls-16" d="M127.94,25.53a6.71,6.71,0,0,1-1.13-.61c-2.16-1.29-3.67-3.3-5.36-5.11-.77-.82-1.53-1.64-2.3-2.45l-.41-.42c.06.27.13.54.19.81.43,1.75.7,3.57,1.22,5.28s1.69,3.89,3.63,4.29a3.4,3.4,0,0,0,2.29-.37A13,13,0,0,0,127.94,25.53Z"/><path d="M124.43,28.36a4,4,0,0,1-.84-.09c-2.74-.56-4-3.65-4.37-5-.34-1.11-.58-2.26-.81-3.37-.13-.65-.27-1.32-.43-2l-.19-.81a1,1,0,0,1,1.63-.93l.43.44c.71.74,1.4,1.49,2.1,2.23l.21.23c.37.39.72.79,1.08,1.19a18,18,0,0,0,4.07,3.75l.11.07c.42.26.63.37.72.42a.92.92,0,0,1,.52.3,1,1,0,0,1,0,1.37h0a14,14,0,0,1-2,1.53l-.06,0A4.54,4.54,0,0,1,124.43,28.36Zm-4-8.19c.19.87.38,1.75.64,2.57S122.22,26,124,26.36a2.35,2.35,0,0,0,1.6-.26c.22-.13.42-.27.62-.41a20.44,20.44,0,0,1-4.42-4.06c-.35-.39-.69-.78-1-1.16l-.22-.23Zm6.83,4.64Zm0,0Zm0,0Zm0,0Zm0,0Zm0,0h0Zm0,0Zm0,0Z"/><path d="M77.14,125.27a8.41,8.41,0,0,1-1.49-.13c-4.69-.83-8.59-5.11-10.22-8.74a65.1,65.1,0,0,1-3.15-9.52c-.38-1.38-.78-2.8-1.2-4.17a301.92,301.92,0,0,1-8-33.64c-.61-3.23-1.07-6.17-1.41-9A74.37,74.37,0,0,1,51.51,41s0,0,0-.05a46.49,46.49,0,0,1,5-15.78c6-11.18,17.32-16,25.79-18.06a50.59,50.59,0,0,1,8.81-1.38,35.56,35.56,0,0,1,26.65,9,43.21,43.21,0,0,1,5.79,6.48c4.87,4.71,8,4.88,14.11,5.24,1.55.09,3.3.19,5.29.39,1.21.11,2.47.2,3.69.28a54.88,54.88,0,0,1,8.49,1c3.35.75,7.63,3.29,9.14,7.11a7.19,7.19,0,0,1-.9,6.94c-2.14,3.14-6,4.87-11.38,5.13-1.31.06-2.64,0-3.93,0-1.13,0-2.29-.05-3.42,0a54,54,0,0,0-8.29.77l-.74.14c-.81.15-1.78.33-2.72.58A85.11,85.11,0,0,1,132,65a92.81,92.81,0,0,1-3.8,16.15,85.75,85.75,0,0,1-4,9.5c-.81,1.74-1.65,3.55-2.41,5.36s-1.74,3.88-2.78,5.83a34,34,0,0,1-2.89,4.61,8.33,8.33,0,0,1-2.72,2.54,7.16,7.16,0,0,1-3.16.52l-.72,0a5.85,5.85,0,0,1-3.38-.69c-1.47-.89-2.16-2.59-2.72-4l0-.09c-.41-1-.79-2-1.16-3a35.28,35.28,0,0,0-3.13-6.94,1,1,0,0,1,1.65-1,38,38,0,0,1,3.31,7.31c.36,1,.74,2,1.13,2.94l0,.09a6.34,6.34,0,0,0,1.93,3,4.15,4.15,0,0,0,2.28.4c.25,0,.52,0,.79,0a5.78,5.78,0,0,0,2.29-.31,6.65,6.65,0,0,0,2-2,32.27,32.27,0,0,0,2.72-4.36c1-1.88,1.92-3.79,2.7-5.65s1.62-3.68,2.44-5.44a86.91,86.91,0,0,0,3.89-9.29,91.53,91.53,0,0,0,3.72-15.8A82.71,82.71,0,0,0,130.9,48a1,1,0,0,1,.67-1,26.77,26.77,0,0,1,3.68-.87l.72-.14a55.15,55.15,0,0,1,8.6-.8c1.18,0,2.38,0,3.53,0s2.55.05,3.8,0c4.77-.23,8.08-1.67,9.86-4.28a5.26,5.26,0,0,0,.7-5.12c-1.2-3-4.81-5.27-7.75-5.93a55.09,55.09,0,0,0-8.2-1c-1.23-.08-2.51-.16-3.75-.28-1.95-.19-3.68-.29-5.21-.38-6.24-.36-10-.58-15.42-5.85l-.11-.12a41.17,41.17,0,0,0-5.57-6.25A33.66,33.66,0,0,0,91.24,7.62,48.9,48.9,0,0,0,82.76,9c-8.08,2-18.89,6.54-24.53,17.08a44.43,44.43,0,0,0-4.77,15.09s0,0,0,0a72.08,72.08,0,0,0,.13,18.65c.33,2.79.79,5.69,1.39,8.88a299.77,299.77,0,0,0,8,33.42c.44,1.4.83,2.84,1.22,4.24a63.94,63.94,0,0,0,3,9.23c1.47,3.28,5,7,8.78,7.62a6.34,6.34,0,0,0,5.88-2.07c3.89-4,3.37-11.66,1.59-17.47-1.49-4.88-1.85-12.19.42-16.12a5.47,5.47,0,0,1,3.55-2.79,1,1,0,1,1,.43,1.9,3.56,3.56,0,0,0-2.29,1.86c-1.92,3.34-1.64,10-.25,14.57,2,6.35,2.43,14.78-2,19.41A8.44,8.44,0,0,1,77.14,125.27Z"/><path class="cls-18" d="M103,14.05a2.51,2.51,0,0,0,1-1.44c.49-2-.26-4.11-.9-6s-1.54-4.08-3.41-5.21c-1.13-.68-2.94-.71-3.54.67a7.1,7.1,0,0,0-.46,1.74,20.3,20.3,0,0,1-3,8.68,1.86,1.86,0,0,0,1.16,2.89,14.19,14.19,0,0,0,6.35-.17A7.86,7.86,0,0,0,103,14.05Z"/><path d="M96.77,16.66a16.39,16.39,0,0,1-3.09-.29A2.85,2.85,0,0,1,91.89,12,19.32,19.32,0,0,0,94.68,3.7a7.74,7.74,0,0,1,.54-2A2.72,2.72,0,0,1,97,.16a4,4,0,0,1,3.2.44c2.09,1.25,3.08,3.49,3.84,5.72l0,.13c.67,2,1.42,4.18.88,6.39a3.57,3.57,0,0,1-1.31,2h0a8.83,8.83,0,0,1-3.13,1.36A14,14,0,0,1,96.77,16.66ZM98,2a1.39,1.39,0,0,0-.46.07.82.82,0,0,0-.54.47A6.16,6.16,0,0,0,96.61,4a21.3,21.3,0,0,1-3.11,9.1.91.91,0,0,0-.1.85.89.89,0,0,0,.64.52A13.13,13.13,0,0,0,100,14.3a7.21,7.21,0,0,0,2.44-1,1.61,1.61,0,0,0,.63-.9c.4-1.66-.26-3.6-.84-5.3l0-.13c-.6-1.75-1.37-3.7-3-4.68A2.27,2.27,0,0,0,98,2Z"/><path class="cls-18" d="M65,26.43A2.62,2.62,0,0,1,63.33,26C61.65,24.86,60.78,22.77,60,21s-1.57-4.07-.93-6.15c.38-1.27,1.71-2.49,3.08-1.87a6.5,6.5,0,0,1,1.5,1,20.32,20.32,0,0,0,8,4.49,1.85,1.85,0,0,1,1.06,2.92,14,14,0,0,1-4.84,4.12A7.87,7.87,0,0,1,65,26.43Z"/><path d="M64.79,27.42a3.48,3.48,0,0,1-2-.61c-1.88-1.28-2.8-3.44-3.62-5.35l0-.12c-.92-2.16-1.68-4.49-1-6.82a4.06,4.06,0,0,1,2.09-2.46,2.72,2.72,0,0,1,2.33,0,7.17,7.17,0,0,1,1.72,1.12,19.67,19.67,0,0,0,7.6,4.29,2.85,2.85,0,0,1,2,1.81,2.8,2.8,0,0,1-.41,2.65,15,15,0,0,1-5.18,4.4,8.87,8.87,0,0,1-3.24,1.08h-.29ZM61.4,13.75a.87.87,0,0,0-.37.09,2.13,2.13,0,0,0-1,1.25c-.56,1.82.17,3.79.9,5.49l.05.12c.71,1.66,1.51,3.54,2.92,4.5a1.63,1.63,0,0,0,1.07.26,7,7,0,0,0,2.5-.88,13,13,0,0,0,4.49-3.83.85.85,0,0,0,.13-.82.92.92,0,0,0-.64-.57A21.13,21.13,0,0,1,63,14.68a5.47,5.47,0,0,0-1.29-.85A.85.85,0,0,0,61.4,13.75Z"/><path class="cls-12" d="M108.85,12.47a8,8,0,0,1,.3-1C110,9.33,112,6.34,114.31,5.8s4,1.42,4.4,3.74c.68,3.92-2.2,3.83-4.42,5.69"/><path d="M114.29,16.21a1,1,0,0,1-.63-1.72,12.43,12.43,0,0,1,2.09-1.35c1.58-.87,2.37-1.3,2-3.44a4,4,0,0,0-1.53-2.65,2.1,2.1,0,0,0-1.69-.3c-1.75.41-3.65,2.93-4.47,5.12-.1.28-.19.56-.26.84a1,1,0,1,1-1.89-.47,9.71,9.71,0,0,1,.32-1.06c.83-2.18,3.06-5.67,5.85-6.33a4.06,4.06,0,0,1,3.22.58,6,6,0,0,1,2.38,3.94c.6,3.51-1.31,4.56-3,5.48A10.79,10.79,0,0,0,114.92,16,1,1,0,0,1,114.29,16.21Z"/><path class="cls-12" d="M58.35,29.84a7.4,7.4,0,0,0-.81-.57C55.55,28,52.1,26.9,50,27.86s-2.33,3.57-1.23,5.65c1.85,3.52,4.07,1.7,7,1.83"/><path d="M51.83,36.67c-1.39,0-2.8-.5-4-2.71a5.94,5.94,0,0,1-.51-4.58A4,4,0,0,1,49.57,27c2.61-1.18,6.51.23,8.48,1.47.33.21.63.42.91.64a1,1,0,0,1,.15,1.38,1,1,0,0,1-1.37.14q-.33-.26-.72-.51c-2-1.23-5-2.07-6.65-1.34A2.1,2.1,0,0,0,49.2,30a4,4,0,0,0,.4,3c1,1.92,1.9,1.79,3.68,1.51a11.86,11.86,0,0,1,2.47-.19,1,1,0,0,1,.93,1,1,1,0,0,1-1,.93,10.35,10.35,0,0,0-2.09.17A11,11,0,0,1,51.83,36.67Z"/><path d="M91.61,79c-12.16,0-23.1-6.63-26.92-17.49A25.67,25.67,0,0,1,66.9,40.21,33.19,33.19,0,0,1,85,25.41h0c16.18-5.68,33.41,1.28,38.41,15.51s-4.09,30.44-20.27,36.13A34.82,34.82,0,0,1,91.61,79Zm4.85-53.65a32.53,32.53,0,0,0-10.85,1.88h0a31.15,31.15,0,0,0-17,13.91,23.74,23.74,0,0,0-2.07,19.72c4.65,13.22,20.76,19.64,35.92,14.32s23.73-20.42,19.08-33.64C118,31.51,107.81,25.38,96.46,25.38Zm-11.17,1Z"/><path class="cls-17" d="M95.73,30.31A5.63,5.63,0,0,1,92.49,33c-1.57.45-2.74,1.56-4.31,2.11s-3.17.42-4.67,1.05a5.65,5.65,0,0,1-4.22-.09c-2.78-1.11-3.15-4.3-2.15-6.85a11.78,11.78,0,0,1,16-5.62h0C95.49,25,97.2,27.7,95.73,30.31Z"/><path d="M81.59,37.51A7.15,7.15,0,0,1,78.93,37c-3.33-1.33-3.88-5.09-2.7-8.12a12.75,12.75,0,0,1,17.38-6.1c2.81,1.62,4.73,4.9,3,8h0A6.61,6.61,0,0,1,92.76,34a9.64,9.64,0,0,0-2.05,1,12.55,12.55,0,0,1-2.2,1.1,12.34,12.34,0,0,1-2.4.52,8.68,8.68,0,0,0-2.22.51A6.11,6.11,0,0,1,81.59,37.51ZM88,23.31a11.43,11.43,0,0,0-3.76.64,10.34,10.34,0,0,0-6.21,5.63c-.81,2.06-.65,4.7,1.6,5.6a4.67,4.67,0,0,0,3.48.09,10.93,10.93,0,0,1,2.69-.64,10.84,10.84,0,0,0,2-.43,10.48,10.48,0,0,0,1.86-.94,10.48,10.48,0,0,1,2.5-1.18,4.74,4.74,0,0,0,2.66-2.25h0c1.19-2.11-.33-4.26-2.25-5.37A9.25,9.25,0,0,0,88,23.31Z"/><path class="cls-19" d="M88.29,35.43a6,6,0,0,1-7.66-3.68.9.9,0,1,1,1.7-.6,4.21,4.21,0,1,0,7.94-2.79.9.9,0,0,1,.55-1.15.91.91,0,0,1,1.16.55A6,6,0,0,1,88.29,35.43Z"/><path d="M91.12,27.16a.9.9,0,0,1,.86.6,6,6,0,0,1-3.69,7.67,5.93,5.93,0,0,1-2,.34,6,6,0,0,1-5.68-4,.9.9,0,0,1,.55-1.15.79.79,0,0,1,.3-.05.9.9,0,0,1,.85.6,4.22,4.22,0,0,0,4,2.81,4.14,4.14,0,0,0,1.39-.23,4.22,4.22,0,0,0,2.58-5.37.9.9,0,0,1,.55-1.15.79.79,0,0,1,.3-.05m0-1.95h0a2.73,2.73,0,0,0-.94.16A2.85,2.85,0,0,0,88.43,29a2.26,2.26,0,0,1-1.38,2.87,2.11,2.11,0,0,1-.75.13,2.26,2.26,0,0,1-2.13-1.51,2.86,2.86,0,0,0-5.39,1.9,8,8,0,0,0,7.53,5.32,8,8,0,0,0,7.51-10.6,2.86,2.86,0,0,0-2.7-1.91Z"/><path d="M90.07,96.08c-2.79,0-5.18-.17-6.92-.34a1,1,0,1,1,.19-1.94c6.62.65,23.18,1.21,33.84-7.56a1,1,0,0,1,1.24,1.51C110,94.65,98.32,96.08,90.07,96.08Z"/></g></g></svg>