<svg xmlns="http://www.w3.org/2000/svg" viewBox="0 0 14.69 17.1"><defs><style>.cls-1{fill:#81837c;}</style></defs><g id="레이어_2" data-name="레이어 2"><g id="Layer_1" data-name="Layer 1"><path class="cls-1" d="M5.4,16.29a.81.81,0,0,0,.81.81h7.67a.81.81,0,0,0,.81-.81V9.81H5.4Zm6.87-5.67h1.62v1.62H12.27Zm0,2h1.62v1.62H12.27Zm0,2h1.62V16.3H12.27Zm-2-4.06h1.62v1.62H10.25Zm0,2h1.62v1.62H10.25Zm0,2h1.62V16.3H10.25Zm-2-4.06H9.84v1.62H8.22Zm0,2H9.84v1.62H8.22Zm0,2H9.84V16.3H8.22Zm-2-4.06H7.82v1.62H6.2Zm0,2H7.82v1.62H6.2Zm0,2H7.82V16.3H6.2Z"/><path class="cls-1" d="M13.88,8.2H6.21A.81.81,0,0,0,5.4,9V9.4h9.29V9A.81.81,0,0,0,13.88,8.2Z"/><path class="cls-1" d="M5.06,9.43A6.11,6.11,0,0,1,2.87,9a.75.75,0,0,1-.55-.83,3.63,3.63,0,0,1,.79-2.11A2.42,2.42,0,0,1,4.3,5.27a.34.34,0,0,1,.2,0,1.94,1.94,0,0,0,1.12,0,.37.37,0,0,1,.21,0,2.74,2.74,0,0,1,1.66,1.6,4.17,4.17,0,0,1,.32,1.34A.74.74,0,0,1,7.26,9,6.08,6.08,0,0,1,5.06,9.43Z"/><path class="cls-1" d="M7.86,7.44A3.19,3.19,0,0,0,6,5.12c.77-.72.89-1,.83-1.85l.12,0A1.78,1.78,0,0,0,8,3.29a.41.41,0,0,1,.22,0A2.77,2.77,0,0,1,9.87,4.91a3.86,3.86,0,0,1,.32,1.38A.7.7,0,0,1,9.74,7,6,6,0,0,1,7.86,7.44Z"/><path class="cls-1" d="M4.17,5.12a3.2,3.2,0,0,0-1.9,2.33c-.28,0-.57-.08-.85-.14A7.15,7.15,0,0,1,.52,7,.77.77,0,0,1,0,6.17,4.1,4.1,0,0,1,.43,4.68,2.7,2.7,0,0,1,2,3.29a.28.28,0,0,1,.18,0,1.8,1.8,0,0,0,1.19,0A1.76,1.76,0,0,0,4.17,5.12Z"/><path class="cls-1" d="M6.64,3.6a1.58,1.58,0,1,1-3.16,0A1.6,1.6,0,0,1,5.07,2,1.58,1.58,0,0,1,6.64,3.6Z"/><path class="cls-1" d="M1.15,1.56A1.58,1.58,0,0,1,2.77,0,1.6,1.6,0,0,1,4.28,2a.24.24,0,0,1-.09.13,1.79,1.79,0,0,0-.77.9.17.17,0,0,1-.11.11A1.57,1.57,0,0,1,1.17,1.73S1.16,1.64,1.15,1.56Z"/><path class="cls-1" d="M9,1.63A1.58,1.58,0,0,1,6.85,3.09a.46.46,0,0,1-.18-.16,1.71,1.71,0,0,0-.62-.76.4.4,0,0,1-.18-.29A1.58,1.58,0,0,1,9,1.27C9,1.39,9,1.51,9,1.63Z"/></g></g></svg>