<svg xmlns="http://www.w3.org/2000/svg" viewBox="0 0 9.3 8.89"><defs><style>.cls-1{fill:#81837c;}</style></defs><g id="레이어_2" data-name="레이어 2"><g id="Layer_1" data-name="Layer 1"><path class="cls-1" d="M0,8.08a.81.81,0,0,0,.81.81H8.49a.81.81,0,0,0,.81-.81V1.6H0ZM6.88,2.41H8.5V4H6.88Zm0,2H8.5V6.07H6.88Zm0,2H8.5V8.1H6.88Zm-2-4.07H6.47V4H4.85Zm0,2H6.47V6.07H4.85Zm0,2H6.47V8.1H4.85Zm-2-4.07H4.45V4H2.83Zm0,2H4.45V6.07H2.83Zm0,2H4.45V8.1H2.83ZM.8,2.41H2.42V4H.8Zm0,2H2.42V6.07H.8Zm0,2H2.42V8.1H.8Z"/><path class="cls-1" d="M8.49,0H.81A.81.81,0,0,0,0,.81V1.2H9.3V.81A.81.81,0,0,0,8.49,0Z"/></g></g></svg>