<svg xmlns="http://www.w3.org/2000/svg" viewBox="0 0 406.4 220.79"><defs><style>.cls-1{fill:#d05559;}.cls-2{fill:#b18978;}</style></defs><g id="레이어_2" data-name="레이어 2"><g id="레이어_1-2" data-name="레이어 1"><path class="cls-1" d="M386.31,128.26v-5h5.42v7.7l-9.15,5.14-2.34-4.51Zm-4.16,17.8v-9.13h21.11v9.13h-4.51l-.6-.77-4.45.77Zm5.27-3.85H398v-1.43H387.42Zm1-11.56h8.19v5.14h-6.51Zm9.38-7.41h5.43v12.84h-5.43Zm8.57,8.87h-5.28V127h5.28Z"/><path class="cls-1" d="M381.29,166.17l8.93-7.19v-5.21h-8.35v-5.14h13.77v12.86l-10.95,8.82Zm16.26-18.11H403v22.82h-5.42Zm8.56,13.21h-5.56v-5.14h5.56Z"/><path class="cls-1" d="M302.07,123.93a18.63,18.63,0,0,0,14.39-5.68,7.51,7.51,0,0,0,2.28-4.37c.9-5.39.14-10.55-4.6-13.93-3.72-2.66-8.22-4.31-12.33-6.49-.86-.46-1.32-.11-2.13.08-2.71.61-4.26,2.47-5.83,4.26-5.63,6.41-4,13.36-.8,20a10.38,10.38,0,0,0,9,6.17"/><path class="cls-1" d="M233.15,148.4c1-.86,1.41-1.49,1.92-1.62a1.63,1.63,0,0,1,1.57.5,60.5,60.5,0,0,1,3.73,6.24c1.72,3.43,3.9,6.77,4.74,10.56a37.44,37.44,0,0,1-.2,15.94,127.28,127.28,0,0,1-3.17,12.73c-1.62,4.83-3.84,9.33-5.59,14.1a9.23,9.23,0,0,0,.07,4.27c.23,1.3,1.23,2.45,1.29,3.71.18,3.72,2.51,4.57,4.49,5.66,1.78,1,3.3-.65,4.5-2.07a17.62,17.62,0,0,0,2.76-4.75c1.75-4.48,3.31-9.08,4.94-13.63a74,74,0,0,0,4-20.57c.11-1.83.65-2.65,1.84-3.28,3.8-2,7.56-2.45,11.51-.35,2,1.08,4.06.58,5.83-1.36a4.48,4.48,0,0,0,.67-4.76,45.41,45.41,0,0,0-3.62-6.38,1.28,1.28,0,0,0-.87-.51c-4.92-.46-9.86-1.39-14.76.14-.87.27-1.76.42-2.66.63-2.46-7-4.78-13.89-9.69-18.55-1.39-1.33-2.82-2.58-4.27-3.8-.18-.16-.57.13-.86.11a12.9,12.9,0,0,1-1.63-.18,17.3,17.3,0,0,0-3.79-.65c-1.72.08-2.76,1.68-3.12,3.66a18.68,18.68,0,0,0,.34,4.21"/><path class="cls-1" d="M343.59,175.3c-3.19,4-9.75,10-13.46,11.46a1.11,1.11,0,0,1-1.46-1.49h0c2.59-4.87,5.69-9.48,6.91-15,.84-3.77-.82-8.14-4.56-9.71a21.31,21.31,0,0,0-12.47-1.35c-5.17,1-9.82,3.24-14.37,5.56-3.14,1.6-6.55,2.91-9,5.62-1.5,1.63-1.9,3.47-1,5.1,2.48,4.46,8.39,5.69,12.94,3.06,3.15-1.83,6.39-3.53,10.37-5.72a20.29,20.29,0,0,1-4.91,8.11c-4.46,4.56-4.42,9.52-2.57,14.91,1.31,3.81,5.44,7,9.47,6.52,9.46-1.13,18.66-3.45,26.54-8.79a41.3,41.3,0,0,0,11-11.3c3.44-5,6.12-10.19,4.59-15-1.63-5.16-.54-5.67-.2-8.48a8.32,8.32,0,0,0-6-8.52c-3.25-.8-6.52-1.62-9.95-1.22-.62.07-1.32-.08-1.57.62s.41,1.05.88,1.42c0,0,13.43,6-1.14,24.18"/><path class="cls-1" d="M236.3,174.59c-.76-1-2.19-1.57-2.31-3-.2-2.46-1.6-2-2.76-.82-2.79,2.77-6.48,3.08-10.69,4a109.89,109.89,0,0,0,5.65-11.55,11.91,11.91,0,0,0-.32-10.33c-1.44-3.14-3.9-4.88-7.52-5.59-5-1-10.08-2.76-15.06-.46-3.18,1.47-6.28,1.08-9.47.85-.57,0-1.2-1-1.69-.2s-.9,1.76-.18,2.6c3.75,4.42,2.62,9.5,2.17,14.49s-1.65,9.74-2.6,14.59c-.76,3.85,1.74,8.83,5.29,10.2a5.38,5.38,0,0,0,6.77-1.91c.61-.9,1.14-1.86,1.72-2.83.85.24.95,1.2,1.57,1.53,1.48.8,2.07,2.58,4.45,2.44,8-.46,15.54-2.63,23-5.15,4.32-1.47,4.8-5.14,2-8.87m-28.59-7.1c-.22-2.7-.43-5.11-.63-7.53-.11-1.22.85-1.34,1.69-1.3a4.9,4.9,0,0,0,3.86-1.5c0,2.43-2.15,6.89-4.92,10.33"/><path class="cls-1" d="M109.55,147.14a.28.28,0,0,1,.34.27c.3,2.29,2.64,3.31,3.23,5.39.89,3.14,4.57,5.44,8,5a7.21,7.21,0,0,1,4.38.42c0,.22.06.46,0,.6a13.41,13.41,0,0,1-1.74,2.34c-4.85,4.58-6.4,9.95-4.81,16.33,1.46,5.82,4.51,10,10.68,12.06,4.58,1.56,8.87,2.69,13.63.73,2-.82,3.08-2.42,4.65-3.58,6-4.38,11.13-9.15,10.67-17.42a63.7,63.7,0,0,1-.09-6.79c.19-3.48,1.85-6.69,1.7-10.18-.08-1.77-.44-3.57.87-5.29,2.32,2.42,5,4.16,5.95,7.53,1.3,4.42.28,8.67-.55,12.81-.77,3.79-1.55,7.81-4,11.11a10.22,10.22,0,0,0,3,14.87c4.07,2.43,7.07,1.82,9.34-2.16,3.27-5.73,4.72-12.13,5.82-18.41,1.63-9.29-.13-18.26-6.12-26-2.43-3.14-4.68-6.38-9.37-7.4-2.83-.62-5.68.25-8.41-.88-.89-.37-1.65.25-1.21,1.54a8.38,8.38,0,0,1,.07,5.08,185.09,185.09,0,0,1-7.12,20.78c-2.54,6.06-7.86,9.55-14.36,11.4,2.38-4,5-7.84,7.59-11.71,3.48-5.3,2.45-12.06-2.32-15a29.16,29.16,0,0,0-13.06-3.95c-4.62-.38-9.19.52-13.8.38-.57,0-1.41-.1-1.64-.45"/><path class="cls-1" d="M266.06,123.59c-2.14,3.26-1.67,6.1,1,7.6,5.28,2.92,11,3.81,16.69,4.58a69.13,69.13,0,0,0,32.62-3c13.55-4.76,25.87-11.78,35.29-24,2.44-3.16,5.08-6.13,7.37-9.41.82-1.18,1-3,1.27-4.56a56.91,56.91,0,0,0,.47-5.86c.12-2.37,2.07-2,3.22-2.45,2.75-1.11,5-3.18,8.06-3.84,3.33-.72,4.93,1.54,6.81,3.52,2.21,2.31,2.07,5.17,1.28,8.15a43.14,43.14,0,0,1-8.4,16.12q-6.75,8.42-14,16.28c-6.29,6.8-13.9,11.51-21.78,15.61A78.34,78.34,0,0,1,314,149.68c-4.45.83-8.92,1.92-13.41,2.1a74.1,74.1,0,0,1-13.17-1.1A112,112,0,0,1,274,148.14a27,27,0,0,1-12.47-7.38c-1.2-1.24-2.81-2.43-2.1-4.93.21-.71-.55-1.8-.91-2.69-1.45-3.55-.5-6.33,2.71-7.71,1.48-.63,3-1.15,4.81-1.84"/><path class="cls-1" d="M126.88,108c-.09-.42-.22-.69-.71-.77-1.82-.26-7,3.81-7.09,5.87-.09,1.33-.34,1.94-1.77,2q-4.45.21-8.9.13a6,6,0,0,0-3.94-.58c-.51.09-1,.22-1.51.33-2.55-.18-4.28-.4-6.81-.8l-.63-.1-.62-.1c0-.35,0-.72.08-1.13a109.68,109.68,0,0,0,.67-16.13c-.16-2.77-1.6-5.67-3.13-8.4-.47-.83-1.82-1.36-3-1.83l-.87-.34a19.86,19.86,0,0,0-4.2-1.19,1.63,1.63,0,0,0-1.27.14c-.4.32-.49,1.13-.58,1.92,0,.26-.06.52-.1.76-.1.67-.13,1.36-.17,2.08,0,.52,0,1-.1,1.56-.14,1.39-.26,2.77-.38,4.16-.31,3.47-.62,7.07-1.22,10.57a5.54,5.54,0,0,1-1.22,3.08l-.68-.3-.85-.42c-.79-.38-1.58-.78-2.37-1.18-1.35-.69-2.69-1.4-4-2.12s-2.74-1.45-4.12-2.16l-6.52-4.83-3.59-2.67c-2-1.46-2.63-3.36-2.08-6a30.46,30.46,0,0,0,.65-7.64q0-.72,0-1.47c0-2.59-.08-5.28-2.09-6.53a34,34,0,0,1-4.61-3.62c-.39-.35-.78-.7-1.18-1-.59-.52-2.06-.39-3.13-.3l-.22,0A3.62,3.62,0,0,0,44,70.28c-.18,1.12-.31,2.25-.44,3.38-.19,1.61-.38,3.27-.72,4.89C41.55,84.9,39,89.91,35.38,93.46c-9.45,9.17-12.79,11-25.52,14.27-2.07.53-3.28.68-4.1,0s-1-1.86-1-4.16a5.69,5.69,0,0,0-.34-1.85,5.06,5.06,0,0,0-2.58.43c-1.6.68-1.68,1.76-1.67,3.62a13,13,0,0,1-.09,1.86c-.83,6.17,2.35,10.47,6,14.69a9.53,9.53,0,0,0,6,3.1,27.19,27.19,0,0,0,14.51-2.81c1-.52,2-1,3-1.38s1.75-.74,2.6-1.17c8.82-4.42,9.2-4.89,15.52-12.88l.06-.07.36.55.37.56a18.63,18.63,0,0,0,5.09,5.56,135.25,135.25,0,0,0,17.85,9.87l1.08.47.66.29a11.22,11.22,0,0,1-1,3.42,3.5,3.5,0,0,0-.13.56c0,.17-.07.34-.11.5-1.13,4.21-3.49,7.92-7.42,11.69l-.38.36-.41-.32C58.31,136.4,57,134.79,53.05,130l-.88-1.08a9.12,9.12,0,0,0-1.1-1.24c-2.63.89-4.16-.59-5.5-1.9-.34-.32-.68-.66-1-1-.54-.45-1.76-.54-3.38-.27a14.82,14.82,0,0,0-.26,2l-.06.63a15.44,15.44,0,0,0-.08,3l0,.58a6.57,6.57,0,0,0,.61,2.71c4.21,6.6,5.8,8.62,11.78,13.33,1,.78,2,1.64,3,2.56.49.44,1,.91,1.58,1.4l.52.47-.49.51c-1.23,1.27-2.42,2.53-3.59,3.78-2.63,2.81-5.11,5.45-7.83,7.9-5.19,4.68-10.63,9.19-16.16,13.41-5.81,4.42-11,6.86-16.4,7.68-2.39.37-3.28,1.33-3.06,3.34a25.5,25.5,0,0,1,.07,3c0,2.91-.08,5.67,2.75,7.46a1.86,1.86,0,0,1,.61.78l.08.16c1.89,3.41,4.36,4.25,7.58,2.57,1.5-.79,3-1.71,4.43-2.59l.85-.53c1.66-1,3.33-2,5-3,3.82-2.26,7.76-4.59,11.42-7.19a153.31,153.31,0,0,0,28.68-26.4c1.65-2,3.38-2.46,6-1.69a65.24,65.24,0,0,0,9.42,1.8c1.1.16,2.21.31,3.31.49a1.18,1.18,0,0,0,1-.26c.54-.61,1.14-1.18,1.74-1.75,2.26-2.13,4.21-4,3.18-7.62a2.52,2.52,0,0,1,.2-1.56,5,5,0,0,0,.19-.66c.09-.65.13-1.31.2-2.15l0-.39-.45.16a9.49,9.49,0,0,0-1.78.76c-4,2.48-8,1.72-11,.77a2.88,2.88,0,0,1-1.94-1.55,2.7,2.7,0,0,1,.11-2.18c2.32-5.21,4.47-9.74,6.59-13.86a4.12,4.12,0,0,1,3.18-1.79c.22,0,.48,0,.71,0,1.05.13,2.11.25,3.18.3,2.65.13,5.27.27,7.9.37.82,0,1.65,0,2.48,0,1.25,0,2.51.09,3.77.07,5.11-.09,5.73-1.74,10.15-3,2.62-.78,7.46-2.21,8.51-5.34,1.82-5.42-.86-10.11-2-15.08"/><path class="cls-2" d="M142.52,12.59a32.19,32.19,0,0,1-9.7,8.84.34.34,0,0,1-.49,0l-.56-.48a.3.3,0,0,1,.07-.45c5-4.39,8.51-9.79,9.75-14.55a5.06,5.06,0,0,0-2.14-2L140,3c.07-.15.22-.19.52-.15a16.88,16.88,0,0,1,4.76,1.5,1,1,0,0,1,.56.82,3.1,3.1,0,0,1-.11.94,19.29,19.29,0,0,1-1.91,4.5l4.09,3.74,2.05.64a18.86,18.86,0,0,1,1.84,2.81,1.6,1.6,0,0,1,.23,1.27,1.44,1.44,0,0,1-1.61.79,2.24,2.24,0,0,1-1-.67Zm14.25,9.74a1.09,1.09,0,0,1,.67,0,15.39,15.39,0,0,1,1.91,1c.15.07.19.26.12.52l-.49,1.5a60.93,60.93,0,0,1-.9,6.82l.71.34a.52.52,0,0,1,.34.52,2.32,2.32,0,0,1-.6,1.62l-13.34.19a2.59,2.59,0,0,1-.6,1.12h-2a6.29,6.29,0,0,1-.48-2.17l-.64-8.51a5.9,5.9,0,0,0-2-1.28l.26-1c0-.15.15-.23.41-.23a46.22,46.22,0,0,1,5.06.42c2.36,0,7.72-.11,10.16-.27ZM145.34,32.46c2.66,0,6.82,0,9-.16l.79-.22.11-6.75c-3.15,0-6.93.12-10,.19Zm17.2-21.52a18.15,18.15,0,0,1,3.33.19.83.83,0,0,1,.71.75,2.37,2.37,0,0,1-.44,1.68,1.44,1.44,0,0,1-1,.3l-6.11.15v.42a21.49,21.49,0,0,1-1.16,6.89h-2.13a47.73,47.73,0,0,1-.34-5.88v-12a6.94,6.94,0,0,0-3-2.07l.38-1.15c.07-.16.18-.23.52-.23a19.73,19.73,0,0,1,5.4,1.12.87.87,0,0,1,.48.9l-.11,2.1V11.8l2.29-.11Z"/><path class="cls-2" d="M184.94,10.07a.89.89,0,0,1,.75,0c.52.23,1.64.83,2.06,1.09a.42.42,0,0,1,.07.57l-.71,1.19c-2,6.83-8.58,14.28-16.83,18.74a.38.38,0,0,1-.45,0l-.6-.56a.31.31,0,0,1,0-.45c6.71-5.1,11.66-11.84,13.64-17.84-2.09,0-5.88,0-6.78.15a13.68,13.68,0,0,0-3,.56A12.2,12.2,0,0,1,170,11.65c-.15-.19-.18-.3-.11-.45l.26-.49a29.51,29.51,0,0,0,3.52.26c1.43,0,8-.11,9.94-.22Zm14.61,9.23a17.35,17.35,0,0,1,3.33.18.85.85,0,0,1,.72.75,2.46,2.46,0,0,1-.45,1.69,1.49,1.49,0,0,1-1,.3l-6.1.15v9a34.33,34.33,0,0,1-1.24,8.84h-2.06c-.19-1.46-.34-6-.34-7.68v-25a6.87,6.87,0,0,0-3.11-2.06l.38-1.16c.07-.16.14-.23.48-.23a20.54,20.54,0,0,1,5.51,1.12.79.79,0,0,1,.49.9l-.11,2.14V20.16l2.28-.12Z"/><path class="cls-2" d="M226.71,3.65c.08-.15.15-.22.49-.22a20.54,20.54,0,0,1,5.51,1.12.78.78,0,0,1,.48.9l-.11,2.14V30.74a36.1,36.1,0,0,1-1.2,8.85h-2.06c-.22-1.46-.37-6-.37-7.68V25.57A81,81,0,0,1,213,29c-.52,0-1,0-1.38,0a3.08,3.08,0,0,1-3.11-2.29,7.12,7.12,0,0,1-.19-1.87V13a8,8,0,0,0-2.74-1.31l.23-1.09c.07-.15.19-.26.52-.26a30.45,30.45,0,0,1,5.1.41.75.75,0,0,1,.6.82l0,1.91V25.27c0,.49.19.71.68.68a74.82,74.82,0,0,0,16.75-2.44V6.88a6.74,6.74,0,0,0-3.11-2.07Z"/><path class="cls-2" d="M258.36,9.5a1,1,0,0,1,.67,0,10,10,0,0,1,1.54,1,.37.37,0,0,1,.11.52l-.49,1.16c-.75,6.53-5.39,14.73-11.54,19.87-.19.18-.34.22-.48.15l-.61-.42c-.14-.11-.18-.22-.07-.44a40.5,40.5,0,0,0,9-19.19c-.75,0-1.8,0-2.09,0a10.14,10.14,0,0,0-2.07.42,4.78,4.78,0,0,1-.78-.49l0,.07c-1,5.7-5.32,12.75-10.91,17a.36.36,0,0,1-.45.16l-.56-.42a.29.29,0,0,1-.11-.41,34.64,34.64,0,0,0,8.43-16.41c-.93,0-2.4,0-2.77.07a10.55,10.55,0,0,0-2.1.41A9.59,9.59,0,0,1,240.86,11c-.15-.15-.19-.27-.11-.38l.26-.53a12.42,12.42,0,0,0,2.4.23c.82,0,4-.07,5.09-.15l1.24-.64a.66.66,0,0,1,.64,0,14,14,0,0,1,1.31.72c.33,0,.71,0,1,0,.78,0,3.26,0,4.27-.11Zm12.29,9.25a18.27,18.27,0,0,1,3.34.19.92.92,0,0,1,.71.75,2.54,2.54,0,0,1-.45,1.72,1.68,1.68,0,0,1-1,.3l-5.81.11v9a35.77,35.77,0,0,1-1.19,8.81H264.2c-.18-1.46-.33-6-.33-7.68V6.84a6.74,6.74,0,0,0-3-2l.41-1.16c0-.15.15-.22.49-.22a19.07,19.07,0,0,1,5.32,1.12.8.8,0,0,1,.49.9l-.12,2.06v12.1l2-.11Z"/><path class="cls-2" d="M142.17,65.19c-4.91,0-8.47-3-8.47-7.34s3.56-7.31,8.47-7.31,8.4,3,8.4,7.31-3.53,7.34-8.4,7.34m0-2.73c2.77,0,4.83-1.73,4.83-4.61a4.83,4.83,0,0,0-9.66,0c0,2.88,2.06,4.61,4.83,4.61m16.6,16.82a19.91,19.91,0,0,1,3.49.3.69.69,0,0,1,.56.68,2.75,2.75,0,0,1-.45,1.61.78.78,0,0,1-.6.19L145,82.17c-2.25,0-3.07-.86-3.07-2.66V76.06A4.75,4.75,0,0,0,139.81,75l.15-.87a.42.42,0,0,1,.41-.22c1.28,0,4.24.07,5.36.22,2.21,0,8.58-.07,10.08-.15l.68-.19c.07-.82.11-2.73.07-3.48-2.43,0-8.69,0-10.08.11a18.33,18.33,0,0,0-3.19.56,13.72,13.72,0,0,1-3.22-2,.31.31,0,0,1-.11-.45l.26-.45a24.91,24.91,0,0,0,3.64.34c1.91,0,10.9-.11,13.11-.19l1.32-.6a1,1,0,0,1,.67,0c.49.19,1.42.64,1.84.87a.42.42,0,0,1,.07.55l-.52,1.13a18.89,18.89,0,0,1-.75,3.71l.67.34a.39.39,0,0,1,.26.41,2,2,0,0,1-.41,1.31l-14.46.19v3.15c0,.52.18.71.67.71,2.66,0,9,0,11.28-.08Zm-1.68-28.93a6.61,6.61,0,0,0-3-2.06l.37-1.16c.08-.15.19-.22.53-.22a19.73,19.73,0,0,1,5.4,1.12.88.88,0,0,1,.48.9l-.11,2.1v9a18.52,18.52,0,0,1-1.12,6.33h-2.14a35.21,35.21,0,0,1-.37-5.35Z"/><path class="cls-2" d="M186.63,63.63c-1.95,6.86-8.58,14.32-16.82,18.82a.4.4,0,0,1-.45,0l-.6-.56a.3.3,0,0,1,0-.45c6.71-5.13,11.65-11.88,13.64-17.91-2.06,0-5.77.07-6.67.15a13.05,13.05,0,0,0-3,.59,12.08,12.08,0,0,1-3.15-1.94c-.15-.15-.19-.3-.11-.41l.26-.53a22.91,22.91,0,0,0,3.52.26c1.43,0,8.06-.11,9.82-.22l1.35-.68a.89.89,0,0,1,.75,0c.52.23,1.61.83,2.06,1.09a.4.4,0,0,1,.08.56Zm4.13-8.58c0-.15.14-.22.48-.22A20.17,20.17,0,0,1,196.71,56a.85.85,0,0,1,.53.9L197.09,59V82.14a36.1,36.1,0,0,1-1.2,8.85h-2.06c-.23-1.46-.38-6-.38-7.68V71.69c-1.42,0-3.22.11-4,.19a11.45,11.45,0,0,0-2.43.63,11.94,11.94,0,0,1-3.15-2.1.36.36,0,0,1-.11-.45l.3-.48a25.54,25.54,0,0,0,3.45.26c1.27,0,4.08-.07,5.95-.19V58.27a6.81,6.81,0,0,0-3.11-2.06Z"/><path class="cls-2" d="M214.46,58.84a32.24,32.24,0,0,1-9.71,8.84.36.36,0,0,1-.49,0l-.56-.49c-.11-.11-.11-.3.08-.45,5-4.38,8.5-9.78,9.74-14.54a5.14,5.14,0,0,0-2.14-2l.53-1c.08-.16.22-.19.52-.16a17.1,17.1,0,0,1,4.76,1.5,1,1,0,0,1,.57.83,3.07,3.07,0,0,1-.12.94,19.41,19.41,0,0,1-1.91,4.49l4.09,3.75,2.06.64a19,19,0,0,1,1.83,2.81,1.6,1.6,0,0,1,.23,1.27,1.44,1.44,0,0,1-1.61.79,2.33,2.33,0,0,1-1-.68Zm14.24,9.74a1.1,1.1,0,0,1,.67,0,14.14,14.14,0,0,1,1.91,1c.15.07.19.26.12.52l-.49,1.5a61.55,61.55,0,0,1-.9,6.82l.71.34a.52.52,0,0,1,.34.52,2.32,2.32,0,0,1-.6,1.62l-13.34.18a2.53,2.53,0,0,1-.6,1.13h-2A6.35,6.35,0,0,1,214,80l-.64-8.5a5.9,5.9,0,0,0-2-1.28l.26-1c0-.14.15-.22.41-.22a46.18,46.18,0,0,1,5.06.41c2.36,0,7.72-.11,10.16-.26ZM217.27,78.7c2.66,0,6.82,0,9-.15l.79-.22.11-6.75c-3.15,0-6.93.11-10,.19Zm17.2-21.51a17.42,17.42,0,0,1,3.34.19.83.83,0,0,1,.71.74,2.43,2.43,0,0,1-.45,1.69,1.44,1.44,0,0,1-1,.3l-6.11.15v.41a21.28,21.28,0,0,1-1.16,6.9h-2.13a47.73,47.73,0,0,1-.34-5.88v-12a6.88,6.88,0,0,0-3-2.07l.38-1.16c.07-.15.19-.22.52-.22a19.65,19.65,0,0,1,5.4,1.12.87.87,0,0,1,.49.9l-.12,2.1v7.68l2.29-.11Z"/><path class="cls-2" d="M269,71.82a20.45,20.45,0,0,1,4.53.64.75.75,0,0,1,.56.74,2.06,2.06,0,0,1-1,1.77c-1-.11-3.37-.19-4.57-.19-2.59,0-18.78.19-20.91.3a25.25,25.25,0,0,0-4,.75,12.06,12.06,0,0,1-4-2.36.35.35,0,0,1-.11-.45l.3-.6a27.34,27.34,0,0,0,4.53.41c2.36,0,20.54-.19,23.2-.37Zm-22.15-12a6.2,6.2,0,0,0-2.4-1.28l.26-1c0-.11.15-.22.42-.22a45.38,45.38,0,0,1,5.51.37c2.69,0,9.51-.11,11.5-.22l1.2-.57a22.45,22.45,0,0,1,3.71.27.65.65,0,0,1,.56.67,2.41,2.41,0,0,1-.41,1.54.87.87,0,0,1-.68.22l-16,.23V66c0,.64.23.9.86.9,2.48,0,9-.08,11.24-.23l1.09-.56a24.81,24.81,0,0,1,3.75.27.62.62,0,0,1,.56.67,2.27,2.27,0,0,1-.45,1.5.78.78,0,0,1-.6.19l-16.45.3c-2.66,0-3.71-1.06-3.71-3.19ZM264.69,78a.88.88,0,0,1,.64,0,20.69,20.69,0,0,1,1.87,1.08.46.46,0,0,1,.08.53L266.79,81l-.08,4.23a17.44,17.44,0,0,1-1,5.66h-2.18a33.83,33.83,0,0,1-.37-4.8V80.89c-3,0-9.37,0-10.83.15a14.23,14.23,0,0,0-3.53.63,12.31,12.31,0,0,1-3.55-2.06.41.41,0,0,1-.12-.49l.3-.55a31.54,31.54,0,0,0,4,.29c1.84,0,11.51-.15,14-.26Z"/></g></g></svg>