<svg xmlns="http://www.w3.org/2000/svg" viewBox="0 0 115.58 61.68"><defs><style>.cls-1{fill:#d05559;}</style></defs><g id="레이어_2" data-name="레이어 2"><g id="레이어_1-2" data-name="레이어 1"><path class="cls-1" d="M1.69,9.52A1.86,1.86,0,0,1,.32,8.64C-.1,8-.1,7.57.26,7.45c12-2.31,27.53-3.25,44-3.79C45.69,1.46,46.52.21,46.52.15c.18-.3.71-.13,1.25.35s.78,1.13.6,1.42L47.31,3.53c4.52-.13,9.1-.21,13.62-.34C72.11,2.91,83.36,2.58,93.71,2c.41-.06,1,.42,1.37,1s.3,1,0,1L90.21,6.18c-.36.12-.95-.17-1.37-.71s-.48-.83-.36-1.07c-8.51.39-17.37.6-26.3.87l-16.24.41c-7.63,12-30.7,48.3-30.35,48.71a33.44,33.44,0,0,0,2.85-3c.24-.24.83-.06,1.31.47s.72,1.13.48,1.37c0,0-3.67,4.18-5.7,1.8-1.38-1.66,19.8-35.59,28.38-49.24C27.44,6.34,12.87,7.28,1.69,9.52Z"/><path class="cls-1" d="M55,33.61c.24.6.07,1-.41.84a2.3,2.3,0,0,1-1.31-1.19c-1.2-1.13-4.11.25-5.18,1.15A11.63,11.63,0,0,0,44,41.09c2.08-.6,7.47-6.93,7.47-6.93.24-.24.78-.06,1.32.47s.65,1,.48,1.31a6,6,0,0,0-.47,3.51c.24,1.43,8-5.08,8.08-5.14a.78.78,0,0,1,1.19-.07c.47.54.41,1,.18,1.25-3.92,3.52-6.23,5.61-7.83,6.45-2.73,1.44-4.82.62-4.77-2.3-2.14,2-4.33,3.88-5.64,3.29A3.36,3.36,0,0,1,42.86,42a3.27,3.27,0,0,1-.73-2.49,7.12,7.12,0,0,1,.65-2.27,14.29,14.29,0,0,1,3.67-4.77C49.12,30.3,54,30.17,55,33.61Z"/><path class="cls-1" d="M60.86,36.63a1.07,1.07,0,0,1-1.43.12c-.47-.53.77-1.61,1-1.85l4.44-5.43a14.16,14.16,0,0,1,1.37-1.31c.23-.24.83,0,1.25.53s.71,1.13.48,1.37l-1.43,1.37c-1.24,1.43-2.9,4-2.23,6.73A6.46,6.46,0,0,1,64,42.27a4.94,4.94,0,0,1-1.12,1.31,4.13,4.13,0,0,1-1.37.66A3.43,3.43,0,0,1,59.22,44c-3.4-1.71-1.56-5.05-1.56-5.11.17-.3.71-.18,1.25.29a1.67,1.67,0,0,1,.66,1.43c0,.06-.83,1.55-.71,1.61a2.07,2.07,0,0,0,1.19,0,2.42,2.42,0,0,0,1.19-.54,2.64,2.64,0,0,0,.88-1.07,4.82,4.82,0,0,0,.29-3.28c0-.77-.54-.83.88-3.45Z"/><path class="cls-1" d="M86.82,7.86c.18-.24.77-.12,1.25.41s.72,1.13.54,1.37c0,.06-4.32,6.08-8.94,13.06l15.17-.06a2,2,0,0,1,1.37,1c.36.6.3,1.07-.11,1.07l-17.79.06c-1.24,1.91-2.48,3.88-3.67,5.79v.06c0,.24-.12.36-.23.36-3.61,5.9-5.57,9.3-4.91,10.48,1.08,2,13.12-7.66,13.12-7.72.24-.18.6-.3,1.08.24a.59.59,0,0,1-.12,1c-.06.06-13.52,13.43-16.45,8.09-.9-1.66,1.82-7.38,5.6-13.7-.06,0,.36-.66.36-.66C73.19,24.21,58,24.86,58,24.86a2,2,0,0,1-1.37-1.07c-.36-.53-.3-1,.12-1l20.11-.07C81.79,14.9,86.76,7.92,86.82,7.86ZM73.74,27.66l1.77-2.87-7.43-.27C69.86,25.23,72.78,26.41,73.74,27.66Z"/><path class="cls-1" d="M114,46.14a2.08,2.08,0,0,1,1.37,1.12c.3.54.24,1-.23,1-12.62-1-21.9-.76-28.62.22-4,6.73-8.4,13.23-10.42,13.24a7.46,7.46,0,0,1-6.32-3.61,4.89,4.89,0,0,1-.49-3.86,7.33,7.33,0,0,1,2.9-3.52c2.43-1.74,6.47-3.3,12.66-4.27,1.54-2.63,3-5.25,4.26-7.51-1.84,1.61-3.74,2.87-5,2.75a3.33,3.33,0,0,1-1.37-.41,3.26,3.26,0,0,1-1.86-2.91,5.72,5.72,0,0,1,.59-2.56,26.72,26.72,0,0,1,4.2-6.5c.24-.3.83-.06,1.31.41s.72,1.13.48,1.43a25.65,25.65,0,0,0-4.14,6.32c-.12.24-.23,1.55.13,1.78,4.1.88,11.09-9.26,10.61-9.61v.06c.24-.3.72-.12,1.25.35s.78,1.07.6,1.37l-1.3,2.32-.06.06c0,.06-3,5.9-6.62,12.28A135.64,135.64,0,0,1,114,46.14ZM83.39,49c-4.46,1-7.55,2.23-9.51,3.66a6.65,6.65,0,0,0-2.66,3.17,3,3,0,0,0,.13,2.32,4.3,4.3,0,0,0,3.51,1.47C76.47,59.6,80,54.71,83.39,49Z"/></g></g></svg>