<svg xmlns="http://www.w3.org/2000/svg" viewBox="0 0 36.86 45.57"><defs><style>.cls-1{fill:#fff;}</style></defs><g id="레이어_2" data-name="레이어 2"><g id="레이어_1-2" data-name="레이어 1"><path class="cls-1" d="M27.19,37.71a8.35,8.35,0,0,1-2.42,2,.2.2,0,0,1-.26-.27h0a10.6,10.6,0,0,0,1.27-2.65A1.52,1.52,0,0,0,25,35.06a3.9,3.9,0,0,0-2.22-.27,9.86,9.86,0,0,0-2.56,1,5.06,5.06,0,0,0-1.62,1,.75.75,0,0,0-.19.9,1.67,1.67,0,0,0,2.29.58c.57-.32,1.15-.61,1.86-1a3.81,3.81,0,0,1-.89,1.43,2.32,2.32,0,0,0-.49,2.64,1.7,1.7,0,0,0,1.67,1.18A10.45,10.45,0,0,0,27.57,41a7.49,7.49,0,0,0,2-2,3.26,3.26,0,0,0,.85-2.66,2.18,2.18,0,0,1,0-1.51,1.47,1.47,0,0,0-1.05-1.53,5,5,0,0,0-1.76-.24c-.11,0-.24,0-.28.11s.07.18.15.25S29.82,34.51,27.19,37.71Z" transform="translate(-0.07)"/><path class="cls-1" d="M20.92,28.49a3.27,3.27,0,0,0,2.58-1,1.24,1.24,0,0,0,.41-.77,2.34,2.34,0,0,0-.78-2.49A20.73,20.73,0,0,0,21,23.07c-.15-.08-.24,0-.38,0a2,2,0,0,0-1.05.75c-1,1.12-.74,2.36-.19,3.54A1.86,1.86,0,0,0,20.92,28.49Z" transform="translate(-0.07)"/><path class="cls-1" d="M8.24,37.07c-.13-.18-.38-.28-.4-.54,0-.44-.28-.36-.49-.15a3.63,3.63,0,0,1-1.91.69,18.61,18.61,0,0,0,1-2,2.12,2.12,0,0,0,0-1.84,1.7,1.7,0,0,0-1.32-1,4.18,4.18,0,0,0-2.68-.12,3.16,3.16,0,0,1-1.69.13c-.1,0-.21-.19-.3,0a.39.39,0,0,0,0,.46A3.16,3.16,0,0,1,.77,35.2a26.26,26.26,0,0,1-.5,2.59,1.74,1.74,0,0,0,.92,1.82,1,1,0,0,0,1.21-.32c.11-.16.2-.33.31-.5.15,0,.17.21.28.27s.36.47.78.45a15.86,15.86,0,0,0,4.1-.87C8.64,38.39,8.73,37.74,8.24,37.07ZM3.18,35.74c0-.48-.07-.91-.1-1.34,0-.22.16-.23.31-.23a.88.88,0,0,0,.69-.25A3.78,3.78,0,0,1,3.18,35.74Z" transform="translate(-0.07)"/><path class="cls-1" d="M24.23,12.15s.06,0,.06,0c.05.41.46.6.56,1a1.37,1.37,0,0,0,1.41.92,1.23,1.23,0,0,1,.78.08s0,.08,0,.11a3.15,3.15,0,0,1-.31.41,2.77,2.77,0,0,0-.9,2.89,2.76,2.76,0,0,0,1.87,2.17,3.25,3.25,0,0,0,2.43.16,4,4,0,0,0,.83-.62c1.07-.77,2-1.6,1.94-3.08a9.77,9.77,0,0,1,0-1.21c0-.61.34-1.18.32-1.8a1.27,1.27,0,0,1,.17-.94,3.42,3.42,0,0,1,1,1.35,4.62,4.62,0,0,1-.13,2.28,4.77,4.77,0,0,1-.73,2,1.82,1.82,0,0,0,.51,2.65,1,1,0,0,0,1.67-.36,10.4,10.4,0,0,0,1.08-3.27,5.72,5.72,0,0,0-1-4.64,2.88,2.88,0,0,0-1.64-1.34c-.51-.11-1,0-1.5-.17-.15-.07-.29,0-.22.27a1.39,1.39,0,0,1,0,.9,31.54,31.54,0,0,1-1.31,3.68,3.66,3.66,0,0,1-2.58,2c.43-.72.92-1.38,1.38-2.07a1.88,1.88,0,0,0-.38-2.67,5.32,5.32,0,0,0-2.31-.73c-.83-.08-1.64.07-2.46,0-.1,0-.25,0-.29-.09" transform="translate(-0.07)"/><path class="cls-1" d="M7.74,32.67c.18-.15.26-.26.35-.28a.3.3,0,0,1,.28.09A11.19,11.19,0,0,1,9,33.6a8.52,8.52,0,0,1,.82,1.89,6.65,6.65,0,0,1-.07,2.84,23.18,23.18,0,0,1-.59,2.25c-.3.86-.71,1.65-1,2.5a1.62,1.62,0,0,0,0,.76c0,.23.22.43.22.66,0,.66.44.82.79,1s.59-.11.81-.36a3.34,3.34,0,0,0,.5-.84c.32-.79.61-1.61.91-2.41a13.11,13.11,0,0,0,.76-3.65.58.58,0,0,1,.34-.58,2,2,0,0,1,2,0,.79.79,0,0,0,1-.23.78.78,0,0,0,.13-.84,7.88,7.88,0,0,0-.63-1.14.25.25,0,0,0-.15-.1,6.6,6.6,0,0,0-2.62,0c-.16,0-.32.07-.48.11a8.09,8.09,0,0,0-1.68-3.32c-.24-.24-.5-.47-.75-.69,0,0-.1,0-.15,0a1.35,1.35,0,0,1-.29,0,3.24,3.24,0,0,0-.68-.12c-.3,0-.49.29-.56.65A3.42,3.42,0,0,0,7.74,32.67Z" transform="translate(-0.07)"/><path class="cls-1" d="M13.52,28.34c-.39.57-.31,1.08.17,1.35a8.23,8.23,0,0,0,3,.85,12.27,12.27,0,0,0,5.8-.45,13,13,0,0,0,6.34-4.19c.44-.56.91-1.08,1.33-1.66a1.91,1.91,0,0,0,.23-.81,8.93,8.93,0,0,0,.1-1c0-.42.37-.35.58-.43a9,9,0,0,1,1.44-.66c.6-.12.87.29,1.2.64a1.4,1.4,0,0,1,.21,1.45,7.55,7.55,0,0,1-1.53,2.85c-.81,1-1.66,1.94-2.53,2.86a13.73,13.73,0,0,1-3.91,2.73A14,14,0,0,1,22,33.09a17.63,17.63,0,0,1-2.39.34,13.35,13.35,0,0,1-2.34-.23,19.29,19.29,0,0,1-2.38-.48,4.83,4.83,0,0,1-2.2-1.34c-.21-.22-.5-.44-.36-.88,0-.13-.1-.32-.16-.48a1,1,0,0,1,.5-1.37C12.93,28.54,13.2,28.45,13.52,28.34Z" transform="translate(-0.07)"/><path class="cls-1" d="M26.19,5.84c0-.08-.05-.13-.13-.13-.31,0-1.11.78-1.1,1.16s0,.35-.27.38c-.5.07-1,.12-1.48.16a.91.91,0,0,0-.67,0l-.25.08a8.75,8.75,0,0,1-1.14,0h-.21v-.2a23.3,23.3,0,0,0-.11-2.91,4.08,4.08,0,0,0-.64-1.46,1,1,0,0,0-.53-.28l-.15,0a2.68,2.68,0,0,0-.71-.15c-.11,0-.18,0-.21,0s-.07.21-.08.35v.14c0,.12,0,.25,0,.38a2.61,2.61,0,0,1,0,.28v.75c0,.63,0,1.28-.06,1.92a1,1,0,0,1-.16.57l-.12,0L18,6.65l-.41-.17-.7-.33-.72-.32L15,5.06l-.63-.43a1,1,0,0,1-.43-1A6.46,6.46,0,0,0,14,2.2l0-.26c0-.46-.08-.95-.43-1.14A5.69,5.69,0,0,1,12.7.22L12.49.05C12.38,0,12.14,0,12,0h0a.62.62,0,0,0-.07.24c0,.21,0,.41,0,.62s0,.59-.05.88a5.29,5.29,0,0,1-1,2.79A7.23,7.23,0,0,1,6.68,7.52c-.34.13-.54.17-.68.06s-.19-.32-.22-.73a1,1,0,0,0-.08-.33.76.76,0,0,0-.43.12C5,6.78,5,7,5,7.31c0,.11,0,.22,0,.34A3.35,3.35,0,0,0,6.25,10.2a1.56,1.56,0,0,0,1,.47A4.29,4.29,0,0,0,9.68,10c.16-.11.32-.2.48-.29l.42-.25A5.58,5.58,0,0,0,13,6.86h0l.07.09a.36.36,0,0,0,.07.1,3.1,3.1,0,0,0,.92.92,22.83,22.83,0,0,0,3.11,1.51l.19.07.11,0a2.1,2.1,0,0,1-.11.63.36.36,0,0,0,0,.1.34.34,0,0,1,0,.1,4.54,4.54,0,0,1-1.08,2.2l-.05.07-.08,0a8.43,8.43,0,0,1-1.94-1.75L14,10.7a1.89,1.89,0,0,0-.2-.2c-.43.2-.7-.05-.94-.26l-.19-.16a.76.76,0,0,0-.57,0c0,.08,0,.26,0,.36v.11a2.53,2.53,0,0,0,0,.55l0,.1a1.24,1.24,0,0,0,.14.48,7.13,7.13,0,0,0,2.15,2.22c.17.12.34.27.53.42l.28.23.09.07-.07.1-.55.73c-.4.54-.78,1.06-1.2,1.54-.8.91-1.64,1.8-2.51,2.64a5.8,5.8,0,0,1-2.62,1.62c-.4.11-.53.29-.47.65,0,.18,0,.36.06.54,0,.53.06,1,.56,1.3a.45.45,0,0,1,.11.13v0c.36.59.79.7,1.3.35.24-.16.48-.35.7-.53l.14-.11.79-.61c.61-.46,1.23-.94,1.81-1.46a27,27,0,0,0,4.42-5.16.82.82,0,0,1,1-.4,9.58,9.58,0,0,0,1.59.19l.56,0a.2.2,0,0,0,.16-.06c.08-.12.18-.23.27-.34.35-.42.65-.78.42-1.42a.45.45,0,0,1,0-.28.74.74,0,0,0,0-.12v-.46l-.07,0a1.31,1.31,0,0,0-.29.17,2,2,0,0,1-1.82.3.48.48,0,0,1-.34-.25.5.5,0,0,1,0-.4c.31-1,.61-1.81.91-2.58a.68.68,0,0,1,.5-.37l.12,0a4.69,4.69,0,0,0,.53,0l1.33-.05.41,0,.63,0c.85-.1.93-.4,1.65-.7.43-.18,1.21-.51,1.34-1.09A5.07,5.07,0,0,0,26.19,5.84Z" transform="translate(-0.07)"/><path class="cls-1" d="M1.41,16.06v-1.3H2.67v1.93L.73,18,.07,16.9ZM.55,20.44V18.17H5.28v2.27H4.21l-.13-.19-1,.19Zm1.24-1H4v-.35H1.79Zm.13-2.87H3.74v1.28H2.29ZM4,14.76H5.28V18H4Zm1.88.93V17H4.74V15.69Z" transform="translate(-0.07)"/><path class="cls-1" d="M.36,26.45l1.93-1.83V23.29H.5V22H3.55v3.2l-2.31,2.2Zm3.58-4.58H5.21v5.68H3.94Zm1.88,2v1.28H4.6V23.88Z" transform="translate(-0.07)"/></g></g></svg>