<svg xmlns="http://www.w3.org/2000/svg" xmlns:xlink="http://www.w3.org/1999/xlink" viewBox="0 0 169.52 117.59"><defs><style>.cls-1,.cls-15,.cls-21,.cls-8{fill:none;}.cls-2{fill:#993128;}.cls-3{fill:#a43029;}.cls-4{fill:#ad835a;}.cls-5{fill:#040000;}.cls-6{fill:#c6b9af;}.cls-7{fill:#231815;}.cls-10,.cls-11,.cls-15,.cls-16,.cls-18,.cls-21,.cls-8{stroke:#040000;}.cls-10,.cls-11,.cls-15,.cls-8{stroke-linecap:round;}.cls-15,.cls-16,.cls-18,.cls-21,.cls-8{stroke-miterlimit:10;}.cls-8{stroke-width:1.59px;}.cls-9{clip-path:url(#clip-path);}.cls-10,.cls-11{stroke-linejoin:round;stroke-width:1.47px;}.cls-10{fill:url(#새_패턴_견본_1);}.cls-11{fill:url(#새_패턴_견본_1-3);}.cls-12{fill:#fff;}.cls-13{clip-path:url(#clip-path-2);}.cls-14{fill:#f6d8cf;}.cls-15{stroke-width:1.52px;}.cls-16,.cls-18{fill:#fcdcaf;}.cls-16{stroke-width:1.11px;}.cls-17{fill:#858585;}.cls-18{stroke-width:1.22px;}.cls-19{clip-path:url(#clip-path-3);}.cls-20{fill:url(#새_패턴_견본_6);}.cls-21{stroke-width:1.59px;}.cls-22{clip-path:url(#clip-path-4);}.cls-23{fill:url(#새_패턴_견본_3);}</style><clipPath id="clip-path" transform="translate(71.53)"><path class="cls-1" d="M9.91,46.5C13,20.67,26.38,8,49,8S85.21,20.67,88.27,46.5h0c.43,3.06,1.14,5.75,1.79,8.77.77,3.54,3.24,7,4.5,10.37s3,7,3.38,10.82c.27,3-.49,6.26-3.49,7.34s-6.64-.22-9.42-3.25h0s-1.58,12.53-8.92,22.32c-7.69,10.26-4.26,14.72-11.41,14.72-9,0-5-15.76-15.71-15.76s-6.72,15.76-15.71,15.76c-7.14,0-3.71-4.46-11.4-14.72C14.54,93.08,13,80.55,13,80.55c-2.77,3-6.36,4.36-9.42,3.25S-.22,79.47.05,76.46c.35-3.83,2.47-7.35,3.77-10.82s3.54-6.83,4.3-10.37c.66-3,1.36-5.71,1.79-8.77Z"/></clipPath><pattern id="새_패턴_견본_1" data-name="새 패턴 견본 1" width="68" height="68" patternTransform="translate(427.4 1910.46) scale(0.46 0.5)" patternUnits="userSpaceOnUse" viewBox="0 0 68 68"><rect class="cls-1" width="68" height="68"/><rect class="cls-2" width="68" height="68"/></pattern><pattern id="새_패턴_견본_1-3" data-name="새 패턴 견본 1" width="68" height="68" patternTransform="translate(428.97 1910.46) scale(0.46 0.5)" patternUnits="userSpaceOnUse" viewBox="0 0 68 68"><rect class="cls-1" width="68" height="68"/><rect class="cls-2" width="68" height="68"/></pattern><clipPath id="clip-path-2" transform="translate(71.53)"><path class="cls-1" d="M49.05,19.57c-13.53,0-24.5,9.63-24.5,21.52s11,17.62,24.5,17.62S73.55,53,73.55,41.09,62.58,19.57,49.05,19.57Z"/></clipPath><clipPath id="clip-path-3" transform="translate(71.53)"><path class="cls-1" d="M63.32,82.15c0,6.76-6.42,10.37-14.33,10.37S34.66,88.91,34.66,82.15,41.07,68,49,68,63.32,75.38,63.32,82.15Z"/></clipPath><pattern id="새_패턴_견본_6" data-name="새 패턴 견본 6" width="68" height="68" patternTransform="translate(589.54 1420.74) scale(0.4 0.4)" patternUnits="userSpaceOnUse" viewBox="0 0 68 68"><rect class="cls-1" width="68" height="68"/><rect class="cls-4" width="68" height="68"/></pattern><clipPath id="clip-path-4" transform="translate(71.53)"><path class="cls-1" d="M62.26,82c0,6.26-5.94,9.6-13.27,9.6S35.71,88.27,35.71,82,41.66,68.92,49,68.92,62.26,75.74,62.26,82Z"/></clipPath><pattern id="새_패턴_견본_3" data-name="새 패턴 견본 3" width="68" height="68" patternTransform="translate(31.92 104.93) scale(0.37 0.37)" patternUnits="userSpaceOnUse" viewBox="0 0 68 68"><rect class="cls-1" width="68" height="68"/><rect class="cls-3" width="68" height="68"/></pattern></defs><g id="레이어_2" data-name="레이어 2"><g id="레이어_1-2" data-name="레이어 1"><path class="cls-4" d="M76.43,19a40.12,40.12,0,0,0-3.36-3l.1-.16c1.19-1.91,3.41-3.88,5-3.88a1.83,1.83,0,0,1,1.39.61,4.18,4.18,0,0,1,.9,3c-.13,2.2-.93,2.44-2.54,2.91A14.89,14.89,0,0,0,76.43,19Z" transform="translate(71.53)"/><path class="cls-5" d="M78.22,12.75a1,1,0,0,1,.77.34,3.41,3.41,0,0,1,.67,2.39c-.09,1.6-.41,1.69-1.93,2.15-.35.1-.71.21-1.1.35-.78-.77-1.59-1.51-2.43-2.21,1.19-1.66,3-3,4-3m0-1.7c-2.14,0-4.59,2.38-5.78,4.28-.16.27-.32.55-.46.84A36.75,36.75,0,0,1,76.24,20c2.36-1.28,4.9-.55,5.12-4.43.13-2.29-1-4.53-3.14-4.53Z" transform="translate(71.53)"/><path class="cls-6" d="M58.24,11.19c3.53-2,5.88-5.59,7.57-8.62a6.44,6.44,0,0,1,1-1.44A1,1,0,0,1,67.58.8,2.33,2.33,0,0,1,69.3,1.85a7.63,7.63,0,0,1,1.08,3.79A14,14,0,0,1,70.27,9a15.29,15.29,0,0,1-2.43,5.89Z" transform="translate(71.53)"/><path class="cls-7" d="M67.58,1.61a1.54,1.54,0,0,1,1.06.7,7,7,0,0,1,.94,3.4,13.47,13.47,0,0,1-.1,3.2,14.06,14.06,0,0,1-2,5L60,11a24.36,24.36,0,0,0,6.52-8,6.15,6.15,0,0,1,.89-1.27.2.2,0,0,1,.18-.08m0-1.61a1.79,1.79,0,0,0-1.33.58,7.27,7.27,0,0,0-1.14,1.6C63,6,60.3,9.74,56.19,11.26l12,4.64a16.75,16.75,0,0,0,2.91-6.74,14.79,14.79,0,0,0,.12-3.58A8.59,8.59,0,0,0,70,1.39,3.12,3.12,0,0,0,67.58,0Z" transform="translate(71.53)"/><path class="cls-6" d="M30.14,14.92A15.42,15.42,0,0,1,27.72,9a14.5,14.5,0,0,1-.12-3.39,7.72,7.72,0,0,1,1.09-3.79,2.32,2.32,0,0,1,1.72-1,1,1,0,0,1,.75.33,6.78,6.78,0,0,1,1,1.44c1.69,3,4,6.62,7.57,8.62Z" transform="translate(71.53)"/><path class="cls-7" d="M30.41,1.61a.21.21,0,0,1,.18.08A6.15,6.15,0,0,1,31.48,3,24.36,24.36,0,0,0,38,11l-7.53,2.92a14,14,0,0,1-2-5,14,14,0,0,1-.11-3.2,7.08,7.08,0,0,1,1-3.4,1.54,1.54,0,0,1,1.06-.7m0-1.61A3.12,3.12,0,0,0,28,1.39,8.7,8.7,0,0,0,26.8,5.58a15.88,15.88,0,0,0,.12,3.58,16.88,16.88,0,0,0,2.91,6.74l12-4.64C37.69,9.74,35,6,32.88,2.18A7.61,7.61,0,0,0,31.74.58,1.79,1.79,0,0,0,30.41,0Z" transform="translate(71.53)"/><path class="cls-8" d="M80.72,70.91A17.77,17.77,0,0,0,85,79.37" transform="translate(71.53)"/><path class="cls-8" d="M13,79.37a17.7,17.7,0,0,0,4.32-8.46" transform="translate(71.53)"/><path class="cls-4" d="M21.74,19a15.88,15.88,0,0,0-1.55-.53c-1.6-.47-2.41-.71-2.53-2.91a4.17,4.17,0,0,1,.89-3A1.83,1.83,0,0,1,20,11.9c1.64,0,3.86,2,5.05,3.89a1.3,1.3,0,0,0,.1.15A38.6,38.6,0,0,0,21.74,19Z" transform="translate(71.53)"/><path class="cls-5" d="M20,12.75c1.05,0,2.83,1.37,4,3-.84.7-1.65,1.44-2.43,2.21-.38-.14-.75-.25-1.09-.35-1.52-.46-1.84-.55-1.93-2.15a3.36,3.36,0,0,1,.66-2.39,1,1,0,0,1,.78-.34m0-1.7c-2.14,0-3.28,2.24-3.14,4.53.22,3.88,2.75,3.15,5.11,4.43a38.47,38.47,0,0,1,4.26-3.84,8.52,8.52,0,0,0-.46-.84c-1.19-1.9-3.64-4.28-5.77-4.28Z" transform="translate(71.53)"/><g class="cls-9"><path class="cls-10" d="M91.32,40.87c-.34,1.79-2.24,3.57-2.9,5.26a15.75,15.75,0,0,1-3.53,5.22c-1.1,1.11-4.25,3.17-3.11,5.19.64,1.12,2.24,1.3,3.32,1.34,4.15.12,10.55-1.48,10.55-1.48" transform="translate(71.53)"/><path class="cls-11" d="M8.24,40.87a29.88,29.88,0,0,0,1.52,5.26,15.75,15.75,0,0,0,3.53,5.22c1.1,1.11,4.26,3.17,3.11,5.19-.63,1.12-2.23,1.3-3.32,1.34C8.93,58,2.54,56.4,2.54,56.4" transform="translate(71.53)"/></g><path class="cls-12" d="M49,19.57c-13.53,0-24.5,9.63-24.5,21.52s11,17.62,24.5,17.62S73.52,53,73.52,41.09,62.55,19.57,49,19.57Z" transform="translate(71.53)"/><g class="cls-13"><ellipse class="cls-14" cx="144.32" cy="41.78" rx="8.15" ry="8.18"/><ellipse class="cls-14" cx="96.84" cy="41.78" rx="8.15" ry="8.18"/></g><path class="cls-5" d="M49,20.84c12.81,0,23.23,9.08,23.23,20.25,0,12.06-12,16.36-23.23,16.36s-23.23-4.3-23.23-16.36c0-11.17,10.42-20.25,23.23-20.25m0-1.27c-13.53,0-24.5,9.63-24.5,21.52s11,17.62,24.5,17.62S73.52,53,73.52,41.09,62.55,19.57,49,19.57Z" transform="translate(71.53)"/><ellipse class="cls-5" cx="110.03" cy="34.48" rx="3.54" ry="4.08"/><circle class="cls-12" cx="111.25" cy="33.4" r="1.06"/><ellipse class="cls-5" cx="131.13" cy="34.48" rx="3.54" ry="4.08"/><circle class="cls-12" cx="132.36" cy="33.4" r="1.06"/><path class="cls-15" d="M40,42.9a36,36,0,0,0,18.12,0" transform="translate(71.53)"/><path class="cls-16" d="M57.12,24.49a5.21,5.21,0,0,1-3.66,1.37c-1.51-.09-2.87.52-4.41.52s-2.9-.61-4.41-.52A5.25,5.25,0,0,1,41,24.49c-2.09-1.84-1.43-4.74.23-6.67a10.92,10.92,0,0,1,15.7,0h0C58.56,19.75,59.22,22.65,57.12,24.49Z" transform="translate(71.53)"/><path class="cls-17" d="M49.05,27a5.88,5.88,0,0,1-5.87-5.88,1.13,1.13,0,1,1,2.26,0,3.61,3.61,0,1,0,7.22,0,1.13,1.13,0,0,1,2.26,0A5.89,5.89,0,0,1,49.05,27Z" transform="translate(71.53)"/><path class="cls-5" d="M53.79,20.57a.53.53,0,0,1,.53.53,5.27,5.27,0,1,1-10.54,0,.53.53,0,1,1,1.06,0,4.21,4.21,0,0,0,8.42,0,.53.53,0,0,1,.53-.53m0-1.2a1.74,1.74,0,0,0-1.73,1.73,3,3,0,1,1-6,0,1.73,1.73,0,1,0-3.46,0,6.47,6.47,0,1,0,12.93,0,1.73,1.73,0,0,0-1.72-1.73Z" transform="translate(71.53)"/><path class="cls-18" d="M63.32,82.15c0,6.76-6.42,10.37-14.33,10.37S34.66,88.91,34.66,82.15,41.07,68,49,68,63.32,75.38,63.32,82.15Z" transform="translate(71.53)"/><g class="cls-19"><path class="cls-20" d="M-52,26.89c.62-.65.37-1.32-.15-1.92a1.09,1.09,0,0,1-.08-.15l-.08-.08-.14-.08a10.69,10.69,0,0,0-1.13-.89.45.45,0,0,0-.3-.1.23.23,0,0,0-.1-.05c-.27,0-.41.26-.57.44h0l-.15.16h0l-.34.26a32.36,32.36,0,0,1-3.35,1.76l-.39-.36-.47-.35v0c0-.19-.16-.23-.31-.29l-.23-.08c-.13-.08-.24-.18-.37-.27a.46.46,0,0,0-.26-.06c-.12-.11-.25,0-.36,0l0,0a.56.56,0,0,0-.25.61c.17.56.34,1.12.48,1.69-.56.23-1.12.46-1.68.67s-.83.35-1.26.48c-.15.05-.68.24-.81.12l-.05-.07v0a.45.45,0,0,0,.18-.3.4.4,0,0,0,.27-.34,1.41,1.41,0,0,0,0-.28,1.45,1.45,0,0,0-.12-.92,4.37,4.37,0,0,0-1.77-1.77.48.48,0,0,0-.56,0,.41.41,0,0,0-.18.05.44.44,0,0,0-.35.15c-1,1.24-2.47,2-3.64,3a3.21,3.21,0,0,0-.71.91.23.23,0,0,0-.11.14.28.28,0,0,1,0,.09,2.46,2.46,0,0,0-.18.72,5.33,5.33,0,0,0,.25,2c.22.58.76,1.41,1.49,1.26a1.26,1.26,0,0,0,.72-.56c.25-.32.52-.63.8-.93s.47-.48.72-.71c.75.34,1.51.67,2.28.95a5,5,0,0,0,2.54.22,14.38,14.38,0,0,0,2.27-.52c0,.47-.14.93-.16,1.39l0,.47a.37.37,0,0,0-.09.28,4.24,4.24,0,0,1-1.43.81,1.27,1.27,0,0,0-.37.1,1.29,1.29,0,0,0-.26.08l-.28.06a2.08,2.08,0,0,0-.86.05l-.78,0h0c-.19-.07-.37,0-.55,0s-.37,0-.56,0-.42,0-.44.28a.06.06,0,0,0,0,.1,1.68,1.68,0,0,0,.24.93h0a.87.87,0,0,0,.09.45,1.93,1.93,0,0,0,.6.78.49.49,0,0,0,.34.3l.15,0,.41.16a1.63,1.63,0,0,0,.38,0,15.42,15.42,0,0,0,2,.25s0,.06,0,.11a14.63,14.63,0,0,1-1,3.12c-.42,1.07-.85,2.14-1.33,3.19a27.77,27.77,0,0,1-1.52,2.91c-.21.35-.57.73-.53,1.17a1.6,1.6,0,0,0,.36.77.39.39,0,0,0,.06.34,3.41,3.41,0,0,0,.5,1.57,1.26,1.26,0,0,0,.77.4c0,.06.09.07.16.07s.16.09.24,0h0l.15-.1h0c.43-.1.46-.5.57-.83h0c.07-.24.32-.39.33-.66h0a2.67,2.67,0,0,0,.41-.87h0l.09-.15h0a1.4,1.4,0,0,0,.22-.48h0l0-.15c0-.2.25-.3.18-.52.19,0,.2-.22.27-.34.17-.29.31-.6.46-.89h0l.07-.31a4,4,0,0,0,.24-.82s0,0,0,0h0c.13,0,.15-.15.17-.27a2,2,0,0,0,.32-.86l.1-.31c0-.25.22-.43.25-.68h0a7.79,7.79,0,0,0,.4-1.24.14.14,0,0,0,0-.06h0c.07-.16.14-.33.22-.49h0l0-.29c.14-.13.12-.31.15-.47a1,1,0,0,0,.14-.38c.11-.28.2-.56.29-.85a.19.19,0,0,0,0-.08,9.32,9.32,0,0,0,.31-1.29v0l.08-.32a.34.34,0,0,0,.07-.22h0a9.75,9.75,0,0,1,4-2.09h0a.76.76,0,0,0,.82-.27.84.84,0,0,0,.09-1,8,8,0,0,0-.82-1c-.36,0-.56-.34-.84-.49h0a.56.56,0,0,0-.45-.26h0c-.3-.23-.4-.2-.87.09h0l-.26,0a4.12,4.12,0,0,0-.58.23l-.13.06h0l-.07,0c.06-.92.13-1.84.19-2.76l.27-.13c.65-.37,1.28-.76,1.91-1.15a2.36,2.36,0,0,0,.85-.5c.76-.45,1.56-.88,2.27-1.4a.69.69,0,0,0,.13-.11A.32.32,0,0,0-52,26.89Z" transform="translate(71.53)"/></g><path class="cls-21" d="M63.32,82.15c0,6.76-6.42,10.37-14.33,10.37S34.66,88.91,34.66,82.15,41.07,68,49,68,63.32,75.38,63.32,82.15Z" transform="translate(71.53)"/><g class="cls-22"><path class="cls-4" d="M58,74.91c0-.06-.08-.1-.16-.08a1.83,1.83,0,0,0-.72,1.47c.08.23.08.35-.14.46-.46.22-.92.42-1.4.61a.94.94,0,0,0-.66.16l-.22.16A8.56,8.56,0,0,1,53.6,78l-.1,0-.11,0-.06-.19a21.29,21.29,0,0,0-1-2.81,3.83,3.83,0,0,0-1.07-1.22,1.15,1.15,0,0,0-.61-.12h-.16a3.62,3.62,0,0,0-.75.08.27.27,0,0,0-.19.11.6.6,0,0,0,0,.36,1,1,0,0,1,0,.14,3.16,3.16,0,0,0,.12.37l.09.27c.07.25.15.49.23.74.19.61.39,1.24.54,1.88a1.16,1.16,0,0,1,0,.61h-.29l-.46,0-.78-.09-.81-.1-1.36-.39-.75-.22a1,1,0,0,1-.75-.88A5.6,5.6,0,0,0,45,75.17c0-.08-.07-.16-.1-.25-.19-.44-.38-.9-.78-1a5.73,5.73,0,0,1-1-.31l-.25-.1c-.13,0-.36.07-.52.16h0a.79.79,0,0,0,0,.26c0,.21.1.41.16.61s.17.59.23.88a5.48,5.48,0,0,1-.15,3,7.44,7.44,0,0,1-3.05,4.13c-.29.22-.47.33-.64.27s-.29-.26-.44-.65a.9.9,0,0,0-.19-.29.78.78,0,0,0-.37.24c-.21.22-.15.41,0,.73,0,.11.09.21.12.32a3.41,3.41,0,0,0,2,2.12,1.56,1.56,0,0,0,1.17.13,4.43,4.43,0,0,0,2.1-1.44,5.46,5.46,0,0,1,.38-.44l.33-.37A5.73,5.73,0,0,0,45.47,80v0l.09.08.1.07a3.46,3.46,0,0,0,1.19.61,22.14,22.14,0,0,0,3.51.5h.32a2.1,2.1,0,0,1,.09.65s0,.07,0,.1a.29.29,0,0,1,0,.09,4.75,4.75,0,0,1-.36,2.49l0,.09-.08,0a8.52,8.52,0,0,1-2.44-1.1l-.22-.13a1.05,1.05,0,0,0-.26-.13.83.83,0,0,1-1,0l-.23-.1a.71.71,0,0,0-.55.18,3,3,0,0,0,.09.35l0,.11a3.35,3.35,0,0,0,.19.53l0,.09a1.15,1.15,0,0,0,.29.42,7.34,7.34,0,0,0,2.78,1.5c.22.07.43.15.65.24l.35.14.11,0,0,.12c-.11.3-.21.6-.3.89-.23.65-.43,1.27-.69,1.86-.5,1.15-1,2.28-1.63,3.37a6.08,6.08,0,0,1-2.06,2.4c-.35.22-.43.44-.25.77.08.16.15.34.22.51.19.5.38,1,1,1.1a.29.29,0,0,1,.15.09l0,0c.54.46,1,.44,1.38-.06.18-.24.36-.49.52-.74l.1-.15.59-.84c.44-.64.9-1.3,1.3-2a28,28,0,0,0,2.71-6.42.82.82,0,0,1,.82-.68,9.88,9.88,0,0,0,1.62-.32l.56-.13a.21.21,0,0,0,.13-.11c0-.14.1-.28.16-.42a1.33,1.33,0,0,0,0-1.51.57.57,0,0,1-.08-.28.41.41,0,0,0,0-.12c0-.12-.07-.24-.12-.38l0-.07-.06,0a1.64,1.64,0,0,0-.23.25,2,2,0,0,1-1.68.86.5.5,0,0,1-.42-.14.56.56,0,0,1-.13-.38c0-1,0-2,.08-2.8a.73.73,0,0,1,.38-.52l.11,0,.52-.16L56,80.42l.39-.16L57,80c.81-.36.79-.68,1.4-1.2.36-.3,1-.87,1-1.47C59.31,76.31,58.56,75.68,58,74.91Z" transform="translate(71.53)"/></g><path class="cls-4" d="M9.91,46.53C13,20.77,26.38,8.14,49,8.14S85.21,20.77,88.27,46.53h0c.43,3.06,1.14,5.73,1.79,8.75.77,3.53,3.24,7,4.5,10.35s3,7,3.38,10.78c.27,3-.49,6.25-3.49,7.33s-6.64-.22-9.42-3.25h0S83.45,93,76.11,102.76C68.42,113,71.85,117.44,64.7,117.44c-9,0-5-15.71-15.71-15.71s-6.72,15.71-15.71,15.71c-7.14,0-3.71-4.45-11.4-14.68C14.54,93,13,80.49,13,80.49c-2.77,3-6.36,4.35-9.42,3.25S-.22,79.42.05,76.41c.35-3.82,2.47-7.32,3.77-10.78s3.54-6.82,4.3-10.35c.66-3,1.36-5.69,1.79-8.75Z" transform="translate(71.53)"/><path class="cls-5" d="M49,9.6C71.1,9.6,83.78,22.08,86.7,46.72,87,49,87.49,51.11,88,53.29c.17.76.35,1.52.52,2.31a27.62,27.62,0,0,0,2.73,6.68,41,41,0,0,1,1.84,3.92c.28.75.58,1.51.88,2.27a29.36,29.36,0,0,1,2.39,8.13c.13,1.4.15,4.77-2.44,5.71a5,5,0,0,1-1.69.29,8.56,8.56,0,0,1-6-3.13L83.89,77l-.43,3.4c0,.12-1.64,12.24-8.62,21.57a38.84,38.84,0,0,0-5.62,10.32C68,115.42,67.77,116,64.7,116s-4-2.29-5.53-6.33c-1.55-4.2-3.49-9.42-10.18-9.42s-8.62,5.22-10.17,9.42c-1.5,4-2.49,6.33-5.54,6.33s-3.28-.58-4.51-3.76a39.14,39.14,0,0,0-5.62-10.32c-7-9.33-8.6-21.45-8.62-21.58l-.43-3.4-2.32,2.53a8.58,8.58,0,0,1-6,3.13,5,5,0,0,1-1.68-.29C1.49,81.37,1.51,78,1.63,76.6A24.06,24.06,0,0,1,4,69.37c.46-1,.93-2.1,1.33-3.17C5.76,65,6.37,63.72,7,62.4a30.71,30.71,0,0,0,2.67-6.8c.17-.79.34-1.55.52-2.31.49-2.18,1-4.25,1.29-6.61,1.47-12.4,5.42-21.81,11.74-28S38.1,9.6,49,9.6M49,8C26.38,8,13,20.67,9.91,46.5h0c-.43,3.06-1.13,5.75-1.79,8.77-.76,3.54-3,7-4.3,10.37S.4,72.63.05,76.46c-.27,3,.49,6.26,3.48,7.34a6.54,6.54,0,0,0,2.23.39A10.09,10.09,0,0,0,13,80.55s1.59,12.53,8.93,22.32c7.69,10.26,4.26,14.72,11.4,14.72,9,0,5-15.76,15.71-15.76s6.73,15.76,15.71,15.76c7.15,0,3.72-4.46,11.41-14.72C83.45,93.08,85,80.55,85,80.55h0a10.11,10.11,0,0,0,7.19,3.64,6.54,6.54,0,0,0,2.23-.39c3-1.08,3.76-4.33,3.49-7.34-.35-3.83-2.08-7.35-3.38-10.82s-3.73-6.83-4.5-10.37c-.65-3-1.36-5.71-1.79-8.77h0C85.21,20.67,71.6,8,49,8Z" transform="translate(71.53)"/><path class="cls-23" d="M88.66,69.57c.75-2.78,1.56-5.54,2.41-8.29h0c-.18-.63-.35-1.27-.5-1.91-.64-2.69-1.32-5.07-1.74-7.8-8.06,5.3-22.75,8.34-39.53,8.34s-31.48-3-39.54-8.34c-.41,2.73-1.1,5.11-1.74,7.8-.15.64-.32,1.28-.49,1.91h0C8.39,64,9.2,66.79,10,69.57c2.91,10.83,2.43,22.55-2.68,32.72a38.15,38.15,0,0,1,5.12-.32c2.42.08,4.78.62,7.17.92,8.18,1,9.76-1.35,18-1.2,2.9.06,8.83,1.76,11.74,1.76s8.83-1.7,11.73-1.76c8.25-.15,9.83,2.25,18,1.2,2.39-.3,4.75-.84,7.17-.92a38.3,38.3,0,0,1,5.13.32C86.23,92.12,85.75,80.4,88.66,69.57Z" transform="translate(71.53)"/><path d="M49.31,104.18a38.87,38.87,0,0,1-6.19-.9,37.76,37.76,0,0,0-5.56-.85,35.28,35.28,0,0,0-8.12.77,27.68,27.68,0,0,1-10,.42c-.81-.1-1.62-.24-2.41-.36a34.94,34.94,0,0,0-4.68-.55,36.58,36.58,0,0,0-5,.31.74.74,0,0,1-.69-.31A.71.71,0,0,1,6.6,102c4.74-9.44,5.68-20.88,2.63-32.22-.7-2.6-1.48-5.28-2.39-8.21a.63.63,0,0,1,0-.45c.19-.7.35-1.31.49-1.89s.34-1.4.51-2.08c.47-1.89.91-3.69,1.22-5.66a.71.71,0,0,1,.43-.56.77.77,0,0,1,.72.06c7.82,5.15,22.44,8.22,39.12,8.22S80.6,56.11,88.42,51a.77.77,0,0,1,.72-.06.74.74,0,0,1,.44.56c.3,2,.75,3.77,1.22,5.66.17.68.34,1.37.51,2.08s.29,1.19.49,1.89a.73.73,0,0,1,0,.46c-.91,2.93-1.69,5.61-2.39,8.2h0C86.34,81.09,87.27,92.53,92,102a.73.73,0,0,1-.06.74.77.77,0,0,1-.7.31,35.07,35.07,0,0,0-5-.31,34.94,34.94,0,0,0-4.68.55c-.79.12-1.6.26-2.41.36a27.7,27.7,0,0,1-10-.42,35.24,35.24,0,0,0-8.11-.77,37.87,37.87,0,0,0-5.57.85A38.76,38.76,0,0,1,49.31,104.18ZM36.83,101h.76a39.32,39.32,0,0,1,5.83.88,37.77,37.77,0,0,0,5.89.88,37.84,37.84,0,0,0,5.88-.88A39.24,39.24,0,0,1,61,101a37.28,37.28,0,0,1,8.42.81,26.09,26.09,0,0,0,9.51.4c.78-.1,1.58-.23,2.36-.36a38.73,38.73,0,0,1,4.88-.57,29.71,29.71,0,0,1,3.9.19c-4.4-9.52-5.17-20.84-2.16-32.05.69-2.57,1.46-5.23,2.36-8.12-.18-.63-.32-1.2-.45-1.73-.17-.7-.34-1.39-.5-2.06-.4-1.57-.77-3.08-1.06-4.69-8.33,5-22.43,7.86-39,7.86s-30.66-2.85-39-7.86c-.3,1.61-.67,3.11-1.06,4.69-.17.67-.34,1.36-.51,2.06-.12.54-.27,1.1-.44,1.73.89,2.89,1.66,5.55,2.35,8.12,3,11.2,2.24,22.53-2.16,32.05a29.71,29.71,0,0,1,3.9-.19,39.11,39.11,0,0,1,4.89.57c.77.13,1.57.26,2.36.36a26,26,0,0,0,9.5-.4A37.81,37.81,0,0,1,36.83,101ZM88.66,69.57h0Z" transform="translate(71.53)"/><path class="cls-12" d="M55.59,89.56A5.4,5.4,0,0,1,54,90.89a.13.13,0,0,1-.17-.18h0A7.62,7.62,0,0,0,54.66,89a1,1,0,0,0-.53-1.15,2.51,2.51,0,0,0-1.46-.18,6.34,6.34,0,0,0-1.7.64,3.54,3.54,0,0,0-1.07.64.51.51,0,0,0-.13.6,1.11,1.11,0,0,0,1.52.38l1.23-.66a2.42,2.42,0,0,1-.59,1,1.55,1.55,0,0,0-.32,1.75,1.12,1.12,0,0,0,1.1.78,7,7,0,0,0,3.13-1,4.8,4.8,0,0,0,1.31-1.31,2.14,2.14,0,0,0,.57-1.76,1.39,1.39,0,0,1,0-1,1,1,0,0,0-.7-1,3.26,3.26,0,0,0-1.16-.16c-.08,0-.16,0-.19.07s.05.13.1.17S57.33,87.45,55.59,89.56Z" transform="translate(71.53)"/><path class="cls-12" d="M51.45,83.47a2.22,2.22,0,0,0,1.7-.65.91.91,0,0,0,.27-.51,1.55,1.55,0,0,0-.52-1.65,13.2,13.2,0,0,0-1.44-.78c-.1,0-.15,0-.25,0a1.3,1.3,0,0,0-.69.49,2,2,0,0,0-.13,2.35A1.26,1.26,0,0,0,51.45,83.47Z" transform="translate(71.53)"/><path class="cls-12" d="M43.06,89.14c-.09-.12-.25-.19-.26-.36s-.19-.23-.33-.1a2.42,2.42,0,0,1-1.26.46,13.14,13.14,0,0,0,.68-1.35,1.41,1.41,0,0,0,0-1.22A1.14,1.14,0,0,0,41,85.9a2.76,2.76,0,0,0-1.77-.07,2.11,2.11,0,0,1-1.11.08c-.07,0-.14-.12-.2,0s-.11.2,0,.3a2.07,2.07,0,0,1,.24,1.71,16.64,16.64,0,0,1-.33,1.71,1.15,1.15,0,0,0,.6,1.21.63.63,0,0,0,.8-.22,2.66,2.66,0,0,0,.21-.33c.1,0,.11.15.18.19s.24.3.52.29a10.39,10.39,0,0,0,2.71-.57C43.32,90,43.38,89.58,43.06,89.14Zm-3.35-.88-.06-.88c0-.15.1-.16.2-.16a.56.56,0,0,0,.45-.17A2.44,2.44,0,0,1,39.71,88.26Z" transform="translate(71.53)"/><path class="cls-12" d="M53.63,72.66s0,0,0,0c0,.27.31.4.37.64a.91.91,0,0,0,.93.61.84.84,0,0,1,.52.06.17.17,0,0,1,0,.07,1.71,1.71,0,0,1-.2.27,2,2,0,0,0,.64,3.35,2.12,2.12,0,0,0,1.6.1,2.61,2.61,0,0,0,.56-.41,2.37,2.37,0,0,0,1.28-2,7.12,7.12,0,0,1,0-.8,10.05,10.05,0,0,0,.21-1.2.92.92,0,0,1,.11-.62,2.25,2.25,0,0,1,.69.9,3,3,0,0,1-.08,1.5,3.22,3.22,0,0,1-.49,1.3,1.21,1.21,0,0,0,.34,1.76.69.69,0,0,0,1.1-.24A6.24,6.24,0,0,0,62,75.79a3.74,3.74,0,0,0-.68-3.07,1.86,1.86,0,0,0-1.09-.88c-.33-.08-.67,0-1-.12-.11,0-.2,0-.15.18a1,1,0,0,1,0,.6,23.43,23.43,0,0,1-.87,2.43,2.43,2.43,0,0,1-1.7,1.32c.28-.47.6-.92.91-1.37a1.25,1.25,0,0,0-.25-1.76,3.58,3.58,0,0,0-1.53-.49c-.55,0-1.09.05-1.63,0a.29.29,0,0,1-.19-.06" transform="translate(71.53)"/><path class="cls-12" d="M42.73,86.23c.12-.1.17-.17.23-.19a.18.18,0,0,1,.18.07,7.55,7.55,0,0,1,.43.74,5.24,5.24,0,0,1,.54,1.24,4.27,4.27,0,0,1,0,1.88,12.54,12.54,0,0,1-.39,1.49c-.2.57-.46,1.09-.68,1.65a1.2,1.2,0,0,0,0,.5c0,.16.15.29.15.44,0,.44.29.54.52.67s.39-.07.53-.23a1.84,1.84,0,0,0,.33-.56c.22-.52.41-1.06.61-1.59a8.91,8.91,0,0,0,.5-2.42.4.4,0,0,1,.22-.38,1.35,1.35,0,0,1,1.36,0,.53.53,0,0,0,.68-.15.51.51,0,0,0,.09-.56,5.63,5.63,0,0,0-.42-.76.13.13,0,0,0-.1-.06,4.38,4.38,0,0,0-1.73,0l-.32.07a5.34,5.34,0,0,0-1.11-2.19l-.49-.46s-.07,0-.11,0l-.19,0a2.26,2.26,0,0,0-.44-.08c-.2,0-.33.19-.37.43A1.75,1.75,0,0,0,42.73,86.23Z" transform="translate(71.53)"/><path class="cls-12" d="M46.55,83.36c-.26.38-.21.72.11.9a5.5,5.5,0,0,0,2,.56,8,8,0,0,0,3.84-.3,8.58,8.58,0,0,0,4.19-2.77c.29-.37.6-.71.88-1.09a1.48,1.48,0,0,0,.15-.54c0-.22,0-.46.07-.69s.24-.23.38-.28a5.14,5.14,0,0,1,.95-.44c.4-.08.58.19.8.42a1,1,0,0,1,.14,1A5.09,5.09,0,0,1,59,82c-.53.65-1.09,1.28-1.67,1.89a9,9,0,0,1-2.59,1.8,8.81,8.81,0,0,1-2.59.83,10.56,10.56,0,0,1-1.58.23A8,8,0,0,1,49,86.58a12.28,12.28,0,0,1-1.58-.32A3.21,3.21,0,0,1,46,85.38c-.14-.15-.32-.29-.24-.59,0-.08-.06-.21-.1-.32a.63.63,0,0,1,.33-.9Z" transform="translate(71.53)"/><path class="cls-12" d="M54.93,68.48s0-.08-.09-.08-.73.52-.73.77,0,.23-.17.25c-.33,0-.66.08-1,.1a.66.66,0,0,0-.44,0l-.17.06c-.28,0-.47,0-.76,0h-.14v-.14a13.53,13.53,0,0,0-.07-1.92,2.58,2.58,0,0,0-.42-1,.65.65,0,0,0-.35-.18l-.1,0a2.56,2.56,0,0,0-.47-.1.24.24,0,0,0-.14,0s0,.14,0,.24v.09a2.08,2.08,0,0,0,0,.25v.68c0,.41,0,.84,0,1.27a.7.7,0,0,1-.11.37l-.08,0-.09,0-.27-.11-.47-.22-.47-.21L47.55,68l-.41-.28a.65.65,0,0,1-.29-.69,3.54,3.54,0,0,0,0-.92s0-.11,0-.17c0-.31-.06-.63-.29-.76a3.7,3.7,0,0,1-.54-.38l-.14-.11c-.07-.06-.23,0-.35,0h0a.43.43,0,0,0,0,.16c0,.13,0,.27,0,.4a5.68,5.68,0,0,1,0,.59,3.56,3.56,0,0,1-.69,1.85A4.81,4.81,0,0,1,42,69.6c-.23.08-.36.11-.46,0s-.12-.21-.14-.48a.71.71,0,0,0,0-.22.51.51,0,0,0-.28.07c-.17.1-.17.23-.16.45a.81.81,0,0,1,0,.22,2.28,2.28,0,0,0,.79,1.69,1.09,1.09,0,0,0,.7.31A2.75,2.75,0,0,0,44,71.2a3.37,3.37,0,0,1,.32-.19l.28-.16a3.73,3.73,0,0,0,1.59-1.69h0a.43.43,0,0,0,0,.07l0,.06a2,2,0,0,0,.61.61,14.49,14.49,0,0,0,2.06,1l.12,0,.07,0a1.37,1.37,0,0,1-.07.42.15.15,0,0,0,0,.07s0,0,0,.06A3.1,3.1,0,0,1,48.36,73l0,0,0,0A5.76,5.76,0,0,1,47,71.82l-.11-.12-.13-.13a.53.53,0,0,1-.63-.18l-.12-.1a.45.45,0,0,0-.37,0,1.77,1.77,0,0,0,0,.24v.07a2.11,2.11,0,0,0,0,.36V72a.75.75,0,0,0,.1.32,4.65,4.65,0,0,0,1.42,1.47l.35.27.18.15.07.05,0,.07-.37.48c-.26.36-.51.7-.79,1-.53.6-1.09,1.19-1.66,1.75a3.89,3.89,0,0,1-1.74,1.07c-.26.07-.34.19-.3.43a2.1,2.1,0,0,1,0,.36c0,.34,0,.67.37.86a.2.2,0,0,1,.08.08v0c.24.39.52.46.86.23.16-.11.31-.23.46-.35l.09-.07c.17-.14.35-.27.53-.4.4-.31.81-.63,1.19-1a17.43,17.43,0,0,0,2.92-3.42A.52.52,0,0,1,50,75.2a7.64,7.64,0,0,0,1.06.12l.37,0a.11.11,0,0,0,.1,0l.18-.22c.23-.28.43-.52.28-.94A.41.41,0,0,1,52,74a.22.22,0,0,0,0-.08,1.85,1.85,0,0,0,0-.25v-.05l0,0a1.06,1.06,0,0,0-.19.11,1.3,1.3,0,0,1-1.2.2.31.31,0,0,1-.23-.17.33.33,0,0,1,0-.26c.21-.64.41-1.2.6-1.71a.48.48,0,0,1,.34-.24h.43l.87,0,.27,0c.14,0,.28,0,.42,0,.56-.06.62-.26,1.09-.46.28-.12.8-.33.89-.71A3.47,3.47,0,0,0,54.93,68.48Z" transform="translate(71.53)"/><path class="cls-12" d="M38.54,75.24v-.85h.84v1.27l-1.29.84-.43-.7ZM38,78.14v-1.5H41.1v1.5h-.71L40.31,78l-.65.12Zm.81-.63h1.49v-.24H38.79Zm.09-1.9h1.2v.84h-1Zm1.38-1.22h.84V76.5h-.84Zm1.25.61v.85h-.77V75Z" transform="translate(71.53)"/><path class="cls-12" d="M37.85,82.11l1.27-1.21V80H37.94v-.84h2V81.3l-1.53,1.45Zm2.37-3h.83v3.76h-.83Zm1.24,1.33v.85h-.81v-.85Z" transform="translate(71.53)"/></g></g></svg>