<svg xmlns="http://www.w3.org/2000/svg" xmlns:xlink="http://www.w3.org/1999/xlink" viewBox="0 0 669.7 464.54"><defs><style>.cls-1,.cls-10,.cls-16,.cls-22,.cls-24{fill:none;}.cls-2{fill:#ad835a;}.cls-3{isolation:isolate;}.cls-4{clip-path:url(#clip-path);}.cls-5{mix-blend-mode:multiply;opacity:0.29;}.cls-6{fill:#040000;}.cls-12,.cls-7{fill:#983028;}.cls-8{fill:#c6b9af;}.cls-9{fill:#231815;}.cls-10,.cls-12,.cls-16,.cls-17,.cls-19,.cls-22,.cls-24{stroke:#040000;}.cls-10,.cls-12,.cls-16,.cls-24{stroke-linecap:round;}.cls-10,.cls-16,.cls-17,.cls-19,.cls-22,.cls-24{stroke-miterlimit:10;}.cls-10{stroke-width:6.28px;}.cls-11{clip-path:url(#clip-path-2);}.cls-12{stroke-linejoin:round;stroke-width:5.8px;}.cls-13{fill:#fff;}.cls-14{clip-path:url(#clip-path-3);}.cls-15{fill:#f6d8cf;}.cls-16{stroke-width:6.01px;}.cls-17,.cls-19{fill:#fcdcaf;}.cls-17{stroke-width:4.38px;}.cls-18{fill:#858585;}.cls-19{stroke-width:4.84px;}.cls-20{clip-path:url(#clip-path-4);}.cls-21{fill:url(#새_패턴_견본_6);}.cls-22{stroke-width:6.3px;}.cls-23{clip-path:url(#clip-path-5);}.cls-24{stroke-width:6.41px;}</style><clipPath id="clip-path" transform="translate(231.09 -24.02)"><rect class="cls-1" width="504.79" height="256.47"/></clipPath><clipPath id="clip-path-2" transform="translate(231.09 -24.02)"><path class="cls-1" d="M90.67,207.72c12.07-102,65.06-152,154.39-152s143.09,50,155.16,152h0c1.7,12.11,4.49,22.71,7.07,34.64,3,14,12.81,27.66,17.8,41,5.14,13.71,12,27.58,13.32,42.72,1.08,11.9-1.93,24.72-13.76,29-12.06,4.37-26.24-.87-37.21-12.87h0s-6.27,49.5-35.26,88.18c-30.38,40.55-16.82,58.15-45.06,58.15-35.49,0-19.79-62.23-62.06-62.23S218.49,488.56,183,488.56c-28.23,0-14.68-17.6-45.05-58.15-29-38.68-35.26-88.19-35.26-88.19-11,12-25.15,17.24-37.22,12.87-11.83-4.29-14.83-17.11-13.76-29,1.37-15.14,9.74-29,14.87-42.72,5-13.34,14-27,17-41,2.58-11.93,5.37-22.53,7.07-34.64Z"/></clipPath><clipPath id="clip-path-3" transform="translate(231.09 -24.02)"><path class="cls-1" d="M245.28,101.32c-53.45,0-96.78,38.07-96.78,85S191.83,256,245.28,256s96.78-22.67,96.78-69.63S298.73,101.32,245.28,101.32Z"/></clipPath><clipPath id="clip-path-4" transform="translate(231.09 -24.02)"><path class="cls-1" d="M301.64,347c0,26.72-25.34,41-56.61,41s-56.6-14.25-56.6-41,25.34-55.8,56.6-55.8S301.64,320.28,301.64,347Z"/></clipPath><pattern id="새_패턴_견본_6" data-name="새 패턴 견본 6" width="68" height="68" patternTransform="translate(2438.39 5308.23) scale(1.58 1.57)" patternUnits="userSpaceOnUse" viewBox="0 0 68 68"><rect class="cls-1" width="68" height="68"/><rect class="cls-2" width="68" height="68"/></pattern><clipPath id="clip-path-5" transform="translate(231.09 -24.02)"><path class="cls-1" d="M297.48,346.45c0,24.76-23.48,38-52.45,38s-52.44-13.2-52.44-38,23.48-51.69,52.44-51.69S297.48,321.7,297.48,346.45Z"/></clipPath></defs><g class="cls-3"><g id="레이어_2" data-name="레이어 2"><g id="레이어_1-2" data-name="레이어 1"><g class="cls-4"><g class="cls-5"><path class="cls-2" d="M353.43,99a150.41,150.41,0,0,0-13.26-12c.13-.21.25-.42.39-.63C345.27,78.83,354,71,360.51,71a7.29,7.29,0,0,1,5.5,2.41c2.47,2.61,3.82,7.18,3.54,11.93-.48,8.69-3.67,9.64-10,11.52A54.84,54.84,0,0,0,353.43,99Z" transform="translate(231.09 -24.02)"/><path class="cls-6" d="M360.51,74.39a3.9,3.9,0,0,1,3.06,1.35c1.82,1.92,2.85,5.63,2.62,9.44-.17,3.1-.79,5.15-1.83,6.09s-3.26,1.64-5.79,2.39c-1.36.4-2.81.83-4.32,1.38q-4.62-4.56-9.61-8.73c4.69-6.53,11.73-11.92,15.87-11.92m0-6.73c-8.44,0-18.12,9.43-22.82,16.94a36.26,36.26,0,0,0-1.81,3.31,145.67,145.67,0,0,1,16.82,15.16C362,98,372.05,100.9,372.91,85.56c.53-9-3.94-17.9-12.4-17.9Z" transform="translate(231.09 -24.02)"/><path class="cls-7" d="M145.62,434.3a147.31,147.31,0,0,1-21-1.56c-3.19-.44-6.45-1-9.6-1.57a140.13,140.13,0,0,0-19.83-2.54c-.84,0-1.67,0-2.5,0a118.46,118.46,0,0,0-12.69.78h0a.67.67,0,0,1-.6-.28.52.52,0,0,1-.05-.53c11.9-29.19,17.84-70.7,15.13-105.76a.55.55,0,0,1,.13-.45.74.74,0,0,1,.52-.23.53.53,0,0,1,.44.24L190,432.51a.62.62,0,0,1-.44,1c-4.55-.41-8.82-.61-13.12-.61-5.7,0-10.72.36-15.58.7S151.16,434.3,145.62,434.3Z" transform="translate(231.09 -24.02)"/><path class="cls-6" d="M97.79,329.4l58.43,68.16,28,32.69c-2.62-.15-5.2-.22-7.8-.22-5.8,0-10.87.36-15.78.7s-9.6.67-15,.67A144.62,144.62,0,0,1,125,429.87c-3.14-.44-6.37-1-9.49-1.56a142.54,142.54,0,0,0-20.25-2.58c-.84,0-1.71,0-2.59,0-2.83,0-5.79.14-9.28.44,10.39-27.39,15.84-64.21,14.37-96.73m-2.66-10.18a3.51,3.51,0,0,0-3.54,3.8c2.54,33-2.7,74.45-14.93,104.44a3.51,3.51,0,0,0,3.27,4.82l.39,0a116.54,116.54,0,0,1,12.38-.77c.8,0,1.6,0,2.4,0,9.82.32,19.41,2.73,29.13,4.09a150.89,150.89,0,0,0,21.39,1.59c11.26,0,19.61-1.37,30.82-1.37,3.85,0,8,.16,12.78.59l.34,0a3.53,3.53,0,0,0,2.65-5.83L97.78,320.47a3.42,3.42,0,0,0-2.65-1.25Z" transform="translate(231.09 -24.02)"/><path class="cls-7" d="M345.19,434.3c-5.53,0-10.47-.34-15.24-.67s-9.87-.7-15.57-.7c-4.31,0-8.57.2-13.05.61h0a.6.6,0,0,1-.6-.36.58.58,0,0,1,.09-.67l94.43-110.15a.54.54,0,0,1,.44-.24.72.72,0,0,1,.52.23.52.52,0,0,1,.13.45c-2.7,35.06,3.24,76.57,15.14,105.76a.55.55,0,0,1-.06.53.6.6,0,0,1-.52.29,119,119,0,0,0-12.77-.79c-.83,0-1.67,0-2.5,0a140.27,140.27,0,0,0-19.84,2.54c-3.14.55-6.4,1.13-9.59,1.57A147.45,147.45,0,0,1,345.19,434.3Z" transform="translate(231.09 -24.02)"/><path class="cls-6" d="M397.44,324.24h0M393,329.4c-1.46,32.52,4,69.34,14.37,96.73-3.49-.3-6.44-.44-9.27-.44-.88,0-1.75,0-2.6,0a142.4,142.4,0,0,0-20.24,2.58c-3.12.55-6.36,1.12-9.5,1.56a144.62,144.62,0,0,1-20.59,1.53c-5.43,0-10.1-.32-15-.67s-10-.7-15.79-.7c-2.59,0-5.18.07-7.8.22L393,329.4m2.66-10.18a3.42,3.42,0,0,0-2.64,1.25L298.61,430.62a3.53,3.53,0,0,0,2.64,5.83l.34,0c4.76-.43,8.94-.59,12.78-.59,11.22,0,19.56,1.37,30.82,1.37a151.12,151.12,0,0,0,21.4-1.59c9.72-1.36,19.31-3.77,29.12-4.09.8,0,1.61,0,2.41,0a116.7,116.7,0,0,1,12.38.77l.39,0a3.5,3.5,0,0,0,3.26-4.82c-12.22-30-17.47-71.44-14.92-104.44a3.52,3.52,0,0,0-3.55-3.8Z" transform="translate(231.09 -24.02)"/><path class="cls-8" d="M281.57,68.24c14-7.92,23.23-22.07,29.91-34.07a26.73,26.73,0,0,1,4-5.67,4,4,0,0,1,3-1.31c2.3,0,5.09,1.7,6.78,4.14,2.36,3.4,3.76,8.3,4.29,15a57.21,57.21,0,0,1-.44,13.39c-1.21,7.5-4.35,15.13-9.6,23.26Z" transform="translate(231.09 -24.02)"/><path class="cls-9" d="M318.49,30.36a6.25,6.25,0,0,1,4.18,2.78c2,2.92,3.25,7.31,3.73,13.42A54.16,54.16,0,0,1,326,59.21a55.61,55.61,0,0,1-7.77,19.86L288.5,67.53c11.68-8.52,19.74-21,25.75-31.81a23.06,23.06,0,0,1,3.53-5,.86.86,0,0,1,.71-.35m0-6.34a7.12,7.12,0,0,0-5.26,2.28,29.73,29.73,0,0,0-4.52,6.33c-8.42,15.11-19,29.88-35.21,35.88l47.25,18.34c5.44-8,9.92-16.83,11.5-26.64a60.26,60.26,0,0,0,.47-14.14c-.45-5.69-1.59-11.87-4.84-16.55-2.14-3.08-5.83-5.5-9.39-5.5Z" transform="translate(231.09 -24.02)"/><path class="cls-8" d="M170.59,83c-5.24-8.13-8.39-15.76-9.59-23.26a56.14,56.14,0,0,1-.44-13.39c.52-6.69,1.92-11.59,4.28-15,1.7-2.44,4.49-4.14,6.78-4.14a4,4,0,0,1,3,1.31,26.37,26.37,0,0,1,4,5.67c6.69,12,15.94,26.15,29.92,34.07Z" transform="translate(231.09 -24.02)"/><path class="cls-9" d="M171.62,30.36h0a.87.87,0,0,1,.72.35,23.77,23.77,0,0,1,3.53,5c6,10.79,14.07,23.29,25.74,31.81L171.89,79.07a55.76,55.76,0,0,1-7.76-19.86,53.62,53.62,0,0,1-.41-12.65c.48-6.11,1.7-10.5,3.73-13.42a6.23,6.23,0,0,1,4.17-2.78m0-6.34c-3.55,0-7.24,2.42-9.38,5.5-3.25,4.68-4.4,10.86-4.84,16.55a59.73,59.73,0,0,0,.47,14.14c1.57,9.81,6.06,18.67,11.49,26.64l47.25-18.34c-16.21-6-26.79-20.77-35.21-35.88a29.69,29.69,0,0,0-4.51-6.33A7.12,7.12,0,0,0,171.62,24Z" transform="translate(231.09 -24.02)"/><path class="cls-2" d="M90.67,207.84C102.74,106.06,155.73,56.19,245.06,56.19s143.09,49.87,155.16,151.65h0c1.7,12.08,4.49,22.65,7.07,34.56,3,14,12.81,27.58,17.8,40.89,5.14,13.67,12,27.52,13.32,42.61,1.08,11.87-1.93,24.66-13.76,28.94-12.06,4.36-26.24-.86-37.21-12.83h0s-6.27,49.38-35.26,88c-30.38,40.44-16.82,58-45.06,58-35.49,0-19.79-62.08-62.06-62.08S218.49,488,183,488c-28.23,0-14.68-17.56-45.05-58-29-38.59-35.26-88-35.26-88-11,12-25.15,17.19-37.22,12.83-11.83-4.28-14.83-17.07-13.76-28.94,1.37-15.09,9.74-28.94,14.87-42.61,5-13.31,14-26.92,17-40.89,2.58-11.91,5.37-22.48,7.07-34.56Z" transform="translate(231.09 -24.02)"/><path class="cls-10" d="M370.38,304.15a70.35,70.35,0,0,0,17.06,33.44" transform="translate(231.09 -24.02)"/><path class="cls-10" d="M102.68,337.59a70.34,70.34,0,0,0,17-33.44" transform="translate(231.09 -24.02)"/><path class="cls-2" d="M137.39,99a54.27,54.27,0,0,0-6.11-2.1c-6.35-1.88-9.53-2.83-10-11.51-.28-4.76,1.08-9.33,3.54-11.94A7.3,7.3,0,0,1,130.3,71c6.49,0,15.25,7.81,20,15.36l.37.62A150.29,150.29,0,0,0,137.39,99Z" transform="translate(231.09 -24.02)"/><path class="cls-6" d="M130.3,74.39c4.15,0,11.2,5.4,15.87,11.92q-5,4.16-9.61,8.73c-1.51-.55-3-1-4.32-1.38-2.52-.75-4.7-1.4-5.79-2.39s-1.65-3-1.83-6.1c-.22-3.8.81-7.51,2.63-9.43a3.89,3.89,0,0,1,3.05-1.35m0-6.73c-8.46,0-12.93,8.87-12.4,17.9.86,15.34,10.89,12.44,20.22,17.51a146.41,146.41,0,0,1,16.81-15.16,34,34,0,0,0-1.81-3.31c-4.69-7.51-14.37-16.94-22.82-16.94Z" transform="translate(231.09 -24.02)"/><g class="cls-11"><path class="cls-12" d="M412.25,185.47c-1.34,7.09-8.82,14.11-11.43,20.78a61.57,61.57,0,0,1-13.95,20.62c-4.34,4.42-16.8,12.52-12.27,20.53,2.49,4.41,8.83,5.14,13.12,5.27,16.38.49,41.64-5.84,41.64-5.84" transform="translate(231.09 -24.02)"/><path class="cls-12" d="M84.06,185.47a116.94,116.94,0,0,0,6,20.78,61.57,61.57,0,0,0,14,20.62c4.34,4.42,16.8,12.52,12.27,20.53-2.49,4.41-8.83,5.14-13.12,5.27-16.38.49-41.64-5.84-41.64-5.84" transform="translate(231.09 -24.02)"/></g><path class="cls-6" d="M245.06,62c43.11,0,77.49,12.1,102.19,36,25.22,24.39,40.95,61.57,46.74,110.5v.14c1.28,9.18,3.14,17.33,5.1,26,.68,3,1.37,6,2.05,9.14,2,9.21,6.47,17.94,10.8,26.37a151.11,151.11,0,0,1,7.25,15.5c1.12,3,2.33,6,3.5,8.95,4.16,10.39,8.46,21.15,9.45,32.13.5,5.55.57,18.85-9.64,22.55a19.66,19.66,0,0,1-6.68,1.15c-7.93,0-16.59-4.5-23.77-12.35l-10.91-11.93V341.8c-.64,4.51-7.67,49.71-34,84.85A153.81,153.81,0,0,0,325,467.43c-2.22,5.73-3.82,9.87-6.05,12-1.4,1.33-4,2.85-11.8,2.85-12,0-15.94-9-21.85-25-6.14-16.59-13.79-37.25-40.21-37.25S211,440.71,204.85,457.3c-5.91,15.95-9.84,25-21.86,25-7.8,0-10.4-1.52-11.79-2.85-2.24-2.13-3.84-6.27-6.06-12-3.77-9.75-8.93-23.1-22.18-40.78-27.6-36.84-34-84.74-34.06-85.21L107.2,328,98,338c-7.17,7.85-15.84,12.35-23.76,12.35a19.66,19.66,0,0,1-6.68-1.15c-10.21-3.7-10.15-17-9.65-22.55.88-9.64,5.13-19.25,9.24-28.55,1.81-4.09,3.68-8.32,5.26-12.53,1.82-4.87,4.22-9.8,6.76-15,4.18-8.61,8.5-17.5,10.52-26.85.67-3.11,1.37-6.18,2-9.14,2-8.63,3.82-16.78,5.1-26v-.14c5.8-49,21.4-86.19,46.37-110.51C167.77,74.07,202,62,245.06,62m0-6.28c-89.33,0-142.32,50-154.39,152h0c-1.7,12.11-4.49,22.71-7.07,34.64-3,14-12,27.66-17,41-5.13,13.71-13.5,27.58-14.87,42.72-1.07,11.9,1.93,24.72,13.76,29a25.83,25.83,0,0,0,8.82,1.53c9.75,0,20-5.23,28.4-14.4,0,0,6.27,49.51,35.26,88.19C168.31,471,154.76,488.56,183,488.56c35.5,0,19.8-62.23,62.07-62.23s26.57,62.23,62.06,62.23c28.24,0,14.68-17.6,45.06-58.15,29-38.68,35.26-88.18,35.26-88.18h0c8.38,9.17,18.64,14.4,28.4,14.4a25.73,25.73,0,0,0,8.81-1.53c11.83-4.29,14.84-17.11,13.76-29-1.37-15.14-8.18-29-13.32-42.72-5-13.34-14.77-27-17.8-41-2.58-11.93-5.37-22.53-7.07-34.64h0c-12.07-102-65.83-152-155.16-152Z" transform="translate(231.09 -24.02)"/><path class="cls-13" d="M245.17,101.32c-53.45,0-96.78,38.07-96.78,85S191.72,256,245.17,256,342,233.31,342,186.35,298.62,101.32,245.17,101.32Z" transform="translate(231.09 -24.02)"/><g class="cls-14"><ellipse class="cls-15" cx="570.14" cy="165.05" rx="32.21" ry="32.31"/><ellipse class="cls-15" cx="382.59" cy="165.05" rx="32.21" ry="32.31"/></g><path class="cls-6" d="M245.17,106.33c50.6,0,91.77,35.9,91.77,80,0,20.6-8.78,36.83-26.1,48.24-16.26,10.71-39,16.38-65.67,16.38s-49.41-5.67-65.68-16.38C162.18,223.18,153.4,207,153.4,186.35c0-44.12,41.17-80,91.77-80m0-5c-53.45,0-96.78,38.07-96.78,85S191.72,256,245.17,256,342,233.31,342,186.35s-43.33-85-96.78-85Z" transform="translate(231.09 -24.02)"/><ellipse class="cls-6" cx="434.68" cy="136.23" rx="13.97" ry="16.12"/><ellipse class="cls-13" cx="439.53" cy="131.95" rx="4.17" ry="4.18"/><ellipse class="cls-6" cx="518.05" cy="136.23" rx="13.97" ry="16.12"/><ellipse class="cls-13" cx="522.89" cy="131.95" rx="4.17" ry="4.18"/><path class="cls-16" d="M209.5,193.5a142.35,142.35,0,0,0,71.56,0" transform="translate(231.09 -24.02)"/><path class="cls-17" d="M277.18,120.75c-3.9,3.41-9.12,5.74-14.47,5.43-6-.35-11.36,2-17.43,2s-11.48-2.4-17.43-2c-5.36.31-10.58-2-14.47-5.43-8.27-7.24-5.66-18.7.87-26.33,7.51-8.77,19.68-13.17,31-13.17s23.51,4.4,31,13.17h0C282.84,102.05,285.45,113.51,277.18,120.75Z" transform="translate(231.09 -24.02)"/><path class="cls-18" d="M245.28,130.59a23.22,23.22,0,0,1-23.18-23.2,4.46,4.46,0,1,1,8.92,0,14.26,14.26,0,1,0,28.51,0,4.47,4.47,0,1,1,8.93,0A23.22,23.22,0,0,1,245.28,130.59Z" transform="translate(231.09 -24.02)"/><path class="cls-6" d="M264,105.28a2.1,2.1,0,0,1,2.09,2.11,20.82,20.82,0,1,1-41.63,0,2.1,2.1,0,1,1,4.2,0,16.62,16.62,0,1,0,33.24,0,2.1,2.1,0,0,1,2.1-2.11m0-4.72a6.83,6.83,0,0,0-6.83,6.83,11.9,11.9,0,1,1-23.79,0,6.82,6.82,0,1,0-13.64,0,25.54,25.54,0,1,0,51.08,0,6.83,6.83,0,0,0-6.82-6.83Z" transform="translate(231.09 -24.02)"/><path class="cls-19" d="M301.64,347c0,26.72-25.34,41-56.61,41s-56.6-14.25-56.6-41,25.34-55.8,56.6-55.8S301.64,320.28,301.64,347Z" transform="translate(231.09 -24.02)"/><g class="cls-20"><path class="cls-21" d="M-154,128.72c2.47-2.59,1.47-5.24-.59-7.59a4.48,4.48,0,0,1-.31-.62l-.32-.29-.55-.31a48.19,48.19,0,0,0-4.44-3.55,1.89,1.89,0,0,0-1.19-.36.92.92,0,0,0-.42-.2c-1.08.14-1.6,1-2.25,1.71h0l-.59.64h0l-1.35,1a130.17,130.17,0,0,1-13.22,7c-.51-.48-1-1-1.54-1.42s-1.24-.91-1.85-1.38v-.11c0-.77-.63-.94-1.21-1.16-.3-.11-.61-.21-.92-.3-.48-.35-.94-.72-1.43-1.07a1.84,1.84,0,0,0-1.05-.27c-.46-.43-1-.13-1.41.17l-.17.14a2.17,2.17,0,0,0-1,2.39c.67,2.21,1.32,4.44,1.87,6.68-2.2.9-4.4,1.8-6.62,2.67-1.65.64-3.3,1.36-5,1.88-.58.18-2.68.95-3.19.49a1,1,0,0,1-.19-.32.57.57,0,0,0,0-.14,1.83,1.83,0,0,0,.71-1.17,1.53,1.53,0,0,0,1-1.35,5.6,5.6,0,0,0,.13-1.13,5.59,5.59,0,0,0-.46-3.61c-1.36-3-4.26-5.36-7-7a1.93,1.93,0,0,0-2.2.06,2.41,2.41,0,0,0-.7.18,1.82,1.82,0,0,0-1.39.61c-3.93,4.89-9.78,7.76-14.39,11.9a12.38,12.38,0,0,0-2.82,3.6.84.84,0,0,0-.4.55c0,.11,0,.23,0,.35a9.24,9.24,0,0,0-.7,2.85,20,20,0,0,0,1,8c.85,2.29,3,5.59,5.89,5a5,5,0,0,0,2.84-2.21c1-1.27,2-2.49,3.16-3.67.91-1,1.86-1.9,2.83-2.82,3,1.34,6,2.65,9,3.78a19.47,19.47,0,0,0,10,.85,56.61,56.61,0,0,0,9-2c.07,1.86-.56,3.65-.63,5.5l-.12,1.83a1.59,1.59,0,0,0-.38,1.13,16.17,16.17,0,0,1-5.61,3.19,4.23,4.23,0,0,0-1.47.4,3.88,3.88,0,0,0-1,.3l-1.13.25c-1.14,0-2.3-.32-3.41.21l-3.06.08h0c-.75-.29-1.45.11-2.18.16s-1.46,0-2.2,0-1.69-.06-1.77,1.11a.25.25,0,0,0,.14.37c.19,1.26,0,2.62.93,3.71h0a3.35,3.35,0,0,0,.37,1.76,7.85,7.85,0,0,0,2.36,3.09,2.06,2.06,0,0,0,1.36,1.18l.58.13c.54.22,1.1.39,1.64.61a6.39,6.39,0,0,0,1.51.06,65.11,65.11,0,0,0,8,1,1.75,1.75,0,0,0-.16.42c-.65,4.29-2.5,8.33-4.06,12.34-1.66,4.24-3.36,8.47-5.26,12.61a118.14,118.14,0,0,1-6,11.48c-.84,1.38-2.27,2.91-2.12,4.63a6.39,6.39,0,0,0,1.45,3,1.47,1.47,0,0,0,.23,1.34c.39,2.16.57,4.38,2,6.22a5.13,5.13,0,0,0,3.05,1.59.63.63,0,0,0,.63.28.81.81,0,0,0,1,.1h0l.56-.39h0c1.73-.41,1.83-2,2.28-3.27h0c.26-1,1.26-1.55,1.31-2.62h0a11.07,11.07,0,0,0,1.62-3.44h0l.35-.58h0a6,6,0,0,0,.87-1.89h0l.07-.6c-.12-.8,1-1.18.7-2,.77-.13.79-.89,1.08-1.38.66-1.14,1.21-2.34,1.81-3.52h0c.1-.4.19-.79.29-1.19a18.7,18.7,0,0,0,1-3.26,1.34,1.34,0,0,1,.07-.18.09.09,0,0,1,0-.05c.51-.16.6-.6.66-1a8.22,8.22,0,0,0,1.27-3.4l.39-1.22c0-1,.87-1.71,1-2.69h0a34.12,34.12,0,0,0,1.62-4.92.67.67,0,0,0,0-.24h0c.29-.64.58-1.28.88-1.91h0c0-.38.09-.77.14-1.16.54-.51.49-1.21.6-1.85a3.84,3.84,0,0,0,.54-1.48c.42-1.11.8-2.23,1.15-3.36a1.17,1.17,0,0,0,.09-.32,37.65,37.65,0,0,0,1.19-5.09s0-.08,0-.11c.11-.42.23-.84.34-1.26a1.26,1.26,0,0,0,.26-.88s0,0,0,0c4.45-4.36,10.21-6.37,16-8.26,0,0,0,0,.06,0a3.1,3.1,0,0,0,3.25-1.05,3.42,3.42,0,0,0,.35-3.86,32.32,32.32,0,0,0-3.23-4.12c-1.44-.1-2.2-1.35-3.34-1.94h-.05a2.17,2.17,0,0,0-1.78-1h0c-1.2-.93-1.59-.79-3.47.34l-.07,0c-.34.08-.69.12-1,.21a17.09,17.09,0,0,0-2.28.89c-.18.08-.35.15-.52.24h0l-.31.1.78-10.87c.35-.19.71-.34,1-.53,2.56-1.45,5.05-3,7.56-4.53a9.9,9.9,0,0,0,3.35-2c3-1.77,6.16-3.46,9-5.51.2-.15.34-.29.52-.44A1.34,1.34,0,0,0-154,128.72Z" transform="translate(231.09 -24.02)"/></g><path class="cls-22" d="M301.64,347c0,26.72-25.34,41-56.61,41s-56.6-14.25-56.6-41,25.34-55.8,56.6-55.8S301.64,320.28,301.64,347Z" transform="translate(231.09 -24.02)"/><g class="cls-23"><path class="cls-2" d="M280.77,318.42c-.17-.26-.33-.41-.66-.33-1.2.29-3.3,4.38-2.82,5.81.31.92.32,1.4-.55,1.82-1.82.87-3.67,1.68-5.53,2.42a3.76,3.76,0,0,0-2.62.64c-.29.19-.57.41-.85.62a42.35,42.35,0,0,1-4.48,1.24l-.42.1-.41.1c-.09-.25-.17-.51-.26-.79a85.94,85.94,0,0,0-4-11.07,15.77,15.77,0,0,0-4.26-4.85,4.08,4.08,0,0,0-2.38-.44h-.64a13.15,13.15,0,0,0-2.95.3,1.08,1.08,0,0,0-.76.43,2.46,2.46,0,0,0,.17,1.45l.15.54a12.72,12.72,0,0,0,.46,1.45q.19.52.36,1.08c.29,1,.6,1.93.9,2.9.76,2.43,1.55,4.94,2.14,7.46a4.4,4.4,0,0,1,.08,2.4l-.51,0-.64-.06c-.61-.05-1.21-.11-1.81-.18-1-.11-2.07-.24-3.1-.37l-3.17-.38-5.4-1.55-3-.86a4,4,0,0,1-2.93-3.49,24,24,0,0,0-1.69-5.33c-.14-.32-.28-.64-.42-1-.74-1.74-1.5-3.55-3.09-3.86a23.8,23.8,0,0,1-3.88-1.24c-.34-.13-.68-.27-1-.39-.51-.2-1.39.27-2,.61l-.13.07a3.1,3.1,0,0,0,0,1c.2.8.42,1.6.65,2.4.33,1.13.66,2.31.89,3.49.92,4.62.72,8.67-.59,12-3.38,8.67-5,10.8-12,16.31-1.15.9-1.86,1.32-2.56,1.08s-1.1-1-1.74-2.56a4.36,4.36,0,0,0-.71-1.17,3.37,3.37,0,0,0-1.5,1c-.81.88-.56,1.63-.05,2.89a11.88,11.88,0,0,1,.46,1.27c1.16,4.38,4.33,6.45,7.75,8.36a6.22,6.22,0,0,0,4.62.51,17.39,17.39,0,0,0,8.29-5.7c.48-.6,1-1.17,1.51-1.71s.89-1,1.3-1.47c4.3-5.3,4.41-5.72,6.17-12.76a.19.19,0,0,1,0-.07c.12.1.25.19.38.28s.25.19.38.28a13,13,0,0,0,4.7,2.42,88.84,88.84,0,0,0,13.86,2l.8,0,.49,0a8.6,8.6,0,0,1,.33,2.56,1.85,1.85,0,0,0,.07.41c0,.13.05.25.07.37a18.69,18.69,0,0,1-1.44,9.83l-.13.35-.35-.11a35.29,35.29,0,0,1-9.64-4.35l-.84-.5a7.5,7.5,0,0,0-1-.55c-1.4,1.29-2.76.69-4,.16-.3-.13-.6-.27-.91-.38a3,3,0,0,0-2.19.71c.05.31.26,1,.38,1.39l.14.44a11.27,11.27,0,0,0,.78,2.07l.19.38a5,5,0,0,0,1.12,1.67c4.44,3.35,6,4.3,11,5.91.84.27,1.68.6,2.57.95l1.37.54.45.17-.17.48c-.42,1.18-.82,2.34-1.2,3.49-.88,2.58-1.7,5-2.73,7.38-2,4.52-4.12,9-6.43,13.28-2.41,4.51-5,7.52-8.13,9.48-1.4.88-1.69,1.76-1,3.06a18.13,18.13,0,0,1,.88,2c.78,2,1.51,3.86,3.77,4.32a1.38,1.38,0,0,1,.59.37l.09.09c2.12,1.8,3.89,1.72,5.44-.25.72-.93,1.4-1.94,2.06-2.91l.39-.58c.75-1.12,1.53-2.23,2.31-3.33,1.76-2.52,3.59-5.13,5.16-7.84a109.44,109.44,0,0,0,10.69-25.34,3.26,3.26,0,0,1,3.27-2.7,42,42,0,0,0,6.37-1.25c.73-.18,1.47-.37,2.21-.54a.74.74,0,0,0,.53-.43c.17-.55.39-1.09.62-1.64.82-2,1.53-3.79-.11-6a1.92,1.92,0,0,1-.3-1.11,4.68,4.68,0,0,0-.06-.49c-.13-.47-.28-.92-.47-1.51l-.09-.26-.24.22a6,6,0,0,0-.9,1c-1.8,2.71-4.5,3.24-6.65,3.39a2,2,0,0,1-1.63-.54,2.1,2.1,0,0,1-.53-1.5c0-4.12.13-7.75.32-11.08a2.8,2.8,0,0,1,1.5-2l.43-.21a21.45,21.45,0,0,0,2.07-.63q2.54-.9,5-1.81l1.56-.62c.79-.31,1.59-.6,2.37-.95,3.17-1.39,3.1-2.67,5.51-4.71,1.42-1.21,4-3.45,3.85-5.83C285.79,323.94,282.83,321.47,280.77,318.42Z" transform="translate(231.09 -24.02)"/></g><path class="cls-24" d="M214.73,418s33.4,10.84,62.31,0" transform="translate(231.09 -24.02)"/></g></g></g></g></g></svg>