<svg xmlns="http://www.w3.org/2000/svg" xmlns:xlink="http://www.w3.org/1999/xlink" viewBox="0 0 122.94 116.67"><defs><style>.cls-1,.cls-19{fill:none;}.cls-2{fill:#a43029;}.cls-3{fill:#b18858;}.cls-4{fill:#c9c5bd;}.cls-5{fill:url(#새_패턴_견본_7);}.cls-6{fill:url(#새_패턴_견본_3);}.cls-7{fill:url(#새_패턴_견본_4);}.cls-8{clip-path:url(#clip-path);}.cls-9{fill:#f7c5b6;}.cls-10{fill:#fff;}.cls-11{fill:#040000;}.cls-12{fill:url(#새_패턴_견본_4-7);}.cls-13{fill:#fde0af;}.cls-14{fill:#838684;}.cls-15{clip-path:url(#clip-path-2);}.cls-16{clip-path:url(#clip-path-3);}.cls-17{clip-path:url(#clip-path-4);}.cls-18{fill:#f6d8cf;}.cls-19{stroke:#040000;stroke-linecap:round;stroke-miterlimit:10;stroke-width:1.42px;}</style><pattern id="새_패턴_견본_7" data-name="새 패턴 견본 7" width="68" height="68" patternTransform="translate(36.4 260.76) rotate(38.04) scale(0.39)" patternUnits="userSpaceOnUse" viewBox="0 0 68 68"><rect class="cls-1" width="68" height="68"/><rect class="cls-4" width="68" height="68"/></pattern><pattern id="새_패턴_견본_3" data-name="새 패턴 견본 3" width="68" height="68" patternTransform="translate(36.4 260.76) rotate(38.04) scale(0.39)" patternUnits="userSpaceOnUse" viewBox="0 0 68 68"><rect class="cls-1" width="68" height="68"/><rect class="cls-2" width="68" height="68"/></pattern><pattern id="새_패턴_견본_4" data-name="새 패턴 견본 4" width="68" height="68" patternTransform="translate(36.4 260.76) rotate(38.04) scale(0.39)" patternUnits="userSpaceOnUse" viewBox="0 0 68 68"><rect class="cls-1" width="68" height="68"/><rect class="cls-3" width="68" height="68"/></pattern><clipPath id="clip-path"><ellipse class="cls-1" cx="68.73" cy="46.08" rx="26.28" ry="30" transform="translate(-9.91 71.82) rotate(-51.96)"/></clipPath><pattern id="새_패턴_견본_4-7" data-name="새 패턴 견본 4" width="68" height="68" patternTransform="translate(8.56 217.1) rotate(38.04) scale(0.42)" patternUnits="userSpaceOnUse" viewBox="0 0 68 68"><rect class="cls-1" width="68" height="68"/><rect class="cls-3" width="68" height="68"/></pattern><clipPath id="clip-path-2"><path class="cls-1" d="M53.16,88.59C49.1,93.78,42,92.7,36,88s-8.81-11.35-4.75-16.53,13.38-7,19.44-2.25S57.21,83.41,53.16,88.59Z"/></clipPath><clipPath id="clip-path-3"><path class="cls-1" d="M33.9,90.59c8.51,6.66-5.6,2.44-3,11.94,1.93,7,14.4,6.87,26.15,2.87a59.47,59.47,0,0,0,17.26-8.8c1-.72,1.91-1.44,2.85-2.18Q79,93,80.77,91.6c.6-.47,2.75-.38,3.54-.5l4-.61c2.56-.42,5.12-.87,7.66-1.39,6.55-1.34,13.34-3,19.09-6.52,4-2.46,8.47-6.54,6.78-11.73-1-3-4.41-3.85-7.25-3.61-3.62.31-7,2-10.25,3.28-1.31.51-2.65,1-4,1.43a43.47,43.47,0,0,0,4.42-8.3,39.32,39.32,0,0,0,2.94-17c-.79-11.73-8-21.51-17-28.56S70.42,6.36,58.84,8.42a39.57,39.57,0,0,0-15.83,7,43.53,43.53,0,0,0-6.21,5.45c-4.38,4.33-7.11,6.21-8.66,7,.5-3.06,1.44-6.51-.11-9-2-3.18-5.55-3.51-8.45-2.06-4,2-5.74,6.69-6.49,10.86-.7,3.95-1.14,11.14,1.08,14.73a6.56,6.56,0,0,0,7.47,3l0-.07q-1,2.11-1.91,4.22c-.48,1.09-1,2.19-1.43,3.29A59.52,59.52,0,0,0,14,71.67C12.9,84,15.83,96.16,23,96.35,32.89,96.62,25.4,83.94,33.9,90.59Z"/></clipPath><clipPath id="clip-path-4"><path class="cls-1" d="M84.32,26.42C71.55,16.42,53.93,17.6,45,29.05s-2.92,25.07,9.86,35.07,27.46,12.57,36.41,1.13S97.1,36.41,84.32,26.42Z"/></clipPath></defs><g id="레이어_2" data-name="레이어 2"><g id="레이어_1-2" data-name="레이어 1"><path class="cls-5" d="M94.47,24c3.79,1.3,7.72.28,11.31-1.11a6.51,6.51,0,0,1,1.68-.44c1.46-.16,2.3,1.38,2.26,2.66a7,7,0,0,1-1.34,3.55,12.52,12.52,0,0,1-2,2.37,14.07,14.07,0,0,1-5.71,2.93"/><path d="M100.9,34.67l-.43-1.49a13.21,13.21,0,0,0,5.4-2.77,11.85,11.85,0,0,0,1.87-2.22A6.33,6.33,0,0,0,109,25.05a2.22,2.22,0,0,0-.61-1.6.92.92,0,0,0-.8-.27,5.53,5.53,0,0,0-1.48.39c-3.3,1.28-7.64,2.57-11.85,1.13l.51-1.47c3.73,1.28,7.72.08,10.78-1.11a7.71,7.71,0,0,1,1.88-.49,2.54,2.54,0,0,1,2,.68,3.73,3.73,0,0,1,1.11,2.78A7.57,7.57,0,0,1,109,29a12.91,12.91,0,0,1-2.12,2.52A14.71,14.71,0,0,1,100.9,34.67Z"/><path class="cls-5" d="M84,15.78c-2.17-3.37-2.13-7.44-1.64-11.25a6.35,6.35,0,0,0,0-1.74c-.21-1.45-1.9-1.9-3.13-1.56a7,7,0,0,0-3.12,2.16,11.67,11.67,0,0,0-1.82,2.5,14,14,0,0,0-1.48,6.25"/><path d="M72.06,12.11a14.88,14.88,0,0,1,1.57-6.58,13.21,13.21,0,0,1,1.94-2.67A7.6,7.6,0,0,1,79.05.49a3.76,3.76,0,0,1,3,.4,2.48,2.48,0,0,1,1.13,1.79,7.11,7.11,0,0,1,0,1.95c-.41,3.25-.62,7.41,1.52,10.73l-1.3.84C80.94,12.46,81.14,8,81.59,4.43a5.77,5.77,0,0,0,0-1.54.94.94,0,0,0-.46-.7A2.18,2.18,0,0,0,79.46,2,6.32,6.32,0,0,0,76.7,3.92,11.29,11.29,0,0,0,75,6.26a13.34,13.34,0,0,0-1.39,5.91Z"/><path class="cls-6" d="M84.1,90.58c-6.38,6-12.75,16.57-14.59,25.32a37.24,37.24,0,0,0-4-3.55,74.45,74.45,0,0,0-6.46-3.81c-7.37-4.36-7.76-7-15.14-11.28"/><path d="M43.45,97.87a.78.78,0,0,1,.87-1.28A42.5,42.5,0,0,1,52,102.33a41.71,41.71,0,0,0,7.42,5.54c.71.42,1.45.82,2.17,1.21A38.72,38.72,0,0,1,66,111.73a31.44,31.44,0,0,1,3.08,2.66C71.19,106.13,77.12,96.1,83.56,90a.78.78,0,0,1,1.07,1.13C78,97.37,72,107.84,70.27,116.06a.77.77,0,0,1-1.3.39,36.75,36.75,0,0,0-3.9-3.47,37.84,37.84,0,0,0-4.18-2.54c-.73-.39-1.48-.8-2.21-1.24A43.09,43.09,0,0,1,51,103.48a40.78,40.78,0,0,0-7.47-5.55Z"/><path class="cls-6" d="M21.84,41.88c-4.3,7.63-13,16.36-21.06,20.24a36.65,36.65,0,0,1,4.39,3,73.9,73.9,0,0,1,5.26,5.36c6,6.1,8.61,5.85,14.59,12"/><path d="M24.55,83.08,24.47,83a41.14,41.14,0,0,0-7.19-5.91A43.12,43.12,0,0,1,9.88,71c-.59-.61-1.17-1.24-1.74-1.85a37.55,37.55,0,0,0-3.46-3.45,38.17,38.17,0,0,0-4.31-3,.78.78,0,0,1-.37-.7.79.79,0,0,1,.44-.66c7.56-3.65,16.27-12,20.72-19.93a.78.78,0,0,1,1.35.77C18.16,50,9.86,58.14,2.35,62.19a29.85,29.85,0,0,1,3.32,2.35,39.6,39.6,0,0,1,3.62,3.59c.55.6,1.12,1.23,1.7,1.81a41.75,41.75,0,0,0,7.16,5.88,43,43,0,0,1,7.43,6.1.78.78,0,0,1-1,1.16Z"/><path class="cls-7" d="M113.16,44.32c-2.1,2.37-3.47.54-5.73.1a31.66,31.66,0,0,0-1-4.74,5,5,0,0,1,.73-.29c1.77-.58,4.64-.8,6.11.35S114.4,42.93,113.16,44.32Z"/><path d="M106.74,45.07l-.08-.55a30.73,30.73,0,0,0-1-4.63l-.18-.63.6-.29c.25-.11.53-.22.81-.32,1.77-.58,5-.93,6.84.48A3.18,3.18,0,0,1,115,41.4a4.67,4.67,0,0,1-1.26,3.44c-1.87,2.12-3.47,1.46-4.88.87a8.15,8.15,0,0,0-1.58-.53Zm.63-4.93a32.39,32.39,0,0,1,.76,3.65,12.79,12.79,0,0,1,1.33.49c1.32.55,2,.82,3.12-.47h0a3.12,3.12,0,0,0,.88-2.27,1.64,1.64,0,0,0-.66-1.19c-1.12-.88-3.62-.81-5.39-.23Z"/><path class="cls-7" d="M59.74,2.53C57.94,5.14,60.05,6,61,8.12a31.35,31.35,0,0,1,4.84-.18c0-.26.08-.52.11-.78.13-1.86-.35-4.7-1.81-5.85S60.8,1,59.74,2.53Z"/><path d="M60.56,9l-.23-.51a8.8,8.8,0,0,0-.9-1.4c-.91-1.23-1.93-2.62-.33-4.95a4.73,4.73,0,0,1,3-2A3.2,3.2,0,0,1,64.64.7c1.8,1.41,2.25,4.67,2.11,6.52q0,.45-.12.87l-.13.65-.66,0a29.68,29.68,0,0,0-4.72.17Zm3.13-7a1.7,1.7,0,0,0-1.32-.35,3.19,3.19,0,0,0-2,1.4h0c-1,1.42-.55,2,.3,3.15a13.18,13.18,0,0,1,.79,1.17,30.86,30.86,0,0,1,3.73-.14V7.1C65.34,5.25,64.81,2.8,63.69,1.92Z"/><path class="cls-7" d="M33.9,90.59c8.51,6.66-5.6,2.44-3,11.94,1.93,7,14.4,6.87,26.15,2.87a59.47,59.47,0,0,0,17.26-8.8c1-.72,1.91-1.44,2.85-2.18Q79,93,80.77,91.6c.6-.47,2.75-.38,3.54-.5l4-.61c2.56-.42,5.12-.87,7.66-1.39,6.55-1.34,13.34-3,19.09-6.52,4-2.46,8.47-6.54,6.78-11.73-1-3-4.41-3.85-7.25-3.61-3.62.31-7,2-10.25,3.28-1.31.51-2.65,1-4,1.43a43.47,43.47,0,0,0,4.42-8.3,39.32,39.32,0,0,0,2.94-17c-.79-11.73-8-21.51-17-28.56S70.42,6.36,58.84,8.42a39.57,39.57,0,0,0-15.83,7,43.53,43.53,0,0,0-6.21,5.45c-4.38,4.33-7.11,6.21-8.66,7,.5-3.06,1.44-6.51-.11-9-2-3.18-5.55-3.51-8.45-2.06-4,2-5.74,6.69-6.49,10.86-.7,3.95-1.14,11.14,1.08,14.73a6.56,6.56,0,0,0,7.47,3l0-.07q-1,2.11-1.91,4.22c-.48,1.09-1,2.19-1.43,3.29A59.52,59.52,0,0,0,14,71.67C12.9,84,15.83,96.16,23,96.35,32.89,96.62,25.4,83.94,33.9,90.59Z"/><g class="cls-8"><circle class="cls-9" cx="94.71" cy="60.05" r="9.99"/><circle class="cls-9" cx="48.91" cy="24.23" r="9.99"/></g><path d="M25,35.19h0a.77.77,0,0,1-.1-1.09c1.54-1.86,2.47-6.36,2.48-6.4a.78.78,0,0,1,.91-.61.79.79,0,0,1,.61.92c0,.2-1,4.92-2.81,7.08A.78.78,0,0,1,25,35.19Z"/><path class="cls-10" d="M85.36,25.09c-13.55-10.6-32.3-9.27-41.87,3S40.28,54.8,53.83,65.4s29.16,13.29,38.73,1S98.91,35.7,85.36,25.09Z"/><path class="cls-11" d="M65.07,19.57a31.53,31.53,0,0,1,19.28,6.81c12.82,10,15.93,27.55,6.92,39.06a18.22,18.22,0,0,1-15,7.47c-6.6,0-14.23-3.12-21.49-8.8-6.76-5.29-11.35-11.26-13.29-17.27a18.3,18.3,0,0,1,3.23-17.78,25.45,25.45,0,0,1,20.3-9.49m0-1.63A27,27,0,0,0,43.49,28.06C33.91,40.29,40.28,54.8,53.83,65.4c7.32,5.73,15.24,9.15,22.49,9.15a19.93,19.93,0,0,0,16.24-8.1c9.57-12.24,6.35-30.75-7.2-41.36a33.06,33.06,0,0,0-20.29-7.15Z"/><polygon class="cls-12" points="85.69 15 85.69 15 85.69 15 85.69 15"/><path class="cls-13" d="M53.16,88.59C49.1,93.78,42,92.7,36,88s-8.81-11.35-4.75-16.53,13.38-7,19.44-2.25S57.21,83.41,53.16,88.59Z"/><path d="M35.49,88.57C28.56,83.15,26.6,76.07,30.61,71c4.13-5.29,14-7.48,20.53-2.38s6.77,15.21,2.63,20.5C49.76,94.19,42.42,94,35.49,88.57ZM50.18,69.79c-5.83-4.56-14.66-2.61-18.35,2.11-4.24,5.42-.16,11.71,4.62,15.45s11.86,6.18,16.1.76C56.24,83.39,56,74.35,50.18,69.79Z"/><path class="cls-13" d="M87.2,36.27a5.62,5.62,0,0,1-4-1.26c-1.22-1.08-2.78-1.47-4.08-2.48s-2.06-2.44-3.39-3.36a5.64,5.64,0,0,1-2.19-3.59c-.56-2.94,1.92-4.95,4.59-5.49a11.75,11.75,0,0,1,13.29,10.4h0C91.54,33.22,90.18,36.11,87.2,36.27Z"/><path d="M78.63,33.14a12.52,12.52,0,0,1-1.7-1.72,8.71,8.71,0,0,0-1.65-1.62,6.35,6.35,0,0,1-2.51-4.08C72.12,22.34,74.9,20,78,19.33A12.53,12.53,0,0,1,92.19,30.46c.14,3.13-1.51,6.4-5,6.59h0a6.46,6.46,0,0,1-4.57-1.46,9.48,9.48,0,0,0-2-1.22A12.38,12.38,0,0,1,78.63,33.14Zm-2.17-4.39a12.31,12.31,0,0,1,1.65,1.66,10.51,10.51,0,0,0,1.48,1.5A9.93,9.93,0,0,0,81.41,33a10.6,10.6,0,0,1,2.29,1.43,4.84,4.84,0,0,0,3.45,1.08h0c2.55-.14,3.59-2.68,3.49-5a11,11,0,0,0-12.36-9.68c-2.26.46-4.47,2.08-4,4.58a4.87,4.87,0,0,0,1.87,3.1Z"/><ellipse cx="66.18" cy="31.6" rx="4.15" ry="3.61" transform="translate(0.52 64.25) rotate(-51.96)"/><circle class="cls-10" cx="67.85" cy="31.5" r="1.08"/><ellipse cx="83.12" cy="44.85" rx="4.15" ry="3.61" transform="translate(-3.42 82.68) rotate(-51.96)"/><circle class="cls-10" cx="84.79" cy="44.75" r="1.08"/><path class="cls-14" d="M79.11,32.53a5.67,5.67,0,0,1-1-8,.57.57,0,0,1,.9.7,4.52,4.52,0,1,0,7.12,5.57.57.57,0,0,1,.9.7A5.67,5.67,0,0,1,79.11,32.53Z"/><path d="M87,30.75a.57.57,0,0,1,.1.8,5.66,5.66,0,1,1-8.92-7,.57.57,0,0,1,.9.7,4.52,4.52,0,1,0,7.12,5.57.57.57,0,0,1,.8-.1m1-1.22a2.12,2.12,0,0,0-3,.37,3,3,0,0,1-4.68-3.66,2.12,2.12,0,0,0-3.34-2.62,7.21,7.21,0,1,0,11.36,8.89,2.13,2.13,0,0,0-.36-3Z"/><g class="cls-15"><path class="cls-7" d="M51.87,81c.87-.13,1.08-.79,1-1.56a1,1,0,0,1,0-.17l0-.1L52.86,79a11.84,11.84,0,0,0-.32-1.36.47.47,0,0,0-.17-.25s0-.07,0-.1a.94.94,0,0,0-.7,0h0l-.21,0H51a34.32,34.32,0,0,1-3.62-.65,4.5,4.5,0,0,0-.08-.51c0-.19-.1-.37-.15-.55l0,0c.11-.16,0-.28-.06-.41l-.13-.2-.12-.42a.42.42,0,0,0-.16-.21c0-.16-.17-.18-.3-.19h0a.52.52,0,0,0-.55.32c-.21.52-.42,1.06-.66,1.57l-1.68-.48c-.42-.13-.85-.24-1.26-.39-.14-.06-.66-.23-.69-.39s0-.06,0-.09l0,0a.47.47,0,0,0,.32-.12.38.38,0,0,0,.4-.11,1.26,1.26,0,0,0,.2-.2,1.42,1.42,0,0,0,.46-.77A4.29,4.29,0,0,0,42.63,71a.48.48,0,0,0-.44-.32.6.6,0,0,0-.16-.08.48.48,0,0,0-.36-.09c-1.51.36-3.08,0-4.6.13a3,3,0,0,0-1.09.27.23.23,0,0,0-.16,0s0,0,0,.08a2.22,2.22,0,0,0-.57.45,4.87,4.87,0,0,0-1,1.69c-.18.57-.27,1.53.39,1.86a1.27,1.27,0,0,0,.88,0c.39-.1.78-.17,1.17-.23s.65-.09,1-.12c.37.71.75,1.42,1.17,2.1a4.85,4.85,0,0,0,1.82,1.69,14.16,14.16,0,0,0,2,1c-.27.37-.67.62-1,1l-.3.34a.39.39,0,0,0-.25.16,4.19,4.19,0,0,1-1.57-.23,1.14,1.14,0,0,0-.34-.15,1.25,1.25,0,0,0-.25-.09l-.25-.13c-.23-.16-.4-.41-.7-.47l-.6-.45h0c-.1-.17-.3-.2-.45-.3s-.29-.22-.42-.34-.32-.26-.51,0c0,0,0,0,0,.09a1.78,1.78,0,0,0-.39.86h0a.87.87,0,0,0-.19.4,2,2,0,0,0,0,1,.5.5,0,0,0,.08.44l.09.11c.08.12.16.24.23.36a1.27,1.27,0,0,0,.28.24,15.64,15.64,0,0,0,1.41,1.41.53.53,0,0,0-.1.06,14.48,14.48,0,0,1-2.66,1.77c-1,.58-1.93,1.14-2.93,1.65a28.19,28.19,0,0,1-2.91,1.32c-.37.14-.88.22-1.11.58a1.52,1.52,0,0,0-.18.81c-.08.08-.17.15-.16.29a3.31,3.31,0,0,0-.56,1.5,1.17,1.17,0,0,0,.35.77.14.14,0,0,0,.07.15c0,.09.07.16.18.17h.17c.39.18.65-.1.93-.29h0c.2-.15.48-.11.65-.31h0a2.55,2.55,0,0,0,.84-.42h0l.16-.06h0a1.47,1.47,0,0,0,.45-.23h0l.11-.11c.1-.17.37-.08.44-.29.17.09.29,0,.42-.1.3-.12.59-.27.89-.41h0l.23-.19a4.2,4.2,0,0,0,.68-.49l0,0h0a.28.28,0,0,0,.29-.1,2.07,2.07,0,0,0,.76-.47l.26-.18c.15-.2.43-.2.6-.37h0a9.79,9.79,0,0,0,1.06-.71s0,0,0,0h0l.47-.24h0l.21-.21c.18,0,.28-.16.39-.27a1,1,0,0,0,.33-.2c.25-.15.5-.31.74-.48l.06,0a9.58,9.58,0,0,0,1-.8s0,0,0,0l.26-.19a.31.31,0,0,0,.18-.13h0a9.5,9.5,0,0,1,4.36.82h0a.74.74,0,0,0,.79.29A.82.82,0,0,0,46,85.7a7,7,0,0,0,0-1.29c-.26-.24-.22-.6-.35-.88h0a.53.53,0,0,0-.19-.47h0c-.09-.37-.19-.4-.72-.47h0l-.23-.11a3.89,3.89,0,0,0-.58-.18l-.14,0h0l-.08,0c.61-.66,1.21-1.32,1.81-2l.28.06c.71.1,1.43.18,2.15.27a2.56,2.56,0,0,0,1,.12c.86.11,1.72.26,2.58.29h.17A.33.33,0,0,0,51.87,81Z"/></g><path d="M35.49,88.57C28.56,83.15,26.6,76.07,30.61,71c4.13-5.29,14-7.48,20.53-2.38s6.77,15.21,2.63,20.5C49.76,94.19,42.42,94,35.49,88.57ZM50.18,69.79c-5.83-4.56-14.66-2.61-18.35,2.11-4.24,5.42-.16,11.71,4.62,15.45s11.86,6.18,16.1.76C56.24,83.39,56,74.35,50.18,69.79Z"/><path class="cls-9" d="M76,48.74c-1.63,2.08-5.54,1.75-8.73-.75s-4.45-6.2-2.82-8.29l5.77,4.52Z"/><path d="M66.76,48.6c-3.58-2.8-4.88-6.92-3-9.37a.78.78,0,0,1,1.09-.14l11.55,9a.79.79,0,0,1,.13,1.09C74.65,51.67,70.34,51.4,66.76,48.6Zm-2.11-7.73c-.65,1.81.6,4.59,3.06,6.51s5.46,2.47,7.06,1.41Z"/><polygon points="85.19 15.66 86.21 14.34 86.22 14.35 85.19 15.66"/><polygon points="85.19 15.66 86.21 14.34 86.22 14.35 85.19 15.66"/><g class="cls-16"><path class="cls-6" d="M106.76,67.74c-1.23-.92-4.31-4.24-6-2.79-.94.8-.85,2.43-.7,3.51a25.69,25.69,0,0,0,.72,3.33"/><path d="M100,72a28.07,28.07,0,0,1-.74-3.43c-.1-.75-.41-3,1-4.21,1.9-1.63,4.59.71,6.2,2.12.31.26.58.5.77.64l-.93,1.24c-.24-.18-.52-.43-.85-.71-1.07-.93-3.3-2.87-4.19-2.11-.48.42-.63,1.36-.43,2.82a25.3,25.3,0,0,0,.7,3.23Z"/><path class="cls-6" d="M37.91,16.14A27.08,27.08,0,0,0,36.06,21a14.66,14.66,0,0,0-.22,6.08c.21,1.44.95,3.08.51,4.54-1.2,4-7.48-1.76-8.21-3.77"/><path d="M30.75,32a11.17,11.17,0,0,1-3.34-3.9l1.46-.53c.49,1.35,4,4.71,5.86,4.65.31,0,.66-.12.88-.84a5.69,5.69,0,0,0-.24-2.82,13.23,13.23,0,0,1-.3-1.39,15.13,15.13,0,0,1,.25-6.39,27.2,27.2,0,0,1,1.9-5l1.38.69a26.61,26.61,0,0,0-1.79,4.72A13.94,13.94,0,0,0,36.6,27c.06.39.16.81.27,1.25a7,7,0,0,1,.23,3.64,2.43,2.43,0,0,1-2.33,1.94A7,7,0,0,1,30.75,32Z"/></g><path d="M32.65,106.39a6.92,6.92,0,0,1-2.47-3.66c-1.49-5.4,2-7,4.15-8,.61-.28,1.53-.69,1.56-1,0-.1,0-.73-2.46-2.63s-3.05-1.79-3.15-1.75-.42,1.08-.54,1.74c-.41,2.27-1.11,6.09-6.72,5.94a7.27,7.27,0,0,1-5.32-2.62c-3.65-4.09-5.38-12.86-4.51-22.91a60.22,60.22,0,0,1,4.44-19.11c.47-1.11.95-2.22,1.43-3.31.42-.92.83-1.85,1.26-2.79a7.49,7.49,0,0,1-6.81-3.58c-2.39-3.88-1.87-11.43-1.18-15.27,1-5.81,3.36-9.65,6.9-11.42,3-1.51,7.11-1.37,9.45,2.34,1.43,2.26,1,5.19.52,7.84a50.63,50.63,0,0,0,7.05-6,44.8,44.8,0,0,1,6.31-5.53A39.94,39.94,0,0,1,58.71,7.66c13.41-2.39,25,4,32.43,9.78S107.52,33,108.43,46.56a39.87,39.87,0,0,1-3,17.38,43.55,43.55,0,0,1-3.28,6.55L104,69.8c.7-.27,1.42-.57,2.12-.86a28.39,28.39,0,0,1,8.34-2.47c3.16-.27,6.94.68,8.06,4.14,1.46,4.49-1,8.86-7.11,12.63-5.93,3.67-12.81,5.28-19.35,6.62-2.39.49-4.91.94-7.68,1.39-1.25.21-2.55.41-4,.62-.28,0-.64,0-1.07.07a7.54,7.54,0,0,0-2.11.28q-1.8,1.43-3.58,2.81c-.94.73-1.9,1.47-2.86,2.19a60.12,60.12,0,0,1-17.48,8.91c-9.55,3.26-18.48,3.69-23.32,1.13A8.79,8.79,0,0,1,32.65,106.39ZM34.38,90c2.3,1.8,3.18,3,3,4S36.17,95.65,35,96.19c-2.18,1-4.43,2-3.29,6.13a5.76,5.76,0,0,0,3,3.57c4.41,2.33,13.08,1.85,22.1-1.22a58.92,58.92,0,0,0,17-8.69c1-.71,1.91-1.45,2.84-2.17L80.29,91a5.65,5.65,0,0,1,3-.61,8.74,8.74,0,0,0,.91-.06l3.94-.61c2.75-.44,5.25-.9,7.62-1.38,6.4-1.31,13.13-2.88,18.84-6.42,3.79-2.34,8-6.12,6.46-10.83-.85-2.6-3.89-3.29-6.46-3.08a27.41,27.41,0,0,0-7.88,2.36c-.7.3-1.43.6-2.15.87-1.36.53-2.71,1-4,1.45a.79.79,0,0,1-.86-.27.77.77,0,0,1,0-.9A43.22,43.22,0,0,0,104,63.37a38.3,38.3,0,0,0,2.88-16.7c-.87-13-9.56-22.42-16.7-28S71.83,6.9,59,9.19A38.39,38.39,0,0,0,43.46,16a42.9,42.9,0,0,0-6.1,5.35c-4.48,4.43-7.29,6.35-8.86,7.18a.76.76,0,0,1-.81-.06.78.78,0,0,1-.32-.75c.07-.43.15-.86.23-1.3.46-2.59.95-5.27-.23-7.13-1.95-3.09-5.23-2.89-7.44-1.79-3.09,1.54-5.13,5-6.07,10.31C13,32.52,13,39,14.83,42a5.8,5.8,0,0,0,6.36,2.68.77.77,0,0,1,.81-.1.78.78,0,0,1,.38,1c-.65,1.41-1.28,2.82-1.9,4.21-.48,1.08-1,2.19-1.42,3.28a58.75,58.75,0,0,0-4.33,18.64c-.81,9.49.81,18,4.13,21.74a5.75,5.75,0,0,0,4.2,2.11c4.28.11,4.73-2.32,5.16-4.67.23-1.29.46-2.51,1.51-2.91S32.09,88.19,34.38,90Z"/><g class="cls-17"><ellipse class="cls-18" cx="90.01" cy="65.35" rx="10" ry="9.78" transform="translate(-16.92 95.97) rotate(-51.96)"/><ellipse class="cls-18" cx="45.17" cy="30.27" rx="10" ry="9.78" transform="translate(-6.5 47.2) rotate(-51.96)"/></g><path class="cls-19" d="M38.55,95.64s-3.94-6.82-10.78-8.21"/></g></g></svg>