<svg xmlns="http://www.w3.org/2000/svg" viewBox="0 0 110.04 136.62"><defs><style>.cls-1{fill:#d05559;}</style></defs><g id="레이어_2" data-name="레이어 2"><g id="레이어_1-2" data-name="레이어 1"><path class="cls-1" d="M3.62,56.62v-3H6.85v4.59L1.39,61.28,0,58.59ZM1.14,67.23V61.79H13.72v5.44H11l-.35-.46L8,67.23Zm3.14-2.3h6.29v-.85H4.28Zm.62-6.88H9.78v3.06H5.9Zm5.59-4.42h3.23v7.65H10.49Zm5.1,2.22v3.06H12.44V55.85Z"/><path class="cls-1" d="M.63,81.42,6,77.14V74H1V71H9.18v7.66L2.65,83.89Zm9.69-10.79h3.23v13.6H10.32Zm5.1,4.81V78.5H12.1V75.44Z"/><path class="cls-1" d="M58,81a10.48,10.48,0,0,0,8.09-3.19,4.25,4.25,0,0,0,1.29-2.46c.5-3,.07-5.94-2.59-7.84-2.1-1.5-4.63-2.43-6.94-3.65-.49-.26-.75-.06-1.2,0a6.13,6.13,0,0,0-3.28,2.4c-3.17,3.61-2.25,7.52-.45,11.23A5.84,5.84,0,0,0,58,81Z"/><path class="cls-1" d="M24.62,95.89c.55-.49.79-.84,1.08-.91a.9.9,0,0,1,.88.28,32.24,32.24,0,0,1,2.1,3.51c1,1.93,2.2,3.81,2.67,5.94a21.21,21.21,0,0,1-.11,9,72,72,0,0,1-1.79,7.16c-.91,2.72-2.16,5.25-3.14,7.94a5.14,5.14,0,0,0,0,2.4c.14.73.7,1.38.73,2.09.1,2.09,1.42,2.57,2.53,3.18s1.86-.36,2.53-1.16a9.64,9.64,0,0,0,1.55-2.67c1-2.52,1.87-5.11,2.78-7.68a41.39,41.39,0,0,0,2.27-11.57,1.89,1.89,0,0,1,1-1.85,6.45,6.45,0,0,1,6.48-.19,2.55,2.55,0,0,0,3.27-.77,2.5,2.5,0,0,0,.38-2.68,25.25,25.25,0,0,0-2-3.58.64.64,0,0,0-.48-.29c-2.78-.26-5.55-.79-8.31.07-.49.16-1,.24-1.5.36-1.38-3.94-2.69-7.82-5.45-10.44-.78-.74-1.59-1.45-2.4-2.14-.1-.09-.32.07-.49.07s-.61-.06-.91-.11a10,10,0,0,0-2.14-.36c-1,.05-1.55.94-1.75,2.06A10.14,10.14,0,0,0,24.62,95.89Z"/><path class="cls-1" d="M84.5,111c-1.8,2.24-5.49,5.63-7.57,6.45a.63.63,0,0,1-.83-.84h0c1.46-2.74,3.2-5.34,3.89-8.42a4.78,4.78,0,0,0-2.57-5.47,12,12,0,0,0-7-.76,30.19,30.19,0,0,0-8.09,3.13c-1.76.9-3.68,1.63-5.09,3.16a2.39,2.39,0,0,0-.56,2.87A5.28,5.28,0,0,0,64,112.86c1.77-1,3.59-2,5.84-3.21A11.66,11.66,0,0,1,67,114.21c-2.51,2.56-2.49,5.36-1.44,8.39a5.42,5.42,0,0,0,5.32,3.67c5.32-.64,10.51-2,14.93-5A23,23,0,0,0,92,115c1.94-2.8,3.45-5.73,2.59-8.44-.92-2.9-.3-3.19-.11-4.77A4.68,4.68,0,0,0,91.13,97a15.6,15.6,0,0,0-5.6-.69c-.35,0-.75,0-.88.35s.23.59.49.8C85.14,97.42,92.69,100.8,84.5,111Z"/><path class="cls-1" d="M26.39,110.62c-.43-.57-1.23-.88-1.3-1.7-.11-1.39-.9-1.11-1.55-.46-1.57,1.55-3.65,1.73-6,2.27a60.38,60.38,0,0,0,3.18-6.5,6.65,6.65,0,0,0-.18-5.81,5.37,5.37,0,0,0-4.23-3.14c-2.83-.55-5.67-1.56-8.47-.27-1.79.83-3.54.61-5.33.48-.33,0-.68-.58-1-.11a1.22,1.22,0,0,0-.11,1.46c2.11,2.49,1.48,5.35,1.23,8.16a79.33,79.33,0,0,1-1.47,8.21,5.53,5.53,0,0,0,3,5.74A3,3,0,0,0,8,117.87c.34-.51.64-1.05,1-1.59.48.13.53.67.88.86.83.45,1.17,1.45,2.51,1.37a48.78,48.78,0,0,0,12.91-2.9C27.68,114.79,28,112.73,26.39,110.62Zm-16.08-4c-.13-1.52-.25-2.88-.36-4.24-.06-.69.48-.75,1-.73a2.73,2.73,0,0,0,2.17-.84C13.07,102.18,11.86,104.7,10.31,106.63Z"/><path class="cls-1" d="M69.71,30.51a.17.17,0,0,1,.19.15c.17,1.29,1.49,1.86,1.82,3a4.33,4.33,0,0,0,4.49,2.84,4,4,0,0,1,2.46.23c0,.13,0,.26,0,.34a7.53,7.53,0,0,1-1,1.32A8.82,8.82,0,0,0,75,47.62a8.73,8.73,0,0,0,6,6.78c2.57.88,5,1.52,7.67.41a12.49,12.49,0,0,0,2.61-2c3.35-2.47,6.26-5.15,6-9.8a37.46,37.46,0,0,1,0-3.83c.1-2,1-3.76,1-5.73a4.1,4.1,0,0,1,.49-3c1.31,1.36,2.79,2.34,3.35,4.24.73,2.49.16,4.87-.31,7.21a15.37,15.37,0,0,1-2.23,6.25,5.76,5.76,0,0,0,1.71,8.37c2.29,1.36,4,1,5.26-1.22A31.46,31.46,0,0,0,109.71,45a18.05,18.05,0,0,0-3.44-14.64c-1.37-1.77-2.64-3.59-5.27-4.17-1.6-.34-3.2.14-4.73-.49-.51-.21-.93.14-.69.87a4.72,4.72,0,0,1,0,2.86,102.64,102.64,0,0,1-4,11.69c-1.42,3.41-4.42,5.37-8.08,6.41,1.34-2.27,2.84-4.41,4.28-6.59,2-3,1.38-6.78-1.31-8.42a16.52,16.52,0,0,0-7.35-2.23c-2.6-.21-5.17.3-7.76.22-.33,0-.8-.06-.93-.26"/><path class="cls-1" d="M40.87,81.93c-1.2,1.83-.94,3.43.59,4.27,3,1.65,6.19,2.14,9.39,2.58A38.92,38.92,0,0,0,69.2,87.11c7.63-2.67,14.56-6.63,19.86-13.52,1.37-1.78,2.86-3.45,4.15-5.29a6.52,6.52,0,0,0,.71-2.57,32.67,32.67,0,0,0,.27-3.29c.06-1.34,1.16-1.12,1.81-1.38,1.55-.63,2.83-1.8,4.54-2.16,1.87-.41,2.77.86,3.83,2,1.24,1.31,1.16,2.91.72,4.59a24.43,24.43,0,0,1-4.73,9.07q-3.8,4.74-7.9,9.16A43.2,43.2,0,0,1,80.2,92.47a44,44,0,0,1-12.33,4.14,54.32,54.32,0,0,1-7.55,1.18,42.2,42.2,0,0,1-7.41-.62,62.92,62.92,0,0,1-7.56-1.43,15.24,15.24,0,0,1-7-4.15c-.67-.7-1.58-1.37-1.18-2.77.12-.41-.31-1-.51-1.52-.82-2-.28-3.56,1.53-4.34C39,82.6,39.85,82.31,40.87,81.93Z"/><path class="cls-1" d="M74.35,13c-.1-.22-.2-.36-.47-.34-1,0-3.44,2.84-3.3,4,.1.75,0,1.11-.76,1.3-1.63.4-3.26.74-4.9,1a3.33,3.33,0,0,0-2.24.1c-.27.1-.53.23-.8.34a37.92,37.92,0,0,1-3.85.29h-.71c0-.2,0-.4-.07-.63a61.44,61.44,0,0,0-1.36-9,11.61,11.61,0,0,0-2.63-4.3,3.4,3.4,0,0,0-1.86-.69l-.52-.1a11.67,11.67,0,0,0-2.44-.2.93.93,0,0,0-.69.21c-.19.22-.15.68-.12,1.12a3.34,3.34,0,0,1,0,.43c0,.39.07.77.13,1.17s.08.58.11.87c.07.78.15,1.56.23,2.34.21,1.95.42,4,.46,6a3.26,3.26,0,0,1-.34,1.84l-.41-.1-.52-.14-1.43-.4-2.46-.74c-.83-.25-1.67-.51-2.51-.75l-4.12-2-2.26-1.09a3,3,0,0,1-1.79-3.08,17,17,0,0,0-.46-4.29c-.06-.26-.12-.53-.17-.81-.3-1.43-.61-2.91-1.85-3.38A18.86,18.86,0,0,1,27.33.54L26.57.09c-.38-.22-1.18,0-1.76.17l-.12,0a2,2,0,0,0-.14.78c0,.64.06,1.28.11,1.91.07.91.14,1.85.13,2.78a15.9,15.9,0,0,1-2.54,9C18,20.89,16.37,22.28,9.68,25.42c-1.09.51-1.74.73-2.26.44s-.73-.93-1-2.19a3,3,0,0,0-.38-1,2.8,2.8,0,0,0-1.38.51c-.81.55-.74,1.15-.54,2.18a6.85,6.85,0,0,1,.15,1c.2,3.49,2.42,5.53,4.87,7.47A5.37,5.37,0,0,0,12.82,35a15.32,15.32,0,0,0,7.72-3.1c.49-.39,1-.74,1.52-1.09s.88-.59,1.31-.92c4.4-3.39,4.56-3.69,7.2-8.77a.08.08,0,0,1,0-.05l.26.27.27.27a10.5,10.5,0,0,0,3.4,2.52,74.75,74.75,0,0,0,10.92,3.54l.65.15.39.09a6.25,6.25,0,0,1-.17,2,1.83,1.83,0,0,0,0,.33v.29a14.07,14.07,0,0,1-2.85,7.24l-.17.25L43,37.83a28.46,28.46,0,0,1-7.09-4.73l-.6-.5a5.54,5.54,0,0,0-.74-.56c-1.36.77-2.36.12-3.25-.46a6.79,6.79,0,0,0-.67-.42,2.61,2.61,0,0,0-1.9.21,9.17,9.17,0,0,0,.07,1.11l0,.35a8.77,8.77,0,0,0,.28,1.69l.09.31a3.68,3.68,0,0,0,.63,1.44c3,3.19,4.13,4.14,7.93,6.1.64.33,1.26.7,1.92,1.1l1,.61.34.2-.22.33c-.54.83-1.06,1.66-1.57,2.48-1.16,1.83-2.24,3.55-3.48,5.19-2.37,3.14-4.89,6.22-7.5,9.14a20.14,20.14,0,0,1-8.24,6c-1.28.46-1.67,1.08-1.33,2.17a15.49,15.49,0,0,1,.36,1.67c.29,1.61.56,3.14,2.32,3.83a1,1,0,0,1,.42.36l.06.08c1.41,1.68,2.87,1.88,4.46.61.75-.6,1.47-1.26,2.17-1.91l.42-.38c.8-.74,1.62-1.46,2.44-2.19,1.87-1.65,3.8-3.36,5.55-5.19A86.46,86.46,0,0,0,50,48.82a2.79,2.79,0,0,1,3.12-1.57,37.3,37.3,0,0,0,5.39,0l1.88-.09a.63.63,0,0,0,.51-.25c.24-.39.51-.77.78-1.15,1-1.42,1.9-2.65.94-4.55a1.51,1.51,0,0,1-.06-.89,1.33,1.33,0,0,0,0-.38c0-.37-.07-.74-.12-1.21l0-.21-.23.13a5.58,5.58,0,0,0-.9.61,7.07,7.07,0,0,1-6,1.6,1.62,1.62,0,0,1-1.24-.65A1.52,1.52,0,0,1,53.88,39c.72-3.12,1.43-5.86,2.16-8.36a2.32,2.32,0,0,1,1.56-1.33L58,29.2c.6,0,1.19-.09,1.79-.17l4.4-.64c.46-.07.92-.17,1.38-.24.7-.12,1.39-.22,2.09-.37,2.81-.6,3-1.57,5.28-2.77,1.37-.71,3.89-2,4.13-3.86C77.49,18,75.5,15.66,74.35,13Z"/></g></g></svg>