<svg xmlns="http://www.w3.org/2000/svg" xmlns:xlink="http://www.w3.org/1999/xlink" viewBox="0 0 1965.63 1693.12"><defs><style>.cls-1{fill:none;}.cls-2{fill:#e7d9d4;}.cls-3{clip-path:url(#clip-path);}.cls-4{fill:#e0cfc9;}</style><clipPath id="clip-path" transform="translate(26.24 707.11)"><rect class="cls-1" x="11.57" y="1.75" width="603.39" height="428.26"/></clipPath></defs><g id="레이어_2" data-name="레이어 2"><g id="레이어_1-2" data-name="레이어 1"><path class="cls-2" d="M1510.53,0c-8,1.51-16,4.12-24.11,4.38-123,3.9-246,7.27-368.91,11.26-47.58,1.55-95.11,4.62-142.68,6.39-21.9.81-43.86.13-66.7.13-.47,3.77-1,7.88-1.69,13.76l603-9.38.42,3.33c-4.31.45-8.61,1.22-12.92,1.29-36.61.58-73.22.81-109.82,1.57-92.13,1.92-184.26,4.44-276.4,6-50.72.84-101.46,0-152.2.33-14.08.08-28.16,1.61-42.25,2.09-7.21.25-10.22,3.12-9.89,10.33.44,9.42.11,18.88.11,29.86,205.65,3.33,410.14-3.16,614.58-12.47-16,12.4-557.63,26.16-619.44,17.48V0h5.3l3.86,14.56c7.49,0,14.94.14,22.38,0q116.27-2.47,232.54-5c74.51-1.59,149-2.87,223.52-4.85,22.81-.61,45.56-3.06,68.34-4.67Z" transform="translate(26.24 707.11)"/><path class="cls-2" d="M1939.39,854.35l-28.77-2.8c-7.56,44.66.22,88-1.3,131.29-10.08-42.55-6.18-85.74-6.73-129.51a58.51,58.51,0,0,0-7-1,77.13,77.13,0,0,0-8,.54V982.54c-11.92-20.25-7.49-42.42-8-63.91-.55-21.7-.12-43.43-.12-65.14l-4.29-1.26c-2.3,7-6.19,13.84-6.63,20.91-1.62,26.66-2.19,53.39-3,80.1-.26,8.76,0,17.54,0,29.16-11.47-12.79-9.9-66.81,1.17-129.32h-25.11c-2.62,42.56-5.27,85.43-7.92,128.29l-4,.5c-1-4.48-3.13-9-2.84-13.42.86-12.85,3.1-25.62,4-38.48,1.86-25.24,3.21-50.52,4.85-76.87h-20c-2.51,42.81-5,85.95-7.55,129.09l-2.84,1c-1.12-4.54-3.48-9.18-3.15-13.63,2.57-35.2,5.65-70.37,8.61-105.55.28-3.37.81-6.71,1.34-11h-26.34V983.78c-8.65-8.67-9.25-14.16-7.53-43.36.84-14.18,1.57-28.38,1.88-42.57.32-14.6.07-29.2.07-44.8h-25.34V980.72l-5.1.71c-1.11-4.83-3.3-9.7-3.14-14.49q1.64-47.76,4.2-95.48c1-19.47-.11-20.71-20.4-17.43q0,58.53,0,117.08c0,7.36,1.09,15.36-9.56,12.92.81-17.49,1.81-34,2.29-50.44q.94-33,1.13-65.93c0-7.11,1-15.12-11.2-14.37-9.74.6-17.07,1-15.92,13.92,1.17,13.26.33,26.7.13,40.06-.06,3.89-1,7.77-1.48,11.66l-4.12-.21V855.36c-22-1.2-24.1-.25-24.72,20.78-.86,29.67.06,59.39-.3,89.08-.08,6.34-2.38,12.66-3.66,19l-5.83-1c1.52-41.3,3-82.6,4.61-125h-21.94c-1.53,40.86-3.08,82-4.62,123.13l-5.27.29c-.73-8.84-2.42-17.72-2-26.51,1.37-30,4.11-60,5-90.1.41-13.65,8.54-15.44,18.88-15.66,45.82-1,91.64-2.06,137.47-2.47,44.27-.39,88.55-.18,132.82.27,5.77,0,11.52,3,17.27,4.68Z" transform="translate(26.24 707.11)"/><path class="cls-2" d="M764,0q2.64,210.11,5.26,420.2,1.34,108,2.6,216c.11,9.66,0,19.33,0,29l-4.49.29c-1.06-6.84-3-13.67-3-20.52-.66-81.47-.74-162.94-1.57-244.4-.93-91.37-2.66-182.74-3.65-274.11-.41-38.33.14-76.68.41-115,0-3.81,1.19-7.61,1.83-11.42Z" transform="translate(26.24 707.11)"/><path class="cls-2" d="M658.09,0c-.7,85.38-.68,170.77-2.28,256.14C654,354,650.57,451.79,648.18,549.63c-.77,31.47-.48,63-.64,94.44-.06,9.64,0,19.28,0,28.92l-4.85.21c-.93-6.9-2.83-13.83-2.66-20.7,1.86-72.4,4.25-144.77,6.06-217.17,1-41.78,1.3-83.59,1.94-125.38q2.19-142.87,4.51-285.74c.14-8.08,1.9-16.14,2.91-24.21Z" transform="translate(26.24 707.11)"/><path class="cls-2" d="M726.92,0c-2,102.59-4.15,205.19-5.83,307.78-.9,54.32-1.57,108.66-1.17,163,.44,60.32,2.23,120.62,3.33,180.93a25.82,25.82,0,0,1-3.93,15.17c-1.14-5.69-3.16-11.36-3.26-17.07-.46-26.7,0-53.41-.61-80.1-1-40.92-4.15-81.85-3.6-122.74,1.41-104.32,4.32-208.63,6.69-312.94q1.34-58.2,3-116.39c.18-5.89,1.77-11.75,2.7-17.62Z" transform="translate(26.24 707.11)"/><path class="cls-2" d="M827.52,0q.22,165.51.46,331,.22,151.29.44,302.56c0,6-.58,11.93-4,18.11-.45-6.92-1.28-13.84-1.31-20.76-.48-114.68-.67-229.36-1.3-344-.48-87.08-1.57-174.15-2.14-261.23-.06-8.55,1.67-17.11,2.56-25.67Z" transform="translate(26.24 707.11)"/><path class="cls-2" d="M869.88,0c11.33,76.65,10.71,153.85,10.46,231-.24,73.24-2.59,146.47-2.89,219.7-.26,62.9,1.06,125.8,1.66,188.7.08,7.63,0,15.27,0,22.9l-3.78.22c-.64-7.17-1.85-14.33-1.85-21.5.06-138.78,1.2-277.56,0-416.33C873,157.94,868,91.24,865.15,24.53c-.36-8.17-.39-16.35-.57-24.53Z" transform="translate(26.24 707.11)"/><path class="cls-2" d="M803.69,0c.71,47.86,1.28,95.72,2.14,143.58,1.93,107.4,4.39,214.79,5.85,322.2.79,57.75.1,115.52-.29,173.28a48,48,0,0,1-6.65,23.41c-.38-2.65-1.12-5.3-1.08-8,.66-49.16,2-98.32,2-147.48,0-51.31-1.26-102.62-2-153.92-1-73.32-2.39-146.64-3-220-.4-44.38.25-88.77.43-133.15Z" transform="translate(26.24 707.11)"/><path class="cls-2" d="M782.51,0c1.11,90,2.51,180,3.24,270.05,1,121.08,1.45,242.16,2.08,363.24a137.84,137.84,0,0,1-1,15.46c-.16,1.52-1.43,2.93-4.38,4.22q0-11.15,0-22.27c-.16-106.47.55-213-.75-319.41-1.16-94.8-4.62-189.58-6.81-284.37-.2-9,1.49-17.94,2.3-26.92Z" transform="translate(26.24 707.11)"/><path class="cls-2" d="M703.1,0c-1.79,117.66-4.21,235.32-5.17,353-.8,98.71.14,197.44.19,296.16,0,6.08-1.07,12.16-1.64,18.24l-5.06-.19c-.66-26.43-2-52.87-1.84-79.3.36-86.62.78-173.25,2.11-259.85.72-47.4,3.9-94.76,4.92-142.16,1.18-54.28,1.12-108.59,1.8-162.88.09-7.68,1.33-15.34,2-23Z" transform="translate(26.24 707.11)"/><path class="cls-2" d="M681.92,0c.49,87.88,1.79,175.77,1.18,263.64-.36,52.57-4.39,105.11-5.55,157.68-1.64,75-2.14,150-3.2,225-.07,5.13-.69,10.26-4.11,15.85-.92-5.82-2.6-11.64-2.61-17.46,0-18.1.64-36.21.93-54.32.92-58.17,1.31-116.35,2.85-174.5,1-39.21,4.84-78.36,5.33-117.56.7-57.3-1-114.62-.66-171.92.24-42.13,2.07-84.26,3.19-126.38Z" transform="translate(26.24 707.11)"/><path class="cls-2" d="M1939.39,647.23c-76.2-1.16-152.39-2.44-228.6-3.44-58.15-.76-116.3-1.12-174.45-1.78-3.69,0-7.38-1-11.06-1.6-.09-1.12-.18-2.24-.26-3.36,6-.92,12.09-2.72,18.11-2.63,46.66.74,93.32,2,140,2.8,79.27,1.33,158.56,2.39,237.84,3.64,6.15.1,12.29.78,18.43,1.2Z" transform="translate(26.24 707.11)"/><path class="cls-2" d="M1939.39,825.87c-61.7-1.06-123.41-2.83-185.12-3-71-.21-142,1-213,1.5a42.3,42.3,0,0,1-20.17-4.37c5.47-1,10.94-2.71,16.42-2.75,51.14-.39,102.28-.9,153.42-.57,80.68.52,161.35,1.67,242,2.5,2.15,0,4.3-.7,6.45-1.07Z" transform="translate(26.24 707.11)"/><path class="cls-2" d="M1939.39,779.27H1506.17c19.75-12.27,252-14.06,433.22-5.18Z" transform="translate(26.24 707.11)"/><path class="cls-2" d="M1939.39,572.16q-84.63-1.6-169.26-3.2-113.75-2.3-227.48-4.82a31.84,31.84,0,0,1-16.23-4.9c4.19-.82,8.4-2.44,12.57-2.34,49.34,1.24,98.67,2.79,148,4.15,47.16,1.3,94.31,2.69,141.47,3.62,33.51.66,67,.66,100.54.85,3.46,0,6.93-.74,10.39-1.13Z" transform="translate(26.24 707.11)"/><path class="cls-2" d="M636.91,908.72c26.81-.83,53.66-3,80.42-2.22,71.37,2.06,142.69,5.66,214,8.07,39.2,1.32,78.43,1.49,117.66,2.15,4.52.08,9,0,13.58,0,.05,1.3.09,2.59.14,3.88-4.47.38-9,1.21-13.4,1.08-60.37-1.77-120.73-4.3-181.11-5.39-69.2-1.25-138.43-1.24-207.64-1.82-7.9-.07-15.8-.39-23.7-.59Z" transform="translate(26.24 707.11)"/><path class="cls-2" d="M1939.39,758.56c-35.22-.9-70.45-1.93-105.68-2.67q-130.79-2.75-261.59-5.12c-14-.23-28.09,1.83-42.16,2.34-6.89.25-13.82-.63-20.72-1-.18-1.08-.36-2.16-.53-3.24,5-1,9.93-3,14.89-3,58.94.25,117.9.38,176.83,1.37,73.09,1.23,146.18,3.21,219.26,4.93,6.58.16,13.14.81,19.7,1.23Z" transform="translate(26.24 707.11)"/><path class="cls-2" d="M636.91,864.71c39.61.86,79.22,2,118.84,2.55q109.68,1.65,219.38,2.78c29,.31,58,.05,87,.05.11,1.85.22,3.71.34,5.56-6.65.7-13.31,2.08-19.94,2-47.58-.75-95.15-2-142.74-2.72q-115-1.83-230-3.23c-10.94-.14-21.89.51-32.84.79Z" transform="translate(26.24 707.11)"/><path class="cls-2" d="M1939.39,701.6c-85.35-2.5-170.69-5.79-256.06-7.19-48.36-.8-96.78,1.53-145.16,2.33a18.91,18.91,0,0,1-12.71-4.25c5.62-1.14,11.24-3.26,16.85-3.26,31.68,0,63.37,1.08,95,.68,29-.37,58.12-3.87,87.09-3,71.68,2.24,143.31,6.21,215,9.48Z" transform="translate(26.24 707.11)"/><path class="cls-2" d="M1939.39,445.3,1531.46,450c-.21-2.16-.43-4.31-.64-6.47,6.75-.93,13.51-2.75,20.25-2.66,47.12.65,94.24,2.47,141.35,2.4,61.21-.08,122.42-1.58,183.63-2.44,21.11-.29,42.23-.5,63.34-.75Z" transform="translate(26.24 707.11)"/><path class="cls-2" d="M1939.39,491.9l-128.11,2.6c-86.37,1.73-172.73,3.56-259.11,5-8.39.14-16.83-2.14-25.24-3.3l.33-3.94c17.18,0,34.36.16,51.54,0,82.85-.9,165.71-1.51,248.55-3,37.37-.7,74.7-3.32,112-5.07Z" transform="translate(26.24 707.11)"/><path class="cls-2" d="M1939.39,618.76q-93-1.6-185.94-3.23c-28.57-.54-57.13-1.81-85.7-2.11-39.18-.41-78.38-.08-117.57-.38-8.22-.07-16.44-1.53-24.66-2.35-.07-1.12-.13-2.24-.2-3.36,4.73-.68,9.48-2,14.2-2q106.24,1.88,212.51,4.1,88.42,1.71,176.86,3.4c3.51.07,7,.46,10.5.71Z" transform="translate(26.24 707.11)"/><path class="cls-2" d="M636.91,926.84c96.54-.72,193-1.27,289.39,6.95,40.33,3.44,80.94,3.71,121.43,5.43,4.07.17,8.14.41,12.21.61l0,4.47c-9.76,0-19.54.43-29.27-.06C966,941,901.31,936.1,836.55,934.52c-66.5-1.62-133.09-.07-199.64.09Z" transform="translate(26.24 707.11)"/><path class="cls-2" d="M636.91,724.9c47.6-.56,95.2-1.25,142.8-1.62,15.86-.12,31.72.69,47.59.91q109.69,1.53,219.39,3c5.87.08,11.73,1,17.59,1.47l-.27,4H636.91Z" transform="translate(26.24 707.11)"/><path class="cls-2" d="M1939.39,670.53c-53.26-1-106.52-2.37-159.78-2.93-72.66-.76-145.32-.92-218-1.3-12.58-.07-25.16,0-38.55-2.46,5.88-1.37,11.76-3.9,17.65-3.91,58.52-.17,117-.53,175.56.35,74.38,1.12,148.74,3.33,223.11,5.08Z" transform="translate(26.24 707.11)"/><path class="cls-2" d="M636.91,678.3l430.78,9.44c-143.61,6.33-287.18-1-430.78-1.67Z" transform="translate(26.24 707.11)"/><path class="cls-2" d="M1939.39,595.46c-31.74.2-63.51,1.26-95.22.44-78.39-2-156.75-5-235.13-7.39-20.27-.63-40.56-.62-60.82-1.23-7.39-.22-14.75-1.4-22.12-2.14l-.48-3.55c5.4-.7,10.82-2.12,16.2-2q87.86,2.45,175.7,5.35c47.07,1.62,94.13,4,141.21,5.36,26.86.75,53.77,0,80.66-.05Z" transform="translate(26.24 707.11)"/><path class="cls-2" d="M1939.39,388.34c-62.58.6-125.23,3-187.75,1.28-58-1.6-115.35,3.78-172.94,7.53a240.49,240.49,0,0,1-47.93-2.06c4.09-1.39,8.14-3.85,12.28-4,67.35-2.69,134.69-6,202.08-7.24,49.76-.88,99.58,1.39,149.38,1.73,15,.1,29.92-1.55,44.88-2.41Z" transform="translate(26.24 707.11)"/><path class="cls-2" d="M1939.39,466q-44.21,1.26-88.42,2.55c-75.32,2.32-150.64,4.92-226,6.91-24.64.65-49.33,0-74-.56-7.24-.16-14.44-1.89-21.66-2.89.09-1.76.17-3.53.26-5.29,16,0,32,.17,48,0q133.41-1.62,266.82-3.43c31.67-.46,63.32-1.61,95-2.45Z" transform="translate(26.24 707.11)"/><path class="cls-2" d="M1939.39,515.2l-412.15,5.59c-.23-1.08-.45-2.15-.67-3.23,5.09-1.29,10.18-3.68,15.26-3.69,47.5-.07,95,.52,142.51.36,21.55-.07,43.09-1.79,64.65-2.09,63.47-.89,126.94-1.44,190.4-2.12Z" transform="translate(26.24 707.11)"/><path class="cls-2" d="M636.91,882.83c22,0,44-.25,66.05.08,31.71.47,63.4,1.4,95.11,2.08,44.94,1,89.89,1.53,134.82,2.86,40.46,1.2,80.9,3.19,121.35,4.84.09,1.14.17,2.28.25,3.42-4.81.52-9.63,1.56-14.43,1.46-61.27-1.32-122.54-2.52-183.8-4.34-40.55-1.21-81-4.22-121.6-4.84-32.57-.5-65.17,1.38-97.75,2.2Z" transform="translate(26.24 707.11)"/><path class="cls-2" d="M636.91,973.44c45.77,1,91.53,2.23,137.3,3q103.71,1.75,207.45,3c22.33.28,44.66,0,67,0l-.06,5.86-411.69-4.15Z" transform="translate(26.24 707.11)"/><path class="cls-2" d="M636.91,846.58c41.4.75,82.79,2.2,124.19,2.1,71-.17,141.94-1.39,212.91-2,29.44-.25,58.89,0,88.89,2.94-4.5.8-9,2.26-13.5,2.32-78.91,1-157.82,2.11-236.74,2.49-53.36.27-106.73-.54-160.09-1-5.23-.05-10.44-1.1-15.66-1.68Z" transform="translate(26.24 707.11)"/><path class="cls-2" d="M636.91,789.63c54.56-1.49,109.12-3.8,163.69-4.28,78.39-.67,156.8-.05,235.21.13,6.49,0,13,.94,19.62,4.4-5.66.39-11.31,1.08-17,1.14q-196.86,2.31-393.73,4.47a76.49,76.49,0,0,1-7.81-.69Z" transform="translate(26.24 707.11)"/><path class="cls-2" d="M1939.39,367.63q-66.09-1.42-132.19-2.83c-41.84-.84-83.7-1.15-125.52-2.46-22.41-.7-44.75-3.88-67.16-4.33-17.06-.33-34.17,2-51.28,2.9a78.62,78.62,0,0,1-21.6-1.58,188.74,188.74,0,0,1,70.31-9.22c51.87,2.91,103.79,5.07,155.71,7.11,54.15,2.13,108.32,3.77,162.49,5.57,3.07.1,6.16-.22,9.24-.34Z" transform="translate(26.24 707.11)"/><path class="cls-2" d="M1939.39,538.5c-36.09.55-72.18,1.29-108.28,1.6-27.3.24-54.6-.09-81.91-.12-56.77-.07-113.54.4-170.3-.46-17.36-.27-34.67-4.17-52-6.4,0-1.66,0-3.31,0-5,6.92,0,13.84-.18,20.74,0q79.07,2.35,158.11,4.83c26,.78,51.94,2.22,77.9,2.06,48.4-.28,96.79-1.54,145.18-2.33,3.5-.06,7,.37,10.51.57Z" transform="translate(26.24 707.11)"/><path class="cls-2" d="M1939.39,730.08q-154.12-2.25-308.26-4.44c-28.64-.38-57.29,0-85.93-.33a48.83,48.83,0,0,1-19.21-4.4c137.91-4.11,275.65.74,413.4,4Z" transform="translate(26.24 707.11)"/><path class="cls-2" d="M636.91,805.16c24.18-.12,48.36-.42,72.54-.32,53.75.21,107.5,1.13,161.24.8,58.16-.37,116.31-1.84,174.46-2.81,4.25-.07,8.5,0,12.75,0,.13,1.19.27,2.37.41,3.56-4.3.47-8.59,1.31-12.9,1.35-92.54.85-185.1,1.43-277.64,2.46-43.63.49-87.24,1.8-130.86,2.74Z" transform="translate(26.24 707.11)"/><path class="cls-2" d="M636.91,701.6c50.62.79,101.23,2.35,151.84,2.16,49.3-.18,98.58-2.76,147.87-3.13,40.47-.31,81,1.06,121.43,1.78,1.13,0,2.25,1.11,5.53,2.84-4.36.7-6.91,1.44-9.47,1.46q-139.35,1.37-278.69,2.53c-46.17.34-92.34.1-138.51.13Z" transform="translate(26.24 707.11)"/><path class="cls-2" d="M636.91,748.2c32.11.27,64.21.83,96.32.76q153.46-.33,306.92-1h12.78c.13,1.2.25,2.41.37,3.61-5.19.53-10.38,1.49-15.57,1.51-85.13.28-170.26.22-255.39.72-48.48.29-97,1.44-145.43,2.2Z" transform="translate(26.24 707.11)"/><path class="cls-2" d="M636.91,947.55q118.17,4.91,236.32,9.78,29.07,1.17,58.18,1.47c35.26.32,70.52.26,105.78.47,3.85,0,7.7.84,11.55,1.29,0,1.23,0,2.45,0,3.68-19.29,0-38.59.52-57.85-.09-103-3.28-206.07-6.95-309.12-10.16-14.92-.47-29.89.84-44.84,1.33Z" transform="translate(26.24 707.11)"/><path class="cls-2" d="M636.91,768.91c65.2-1,130.39-2.47,195.58-3,70.07-.55,140.15-.25,210.22-.21,4.94,0,9.87.92,14.8,1.41l-.09,3.93c-5.32,0-10.64-.05-16,0q-181.15,1.74-362.33,3.56c-14.08.15-28.14,1.34-42.22,2Z" transform="translate(26.24 707.11)"/><path class="cls-2" d="M636.91,823.28c35.23.62,70.46,1.67,105.69,1.79,100.87.35,201.74.32,302.61.52,3.16,0,6.32.85,9.47,1.3v3.89c-7.59,0-15.17,0-22.75,0-83.29-.53-166.59-1.36-249.88-1.49-38.33-.06-76.66,1.49-115,1.81-10,.08-20.1-1.7-30.15-2.63Z" transform="translate(26.24 707.11)"/><path class="cls-2" d="M1740.85,0c-.37,47.4-.13,94.82-1.25,142.21-1.48,63-4,126-6.11,189l-4.73.59c-1.15-4-3.44-8-3.29-11.88C1728.2,252,1731.71,184,1734,116c1.11-33.1,0-66.27,0-99.4,0-5.55,1-11.09,1.51-16.64Z" transform="translate(26.24 707.11)"/><path class="cls-2" d="M1627,0c.11,21.06.8,42.12.23,63.16-1.56,57.77-3.57,115.53-5.58,173.28-.93,26.72-2.16,53.44-3.52,80.14-.35,6.69-1.72,13.32-2.63,20l-3.66.17c-.64-4.61-2-9.25-1.8-13.82,3.41-75.79,7.36-151.56,10.44-227.36,1.29-31.81.87-63.69,1.23-95.54Z" transform="translate(26.24 707.11)"/><path class="cls-2" d="M1717,0c-.85,62.43-1.38,124.87-2.65,187.29-.95,46.93-2.82,93.84-4.36,140.76a20.06,20.06,0,0,1-4,12c-1.1-4.5-3.25-9-3.15-13.5.73-34.83,2-69.66,2.92-104.49q2-71.66,3.77-143.3,1-39.37,2.17-78.75Z" transform="translate(26.24 707.11)"/><path class="cls-2" d="M1804.38,0c-.93,4.61-2.65,9.22-2.66,13.84q-.29,104.73-.14,209.47c0,32.29.46,64.57.4,96.86,0,5.75-1.49,11.49-2.3,17.24l-3.59,0c-.64-5.32-1.82-10.63-1.82-15.95,0-81-.21-162,.46-243,.22-26.15,2.84-52.28,4.36-78.42Z" transform="translate(26.24 707.11)"/><path class="cls-2" d="M1762,0q-4.79,168.09-9.58,336.17l-2.21.53c-1-5.51-3-11-3-16.53,0-27.11.35-54.22,1.06-81.32q2.6-98.79,5.71-197.57c.43-13.78,1.76-27.52,2.68-41.28Z" transform="translate(26.24 707.11)"/><path class="cls-2" d="M1582,0c2.68,30,7.34,60,7.61,90,.49,53.41-1.1,106.86-3,160.25-1,28.61-4.51,57.13-8.45,86.52-1.32-4.9-3.84-9.83-3.76-14.71.33-18.05,1.49-36.09,2.37-54.13,2.64-54.14,6.87-108.27,7.38-162.43.32-35.14-4.78-70.32-7.45-105.48Z" transform="translate(26.24 707.11)"/><path class="cls-2" d="M1815,0l9.14,336.38-3.15.78c-1.15-4.83-3.17-9.64-3.3-14.5-1.27-48.15-2.12-96.32-3.29-144.48q-2.19-89.1-4.69-178.18Z" transform="translate(26.24 707.11)"/><path class="cls-2" d="M1915.57,0c2.06,66.7,4.32,133.4,6.11,200.11,1.09,40.91,1.46,81.85,2.13,122.78.08,5.13,0,10.27,0,15.4l-4.15.92c-1.26-7.19-3.57-14.38-3.61-21.58-.28-56.44.61-112.9-.34-169.32-.82-49.45-3.56-98.87-5.45-148.31Z" transform="translate(26.24 707.11)"/><path class="cls-2" d="M1566.12,0c.72,4.67,2,9.32,2.06,14,.92,37.92,3.14,75.88,2,113.74-1.89,65.7-5.83,131.34-9.08,197A25.89,25.89,0,0,1,1555,340.4c-.52-5.37-1.86-10.8-1.44-16.09,3-37.79,6.71-75.53,9.32-113.34.92-13.19-.63-26.54-1.14-39.82-.16-4.29-1-8.58-.89-12.86.49-34.74,1.4-69.47,1.58-104.21.09-18-1.06-36-1.64-54.08Z" transform="translate(26.24 707.11)"/><path class="cls-2" d="M1605.83,0c.41,113.21,3.45,226.48-7.38,339.41l-4.23.35c-.8-5.54-2.73-11.19-2.24-16.62,9.76-107.55,9.54-215.33,8.56-323.14Z" transform="translate(26.24 707.11)"/><path class="cls-2" d="M1648.19,0c-.43,54.3-.58,108.6-1.38,162.88-.77,51.71-2.2,103.4-3.43,155.09-.1,4.46-.92,8.91-1.4,13.36l-3.78.33c-.86-5.93-2.63-11.88-2.44-17.78,1.4-44.31,3.75-88.6,4.72-132.92,1.31-60.31,1.65-120.64,2.41-181Z" transform="translate(26.24 707.11)"/><path class="cls-2" d="M1833.5,0c1.82,70.56,3.88,141.11,5.34,211.67.72,34.86.31,69.73.41,104.6,0,5,0,10,0,15l-4.09.37c-.48-4.22-1.27-8.43-1.4-12.66q-4.4-139.44-8.57-278.89c-.39-13.33.22-26.69.37-40Z" transform="translate(26.24 707.11)"/><path class="cls-2" d="M1695.84,0c1.62,112.1,0,224.1-14,336.6-1.25-5.88-4.1-11.93-3.52-17.64,10.81-106.08,14.13-212.42,12.23-319Z" transform="translate(26.24 707.11)"/><path class="cls-2" d="M1672,0c.21,48.56,1.25,97.13.42,145.67-1,55.14-3.52,110.26-5.5,165.38-.22,6.13-1.17,12.24-1.77,18.35l-4.09-.12c-.71-5.8-2.27-11.63-2-17.39,2.8-58.49,6.16-116.95,8.75-175.45.78-17.58-.51-35.23-.55-52.85-.06-23.57.2-47.13.22-70.7,0-4.3-.5-8.59-.77-12.89Z" transform="translate(26.24 707.11)"/><path class="cls-2" d="M1780.55,0c-5.78,112.12-9.16,224.27.27,336.52l-6.37.64c-1.33-9.13-3.4-18.22-3.88-27.39-4.49-86.52-1-173,2.21-259.44.63-16.79,1.64-33.56,2.48-50.33Z" transform="translate(26.24 707.11)"/><path class="cls-2" d="M1542.3,0c1.14,49.9,2.83,99.8,3.29,149.71.57,62.43.13,124.86.13,187.29l-4.41,1c-1.5-5.48-4.35-11-4.28-16.42.51-39.6,2.43-79.2,2.33-118.79-.18-67.59-1.51-135.18-2.36-202.77Z" transform="translate(26.24 707.11)"/><path class="cls-2" d="M1507.66,140.94,903.6,152.5v67.82c25.72-1.37,51.46-4.19,77.16-3.83,64.35.9,128.67,4.07,193,4.82,103.18,1.2,206.37,1.19,309.56,1.69,6.79,0,13.57,0,20.32,2.29-200,9.56-399.94-5-602,.31v75.49l602.23,7.6c-100.26,10.18-200.63-.62-301,1.32s-200.89-.63-303.66-1.25V619.93h3.33q0-111.45,0-222.89c0-20.65-.54-41.31,0-61.93.11-3.78,4.45-7.43,6.84-11.14,2.57,3.36,7.18,6.62,7.37,10.12.83,14.94.36,29.95.36,44.94l4.36.07V324.06l5.73-.08c1.46,52.52-.21,105.15.57,157.7l3.76,0V341.53l5.84.1Q935,509,932.61,676.31l-4.58.45L923.75,669l-1.91,10.27c-1.43-.86-3-1.26-3.25-2-1.24-4.48-3.11-9.07-3-13.58,1.25-51.19,2.83-102.37,4.29-153.56.12-4.26,0-8.54-1.52-12.85q-1.44,49.52-2.91,99c-.7,22.83-1,45.7-2.76,68.45-.38,4.82-6.38,9.22-10.16,14.31-1-1.34-2.37-3.24-4.63-6.31-1,3-1.68,5.31-2.4,7.6l-3.7-.5c-6.74-193.61,5.53-387,6.67-580.49l4.83-.1v26.6l598.13-7.47c0,1.55.06,3.1.08,4.65L904.27,133.25v15.48c46.29-2.44,91.94-5.75,137.65-7,65.65-1.87,131.34-2.56,197-3.2,48.93-.47,97.86.13,146.79-.12,36.16-.19,72.32-1,108.47-1.48,4.51-.06,9,.42,13.53.65,0,1.14,0,2.27-.07,3.41M909.9,553h2.37V333.24H909.9Zm12.19-160.87-1.87-.27V468l1.87,0Z" transform="translate(26.24 707.11)"/><path class="cls-2" d="M1128.63,332.77h-87.56c0-1.21,0-2.42,0-3.63,160.34-7.9,320.89-3.6,481.33-6.17.15,1.06.31,2.13.46,3.2-5.08.75-10.15,1.78-15.26,2.15s-10.35.09-16.09.09c1.29,35.44,2.76,69.35,3.71,103.28,1.83,65.95,4.25,131.91,4.71,197.88.29,40.08-3.94,80.18-3.82,120.27.17,57.76,2.51,115.53,3.79,173.29.3,13.48,0,27,0,40.46l-4.11-.08c-1.22-38.44-3.1-76.89-3.51-115.34-.65-59.95,0-119.92-.46-179.87-.6-74.13-1.4-148.27-2.89-222.4-.78-38.63-3.23-77.23-4.86-114.46H1182.91c-1.57,216.49-6.39,430.1-10.83,643.72l-7.26-.12q3.47-159.93,6.92-319.86,3.49-160.23,7-320.71h-20.38c3.95,214.2-.11,427.46-3.6,640.73l-5.24.44c-.72-5.27-2.15-10.55-2-15.8.61-32.34,1.85-64.67,2.35-97,1.79-118.14,3.63-236.29,4.92-354.44.63-57.74.11-115.49.11-172.36-19.63-5.07-20.9-4.67-20.43,10.92,1.4,46.13,4.88,92.24,4.88,138.35,0,104-1.31,207.92-2.72,311.86-.72,53.45-2.71,106.88-4.38,160.32a44.13,44.13,0,0,1-5.55,20c6.46-214.63,13.28-429.15,1.93-644.68" transform="translate(26.24 707.11)"/><path class="cls-2" d="M1384,973.84q-2.19-315.68-4.37-631.35l-4.48-.24c-.67,5.23-1.82,10.44-2,15.68-1.91,71.09-5.19,142.18-5.12,213.27.11,106,2.77,212.09,4,318.13.27,24.12-.87,48.26-1.72,72.38a28.8,28.8,0,0,1-5.95,16.45c-.67-5.08-1.89-10.15-1.93-15.23-.75-98.22-1.86-196.44-1.84-294.67,0-71.11,1.2-142.23,2.59-213.33.7-35.32,3-70.6,4.74-105.89.27-5.48-1.7-14.5,7.88-12.53,4.14.85,9.57,8.83,9.61,13.61.53,59.5-.23,119,.14,178.51.38,61.65,2,123.28,2.44,184.92.58,82.36.57,164.71.74,247.07,0,4.41-.61,8.83-.94,13.25Z" transform="translate(26.24 707.11)"/><path class="cls-2" d="M998,334.61V503.68l1.13.07L1003,333.88l3.36.12V676c-10.2-18.68-4.8-39.44-10.37-59v59.6l-3.79.44c-1.52-5.69-3-11.38-4.78-17.91L985.68,674l-3.18.69c-1.19-4.82-3.47-9.64-3.41-14.44q1.92-154.4,4.35-308.78c0-2.52.54-5,.82-7.54l3.29-.07V475.37l2.26,0,4.38-140.93,3.76.19M987.33,594.82l.89.28V524.21h-.89Z" transform="translate(26.24 707.11)"/><path class="cls-2" d="M979.78,332.41q-2.4,173.16-4.79,346.31l-4.28.52-4.22-21.94c-1,5.34-2.27,12.34-3.55,19.33l-5.51-.38q3.93-173.76,7.87-347.54H968V581.19h4V332.34l7.83.07" transform="translate(26.24 707.11)"/><path class="cls-2" d="M956,332c6.85,113.17-2.74,226.21-1.62,339.33l-5.92.12V604.58l-4.83,0V673l-4.66.71c-1-5.24-3.08-10.49-3-15.7.79-37.9,2.29-75.78,3-113.68,1.25-63.34,2.09-126.7,3.16-190,.07-4.11.62-8.2.95-12.31l3.27.1V563.65l4.06,0V332L956,332" transform="translate(26.24 707.11)"/><path class="cls-2" d="M847.39,676.86c-1.21-11.69-3.54-23.39-3.43-35.07.43-46.12,2.19-92.23,2.42-138.35.46-91.8.27-183.6.3-275.39,0-67.21-.09-134.42.05-201.63,0-6.63,1.37-13.25,2.1-19.87l3.76.28V676l-5.2.87" transform="translate(26.24 707.11)"/><path class="cls-2" d="M740.6,666.51c4.46-220.17-3.52-440.4,7-660.55-7,220.18,6.3,440.42,0,660.6l-7,0" transform="translate(26.24 707.11)"/><path class="cls-2" d="M1468.28,974.93q0-37.75,0-75.51-.09-124.7-.22-249.39c0-32.28,0-64.55-.3-96.82-.14-12.9-2-25.79-1.78-38.66.52-33.47,1.91-66.93,2.6-100.4.39-18.46.07-36.93.07-55.4l4.07,0c0,68.19-.47,136.39.13,204.57.6,68.48,4.35,137,2.85,205.41-1.51,68.65,4.91,137.51-2.17,206l-5.25.14" transform="translate(26.24 707.11)"/><path class="cls-2" d="M1206.24,353q-3.79,309.38-7.6,618.74l-3.74.33c-1-5.22-2.83-10.43-2.89-15.66-.3-30.16-.63-60.34-.13-90.5q3.28-195.27,7-390.53,1-55,2.33-109.9c.1-4.13,1-8.23,1.58-12.34l3.41-.14" transform="translate(26.24 707.11)"/><path class="cls-2" d="M1305,351.11q-3.81,311.37-7.64,622.73l-3.45.12c-.87-5.47-2.48-10.94-2.51-16.41-.31-64.64-4.67-129.62.56-193.84,6.54-80.21,2-160.29,5.11-240.37,2-51.25,1.49-102.6,2.28-153.9.09-6.2,1.23-12.4,1.89-18.6l3.76.27" transform="translate(26.24 707.11)"/><path class="cls-2" d="M1449.61,976.87c-8.56-18.39-11-584.71-1.56-622.45.51,6.37,1.5,12.74,1.44,19.1-.74,81.49-2.68,163-2.23,244.47.59,107.34,3.12,214.67,4.57,322,.15,11.41-1.33,22.85-2.22,36.87" transform="translate(26.24 707.11)"/><path class="cls-2" d="M1424.63,348.33l7.19,615.4c-7.62-12.65-14.39-597.77-7.19-615.4" transform="translate(26.24 707.11)"/><path class="cls-2" d="M1403.71,966.72c5.36-208.82-11.64-417.41-6.47-626.23l5.42-.55c1.07,6.41,3.07,12.82,3.07,19.22,0,65.47-.94,130.94-.39,196.41,1.11,132.8,3,265.61,4.51,398.41.05,4.18-.53,8.35-.81,12.53l-5.33.21" transform="translate(26.24 707.11)"/><path class="cls-2" d="M1312.59,977.73c-4.54-208.91,4-417.6,13.11-626.28q-4.5,313.19-9,626.36l-4.14-.08" transform="translate(26.24 707.11)"/><path class="cls-2" d="M1119,350c-2,209.24,6,418.58-8.19,627.69l-3.48.28c-.78-7.86-2.48-15.76-2.19-23.58,1.69-46.1,5.05-92.17,5.61-138.27,1.41-117.73,1.69-235.47,2.33-353.2.19-34.94.07-69.88.17-104.81a67.09,67.09,0,0,1,1-8.41Z" transform="translate(26.24 707.11)"/><path class="cls-2" d="M1508.44,166c-199.56-3.46-399.14-3.63-598.58,7.72C939.37,153,1471.11,158.8,1508.44,166" transform="translate(26.24 707.11)"/><path class="cls-2" d="M1242.16,975.68c-.74-7.37-2.3-14.77-2.08-22.11,1.63-54.72,4.43-109.41,5.33-164.13,2.33-141.37,3.86-282.75,5.77-424.13.09-6.59.78-13.17,3.37-19.62,3.14,210.06-.45,419.92-8.21,629.71Z" transform="translate(26.24 707.11)"/><path class="cls-2" d="M1219.14,979.49c-.88-6.26-2.34-12.5-2.56-18.78-2.48-70.75.62-141.27,6.45-211.84,3.22-39,2.25-78.43,2.36-117.66.14-56-.65-112-.67-168,0-34.88.63-69.75,1.11-104.63a27.39,27.39,0,0,1,3-12.26c6,211.14-.44,422.05-9.71,633.12" transform="translate(26.24 707.11)"/><path class="cls-2" d="M1274.43,346c7.9,16.39-2.25,611.63-10.5,628.21L1274.43,346" transform="translate(26.24 707.11)"/><path class="cls-2" d="M1347,354.06c.32,4.81,1,9.63.91,14.44-2.71,148.76-5.91,297.52-8,446.29-.46,33.54,3.57,67.13,4.59,100.73.58,19.16-.74,38.37-1.21,57.56l-4.45.08c-.74-4.83-2-9.64-2.16-14.49-1.41-34.87-3.26-69.74-3.69-104.63-.46-37.48.39-75,.84-112.47.59-49.16,1-98.32,2.12-147.47,1.73-73.28,4-146.55,6.19-219.82.19-6.71,1-13.41,1.56-20.11l3.26-.11" transform="translate(26.24 707.11)"/><path class="cls-2" d="M918.68,286.27c4.86-.86,9.69-2.18,14.59-2.51,31.22-2.11,62.45-5.27,93.7-5.63,39.19-.44,78.41,1.75,117.63,2.33,73.6,1.08,147.21,2.27,220.81,2.53,43.19.15,86.39-1.48,129.59-2.16,5.86-.09,11.73.72,17.44,3.85-10,.71-19.92,1.91-29.89,2-89.94,1.22-179.88,3-269.82,3-52,0-104-4.11-156-4.33-34.72-.14-69.46,3.46-104.2,5.09-11.17.52-22.38.08-33.57.08-.1-1.44-.21-2.88-.31-4.32" transform="translate(26.24 707.11)"/><path class="cls-2" d="M1501.69,265.1H916.48c-.06-1.52-.11-3-.16-4.55,22.52-.81,45-2.16,67.56-2.33,70.52-.53,141.05-1.23,211.57-.69,60.38.47,120.73,2.84,181.11,3.83,36.14.59,72.3.13,108.45.15h16.91Z" transform="translate(26.24 707.11)"/><path class="cls-2" d="M1503.33,247.3c-32.93,1.17-65.87,3.74-98.77,3.22-86-1.33-172-4.62-257.94-5.94-58.2-.89-116.42.26-174.63.46-17.07.06-34.13,0-51.19,0l-.57-4.23c4.59-1,9.17-3,13.76-3,69.66-.13,139.33-.91,209,.32,76.26,1.33,152.48,5.23,228.74,6.72,38.32.75,76.7-1.39,115-2.18,5.64-.12,11.28,0,16.92,0-.11,1.54-.23,3.08-.34,4.62" transform="translate(26.24 707.11)"/><path class="cls-2" d="M1506.45,211.94,915,206.57l-.55-2.9c5.86-.93,11.74-2.7,17.59-2.67q112.34.7,224.65,1.86,58.83.54,117.66,1.24,113,1.36,226,2.83c2.13,0,4.26.45,6.38.69-.1,1.44-.2,2.88-.31,4.32" transform="translate(26.24 707.11)"/><path class="cls-2" d="M1526.55,983.62c-1-1.74-2.75-3.37-3-5.22-6.34-40.13-8.83-80.49-4.85-121,1.1-11.13,10.64-13.74,20.92-12.73,21.83,2.16,43.65,4.42,68.59,6.95V985l-2.33,1c-1.62-6.35-4.8-12.75-4.59-19,.6-18.45,3.31-36.85,3.74-55.3a347.89,347.89,0,0,0-2.13-48.95c-1.84-15.58-14.32-4.91-22.39-8.26,2.47,37.24,4.84,73.06,7.21,108.88l-5.49.38c-.4-3.48-.86-7-1.2-10.43-2.88-30-5.52-60-8.86-89.92-.42-3.76-4.54-7.11-6.95-10.66l-3.2,2V982.68l-3.53.94c-1.6-6.81-4.54-13.61-4.57-20.43-.14-31.42-.14-62.86,1.23-94.24.55-12.6-3.66-16.89-16-16.94-12.68-.06-14.47,6.79-15.83,17.18-4.39,33.5,2.33,66.07,6.6,98.9.65,5,.09,10.14.09,15.21l-3.43.32" transform="translate(26.24 707.11)"/><path class="cls-2" d="M1506.36,94.5c-198.48,12.23-397.42,11.68-596.31,14.16l-.12-6.33,596.43-7.83" transform="translate(26.24 707.11)"/><path class="cls-2" d="M1496.73,51C1302,57.93,1108,69.65,913.25,60c6.75-.94,13.5-2.74,20.24-2.69,59.47.4,119,2.4,178.42,1.44,79.26-1.28,158.47-5,237.72-7.25,42.29-1.21,84.59-1.72,126.9-2.29,6.72-.09,13.47,1.2,20.2,1.86" transform="translate(26.24 707.11)"/><path class="cls-2" d="M909.5,193.35c3.08-1.17,6.09-3.13,9.24-3.37,24.07-1.83,48.15-4,72.28-4.76,40.52-1.35,81.09-2.87,121.62-2.37,69.64.85,139.26,4,208.9,4.66,48.9.46,97.83-1.62,146.75-2.47,12.31-.21,24.63,0,36.94,0l0,3.4c-5,.4-10,1.11-15,1.15-67,.61-134,1.3-201,1.61-84.2.38-168.41.07-252.61.77-42.19.35-84.37,2.29-126.55,3.51-.19-.7-.39-1.4-.59-2.1" transform="translate(26.24 707.11)"/><path class="cls-2" d="M1085.43,977.89V415.61l3.48,0c7.68,187.43,2.2,374.93,3.23,562.4l-6.71-.09" transform="translate(26.24 707.11)"/><path class="cls-2" d="M1033.28,336.16c1.19,7.69,3.41,15.38,3.38,23.06-.18,52.13-.92,104.25-1.31,156.38-.34,44.78-.45,89.56-.66,134.34,0,5.95,0,11.91,0,17.86l-3.69,0v-331l2.28-.7" transform="translate(26.24 707.11)"/><path class="cls-2" d="M1051.87,340.05V673.33l-5,0c-1.91-111.18-4-222.35.69-333.57l4.35.25" transform="translate(26.24 707.11)"/><path class="cls-2" d="M1016,671.8l-4.32-333.54,2.39-.73c1.32,5,3.64,9.87,3.82,14.86,1.18,34.43,2.52,68.87,2.66,103.32.28,67.21-.18,134.43-.38,201.65,0,4.86-.44,9.72-.68,14.58l-3.49-.14" transform="translate(26.24 707.11)"/><path class="cls-2" d="M1854,329.1c-.29-3.51-.73-7-.85-10.51q-4-118.12-7.8-236.25c-.29-9-.46-18.15.55-27.1.6-5.25,3.67-10.23,6.56-14.79,2.4,96.56,10.19,192.48,5.46,288.46l-3.92.19" transform="translate(26.24 707.11)"/><path class="cls-2" d="M1891.42,336.34c2.73-91.45,5.3-182.9-3.09-274.38,9.16,13.07,14.23,27.1,11.36,43.63a147.15,147.15,0,0,0-1.7,24.21q-.23,49.62.07,99.24c0,10.7,1.34,21.41,1.08,32.09-.62,25.07-1.83,50.12-2.8,75.18Z" transform="translate(26.24 707.11)"/><path class="cls-2" d="M1076.23,430.21c-8.58,77.81,2.28,156.27-7.7,236.72-7.09-11,.39-224.3,7.7-236.72" transform="translate(26.24 707.11)"/><path class="cls-2" d="M1870.48,336.25V91.88l2.49,0q3.13,122.14,6.26,244.28l-8.75.14" transform="translate(26.24 707.11)"/><path class="cls-2" d="M1694.51,980.94c-1.47-13.15-2.94-26.29-4.47-39.92,9.57,4.06,11.36,15.84,4.47,39.92" transform="translate(26.24 707.11)"/><g class="cls-3"><path class="cls-2" d="M875.6,264.78C858.93,368.23,818.46,450.43,760.18,516c-42.44,47.87-92.48,69.34-145.81,79.35-129.95,24.39-259.84,14.83-389.59-13.47C166,569.08,108.66,549,52.82,518.22c-43.57-24-64.9-66-71.66-129.18-10.79-100.77-8.37-200.87-1.68-301,9.31-139.66,26.89-277.22,58-410,17-72.73,38.05-144,61.28-213.16,28.08-83.67,79.55-131,142.19-155s124.85-26.29,185.6,16.75c76.81,54.4,117.55,143.73,128.36,259.75,6,64.17,8.78,129,11.2,193.53,1.61,43.07,17.28,68,45.36,79.94,35.86,15.28,72.18,28.37,107.81,44.6C772.39-71.32,817.09-30,848.52,36.82M356.62-508.5c-13-64.8-46.87-105.87-95.33-115.59-24.71-5-84.71,34.67-96.71,63.88,27.69-10.75,42.51-6.63,66.7,20.25,14.18,15.75,27.73,32.62,41.56,49-12.64-12.58-25.4-24.92-37.89-37.79-37-38.13-62-37.48-95.27,4.31-6.45,8.11-11.76,18.92-15.67,29.87-10.82,30.27-20.67,61.24-30.76,92-1.07,3.24-1.24,7.07-2.29,13.44,4.7-4.35,7.56-6.79,10.25-9.54,38.18-38.91,80-48.33,125.15-24.82,23.83,12.41,46.82,28.14,70.66,40.5,29,15,58,31.13,87.94,41.11,27.76,9.27,49.58-7.33,60.25-38.19a141.54,141.54,0,0,0-.29-94c-28.77-80.72-75-134.84-136.3-162-10-4.42-21.92.13-32.95.53,41.38,26.76,75.21,59,80.95,127M613.7,541.05a49.28,49.28,0,0,0,6.06-.68C723.13,516.5,817.08,385,833.07,240.15c11.61-105.21-12.84-191.83-75.71-255.72-29.55-30-64.09-43.85-99.13-55.44-58.18-19.24-116.61-37.42-174.16-60.15-43-17-84.11-44.85-127.35-60.22-106.6-37.9-196.81.34-266.45,118.5-39,66.13-64,143.35-78.54,226C5.25,190,9.23,230.75,8.47,269.73l3.67.45c1.07-5.54,1.94-11.18,3.24-16.6C27.78,201.74,37.82,148.4,53.27,98.47c23.7-76.56,55.67-145.74,107-193,26.05-24,53.86-41.66,88-48.43-3.25,3.45-4.08,5-5.12,5.33C172.66-116.94,125.35-54.6,88.9,27.48,50.34,114.32,32.29,211.29,18.89,311c-4.66,34.69-2.25,67.18,8.4,98,5.52,16,14.44,32.42,24.88,42.16,37.28,34.8,80.06,50.27,122.9,64.54,8.15,2.72,16.43,4.61,27.33,7.61-22.65-50.56-33.75-102-37.26-156.5C153.88,192.06,237.73,51.19,332.55-18c-4.35,4.63-8.18,9.28-12.4,13.09-50.94,46-91.5,105.75-120.67,180-45,114.4-42.89,228,10.22,339.58,2.69,5.64,7,12.82,11,13.69,18.37,3.95,36.94,5.88,53.91,8.32-21.59-16.86-41.06-41.54-52.67-75.61-24-70.5-23.84-142.95-4.59-213.27,26.93-98.41,75.55-172.93,143.26-217.71C465.68-39.39,576-49.39,688.32,2.63c73.18,33.9,110.85,117.07,104.15,222.8a355.22,355.22,0,0,1-32.13,126.81C723.41,432.44,677.27,499,613.7,541.05m53.13-69.65C719.69,416.28,760,341.87,777.3,276.17c23.77-90.06,4.65-183.54-48.94-236.1C702,14.24,672,1.24,641-7.6c-105.31-30-200.3-3.27-281.61,94.74-55.46,66.85-75.46,170.91-51,263,21.51,81,63.33,135.15,120.58,163.88C519.35,559.42,602,534.41,666.83,471.4m-639-545,2.78,1.43C36.89-86,43-99.9,49.48-113.57,96.92-214.3,163-272.25,250.92-275.55c33.67-1.26,67.65,2.83,101.34,7.28,29.44,3.9,58.57,13.4,88,17.42,37.46,5.11,64.82-22.34,76.27-72.33,7.81-34.09,1.21-67.82-3.48-101.11-10.88-77.21-39.69-138.09-89.64-177.58-26.05-20.59-53.59-34.85-87.53-35.83,7.1,6.82,11.17,11,15.38,14.75,34.91,31.48,65.38,69.42,88.63,118,17.37,36.33,21.8,75.59,15.14,117.12-6.4,39.86-22.74,59.65-52.14,59.84a101,101,0,0,1-43-9c-21.19-9.85-41.41-24-62.11-36C272-388,246.24-403.8,220-417.44c-37.25-19.35-71.78-11.41-102.91,21.69-8.77,9.34-18.16,17.89-25.86,28.76C85-358.14,78.83-347.33,76-335.71c-9.2,38.32-17.8,77-24.87,116.27-8.7,48.27-15.64,97.2-23.34,145.84M462.28-9C448.42-4,434.79.43,421.36,5.77,331,41.77,268.48,121.81,234.22,243c-34.08,120.55.18,228.7,85.31,284.34C371.39,561.18,425.16,558.63,475,558c-21.16-11.33-46.92-21.46-70.27-38.32-69.32-50-112.09-127.37-113.33-238.68C290.26,175.94,328.81,100.13,389,45c22.78-20.86,48.37-35.86,73.29-54M20.19,9.55C32.38-15.14,42.49-36.89,53.51-57.7c25.65-48.48,55.37-91,92.1-123.74,50.81-45.23,106.92-53.37,165.3-40.24,45.75,10.29,91,25.39,136.61,37.36,16.37,4.29,33.09,7.26,49.66,7.81,11.15.36,22-7.48,22.8-25.17,1.38-31.4.77-63,1-95.31-1.82,1.14-2.92,1.31-3.23,2.1-18.36,46.4-46.5,62.75-83.93,53.13-27.9-7.17-55.95-13.12-84-18.79-47.37-9.59-94.91-15.79-141.9-.91C133.64-237.93,82.73-172.13,45.45-83.3,34-55.93,21.14-28.79,20.19,9.55" transform="translate(26.24 707.11)"/><path class="cls-2" d="M397.25-28.16c15.3-25.25,15.3-25.25-17.86-57.72,8.09,6.14,16.6,11.43,24.19,18.63,13.25,12.56,13,21.47.17,33.63-2.09,2-4.33,3.65-6.5,5.46" transform="translate(26.24 707.11)"/><path class="cls-2" d="M483,386.79c-39.23-73.71-36.9-150.53,4.29-208.83,45.91-65,103-91.19,168.1-77.53,66.06,13.86,101.52,99.33,77.85,185.77-24.1,88-67.69,147.63-136.7,161.71-47.28,9.65-86.66-15.27-113.54-61.12m168.41-45.7c5.82-9.55,13.59-19.86,19.3-32.07,20.78-44.39,3.13-99-34.91-107.91-23.28-5.45-45.28.86-64.68,19.17-30.58,28.86-37.49,71.69-19.22,114.93,16.41,38.81,45,47.63,78.46,23.82,6.76-4.8,13-11,21-17.94" transform="translate(26.24 707.11)"/></g><path class="cls-4" d="M612.57,433.28a15.44,15.44,0,0,0-14.58.55,2,2,0,0,0,0,3.16c4.36,2.42,13.32,6.25,15.37-1.58a1.85,1.85,0,0,0-.82-2.13" transform="translate(26.24 707.11)"/><path class="cls-4" d="M612.57,554a15.47,15.47,0,0,0-14.58.56,2,2,0,0,0,0,3.16c4.36,2.41,13.32,6.25,15.37-1.58a1.86,1.86,0,0,0-.82-2.14" transform="translate(26.24 707.11)"/><path class="cls-4" d="M615,469.07A23.11,23.11,0,0,0,598,474.9a1.74,1.74,0,0,0,.91,3c5.81.73,17.45,1.15,17.71-7.09a1.7,1.7,0,0,0-1.56-1.75" transform="translate(26.24 707.11)"/><path class="cls-4" d="M614.13,510.5a15,15,0,0,0-14.33-.86,2,2,0,0,0-.26,3.15c4.05,2.82,12.46,7.51,15.19-.09a1.87,1.87,0,0,0-.6-2.2" transform="translate(26.24 707.11)"/><path class="cls-4" d="M550.19,434.42a15.44,15.44,0,0,0-14.58.55,2,2,0,0,0,0,3.16c4.36,2.41,13.32,6.25,15.37-1.58a1.86,1.86,0,0,0-.82-2.13" transform="translate(26.24 707.11)"/><path class="cls-4" d="M550.19,555.09a15.48,15.48,0,0,0-14.58.56,2,2,0,0,0,0,3.16c4.36,2.41,13.32,6.25,15.37-1.58a1.88,1.88,0,0,0-.82-2.14" transform="translate(26.24 707.11)"/><path class="cls-4" d="M552.65,470.21A23.14,23.14,0,0,0,535.59,476a1.75,1.75,0,0,0,.91,3c5.82.73,17.46,1.15,17.72-7.09a1.71,1.71,0,0,0-1.57-1.75" transform="translate(26.24 707.11)"/><path class="cls-4" d="M551.74,511.64a14.93,14.93,0,0,0-14.32-.86,2,2,0,0,0-.26,3.15c4,2.82,12.46,7.5,15.19-.09a1.89,1.89,0,0,0-.61-2.2" transform="translate(26.24 707.11)"/><path class="cls-4" d="M568.88,575.12a15.44,15.44,0,0,0,14.58-.55,2,2,0,0,0,0-3.16c-4.37-2.42-13.33-6.25-15.38,1.58a1.86,1.86,0,0,0,.82,2.13" transform="translate(26.24 707.11)"/><path class="cls-4" d="M568.88,454.45a15.48,15.48,0,0,0,14.58-.56,2,2,0,0,0,0-3.16c-4.37-2.41-13.33-6.25-15.38,1.58a1.88,1.88,0,0,0,.82,2.14" transform="translate(26.24 707.11)"/><path class="cls-4" d="M566.42,539.33a23.13,23.13,0,0,0,17.06-5.82,1.75,1.75,0,0,0-.91-3c-5.82-.73-17.46-1.15-17.71,7.09a1.69,1.69,0,0,0,1.56,1.75" transform="translate(26.24 707.11)"/><path class="cls-4" d="M567.33,497.9a15,15,0,0,0,14.32.86,2,2,0,0,0,.27-3.15c-4-2.82-12.47-7.51-15.2.09a1.89,1.89,0,0,0,.61,2.2" transform="translate(26.24 707.11)"/><path class="cls-4" d="M517.07,454.9a15.48,15.48,0,0,0-14.58.56,2,2,0,0,0,0,3.16c4.37,2.41,13.33,6.25,15.38-1.58a1.88,1.88,0,0,0-.82-2.14" transform="translate(26.24 707.11)"/><path class="cls-4" d="M517.07,575.58a15.42,15.42,0,0,0-14.58.56,2,2,0,0,0,0,3.16c4.37,2.41,13.33,6.24,15.38-1.58a1.88,1.88,0,0,0-.82-2.14" transform="translate(26.24 707.11)"/><path class="cls-4" d="M519.53,490.7a23.13,23.13,0,0,0-17.06,5.82,1.75,1.75,0,0,0,.91,3c5.82.73,17.46,1.15,17.71-7.1a1.68,1.68,0,0,0-1.56-1.74" transform="translate(26.24 707.11)"/><path class="cls-4" d="M518.62,532.12a15,15,0,0,0-14.32-.85,2,2,0,0,0-.26,3.15c4,2.82,12.46,7.5,15.19-.09a1.91,1.91,0,0,0-.61-2.21" transform="translate(26.24 707.11)"/><path class="cls-4" d="M449.17,452.63a15.44,15.44,0,0,0-14.58.55,2,2,0,0,0,0,3.16c4.37,2.42,13.33,6.25,15.38-1.58a1.86,1.86,0,0,0-.82-2.13" transform="translate(26.24 707.11)"/><path class="cls-4" d="M449.17,573.3a15.48,15.48,0,0,0-14.58.56,2,2,0,0,0,0,3.16c4.37,2.41,13.33,6.25,15.38-1.58a1.88,1.88,0,0,0-.82-2.14" transform="translate(26.24 707.11)"/><path class="cls-4" d="M451.63,488.42a23.11,23.11,0,0,0-17.06,5.83,1.75,1.75,0,0,0,.91,3c5.82.73,17.46,1.15,17.71-7.09a1.69,1.69,0,0,0-1.56-1.75" transform="translate(26.24 707.11)"/><path class="cls-4" d="M450.72,529.85A15,15,0,0,0,436.4,529a2,2,0,0,0-.26,3.15c4,2.82,12.46,7.51,15.19-.09a1.89,1.89,0,0,0-.61-2.2" transform="translate(26.24 707.11)"/><path class="cls-4" d="M470.07,554.63a15.44,15.44,0,0,0,14.58-.55,2,2,0,0,0,0-3.16c-4.36-2.41-13.32-6.25-15.37,1.58a1.84,1.84,0,0,0,.82,2.13" transform="translate(26.24 707.11)"/><path class="cls-4" d="M470.07,434a15.47,15.47,0,0,0,14.58-.56,2,2,0,0,0,0-3.16c-4.36-2.41-13.32-6.25-15.37,1.58a1.86,1.86,0,0,0,.82,2.14" transform="translate(26.24 707.11)"/><path class="cls-4" d="M467.6,518.84A23.13,23.13,0,0,0,484.66,513a1.75,1.75,0,0,0-.91-3c-5.81-.73-17.45-1.15-17.71,7.1a1.7,1.7,0,0,0,1.56,1.74" transform="translate(26.24 707.11)"/><path class="cls-4" d="M468.51,477.41a15,15,0,0,0,14.33.86,2,2,0,0,0,.26-3.15c-4-2.82-12.46-7.5-15.19.09a1.87,1.87,0,0,0,.6,2.2" transform="translate(26.24 707.11)"/><path class="cls-4" d="M612.57,671.71a15.44,15.44,0,0,0-14.58.55,2,2,0,0,0,0,3.16c4.36,2.42,13.32,6.25,15.37-1.58a1.85,1.85,0,0,0-.82-2.13" transform="translate(26.24 707.11)"/><path class="cls-4" d="M615,586.82A23.19,23.19,0,0,0,598,592.65a1.75,1.75,0,0,0,.91,3c5.81.73,17.45,1.15,17.71-7.1a1.7,1.7,0,0,0-1.56-1.75" transform="translate(26.24 707.11)"/><path class="cls-4" d="M614.13,628.25a15,15,0,0,0-14.33-.86,2,2,0,0,0-.26,3.15c4.05,2.83,12.46,7.51,15.19-.08a1.88,1.88,0,0,0-.6-2.21" transform="translate(26.24 707.11)"/><path class="cls-4" d="M550.19,672.85a15.44,15.44,0,0,0-14.58.55,2,2,0,0,0,0,3.16C540,679,549,682.81,551,675a1.86,1.86,0,0,0-.82-2.13" transform="translate(26.24 707.11)"/><path class="cls-4" d="M552.65,588a23.16,23.16,0,0,0-17.06,5.83,1.75,1.75,0,0,0,.91,3c5.82.72,17.46,1.15,17.72-7.1a1.71,1.71,0,0,0-1.57-1.75" transform="translate(26.24 707.11)"/><path class="cls-4" d="M551.74,629.39a15,15,0,0,0-14.32-.86,2,2,0,0,0-.26,3.15c4,2.82,12.46,7.51,15.19-.09a1.89,1.89,0,0,0-.61-2.2" transform="translate(26.24 707.11)"/><path class="cls-4" d="M568.88,692.88a15.48,15.48,0,0,0,14.58-.56,2,2,0,0,0,0-3.16c-4.37-2.41-13.33-6.25-15.38,1.58a1.88,1.88,0,0,0,.82,2.14" transform="translate(26.24 707.11)"/><path class="cls-4" d="M566.42,657.08a23.13,23.13,0,0,0,17.06-5.82,1.75,1.75,0,0,0-.91-3c-5.82-.73-17.46-1.15-17.71,7.1a1.68,1.68,0,0,0,1.56,1.74" transform="translate(26.24 707.11)"/><path class="cls-4" d="M567.33,615.66a15,15,0,0,0,14.32.85,2,2,0,0,0,.27-3.15c-4-2.82-12.47-7.5-15.2.09a1.91,1.91,0,0,0,.61,2.21" transform="translate(26.24 707.11)"/><path class="cls-4" d="M517.07,693.33a15.48,15.48,0,0,0-14.58.56,2,2,0,0,0,0,3.16c4.37,2.41,13.33,6.25,15.38-1.58a1.88,1.88,0,0,0-.82-2.14" transform="translate(26.24 707.11)"/><path class="cls-4" d="M519.53,608.45a23.11,23.11,0,0,0-17.06,5.83,1.75,1.75,0,0,0,.91,3c5.82.73,17.46,1.15,17.71-7.09a1.69,1.69,0,0,0-1.56-1.75" transform="translate(26.24 707.11)"/><path class="cls-4" d="M518.62,649.88A15,15,0,0,0,504.3,649a2,2,0,0,0-.26,3.15c4,2.82,12.46,7.51,15.19-.09a1.89,1.89,0,0,0-.61-2.2" transform="translate(26.24 707.11)"/><path class="cls-4" d="M449.17,691.06a15.44,15.44,0,0,0-14.58.55,2,2,0,0,0,0,3.16c4.37,2.41,13.33,6.25,15.38-1.58a1.86,1.86,0,0,0-.82-2.13" transform="translate(26.24 707.11)"/><path class="cls-4" d="M451.63,606.17A23.19,23.19,0,0,0,434.57,612a1.75,1.75,0,0,0,.91,3c5.82.73,17.46,1.15,17.71-7.1a1.7,1.7,0,0,0-1.56-1.75" transform="translate(26.24 707.11)"/><path class="cls-4" d="M450.72,647.6a15,15,0,0,0-14.32-.86,2,2,0,0,0-.26,3.15c4,2.83,12.46,7.51,15.19-.09a1.89,1.89,0,0,0-.61-2.2" transform="translate(26.24 707.11)"/><path class="cls-4" d="M470.07,672.39a15.47,15.47,0,0,0,14.58-.56,2,2,0,0,0,0-3.16c-4.36-2.41-13.32-6.25-15.37,1.58a1.86,1.86,0,0,0,.82,2.14" transform="translate(26.24 707.11)"/><path class="cls-4" d="M467.6,636.6a23.19,23.19,0,0,0,17.06-5.83,1.75,1.75,0,0,0-.91-3c-5.81-.73-17.45-1.15-17.71,7.1a1.7,1.7,0,0,0,1.56,1.75" transform="translate(26.24 707.11)"/><path class="cls-4" d="M468.51,595.17a15,15,0,0,0,14.33.85,2,2,0,0,0,.26-3.14c-4-2.83-12.46-7.51-15.19.08a1.88,1.88,0,0,0,.6,2.21" transform="translate(26.24 707.11)"/><path class="cls-4" d="M612.57,715.49A15.44,15.44,0,0,0,598,716a2,2,0,0,0,0,3.16c4.36,2.42,13.32,6.25,15.37-1.58a1.85,1.85,0,0,0-.82-2.13" transform="translate(26.24 707.11)"/><path class="cls-4" d="M612.57,836.16a15.47,15.47,0,0,0-14.58.56,2,2,0,0,0,0,3.16c4.36,2.41,13.32,6.25,15.37-1.58a1.86,1.86,0,0,0-.82-2.14" transform="translate(26.24 707.11)"/><path class="cls-4" d="M615,751.28A23.11,23.11,0,0,0,598,757.11a1.74,1.74,0,0,0,.91,3c5.81.73,17.45,1.15,17.71-7.09a1.7,1.7,0,0,0-1.56-1.75" transform="translate(26.24 707.11)"/><path class="cls-4" d="M614.13,792.71a15,15,0,0,0-14.33-.86,2,2,0,0,0-.26,3.15c4.05,2.82,12.46,7.51,15.19-.09a1.87,1.87,0,0,0-.6-2.2" transform="translate(26.24 707.11)"/><path class="cls-4" d="M550.19,716.63a15.44,15.44,0,0,0-14.58.55,2,2,0,0,0,0,3.16c4.36,2.41,13.32,6.25,15.37-1.58a1.86,1.86,0,0,0-.82-2.13" transform="translate(26.24 707.11)"/><path class="cls-4" d="M550.19,837.3a15.48,15.48,0,0,0-14.58.56,2,2,0,0,0,0,3.16c4.36,2.41,13.32,6.25,15.37-1.58a1.88,1.88,0,0,0-.82-2.14" transform="translate(26.24 707.11)"/><path class="cls-4" d="M552.65,752.42a23.14,23.14,0,0,0-17.06,5.82,1.75,1.75,0,0,0,.91,3c5.82.73,17.46,1.15,17.72-7.09a1.71,1.71,0,0,0-1.57-1.75" transform="translate(26.24 707.11)"/><path class="cls-4" d="M551.74,793.85a14.93,14.93,0,0,0-14.32-.86,2,2,0,0,0-.26,3.15c4,2.82,12.46,7.5,15.19-.09a1.89,1.89,0,0,0-.61-2.2" transform="translate(26.24 707.11)"/><path class="cls-4" d="M568.88,857.33a15.44,15.44,0,0,0,14.58-.55,2,2,0,0,0,0-3.16c-4.37-2.41-13.33-6.25-15.38,1.58a1.86,1.86,0,0,0,.82,2.13" transform="translate(26.24 707.11)"/><path class="cls-4" d="M568.88,736.66a15.48,15.48,0,0,0,14.58-.56,2,2,0,0,0,0-3.16c-4.37-2.41-13.33-6.25-15.38,1.58a1.88,1.88,0,0,0,.82,2.14" transform="translate(26.24 707.11)"/><path class="cls-4" d="M566.42,821.54a23.13,23.13,0,0,0,17.06-5.82,1.75,1.75,0,0,0-.91-3c-5.82-.73-17.46-1.15-17.71,7.09a1.69,1.69,0,0,0,1.56,1.75" transform="translate(26.24 707.11)"/><path class="cls-4" d="M567.33,780.11a15,15,0,0,0,14.32.86,2,2,0,0,0,.27-3.15c-4-2.82-12.47-7.51-15.2.09a1.89,1.89,0,0,0,.61,2.2" transform="translate(26.24 707.11)"/><path class="cls-4" d="M517.07,737.11a15.48,15.48,0,0,0-14.58.56,2,2,0,0,0,0,3.16c4.37,2.41,13.33,6.25,15.38-1.58a1.88,1.88,0,0,0-.82-2.14" transform="translate(26.24 707.11)"/><path class="cls-4" d="M517.07,857.79a15.42,15.42,0,0,0-14.58.56,2,2,0,0,0,0,3.16c4.37,2.41,13.33,6.24,15.38-1.58a1.88,1.88,0,0,0-.82-2.14" transform="translate(26.24 707.11)"/><path class="cls-4" d="M519.53,772.91a23.13,23.13,0,0,0-17.06,5.82,1.75,1.75,0,0,0,.91,3c5.82.73,17.46,1.15,17.71-7.1a1.68,1.68,0,0,0-1.56-1.74" transform="translate(26.24 707.11)"/><path class="cls-4" d="M518.62,814.33a15,15,0,0,0-14.32-.85,2,2,0,0,0-.26,3.15c4,2.82,12.46,7.5,15.19-.09a1.91,1.91,0,0,0-.61-2.21" transform="translate(26.24 707.11)"/><path class="cls-4" d="M449.17,734.84a15.44,15.44,0,0,0-14.58.55,2,2,0,0,0,0,3.16C439,741,447.94,744.8,450,737a1.86,1.86,0,0,0-.82-2.13" transform="translate(26.24 707.11)"/><path class="cls-4" d="M449.17,855.51a15.48,15.48,0,0,0-14.58.56,2,2,0,0,0,0,3.16c4.37,2.41,13.33,6.25,15.38-1.58a1.88,1.88,0,0,0-.82-2.14" transform="translate(26.24 707.11)"/><path class="cls-4" d="M451.63,770.63a23.11,23.11,0,0,0-17.06,5.83,1.75,1.75,0,0,0,.91,3c5.82.73,17.46,1.15,17.71-7.09a1.69,1.69,0,0,0-1.56-1.75" transform="translate(26.24 707.11)"/><path class="cls-4" d="M450.72,812.06a15,15,0,0,0-14.32-.86,2,2,0,0,0-.26,3.15c4,2.82,12.46,7.51,15.19-.09a1.89,1.89,0,0,0-.61-2.2" transform="translate(26.24 707.11)"/><path class="cls-4" d="M470.07,836.84a15.44,15.44,0,0,0,14.58-.55,2,2,0,0,0,0-3.16c-4.36-2.41-13.32-6.25-15.37,1.58a1.84,1.84,0,0,0,.82,2.13" transform="translate(26.24 707.11)"/><path class="cls-4" d="M470.07,716.17a15.47,15.47,0,0,0,14.58-.56,2,2,0,0,0,0-3.16c-4.36-2.41-13.32-6.25-15.37,1.58a1.86,1.86,0,0,0,.82,2.14" transform="translate(26.24 707.11)"/><path class="cls-4" d="M467.6,801.05a23.13,23.13,0,0,0,17.06-5.82,1.75,1.75,0,0,0-.91-3c-5.81-.73-17.45-1.15-17.71,7.1a1.7,1.7,0,0,0,1.56,1.74" transform="translate(26.24 707.11)"/><path class="cls-4" d="M468.51,759.62a15,15,0,0,0,14.33.86,2,2,0,0,0,.26-3.15c-4-2.82-12.46-7.5-15.19.09a1.87,1.87,0,0,0,.6,2.2" transform="translate(26.24 707.11)"/><path class="cls-4" d="M612.57,953.92a15.44,15.44,0,0,0-14.58.55,2,2,0,0,0,0,3.16c4.36,2.42,13.32,6.25,15.37-1.58a1.84,1.84,0,0,0-.82-2.13" transform="translate(26.24 707.11)"/><path class="cls-4" d="M615,869A23.19,23.19,0,0,0,598,874.86a1.75,1.75,0,0,0,.91,3c5.81.73,17.45,1.15,17.71-7.1A1.7,1.7,0,0,0,615,869" transform="translate(26.24 707.11)"/><path class="cls-4" d="M614.13,910.46a15,15,0,0,0-14.33-.86,2,2,0,0,0-.26,3.15c4.05,2.83,12.46,7.51,15.19-.08a1.88,1.88,0,0,0-.6-2.21" transform="translate(26.24 707.11)"/><path class="cls-4" d="M550.19,955.06a15.44,15.44,0,0,0-14.58.55,2,2,0,0,0,0,3.16C540,961.18,549,965,551,957.19a1.86,1.86,0,0,0-.82-2.13" transform="translate(26.24 707.11)"/><path class="cls-4" d="M552.65,870.17A23.16,23.16,0,0,0,535.59,876a1.75,1.75,0,0,0,.91,3c5.82.72,17.46,1.15,17.72-7.1a1.71,1.71,0,0,0-1.57-1.75" transform="translate(26.24 707.11)"/><path class="cls-4" d="M551.74,911.6a15,15,0,0,0-14.32-.86,2,2,0,0,0-.26,3.15c4,2.82,12.46,7.51,15.19-.09a1.89,1.89,0,0,0-.61-2.2" transform="translate(26.24 707.11)"/><path class="cls-4" d="M568.88,975.09a15.48,15.48,0,0,0,14.58-.56,2,2,0,0,0,0-3.16c-4.37-2.41-13.33-6.25-15.38,1.58a1.88,1.88,0,0,0,.82,2.14" transform="translate(26.24 707.11)"/><path class="cls-4" d="M566.42,939.29a23.13,23.13,0,0,0,17.06-5.82,1.75,1.75,0,0,0-.91-3c-5.82-.73-17.46-1.15-17.71,7.1a1.68,1.68,0,0,0,1.56,1.74" transform="translate(26.24 707.11)"/><path class="cls-4" d="M567.33,897.87a15,15,0,0,0,14.32.85,2,2,0,0,0,.27-3.15c-4-2.82-12.47-7.5-15.2.09a1.91,1.91,0,0,0,.61,2.21" transform="translate(26.24 707.11)"/><path class="cls-4" d="M517.07,975.54a15.48,15.48,0,0,0-14.58.56,2,2,0,0,0,0,3.16c4.37,2.41,13.33,6.25,15.38-1.58a1.88,1.88,0,0,0-.82-2.14" transform="translate(26.24 707.11)"/><path class="cls-4" d="M519.53,890.66a23.11,23.11,0,0,0-17.06,5.83,1.75,1.75,0,0,0,.91,3c5.82.73,17.46,1.15,17.71-7.09a1.69,1.69,0,0,0-1.56-1.75" transform="translate(26.24 707.11)"/><path class="cls-4" d="M518.62,932.09a15,15,0,0,0-14.32-.86,2,2,0,0,0-.26,3.15c4,2.82,12.46,7.51,15.19-.09a1.89,1.89,0,0,0-.61-2.2" transform="translate(26.24 707.11)"/><path class="cls-4" d="M449.17,973.27a15.44,15.44,0,0,0-14.58.55,2,2,0,0,0,0,3.16c4.37,2.41,13.33,6.25,15.38-1.58a1.86,1.86,0,0,0-.82-2.13" transform="translate(26.24 707.11)"/><path class="cls-4" d="M451.63,888.38a23.19,23.19,0,0,0-17.06,5.83,1.75,1.75,0,0,0,.91,3c5.82.73,17.46,1.15,17.71-7.1a1.7,1.7,0,0,0-1.56-1.75" transform="translate(26.24 707.11)"/><path class="cls-4" d="M450.72,929.81A15,15,0,0,0,436.4,929a2,2,0,0,0-.26,3.15c4,2.83,12.46,7.51,15.19-.09a1.89,1.89,0,0,0-.61-2.2" transform="translate(26.24 707.11)"/><path class="cls-4" d="M470.07,954.6a15.47,15.47,0,0,0,14.58-.56,2,2,0,0,0,0-3.16c-4.36-2.41-13.32-6.25-15.37,1.58a1.86,1.86,0,0,0,.82,2.14" transform="translate(26.24 707.11)"/><path class="cls-4" d="M467.6,918.81A23.19,23.19,0,0,0,484.66,913a1.75,1.75,0,0,0-.91-3c-5.81-.73-17.45-1.15-17.71,7.1a1.7,1.7,0,0,0,1.56,1.75" transform="translate(26.24 707.11)"/><path class="cls-4" d="M468.51,877.38a15,15,0,0,0,14.33.85,2,2,0,0,0,.26-3.14c-4-2.83-12.46-7.51-15.19.08a1.89,1.89,0,0,0,.6,2.21" transform="translate(26.24 707.11)"/><path class="cls-4" d="M421.72,433.28a15.44,15.44,0,0,0-14.58.55,2,2,0,0,0,0,3.16c4.37,2.42,13.33,6.25,15.38-1.58a1.86,1.86,0,0,0-.82-2.13" transform="translate(26.24 707.11)"/><path class="cls-4" d="M421.72,554a15.48,15.48,0,0,0-14.58.56,2,2,0,0,0,0,3.16c4.37,2.41,13.33,6.25,15.38-1.58a1.88,1.88,0,0,0-.82-2.14" transform="translate(26.24 707.11)"/><path class="cls-4" d="M424.18,469.07a23.11,23.11,0,0,0-17.06,5.83,1.75,1.75,0,0,0,.91,3c5.82.73,17.46,1.15,17.71-7.09a1.69,1.69,0,0,0-1.56-1.75" transform="translate(26.24 707.11)"/><path class="cls-4" d="M423.27,510.5a15,15,0,0,0-14.32-.86,2,2,0,0,0-.27,3.15c4.05,2.82,12.47,7.51,15.2-.09a1.89,1.89,0,0,0-.61-2.2" transform="translate(26.24 707.11)"/><path class="cls-4" d="M359.33,434.42a15.44,15.44,0,0,0-14.58.55,2,2,0,0,0,0,3.16c4.36,2.41,13.32,6.25,15.38-1.58a1.87,1.87,0,0,0-.83-2.13" transform="translate(26.24 707.11)"/><path class="cls-4" d="M359.33,555.09a15.47,15.47,0,0,0-14.58.56,2,2,0,0,0,0,3.16c4.36,2.41,13.32,6.25,15.38-1.58a1.88,1.88,0,0,0-.83-2.14" transform="translate(26.24 707.11)"/><path class="cls-4" d="M361.8,470.21A23.13,23.13,0,0,0,344.74,476a1.75,1.75,0,0,0,.91,3c5.81.73,17.46,1.15,17.71-7.09a1.7,1.7,0,0,0-1.56-1.75" transform="translate(26.24 707.11)"/><path class="cls-4" d="M360.89,511.64a15,15,0,0,0-14.33-.86,2,2,0,0,0-.26,3.15c4.05,2.82,12.46,7.5,15.19-.09a1.87,1.87,0,0,0-.6-2.2" transform="translate(26.24 707.11)"/><path class="cls-4" d="M378,575.12a15.44,15.44,0,0,0,14.58-.55,2,2,0,0,0,0-3.16c-4.36-2.42-13.32-6.25-15.37,1.58a1.85,1.85,0,0,0,.82,2.13" transform="translate(26.24 707.11)"/><path class="cls-4" d="M378,454.45a15.47,15.47,0,0,0,14.58-.56,2,2,0,0,0,0-3.16c-4.36-2.41-13.32-6.25-15.37,1.58a1.86,1.86,0,0,0,.82,2.14" transform="translate(26.24 707.11)"/><path class="cls-4" d="M375.56,539.33a23.13,23.13,0,0,0,17.06-5.82,1.75,1.75,0,0,0-.91-3c-5.81-.73-17.46-1.15-17.71,7.09a1.7,1.7,0,0,0,1.56,1.75" transform="translate(26.24 707.11)"/><path class="cls-4" d="M376.47,497.9a15,15,0,0,0,14.33.86,2,2,0,0,0,.26-3.15c-4.05-2.82-12.46-7.51-15.19.09a1.87,1.87,0,0,0,.6,2.2" transform="translate(26.24 707.11)"/><path class="cls-4" d="M326.21,454.9a15.47,15.47,0,0,0-14.58.56,2,2,0,0,0,0,3.16C316,461,325,464.87,327,457a1.86,1.86,0,0,0-.82-2.14" transform="translate(26.24 707.11)"/><path class="cls-4" d="M326.21,575.58a15.41,15.41,0,0,0-14.58.56,2,2,0,0,0,0,3.16c4.36,2.41,13.32,6.24,15.37-1.58a1.86,1.86,0,0,0-.82-2.14" transform="translate(26.24 707.11)"/><path class="cls-4" d="M328.68,490.7a23.13,23.13,0,0,0-17.06,5.82,1.75,1.75,0,0,0,.91,3c5.81.73,17.45,1.15,17.71-7.1a1.69,1.69,0,0,0-1.56-1.74" transform="translate(26.24 707.11)"/><path class="cls-4" d="M327.77,532.12a15,15,0,0,0-14.33-.85,2,2,0,0,0-.26,3.15c4,2.82,12.46,7.5,15.19-.09a1.89,1.89,0,0,0-.6-2.21" transform="translate(26.24 707.11)"/><path class="cls-4" d="M258.31,452.63a15.44,15.44,0,0,0-14.58.55,2,2,0,0,0,0,3.16c4.36,2.42,13.32,6.25,15.37-1.58a1.85,1.85,0,0,0-.82-2.13" transform="translate(26.24 707.11)"/><path class="cls-4" d="M258.31,573.3a15.47,15.47,0,0,0-14.58.56,2,2,0,0,0,0,3.16c4.36,2.41,13.32,6.25,15.37-1.58a1.86,1.86,0,0,0-.82-2.14" transform="translate(26.24 707.11)"/><path class="cls-4" d="M260.78,488.42a23.11,23.11,0,0,0-17.06,5.83,1.74,1.74,0,0,0,.91,3c5.81.73,17.45,1.15,17.71-7.09a1.7,1.7,0,0,0-1.56-1.75" transform="translate(26.24 707.11)"/><path class="cls-4" d="M259.87,529.85a15,15,0,0,0-14.33-.86,2,2,0,0,0-.26,3.15c4.05,2.82,12.46,7.51,15.19-.09a1.87,1.87,0,0,0-.6-2.2" transform="translate(26.24 707.11)"/><path class="cls-4" d="M279.21,554.63a15.44,15.44,0,0,0,14.58-.55,2,2,0,0,0,0-3.16c-4.37-2.41-13.33-6.25-15.38,1.58a1.86,1.86,0,0,0,.82,2.13" transform="translate(26.24 707.11)"/><path class="cls-4" d="M279.21,434a15.48,15.48,0,0,0,14.58-.56,2,2,0,0,0,0-3.16c-4.37-2.41-13.33-6.25-15.38,1.58a1.88,1.88,0,0,0,.82,2.14" transform="translate(26.24 707.11)"/><path class="cls-4" d="M276.75,518.84A23.13,23.13,0,0,0,293.81,513a1.75,1.75,0,0,0-.91-3c-5.82-.73-17.46-1.15-17.71,7.1a1.69,1.69,0,0,0,1.56,1.74" transform="translate(26.24 707.11)"/><path class="cls-4" d="M277.66,477.41a14.94,14.94,0,0,0,14.32.86,2,2,0,0,0,.27-3.15c-4.05-2.82-12.47-7.5-15.2.09a1.89,1.89,0,0,0,.61,2.2" transform="translate(26.24 707.11)"/><path class="cls-4" d="M421.72,671.71a15.44,15.44,0,0,0-14.58.55,2,2,0,0,0,0,3.16c4.37,2.42,13.33,6.25,15.38-1.58a1.86,1.86,0,0,0-.82-2.13" transform="translate(26.24 707.11)"/><path class="cls-4" d="M424.18,586.82a23.19,23.19,0,0,0-17.06,5.83,1.75,1.75,0,0,0,.91,3c5.82.73,17.46,1.15,17.71-7.1a1.7,1.7,0,0,0-1.56-1.75" transform="translate(26.24 707.11)"/><path class="cls-4" d="M423.27,628.25a15,15,0,0,0-14.32-.86,2,2,0,0,0-.27,3.15c4.05,2.83,12.47,7.51,15.2-.08a1.9,1.9,0,0,0-.61-2.21" transform="translate(26.24 707.11)"/><path class="cls-4" d="M359.33,672.85a15.44,15.44,0,0,0-14.58.55,2,2,0,0,0,0,3.16c4.36,2.41,13.32,6.25,15.38-1.58a1.86,1.86,0,0,0-.83-2.13" transform="translate(26.24 707.11)"/><path class="cls-4" d="M361.8,588a23.15,23.15,0,0,0-17.06,5.83,1.75,1.75,0,0,0,.91,3c5.81.72,17.46,1.15,17.71-7.1A1.7,1.7,0,0,0,361.8,588" transform="translate(26.24 707.11)"/><path class="cls-4" d="M360.89,629.39a15,15,0,0,0-14.33-.86,2,2,0,0,0-.26,3.15c4.05,2.82,12.46,7.51,15.19-.09a1.87,1.87,0,0,0-.6-2.2" transform="translate(26.24 707.11)"/><path class="cls-4" d="M378,692.88a15.47,15.47,0,0,0,14.58-.56,2,2,0,0,0,0-3.16c-4.36-2.41-13.32-6.25-15.37,1.58a1.86,1.86,0,0,0,.82,2.14" transform="translate(26.24 707.11)"/><path class="cls-4" d="M375.56,657.08a23.13,23.13,0,0,0,17.06-5.82,1.75,1.75,0,0,0-.91-3c-5.81-.73-17.46-1.15-17.71,7.1a1.69,1.69,0,0,0,1.56,1.74" transform="translate(26.24 707.11)"/><path class="cls-4" d="M376.47,615.66a15,15,0,0,0,14.33.85,2,2,0,0,0,.26-3.15c-4.05-2.82-12.46-7.5-15.19.09a1.89,1.89,0,0,0,.6,2.21" transform="translate(26.24 707.11)"/><path class="cls-4" d="M326.21,693.33a15.47,15.47,0,0,0-14.58.56,2,2,0,0,0,0,3.16C316,699.46,325,703.3,327,695.47a1.86,1.86,0,0,0-.82-2.14" transform="translate(26.24 707.11)"/><path class="cls-4" d="M328.68,608.45a23.11,23.11,0,0,0-17.06,5.83,1.74,1.74,0,0,0,.91,3c5.81.73,17.45,1.15,17.71-7.09a1.7,1.7,0,0,0-1.56-1.75" transform="translate(26.24 707.11)"/><path class="cls-4" d="M327.77,649.88a15,15,0,0,0-14.33-.86,2,2,0,0,0-.26,3.15c4,2.82,12.46,7.51,15.19-.09a1.87,1.87,0,0,0-.6-2.2" transform="translate(26.24 707.11)"/><path class="cls-4" d="M258.31,691.06a15.44,15.44,0,0,0-14.58.55,2,2,0,0,0,0,3.16c4.36,2.41,13.32,6.25,15.37-1.58a1.85,1.85,0,0,0-.82-2.13" transform="translate(26.24 707.11)"/><path class="cls-4" d="M260.78,606.17A23.19,23.19,0,0,0,243.72,612a1.75,1.75,0,0,0,.91,3c5.81.73,17.45,1.15,17.71-7.1a1.7,1.7,0,0,0-1.56-1.75" transform="translate(26.24 707.11)"/><path class="cls-4" d="M259.87,647.6a15,15,0,0,0-14.33-.86,2,2,0,0,0-.26,3.15c4.05,2.83,12.46,7.51,15.19-.09a1.87,1.87,0,0,0-.6-2.2" transform="translate(26.24 707.11)"/><path class="cls-4" d="M279.21,672.39a15.48,15.48,0,0,0,14.58-.56,2,2,0,0,0,0-3.16c-4.37-2.41-13.33-6.25-15.38,1.58a1.88,1.88,0,0,0,.82,2.14" transform="translate(26.24 707.11)"/><path class="cls-4" d="M276.75,636.6a23.19,23.19,0,0,0,17.06-5.83,1.75,1.75,0,0,0-.91-3c-5.82-.73-17.46-1.15-17.71,7.1a1.7,1.7,0,0,0,1.56,1.75" transform="translate(26.24 707.11)"/><path class="cls-4" d="M277.66,595.17A15,15,0,0,0,292,596a2,2,0,0,0,.27-3.14c-4.05-2.83-12.47-7.51-15.2.08a1.9,1.9,0,0,0,.61,2.21" transform="translate(26.24 707.11)"/><path class="cls-4" d="M421.72,715.49a15.44,15.44,0,0,0-14.58.55,2,2,0,0,0,0,3.16c4.37,2.42,13.33,6.25,15.38-1.58a1.86,1.86,0,0,0-.82-2.13" transform="translate(26.24 707.11)"/><path class="cls-4" d="M421.72,836.16a15.48,15.48,0,0,0-14.58.56,2,2,0,0,0,0,3.16c4.37,2.41,13.33,6.25,15.38-1.58a1.88,1.88,0,0,0-.82-2.14" transform="translate(26.24 707.11)"/><path class="cls-4" d="M424.18,751.28a23.11,23.11,0,0,0-17.06,5.83,1.75,1.75,0,0,0,.91,3c5.82.73,17.46,1.15,17.71-7.09a1.69,1.69,0,0,0-1.56-1.75" transform="translate(26.24 707.11)"/><path class="cls-4" d="M423.27,792.71a15,15,0,0,0-14.32-.86,2,2,0,0,0-.27,3.15c4.05,2.82,12.47,7.51,15.2-.09a1.89,1.89,0,0,0-.61-2.2" transform="translate(26.24 707.11)"/><path class="cls-4" d="M359.33,716.63a15.44,15.44,0,0,0-14.58.55,2,2,0,0,0,0,3.16c4.36,2.41,13.32,6.25,15.38-1.58a1.87,1.87,0,0,0-.83-2.13" transform="translate(26.24 707.11)"/><path class="cls-4" d="M359.33,837.3a15.47,15.47,0,0,0-14.58.56,2,2,0,0,0,0,3.16c4.36,2.41,13.32,6.25,15.38-1.58a1.88,1.88,0,0,0-.83-2.14" transform="translate(26.24 707.11)"/><path class="cls-4" d="M361.8,752.42a23.13,23.13,0,0,0-17.06,5.82,1.75,1.75,0,0,0,.91,3c5.81.73,17.46,1.15,17.71-7.09a1.7,1.7,0,0,0-1.56-1.75" transform="translate(26.24 707.11)"/><path class="cls-4" d="M360.89,793.85a15,15,0,0,0-14.33-.86,2,2,0,0,0-.26,3.15c4.05,2.82,12.46,7.5,15.19-.09a1.87,1.87,0,0,0-.6-2.2" transform="translate(26.24 707.11)"/><path class="cls-4" d="M378,857.33a15.44,15.44,0,0,0,14.58-.55,2,2,0,0,0,0-3.16c-4.36-2.41-13.32-6.25-15.37,1.58a1.85,1.85,0,0,0,.82,2.13" transform="translate(26.24 707.11)"/><path class="cls-4" d="M378,736.66a15.47,15.47,0,0,0,14.58-.56,2,2,0,0,0,0-3.16c-4.36-2.41-13.32-6.25-15.37,1.58a1.86,1.86,0,0,0,.82,2.14" transform="translate(26.24 707.11)"/><path class="cls-4" d="M375.56,821.54a23.13,23.13,0,0,0,17.06-5.82,1.75,1.75,0,0,0-.91-3c-5.81-.73-17.46-1.15-17.71,7.09a1.7,1.7,0,0,0,1.56,1.75" transform="translate(26.24 707.11)"/><path class="cls-4" d="M376.47,780.11a15,15,0,0,0,14.33.86,2,2,0,0,0,.26-3.15c-4.05-2.82-12.46-7.51-15.19.09a1.87,1.87,0,0,0,.6,2.2" transform="translate(26.24 707.11)"/><path class="cls-4" d="M326.21,737.11a15.47,15.47,0,0,0-14.58.56,2,2,0,0,0,0,3.16c4.36,2.41,13.32,6.25,15.37-1.58a1.86,1.86,0,0,0-.82-2.14" transform="translate(26.24 707.11)"/><path class="cls-4" d="M326.21,857.79a15.41,15.41,0,0,0-14.58.56,2,2,0,0,0,0,3.16c4.36,2.41,13.32,6.24,15.37-1.58a1.86,1.86,0,0,0-.82-2.14" transform="translate(26.24 707.11)"/><path class="cls-4" d="M328.68,772.91a23.13,23.13,0,0,0-17.06,5.82,1.75,1.75,0,0,0,.91,3c5.81.73,17.45,1.15,17.71-7.1a1.69,1.69,0,0,0-1.56-1.74" transform="translate(26.24 707.11)"/><path class="cls-4" d="M327.77,814.33a15,15,0,0,0-14.33-.85,2,2,0,0,0-.26,3.15c4,2.82,12.46,7.5,15.19-.09a1.89,1.89,0,0,0-.6-2.21" transform="translate(26.24 707.11)"/><path class="cls-4" d="M258.31,734.84a15.44,15.44,0,0,0-14.58.55,2,2,0,0,0,0,3.16c4.36,2.42,13.32,6.25,15.37-1.58a1.85,1.85,0,0,0-.82-2.13" transform="translate(26.24 707.11)"/><path class="cls-4" d="M258.31,855.51a15.47,15.47,0,0,0-14.58.56,2,2,0,0,0,0,3.16c4.36,2.41,13.32,6.25,15.37-1.58a1.86,1.86,0,0,0-.82-2.14" transform="translate(26.24 707.11)"/><path class="cls-4" d="M260.78,770.63a23.11,23.11,0,0,0-17.06,5.83,1.74,1.74,0,0,0,.91,3c5.81.73,17.45,1.15,17.71-7.09a1.7,1.7,0,0,0-1.56-1.75" transform="translate(26.24 707.11)"/><path class="cls-4" d="M259.87,812.06a15,15,0,0,0-14.33-.86,2,2,0,0,0-.26,3.15c4.05,2.82,12.46,7.51,15.19-.09a1.87,1.87,0,0,0-.6-2.2" transform="translate(26.24 707.11)"/><path class="cls-4" d="M279.21,836.84a15.44,15.44,0,0,0,14.58-.55,2,2,0,0,0,0-3.16c-4.37-2.41-13.33-6.25-15.38,1.58a1.86,1.86,0,0,0,.82,2.13" transform="translate(26.24 707.11)"/><path class="cls-4" d="M279.21,716.17a15.48,15.48,0,0,0,14.58-.56,2,2,0,0,0,0-3.16c-4.37-2.41-13.33-6.25-15.38,1.58a1.88,1.88,0,0,0,.82,2.14" transform="translate(26.24 707.11)"/><path class="cls-4" d="M276.75,801.05a23.13,23.13,0,0,0,17.06-5.82,1.75,1.75,0,0,0-.91-3c-5.82-.73-17.46-1.15-17.71,7.1a1.69,1.69,0,0,0,1.56,1.74" transform="translate(26.24 707.11)"/><path class="cls-4" d="M277.66,759.62a14.94,14.94,0,0,0,14.32.86,2,2,0,0,0,.27-3.15c-4.05-2.82-12.47-7.5-15.2.09a1.89,1.89,0,0,0,.61,2.2" transform="translate(26.24 707.11)"/><path class="cls-4" d="M421.72,953.92a15.44,15.44,0,0,0-14.58.55,2,2,0,0,0,0,3.16c4.37,2.42,13.33,6.25,15.38-1.58a1.86,1.86,0,0,0-.82-2.13" transform="translate(26.24 707.11)"/><path class="cls-4" d="M424.18,869a23.19,23.19,0,0,0-17.06,5.83,1.75,1.75,0,0,0,.91,3c5.82.73,17.46,1.15,17.71-7.1a1.7,1.7,0,0,0-1.56-1.75" transform="translate(26.24 707.11)"/><path class="cls-4" d="M423.27,910.46A15,15,0,0,0,409,909.6a2,2,0,0,0-.27,3.15c4.05,2.83,12.47,7.51,15.2-.08a1.9,1.9,0,0,0-.61-2.21" transform="translate(26.24 707.11)"/><path class="cls-4" d="M359.33,955.06a15.44,15.44,0,0,0-14.58.55,2,2,0,0,0,0,3.16c4.36,2.41,13.32,6.25,15.38-1.58a1.86,1.86,0,0,0-.83-2.13" transform="translate(26.24 707.11)"/><path class="cls-4" d="M361.8,870.17A23.15,23.15,0,0,0,344.74,876a1.75,1.75,0,0,0,.91,3c5.81.72,17.46,1.15,17.71-7.1a1.7,1.7,0,0,0-1.56-1.75" transform="translate(26.24 707.11)"/><path class="cls-4" d="M360.89,911.6a15,15,0,0,0-14.33-.86,2,2,0,0,0-.26,3.15c4.05,2.82,12.46,7.51,15.19-.09a1.87,1.87,0,0,0-.6-2.2" transform="translate(26.24 707.11)"/><path class="cls-4" d="M378,975.09a15.47,15.47,0,0,0,14.58-.56,2,2,0,0,0,0-3.16c-4.36-2.41-13.32-6.25-15.37,1.58a1.86,1.86,0,0,0,.82,2.14" transform="translate(26.24 707.11)"/><path class="cls-4" d="M375.56,939.29a23.13,23.13,0,0,0,17.06-5.82,1.75,1.75,0,0,0-.91-3c-5.81-.73-17.46-1.15-17.71,7.1a1.69,1.69,0,0,0,1.56,1.74" transform="translate(26.24 707.11)"/><path class="cls-4" d="M376.47,897.87a15,15,0,0,0,14.33.85,2,2,0,0,0,.26-3.15c-4.05-2.82-12.46-7.5-15.19.09a1.89,1.89,0,0,0,.6,2.21" transform="translate(26.24 707.11)"/><path class="cls-4" d="M326.21,975.54a15.47,15.47,0,0,0-14.58.56,2,2,0,0,0,0,3.16c4.36,2.41,13.32,6.25,15.37-1.58a1.86,1.86,0,0,0-.82-2.14" transform="translate(26.24 707.11)"/><path class="cls-4" d="M328.68,890.66a23.11,23.11,0,0,0-17.06,5.83,1.74,1.74,0,0,0,.91,3c5.81.73,17.45,1.15,17.71-7.09a1.7,1.7,0,0,0-1.56-1.75" transform="translate(26.24 707.11)"/><path class="cls-4" d="M327.77,932.09a15,15,0,0,0-14.33-.86,2,2,0,0,0-.26,3.15c4,2.82,12.46,7.51,15.19-.09a1.87,1.87,0,0,0-.6-2.2" transform="translate(26.24 707.11)"/><path class="cls-4" d="M258.31,973.27a15.44,15.44,0,0,0-14.58.55,2,2,0,0,0,0,3.16c4.36,2.41,13.32,6.25,15.37-1.58a1.85,1.85,0,0,0-.82-2.13" transform="translate(26.24 707.11)"/><path class="cls-4" d="M260.78,888.38a23.19,23.19,0,0,0-17.06,5.83,1.75,1.75,0,0,0,.91,3c5.81.73,17.45,1.15,17.71-7.1a1.7,1.7,0,0,0-1.56-1.75" transform="translate(26.24 707.11)"/><path class="cls-4" d="M259.87,929.81a15,15,0,0,0-14.33-.86,2,2,0,0,0-.26,3.15c4.05,2.83,12.46,7.51,15.19-.09a1.87,1.87,0,0,0-.6-2.2" transform="translate(26.24 707.11)"/><path class="cls-4" d="M279.21,954.6a15.48,15.48,0,0,0,14.58-.56,2,2,0,0,0,0-3.16c-4.37-2.41-13.33-6.25-15.38,1.58a1.88,1.88,0,0,0,.82,2.14" transform="translate(26.24 707.11)"/><path class="cls-4" d="M276.75,918.81A23.19,23.19,0,0,0,293.81,913a1.75,1.75,0,0,0-.91-3c-5.82-.73-17.46-1.15-17.71,7.1a1.7,1.7,0,0,0,1.56,1.75" transform="translate(26.24 707.11)"/><path class="cls-4" d="M277.66,877.38a15,15,0,0,0,14.32.85,2,2,0,0,0,.27-3.14c-4.05-2.83-12.47-7.51-15.2.08a1.91,1.91,0,0,0,.61,2.21" transform="translate(26.24 707.11)"/><path class="cls-4" d="M238.57,433.28a15.44,15.44,0,0,0-14.58.55,2,2,0,0,0,0,3.16c4.36,2.42,13.32,6.25,15.37-1.58a1.85,1.85,0,0,0-.82-2.13" transform="translate(26.24 707.11)"/><path class="cls-4" d="M238.57,554a15.47,15.47,0,0,0-14.58.56,2,2,0,0,0,0,3.16c4.36,2.41,13.32,6.25,15.37-1.58a1.86,1.86,0,0,0-.82-2.14" transform="translate(26.24 707.11)"/><path class="cls-4" d="M241,469.07A23.11,23.11,0,0,0,224,474.9a1.74,1.74,0,0,0,.91,3c5.81.73,17.45,1.15,17.71-7.09a1.7,1.7,0,0,0-1.56-1.75" transform="translate(26.24 707.11)"/><path class="cls-4" d="M240.13,510.5a15,15,0,0,0-14.33-.86,2,2,0,0,0-.26,3.15c4.05,2.82,12.46,7.51,15.19-.09a1.87,1.87,0,0,0-.6-2.2" transform="translate(26.24 707.11)"/><path class="cls-4" d="M176.19,434.42a15.44,15.44,0,0,0-14.58.55,2,2,0,0,0,0,3.16c4.36,2.41,13.32,6.25,15.37-1.58a1.86,1.86,0,0,0-.82-2.13" transform="translate(26.24 707.11)"/><path class="cls-4" d="M176.19,555.09a15.48,15.48,0,0,0-14.58.56,2,2,0,0,0,0,3.16c4.36,2.41,13.32,6.25,15.37-1.58a1.88,1.88,0,0,0-.82-2.14" transform="translate(26.24 707.11)"/><path class="cls-4" d="M178.65,470.21A23.14,23.14,0,0,0,161.59,476a1.75,1.75,0,0,0,.91,3c5.82.73,17.46,1.15,17.72-7.09a1.71,1.71,0,0,0-1.57-1.75" transform="translate(26.24 707.11)"/><path class="cls-4" d="M177.74,511.64a14.93,14.93,0,0,0-14.32-.86,2,2,0,0,0-.26,3.15c4,2.82,12.46,7.5,15.19-.09a1.89,1.89,0,0,0-.61-2.2" transform="translate(26.24 707.11)"/><path class="cls-4" d="M194.88,575.12a15.44,15.44,0,0,0,14.58-.55,2,2,0,0,0,0-3.16c-4.37-2.42-13.33-6.25-15.38,1.58a1.86,1.86,0,0,0,.82,2.13" transform="translate(26.24 707.11)"/><path class="cls-4" d="M194.88,454.45a15.48,15.48,0,0,0,14.58-.56,2,2,0,0,0,0-3.16c-4.37-2.41-13.33-6.25-15.38,1.58a1.88,1.88,0,0,0,.82,2.14" transform="translate(26.24 707.11)"/><path class="cls-4" d="M192.42,539.33a23.13,23.13,0,0,0,17.06-5.82,1.75,1.75,0,0,0-.91-3c-5.82-.73-17.46-1.15-17.71,7.09a1.69,1.69,0,0,0,1.56,1.75" transform="translate(26.24 707.11)"/><path class="cls-4" d="M193.33,497.9a15,15,0,0,0,14.32.86,2,2,0,0,0,.27-3.15c-4-2.82-12.47-7.51-15.2.09a1.89,1.89,0,0,0,.61,2.2" transform="translate(26.24 707.11)"/><path class="cls-4" d="M143.07,454.9a15.48,15.48,0,0,0-14.58.56,2,2,0,0,0,0,3.16c4.37,2.41,13.33,6.25,15.38-1.58a1.88,1.88,0,0,0-.82-2.14" transform="translate(26.24 707.11)"/><path class="cls-4" d="M143.07,575.58a15.42,15.42,0,0,0-14.58.56,2,2,0,0,0,0,3.16c4.37,2.41,13.33,6.24,15.38-1.58a1.88,1.88,0,0,0-.82-2.14" transform="translate(26.24 707.11)"/><path class="cls-4" d="M145.53,490.7a23.13,23.13,0,0,0-17.06,5.82,1.75,1.75,0,0,0,.91,3c5.82.73,17.46,1.15,17.71-7.1a1.68,1.68,0,0,0-1.56-1.74" transform="translate(26.24 707.11)"/><path class="cls-4" d="M144.62,532.12a15,15,0,0,0-14.32-.85,2,2,0,0,0-.26,3.15c4,2.82,12.46,7.5,15.19-.09a1.91,1.91,0,0,0-.61-2.21" transform="translate(26.24 707.11)"/><path class="cls-4" d="M75.17,452.63a15.44,15.44,0,0,0-14.58.55,2,2,0,0,0,0,3.16c4.37,2.42,13.33,6.25,15.38-1.58a1.86,1.86,0,0,0-.82-2.13" transform="translate(26.24 707.11)"/><path class="cls-4" d="M75.17,573.3a15.48,15.48,0,0,0-14.58.56,2,2,0,0,0,0,3.16c4.37,2.41,13.33,6.25,15.38-1.58a1.88,1.88,0,0,0-.82-2.14" transform="translate(26.24 707.11)"/><path class="cls-4" d="M77.63,488.42a23.11,23.11,0,0,0-17.06,5.83,1.75,1.75,0,0,0,.91,3c5.82.73,17.46,1.15,17.71-7.09a1.69,1.69,0,0,0-1.56-1.75" transform="translate(26.24 707.11)"/><path class="cls-4" d="M76.72,529.85A15,15,0,0,0,62.4,529a2,2,0,0,0-.26,3.15c4,2.82,12.46,7.51,15.19-.09a1.89,1.89,0,0,0-.61-2.2" transform="translate(26.24 707.11)"/><path class="cls-4" d="M96.07,554.63a15.44,15.44,0,0,0,14.58-.55,2,2,0,0,0,0-3.16c-4.36-2.41-13.32-6.25-15.37,1.58a1.84,1.84,0,0,0,.82,2.13" transform="translate(26.24 707.11)"/><path class="cls-4" d="M96.07,434a15.47,15.47,0,0,0,14.58-.56,2,2,0,0,0,0-3.16c-4.36-2.41-13.32-6.25-15.37,1.58a1.86,1.86,0,0,0,.82,2.14" transform="translate(26.24 707.11)"/><path class="cls-4" d="M93.6,518.84A23.13,23.13,0,0,0,110.66,513a1.75,1.75,0,0,0-.91-3c-5.81-.73-17.45-1.15-17.71,7.1a1.7,1.7,0,0,0,1.56,1.74" transform="translate(26.24 707.11)"/><path class="cls-4" d="M94.51,477.41a15,15,0,0,0,14.33.86,2,2,0,0,0,.26-3.15c-4-2.82-12.46-7.5-15.19.09a1.87,1.87,0,0,0,.6,2.2" transform="translate(26.24 707.11)"/><path class="cls-4" d="M238.57,671.71a15.44,15.44,0,0,0-14.58.55,2,2,0,0,0,0,3.16c4.36,2.42,13.32,6.25,15.37-1.58a1.85,1.85,0,0,0-.82-2.13" transform="translate(26.24 707.11)"/><path class="cls-4" d="M241,586.82A23.19,23.19,0,0,0,224,592.65a1.75,1.75,0,0,0,.91,3c5.81.73,17.45,1.15,17.71-7.1a1.7,1.7,0,0,0-1.56-1.75" transform="translate(26.24 707.11)"/><path class="cls-4" d="M240.13,628.25a15,15,0,0,0-14.33-.86,2,2,0,0,0-.26,3.15c4.05,2.83,12.46,7.51,15.19-.08a1.88,1.88,0,0,0-.6-2.21" transform="translate(26.24 707.11)"/><path class="cls-4" d="M176.19,672.85a15.44,15.44,0,0,0-14.58.55,2,2,0,0,0,0,3.16C166,679,175,682.81,177,675a1.86,1.86,0,0,0-.82-2.13" transform="translate(26.24 707.11)"/><path class="cls-4" d="M178.65,588a23.16,23.16,0,0,0-17.06,5.83,1.75,1.75,0,0,0,.91,3c5.82.72,17.46,1.15,17.72-7.1a1.71,1.71,0,0,0-1.57-1.75" transform="translate(26.24 707.11)"/><path class="cls-4" d="M177.74,629.39a15,15,0,0,0-14.32-.86,2,2,0,0,0-.26,3.15c4,2.82,12.46,7.51,15.19-.09a1.89,1.89,0,0,0-.61-2.2" transform="translate(26.24 707.11)"/><path class="cls-4" d="M194.88,692.88a15.48,15.48,0,0,0,14.58-.56,2,2,0,0,0,0-3.16c-4.37-2.41-13.33-6.25-15.38,1.58a1.88,1.88,0,0,0,.82,2.14" transform="translate(26.24 707.11)"/><path class="cls-4" d="M192.42,657.08a23.13,23.13,0,0,0,17.06-5.82,1.75,1.75,0,0,0-.91-3c-5.82-.73-17.46-1.15-17.71,7.1a1.68,1.68,0,0,0,1.56,1.74" transform="translate(26.24 707.11)"/><path class="cls-4" d="M193.33,615.66a15,15,0,0,0,14.32.85,2,2,0,0,0,.27-3.15c-4-2.82-12.47-7.5-15.2.09a1.91,1.91,0,0,0,.61,2.21" transform="translate(26.24 707.11)"/><path class="cls-4" d="M143.07,693.33a15.48,15.48,0,0,0-14.58.56,2,2,0,0,0,0,3.16c4.37,2.41,13.33,6.25,15.38-1.58a1.88,1.88,0,0,0-.82-2.14" transform="translate(26.24 707.11)"/><path class="cls-4" d="M145.53,608.45a23.11,23.11,0,0,0-17.06,5.83,1.75,1.75,0,0,0,.91,3c5.82.73,17.46,1.15,17.71-7.09a1.69,1.69,0,0,0-1.56-1.75" transform="translate(26.24 707.11)"/><path class="cls-4" d="M144.62,649.88A15,15,0,0,0,130.3,649a2,2,0,0,0-.26,3.15c4,2.82,12.46,7.51,15.19-.09a1.89,1.89,0,0,0-.61-2.2" transform="translate(26.24 707.11)"/><path class="cls-4" d="M75.17,691.06a15.44,15.44,0,0,0-14.58.55,2,2,0,0,0,0,3.16C65,697.18,73.94,701,76,693.19a1.86,1.86,0,0,0-.82-2.13" transform="translate(26.24 707.11)"/><path class="cls-4" d="M77.63,606.17A23.19,23.19,0,0,0,60.57,612a1.75,1.75,0,0,0,.91,3c5.82.73,17.46,1.15,17.71-7.1a1.7,1.7,0,0,0-1.56-1.75" transform="translate(26.24 707.11)"/><path class="cls-4" d="M76.72,647.6a15,15,0,0,0-14.32-.86,2,2,0,0,0-.26,3.15c4,2.83,12.46,7.51,15.19-.09a1.89,1.89,0,0,0-.61-2.2" transform="translate(26.24 707.11)"/><path class="cls-4" d="M96.07,672.39a15.47,15.47,0,0,0,14.58-.56,2,2,0,0,0,0-3.16c-4.36-2.41-13.32-6.25-15.37,1.58a1.86,1.86,0,0,0,.82,2.14" transform="translate(26.24 707.11)"/><path class="cls-4" d="M93.6,636.6a23.19,23.19,0,0,0,17.06-5.83,1.75,1.75,0,0,0-.91-3c-5.81-.73-17.45-1.15-17.71,7.1a1.7,1.7,0,0,0,1.56,1.75" transform="translate(26.24 707.11)"/><path class="cls-4" d="M94.51,595.17a15,15,0,0,0,14.33.85,2,2,0,0,0,.26-3.14c-4-2.83-12.46-7.51-15.19.08a1.88,1.88,0,0,0,.6,2.21" transform="translate(26.24 707.11)"/><path class="cls-4" d="M238.57,715.49A15.44,15.44,0,0,0,224,716a2,2,0,0,0,0,3.16c4.36,2.42,13.32,6.25,15.37-1.58a1.85,1.85,0,0,0-.82-2.13" transform="translate(26.24 707.11)"/><path class="cls-4" d="M238.57,836.16a15.47,15.47,0,0,0-14.58.56,2,2,0,0,0,0,3.16c4.36,2.41,13.32,6.25,15.37-1.58a1.86,1.86,0,0,0-.82-2.14" transform="translate(26.24 707.11)"/><path class="cls-4" d="M241,751.28A23.11,23.11,0,0,0,224,757.11a1.74,1.74,0,0,0,.91,3c5.81.73,17.45,1.15,17.71-7.09a1.7,1.7,0,0,0-1.56-1.75" transform="translate(26.24 707.11)"/><path class="cls-4" d="M240.13,792.71a15,15,0,0,0-14.33-.86,2,2,0,0,0-.26,3.15c4.05,2.82,12.46,7.51,15.19-.09a1.87,1.87,0,0,0-.6-2.2" transform="translate(26.24 707.11)"/><path class="cls-4" d="M176.19,716.63a15.44,15.44,0,0,0-14.58.55,2,2,0,0,0,0,3.16c4.36,2.41,13.32,6.25,15.37-1.58a1.86,1.86,0,0,0-.82-2.13" transform="translate(26.24 707.11)"/><path class="cls-4" d="M176.19,837.3a15.48,15.48,0,0,0-14.58.56,2,2,0,0,0,0,3.16c4.36,2.41,13.32,6.25,15.37-1.58a1.88,1.88,0,0,0-.82-2.14" transform="translate(26.24 707.11)"/><path class="cls-4" d="M178.65,752.42a23.14,23.14,0,0,0-17.06,5.82,1.75,1.75,0,0,0,.91,3c5.82.73,17.46,1.15,17.72-7.09a1.71,1.71,0,0,0-1.57-1.75" transform="translate(26.24 707.11)"/><path class="cls-4" d="M177.74,793.85a14.93,14.93,0,0,0-14.32-.86,2,2,0,0,0-.26,3.15c4,2.82,12.46,7.5,15.19-.09a1.89,1.89,0,0,0-.61-2.2" transform="translate(26.24 707.11)"/><path class="cls-4" d="M194.88,857.33a15.44,15.44,0,0,0,14.58-.55,2,2,0,0,0,0-3.16c-4.37-2.41-13.33-6.25-15.38,1.58a1.86,1.86,0,0,0,.82,2.13" transform="translate(26.24 707.11)"/><path class="cls-4" d="M194.88,736.66a15.48,15.48,0,0,0,14.58-.56,2,2,0,0,0,0-3.16c-4.37-2.41-13.33-6.25-15.38,1.58a1.88,1.88,0,0,0,.82,2.14" transform="translate(26.24 707.11)"/><path class="cls-4" d="M192.42,821.54a23.13,23.13,0,0,0,17.06-5.82,1.75,1.75,0,0,0-.91-3c-5.82-.73-17.46-1.15-17.71,7.09a1.69,1.69,0,0,0,1.56,1.75" transform="translate(26.24 707.11)"/><path class="cls-4" d="M193.33,780.11a15,15,0,0,0,14.32.86,2,2,0,0,0,.27-3.15c-4-2.82-12.47-7.51-15.2.09a1.89,1.89,0,0,0,.61,2.2" transform="translate(26.24 707.11)"/><path class="cls-4" d="M143.07,737.11a15.48,15.48,0,0,0-14.58.56,2,2,0,0,0,0,3.16c4.37,2.41,13.33,6.25,15.38-1.58a1.88,1.88,0,0,0-.82-2.14" transform="translate(26.24 707.11)"/><path class="cls-4" d="M143.07,857.79a15.42,15.42,0,0,0-14.58.56,2,2,0,0,0,0,3.16c4.37,2.41,13.33,6.24,15.38-1.58a1.88,1.88,0,0,0-.82-2.14" transform="translate(26.24 707.11)"/><path class="cls-4" d="M145.53,772.91a23.13,23.13,0,0,0-17.06,5.82,1.75,1.75,0,0,0,.91,3c5.82.73,17.46,1.15,17.71-7.1a1.68,1.68,0,0,0-1.56-1.74" transform="translate(26.24 707.11)"/><path class="cls-4" d="M144.62,814.33a15,15,0,0,0-14.32-.85,2,2,0,0,0-.26,3.15c4,2.82,12.46,7.5,15.19-.09a1.91,1.91,0,0,0-.61-2.21" transform="translate(26.24 707.11)"/><path class="cls-4" d="M75.17,734.84a15.44,15.44,0,0,0-14.58.55,2,2,0,0,0,0,3.16C65,741,73.94,744.8,76,737a1.86,1.86,0,0,0-.82-2.13" transform="translate(26.24 707.11)"/><path class="cls-4" d="M75.17,855.51a15.48,15.48,0,0,0-14.58.56,2,2,0,0,0,0,3.16c4.37,2.41,13.33,6.25,15.38-1.58a1.88,1.88,0,0,0-.82-2.14" transform="translate(26.24 707.11)"/><path class="cls-4" d="M77.63,770.63a23.11,23.11,0,0,0-17.06,5.83,1.75,1.75,0,0,0,.91,3c5.82.73,17.46,1.15,17.71-7.09a1.69,1.69,0,0,0-1.56-1.75" transform="translate(26.24 707.11)"/><path class="cls-4" d="M76.72,812.06a15,15,0,0,0-14.32-.86,2,2,0,0,0-.26,3.15c4,2.82,12.46,7.51,15.19-.09a1.89,1.89,0,0,0-.61-2.2" transform="translate(26.24 707.11)"/><path class="cls-4" d="M96.07,836.84a15.44,15.44,0,0,0,14.58-.55,2,2,0,0,0,0-3.16c-4.36-2.41-13.32-6.25-15.37,1.58a1.84,1.84,0,0,0,.82,2.13" transform="translate(26.24 707.11)"/><path class="cls-4" d="M96.07,716.17a15.47,15.47,0,0,0,14.58-.56,2,2,0,0,0,0-3.16C106.26,710,97.3,706.2,95.25,714a1.86,1.86,0,0,0,.82,2.14" transform="translate(26.24 707.11)"/><path class="cls-4" d="M93.6,801.05a23.13,23.13,0,0,0,17.06-5.82,1.75,1.75,0,0,0-.91-3c-5.81-.73-17.45-1.15-17.71,7.1a1.7,1.7,0,0,0,1.56,1.74" transform="translate(26.24 707.11)"/><path class="cls-4" d="M94.51,759.62a15,15,0,0,0,14.33.86,2,2,0,0,0,.26-3.15c-4-2.82-12.46-7.5-15.19.09a1.87,1.87,0,0,0,.6,2.2" transform="translate(26.24 707.11)"/><path class="cls-4" d="M238.57,953.92a15.44,15.44,0,0,0-14.58.55,2,2,0,0,0,0,3.16c4.36,2.42,13.32,6.25,15.37-1.58a1.84,1.84,0,0,0-.82-2.13" transform="translate(26.24 707.11)"/><path class="cls-4" d="M241,869A23.19,23.19,0,0,0,224,874.86a1.75,1.75,0,0,0,.91,3c5.81.73,17.45,1.15,17.71-7.1A1.7,1.7,0,0,0,241,869" transform="translate(26.24 707.11)"/><path class="cls-4" d="M240.13,910.46a15,15,0,0,0-14.33-.86,2,2,0,0,0-.26,3.15c4.05,2.83,12.46,7.51,15.19-.08a1.88,1.88,0,0,0-.6-2.21" transform="translate(26.24 707.11)"/><path class="cls-4" d="M176.19,955.06a15.44,15.44,0,0,0-14.58.55,2,2,0,0,0,0,3.16C166,961.18,175,965,177,957.19a1.86,1.86,0,0,0-.82-2.13" transform="translate(26.24 707.11)"/><path class="cls-4" d="M178.65,870.17A23.16,23.16,0,0,0,161.59,876a1.75,1.75,0,0,0,.91,3c5.82.72,17.46,1.15,17.72-7.1a1.71,1.71,0,0,0-1.57-1.75" transform="translate(26.24 707.11)"/><path class="cls-4" d="M177.74,911.6a15,15,0,0,0-14.32-.86,2,2,0,0,0-.26,3.15c4,2.82,12.46,7.51,15.19-.09a1.89,1.89,0,0,0-.61-2.2" transform="translate(26.24 707.11)"/><path class="cls-4" d="M194.88,975.09a15.48,15.48,0,0,0,14.58-.56,2,2,0,0,0,0-3.16c-4.37-2.41-13.33-6.25-15.38,1.58a1.88,1.88,0,0,0,.82,2.14" transform="translate(26.24 707.11)"/><path class="cls-4" d="M192.42,939.29a23.13,23.13,0,0,0,17.06-5.82,1.75,1.75,0,0,0-.91-3c-5.82-.73-17.46-1.15-17.71,7.1a1.68,1.68,0,0,0,1.56,1.74" transform="translate(26.24 707.11)"/><path class="cls-4" d="M193.33,897.87a15,15,0,0,0,14.32.85,2,2,0,0,0,.27-3.15c-4-2.82-12.47-7.5-15.2.09a1.91,1.91,0,0,0,.61,2.21" transform="translate(26.24 707.11)"/><path class="cls-4" d="M143.07,975.54a15.48,15.48,0,0,0-14.58.56,2,2,0,0,0,0,3.16c4.37,2.41,13.33,6.25,15.38-1.58a1.88,1.88,0,0,0-.82-2.14" transform="translate(26.24 707.11)"/><path class="cls-4" d="M145.53,890.66a23.11,23.11,0,0,0-17.06,5.83,1.75,1.75,0,0,0,.91,3c5.82.73,17.46,1.15,17.71-7.09a1.69,1.69,0,0,0-1.56-1.75" transform="translate(26.24 707.11)"/><path class="cls-4" d="M144.62,932.09a15,15,0,0,0-14.32-.86,2,2,0,0,0-.26,3.15c4,2.82,12.46,7.51,15.19-.09a1.89,1.89,0,0,0-.61-2.2" transform="translate(26.24 707.11)"/><path class="cls-4" d="M75.17,973.27a15.44,15.44,0,0,0-14.58.55,2,2,0,0,0,0,3.16C65,979.39,73.94,983.23,76,975.4a1.86,1.86,0,0,0-.82-2.13" transform="translate(26.24 707.11)"/><path class="cls-4" d="M77.63,888.38a23.19,23.19,0,0,0-17.06,5.83,1.75,1.75,0,0,0,.91,3c5.82.73,17.46,1.15,17.71-7.1a1.7,1.7,0,0,0-1.56-1.75" transform="translate(26.24 707.11)"/><path class="cls-4" d="M76.72,929.81A15,15,0,0,0,62.4,929a2,2,0,0,0-.26,3.15c4,2.83,12.46,7.51,15.19-.09a1.89,1.89,0,0,0-.61-2.2" transform="translate(26.24 707.11)"/><path class="cls-4" d="M96.07,954.6a15.47,15.47,0,0,0,14.58-.56,2,2,0,0,0,0-3.16c-4.36-2.41-13.32-6.25-15.37,1.58a1.86,1.86,0,0,0,.82,2.14" transform="translate(26.24 707.11)"/><path class="cls-4" d="M93.6,918.81A23.19,23.19,0,0,0,110.66,913a1.75,1.75,0,0,0-.91-3c-5.81-.73-17.45-1.15-17.71,7.1a1.7,1.7,0,0,0,1.56,1.75" transform="translate(26.24 707.11)"/><path class="cls-4" d="M94.51,877.38a15,15,0,0,0,14.33.85,2,2,0,0,0,.26-3.14c-4-2.83-12.46-7.51-15.19.08a1.89,1.89,0,0,0,.6,2.21" transform="translate(26.24 707.11)"/><path class="cls-4" d="M47.72,433.28a15.44,15.44,0,0,0-14.58.55,2,2,0,0,0,0,3.16c4.37,2.42,13.33,6.25,15.38-1.58a1.86,1.86,0,0,0-.82-2.13" transform="translate(26.24 707.11)"/><path class="cls-4" d="M47.72,554a15.48,15.48,0,0,0-14.58.56,2,2,0,0,0,0,3.16c4.37,2.41,13.33,6.25,15.38-1.58a1.88,1.88,0,0,0-.82-2.14" transform="translate(26.24 707.11)"/><path class="cls-4" d="M50.18,469.07a23.11,23.11,0,0,0-17.06,5.83,1.75,1.75,0,0,0,.91,3c5.82.73,17.46,1.15,17.71-7.09a1.69,1.69,0,0,0-1.56-1.75" transform="translate(26.24 707.11)"/><path class="cls-4" d="M49.27,510.5A15,15,0,0,0,35,509.64a2,2,0,0,0-.27,3.15c4,2.82,12.47,7.51,15.2-.09a1.89,1.89,0,0,0-.61-2.2" transform="translate(26.24 707.11)"/><path class="cls-4" d="M4,575.12a15.44,15.44,0,0,0,14.58-.55,2,2,0,0,0,0-3.16C14.22,569,5.26,565.16,3.21,573A1.85,1.85,0,0,0,4,575.12" transform="translate(26.24 707.11)"/><path class="cls-4" d="M4,454.45a15.47,15.47,0,0,0,14.58-.56,2,2,0,0,0,0-3.16c-4.36-2.41-13.32-6.25-15.37,1.58A1.86,1.86,0,0,0,4,454.45" transform="translate(26.24 707.11)"/><path class="cls-4" d="M1.56,539.33a23.13,23.13,0,0,0,17.06-5.82,1.75,1.75,0,0,0-.91-3C11.9,529.76.25,529.34,0,537.58a1.7,1.7,0,0,0,1.56,1.75" transform="translate(26.24 707.11)"/><path class="cls-4" d="M2.47,497.9a15,15,0,0,0,14.33.86,2,2,0,0,0,.26-3.15c-4-2.82-12.46-7.51-15.19.09a1.87,1.87,0,0,0,.6,2.2" transform="translate(26.24 707.11)"/><path class="cls-4" d="M47.72,671.71a15.44,15.44,0,0,0-14.58.55,2,2,0,0,0,0,3.16c4.37,2.42,13.33,6.25,15.38-1.58a1.86,1.86,0,0,0-.82-2.13" transform="translate(26.24 707.11)"/><path class="cls-4" d="M50.18,586.82a23.19,23.19,0,0,0-17.06,5.83,1.75,1.75,0,0,0,.91,3c5.82.73,17.46,1.15,17.71-7.1a1.7,1.7,0,0,0-1.56-1.75" transform="translate(26.24 707.11)"/><path class="cls-4" d="M49.27,628.25A15,15,0,0,0,35,627.39a2,2,0,0,0-.27,3.15c4,2.83,12.47,7.51,15.2-.08a1.9,1.9,0,0,0-.61-2.21" transform="translate(26.24 707.11)"/><path class="cls-4" d="M4,692.88a15.47,15.47,0,0,0,14.58-.56,2,2,0,0,0,0-3.16c-4.36-2.41-13.32-6.25-15.37,1.58A1.86,1.86,0,0,0,4,692.88" transform="translate(26.24 707.11)"/><path class="cls-4" d="M1.56,657.08a23.13,23.13,0,0,0,17.06-5.82,1.75,1.75,0,0,0-.91-3C11.9,647.51.25,647.09,0,655.34a1.69,1.69,0,0,0,1.56,1.74" transform="translate(26.24 707.11)"/><path class="cls-4" d="M2.47,615.66a15,15,0,0,0,14.33.85,2,2,0,0,0,.26-3.15c-4-2.82-12.46-7.5-15.19.09a1.89,1.89,0,0,0,.6,2.21" transform="translate(26.24 707.11)"/><path class="cls-4" d="M47.72,715.49a15.44,15.44,0,0,0-14.58.55,2,2,0,0,0,0,3.16c4.37,2.42,13.33,6.25,15.38-1.58a1.86,1.86,0,0,0-.82-2.13" transform="translate(26.24 707.11)"/><path class="cls-4" d="M47.72,836.16a15.48,15.48,0,0,0-14.58.56,2,2,0,0,0,0,3.16c4.37,2.41,13.33,6.25,15.38-1.58a1.88,1.88,0,0,0-.82-2.14" transform="translate(26.24 707.11)"/><path class="cls-4" d="M50.18,751.28a23.11,23.11,0,0,0-17.06,5.83,1.75,1.75,0,0,0,.91,3c5.82.73,17.46,1.15,17.71-7.09a1.69,1.69,0,0,0-1.56-1.75" transform="translate(26.24 707.11)"/><path class="cls-4" d="M49.27,792.71A15,15,0,0,0,35,791.85a2,2,0,0,0-.27,3.15c4,2.82,12.47,7.51,15.2-.09a1.89,1.89,0,0,0-.61-2.2" transform="translate(26.24 707.11)"/><path class="cls-4" d="M4,857.33a15.44,15.44,0,0,0,14.58-.55,2,2,0,0,0,0-3.16c-4.36-2.41-13.32-6.25-15.37,1.58A1.85,1.85,0,0,0,4,857.33" transform="translate(26.24 707.11)"/><path class="cls-4" d="M4,736.66a15.47,15.47,0,0,0,14.58-.56,2,2,0,0,0,0-3.16c-4.36-2.41-13.32-6.25-15.37,1.58A1.86,1.86,0,0,0,4,736.66" transform="translate(26.24 707.11)"/><path class="cls-4" d="M1.56,821.54a23.13,23.13,0,0,0,17.06-5.82,1.75,1.75,0,0,0-.91-3C11.9,812,.25,811.55,0,819.79a1.7,1.7,0,0,0,1.56,1.75" transform="translate(26.24 707.11)"/><path class="cls-4" d="M2.47,780.11A15,15,0,0,0,16.8,781a2,2,0,0,0,.26-3.15c-4-2.82-12.46-7.51-15.19.09a1.87,1.87,0,0,0,.6,2.2" transform="translate(26.24 707.11)"/><path class="cls-4" d="M47.72,953.92a15.44,15.44,0,0,0-14.58.55,2,2,0,0,0,0,3.16c4.37,2.42,13.33,6.25,15.38-1.58a1.86,1.86,0,0,0-.82-2.13" transform="translate(26.24 707.11)"/><path class="cls-4" d="M50.18,869a23.19,23.19,0,0,0-17.06,5.83,1.75,1.75,0,0,0,.91,3c5.82.73,17.46,1.15,17.71-7.1A1.7,1.7,0,0,0,50.18,869" transform="translate(26.24 707.11)"/><path class="cls-4" d="M49.27,910.46A15,15,0,0,0,35,909.6a2,2,0,0,0-.27,3.15c4,2.83,12.47,7.51,15.2-.08a1.9,1.9,0,0,0-.61-2.21" transform="translate(26.24 707.11)"/><path class="cls-4" d="M4,975.09a15.47,15.47,0,0,0,14.58-.56,2,2,0,0,0,0-3.16C14.22,969,5.26,965.12,3.21,973A1.86,1.86,0,0,0,4,975.09" transform="translate(26.24 707.11)"/><path class="cls-4" d="M1.56,939.29a23.13,23.13,0,0,0,17.06-5.82,1.75,1.75,0,0,0-.91-3C11.9,929.72.25,929.3,0,937.55a1.69,1.69,0,0,0,1.56,1.74" transform="translate(26.24 707.11)"/><path class="cls-4" d="M2.47,897.87a15,15,0,0,0,14.33.85,2,2,0,0,0,.26-3.15c-4-2.82-12.46-7.5-15.19.09a1.89,1.89,0,0,0,.6,2.21" transform="translate(26.24 707.11)"/></g></g></svg>