<svg xmlns="http://www.w3.org/2000/svg" viewBox="0 0 129.73 95.41"><defs><style>.cls-1{fill:#b18978;}.cls-2{fill:#d05559;}</style></defs><g id="레이어_2" data-name="레이어 2"><g id="레이어_1-2" data-name="레이어 1"><path class="cls-1" d="M28.74,9a1.41,1.41,0,0,0,1,.21h.14a2.4,2.4,0,0,1,1.85.56,5.9,5.9,0,0,1,1.38,1.9A17.92,17.92,0,0,1,34,14a18.9,18.9,0,0,0,1,2.55,8.84,8.84,0,0,0,1.73,2.32,11.67,11.67,0,0,0,2.34,1.65A13.66,13.66,0,0,0,44.51,22a16.24,16.24,0,0,0,2.79,0c.47,0,.93-.11,1.39-.19a1.72,1.72,0,0,0,1.17-.74A1.63,1.63,0,0,0,50,19.65a1.79,1.79,0,0,0-.85-1,1.68,1.68,0,0,0-.68-.21,1.28,1.28,0,0,0-.34,0l-.16,0h-.08a12.15,12.15,0,0,1-1.21.17,13.37,13.37,0,0,1-2.45,0A10.07,10.07,0,0,1,39.75,17a5.72,5.72,0,0,1-1.63-1.62,11.83,11.83,0,0,1-1.07-2.2c-.31-.8-.6-1.65-1-2.49a8.28,8.28,0,0,0-1.6-2.36A7,7,0,0,0,32.58,7a18.82,18.82,0,0,1,3.61-2,9.65,9.65,0,0,1,3.38-.75,6.33,6.33,0,0,1,3.34.85A15.06,15.06,0,0,1,48,10a22.63,22.63,0,0,1,1.69,3.14c.13.28.24.55.35.83a1.13,1.13,0,0,0,.26.45v0a.81.81,0,0,0,.29.19l.11,0h0a1,1,0,0,0,.42,0h0l.11,0,.08,0,.08,0,0,0a.73.73,0,0,0,.09-.08l0-.05a.6.6,0,0,0,.1-.38v0a.79.79,0,0,0,0-.2c-.12-.3-.24-.6-.37-.9A21.31,21.31,0,0,0,45.94,5a11.21,11.21,0,0,0-4.62-2.54,3,3,0,0,0-.66-.13c-.22,0-.44-.07-.67-.09a12,12,0,0,0-1.34,0,11.84,11.84,0,0,0-2.64.5,20,20,0,0,0-4.83,2.3c-.76.47-1.49,1-2.2,1.52l-.08.06-.48.11.11.18-.12.12a1.17,1.17,0,0,0-.28,1.07A1.41,1.41,0,0,0,28.74,9Z"/><path class="cls-1" d="M35.13,6.47a9.69,9.69,0,0,1,5.62,1A15.27,15.27,0,0,1,43.16,9c.74.6,1.44,1.27,2.14,1.94.92,1,1.84,2,2.74,3l1.29,1.46-.78-1.79c-.28-.65-.59-1.28-.88-1.92L46.51,9.9v0h0a20.09,20.09,0,0,0-2.27-2.34,10.28,10.28,0,0,0-2.85-1.6,7.51,7.51,0,0,0-3.21-.49,5.76,5.76,0,0,0-3,1Z"/><path class="cls-1" d="M73.65,45.38c-.23-4.94-2.29-9.71-3.45-14.5-.77-3.16-1.42-6.34-2.2-9.5a1.55,1.55,0,0,0,0-.21c0-.09.12-.3,0-.11s0,0,0-.11.08-.34.13-.5a10.9,10.9,0,0,1,.39-1.09c0-.1.08-.19.13-.29h0s0,0,0,0l.3-.58c.2-.36.42-.72.65-1.07s.46-.69.71-1c.11-.15.23-.29.35-.44l0,0,.21-.22a17.24,17.24,0,0,0,1.83-1.9,1.59,1.59,0,0,0-1.36-2.4,25.11,25.11,0,0,0-4.23.63,5.9,5.9,0,0,0-2.33,1.06,7.09,7.09,0,0,0-2.32-1.7,9.36,9.36,0,0,0-4.78-1,5.66,5.66,0,0,1-2.06-2.84,16.39,16.39,0,0,1-.41-6.28A1.33,1.33,0,0,0,53.11.33a8,8,0,0,0-2.5,6.57,13.29,13.29,0,0,0,3,7l0,0,.06.08a.24.24,0,0,0,.08.06,1.23,1.23,0,0,0,.29.22l.07,0a1.12,1.12,0,0,0,.45.07h0a1,1,0,0,0,.33,0l3.15-.92a6.51,6.51,0,0,1,4,1.35,3.94,3.94,0,0,1,1.25,2.14c.37,1.16.7,2.34,1,3.53,1.09,4.06,1.87,8.2,2.9,12.28,1.14,4.54,3.29,9.2,3.09,13.94-.17,4.24-3.14,8.13-7.77,8.43-5,.32-8.34-3.88-11.65-6.84-3.7-3.31-7.28-6.86-11.23-9.91a16.56,16.56,0,0,0-7.1-3.25,1.89,1.89,0,0,0-.36-.1C16.08,32.72.72,55.67.22,56.54a1.61,1.61,0,0,0,.59,2.21,1.57,1.57,0,0,0,.81.22A1.61,1.61,0,0,0,3,58.16C3.13,58,17.9,36.48,31.77,38.08c4.49.72,7.74,4.18,11,7.1l6,5.41c1.93,1.73,3.81,3.57,5.88,5.15a11.74,11.74,0,0,0,19-10.36Z"/><path class="cls-1" d="M85.09,27.46h1v2.16h0l1.65-2.16h1.1l-1.52,1.95,1.79,3H88L86.74,30.2l-.66.84v1.4h-1Z"/><path class="cls-1" d="M89.26,29.93c0-1.63.91-2.57,2.23-2.57s2.23.95,2.23,2.57-.91,2.6-2.23,2.6S89.26,31.54,89.26,29.93Zm3.44,0c0-1.07-.47-1.71-1.21-1.71s-1.21.64-1.21,1.71.47,1.74,1.21,1.74S92.7,31,92.7,29.93Z"/><path class="cls-1" d="M97.41,32.44l-1-1.89h-.7v1.89h-1v-5h1.73c1,0,1.87.36,1.87,1.5a1.42,1.42,0,0,1-1,1.44l1.17,2Zm-1.72-2.68h.65c.64,0,1-.26,1-.8s-.35-.72-1-.72h-.65Z"/><path class="cls-1" d="M99.29,27.46h3v.82h-2.06v1.16H102v.83h-1.75V31.6h2.14v.84H99.29Z"/><path class="cls-1" d="M105.76,31.16h-1.61l-.35,1.28h-1l1.59-5h1.17l1.61,5h-1Zm-.21-.78-.15-.54c-.15-.52-.29-1.09-.44-1.63h0c-.13.55-.28,1.11-.43,1.63l-.15.54Z"/><path class="cls-1" d="M107.74,27.46h1l1.45,2.65.5,1.07h0c0-.51-.13-1.17-.13-1.74v-2h.94v5h-1l-1.44-2.67-.5-1.07h0c0,.54.12,1.17.12,1.74v2h-1Z"/><path class="cls-1" d="M85.09,35.23h1.65c1,0,1.8.29,1.8,1.22a1.14,1.14,0,0,1-.68,1.08v0a1.14,1.14,0,0,1,.94,1.18c0,1-.84,1.47-1.94,1.47H85.09Zm1.57,2c.63,0,.91-.25.91-.65s-.3-.61-.89-.61h-.6v1.26Zm.12,2.19c.68,0,1-.24,1-.76s-.37-.69-1-.69h-.7v1.45Z"/><path class="cls-1" d="M89.67,35.23h3.06v.82H90.67V37.2h1.75V38H90.67v1.33H92.8v.84H89.67Z"/><path class="cls-1" d="M93.81,35.23h3.06v.82H94.81V37.2h1.75V38H94.81v1.33h2.13v.84H93.81Z"/><path class="cls-1" d="M98,35.23H101v.82H99v1.3h1.77v.84H99v2H98Z"/><path class="cls-1" d="M102.78,35.23h1l.66,2.42c.15.55.25,1.05.41,1.61h0c.15-.56.27-1.06.42-1.61l.65-2.42h1l-1.53,5H104.3Z"/><path class="cls-1" d="M107.58,35.23h1v5h-1Z"/><path class="cls-1" d="M109.8,35.23h1v4.14h2v.84h-3Z"/><path class="cls-1" d="M113.69,35.23h1v4.14h2v.84h-3Z"/><path class="cls-1" d="M119.87,38.93h-1.61l-.35,1.28h-1l1.6-5h1.17l1.6,5h-1Zm-.21-.78-.15-.54c-.15-.52-.29-1.09-.44-1.63h0c-.13.54-.28,1.11-.43,1.63l-.14.54Z"/><path class="cls-1" d="M121.53,37.74a2.38,2.38,0,0,1,2.38-2.61,2.11,2.11,0,0,1,1.55.64l-.54.63a1.31,1.31,0,0,0-1-.41c-.83,0-1.41.64-1.41,1.71s.5,1.74,1.48,1.74a1,1,0,0,0,.62-.19v-1h-.88v-.82h1.77V39.7a2.35,2.35,0,0,1-1.62.6A2.31,2.31,0,0,1,121.53,37.74Z"/><path class="cls-1" d="M126.6,35.23h3.06v.82H127.6V37.2h1.75V38H127.6v1.33h2.13v.84H126.6Z"/><path class="cls-1" d="M84.76,47.34l.57-.69a2,2,0,0,0,1.27.56c.51,0,.79-.23.79-.57s-.3-.49-.75-.68L86,45.68a1.44,1.44,0,0,1-1-1.34,1.55,1.55,0,0,1,1.72-1.44,2.2,2.2,0,0,1,1.56.64l-.5.63a1.57,1.57,0,0,0-1.06-.41c-.44,0-.72.19-.72.52s.36.48.78.65l.65.28a1.37,1.37,0,0,1,1,1.35,1.62,1.62,0,0,1-1.83,1.51A2.62,2.62,0,0,1,84.76,47.34Z"/><path class="cls-1" d="M91.62,46.7H90L89.66,48h-1l1.59-5h1.17L93,48H92Zm-.21-.78-.15-.54c-.15-.52-.29-1.09-.44-1.63h0c-.13.54-.28,1.11-.43,1.63l-.15.54Z"/><path class="cls-1" d="M93.61,43h1.1l.85,2.33.3,1h0c.11-.32.2-.65.31-1L97,43h1.11v5h-.91V45.9c0-.48.07-1.17.12-1.64h0l-.4,1.17-.77,2.09h-.57l-.77-2.09-.4-1.17h0c0,.47.13,1.16.13,1.64V48h-.89Z"/><path class="cls-1" d="M99.11,45.5a2.37,2.37,0,0,1,2.38-2.6,2.11,2.11,0,0,1,1.55.64l-.54.63a1.31,1.31,0,0,0-1-.41c-.83,0-1.41.64-1.41,1.71s.5,1.74,1.48,1.74a1,1,0,0,0,.62-.19V46h-.88v-.82h1.77v2.25a2.35,2.35,0,0,1-1.62.6A2.32,2.32,0,0,1,99.11,45.5Z"/><path class="cls-1" d="M106.46,46.7h-1.61L104.5,48h-1l1.6-5h1.17l1.6,5h-1Zm-.21-.78-.15-.54c-.15-.52-.29-1.09-.44-1.63h0c-.13.54-.28,1.11-.43,1.63l-.14.54Z"/><path class="cls-2" d="M123.13,68.42V67h1.58V69.2L122,70.7l-.68-1.32Zm-1.22,5.19V71h6.16v2.66h-1.31l-.18-.22-1.3.22Zm1.54-1.12h3.08v-.42h-3.08Zm.3-3.37h2.39v1.5h-1.9ZM126.49,67h1.58V70.7h-1.58ZM129,68v1.5h-1.54V68Z"/><path class="cls-2" d="M121.66,79.48l2.61-2.1V75.86h-2.44v-1.5h4v3.75l-3.2,2.57Zm4.75-5.29H128v6.66h-1.58Zm2.49,2.36v1.5h-1.62v-1.5Z"/><path class="cls-2" d="M98.54,67.16a5.43,5.43,0,0,0,4.2-1.66,2.12,2.12,0,0,0,.66-1.28,3.81,3.81,0,0,0-1.34-4.06,31.36,31.36,0,0,0-3.59-1.89c-.26-.13-.39,0-.63,0a3.23,3.23,0,0,0-1.7,1.24c-1.64,1.87-1.16,3.9-.23,5.83A3,3,0,0,0,98.54,67.16Z"/><path class="cls-2" d="M78.44,74.29c.28-.25.41-.43.56-.47a.5.5,0,0,1,.46.15,18.17,18.17,0,0,1,1.08,1.82,13.54,13.54,0,0,1,1.39,3.08,10.89,10.89,0,0,1-.06,4.65,37.25,37.25,0,0,1-.93,3.71c-.47,1.41-1.12,2.72-1.62,4.11a2.64,2.64,0,0,0,0,1.25c.07.38.36.71.38,1.08.05,1.09.73,1.33,1.31,1.65s1-.19,1.31-.6a5,5,0,0,0,.81-1.39c.51-1.3,1-2.65,1.44-4a21.5,21.5,0,0,0,1.17-6,1,1,0,0,1,.54-1,3.31,3.31,0,0,1,3.36-.1,1.4,1.4,0,0,0,1.9-1.79,15.42,15.42,0,0,0-1.06-1.86.39.39,0,0,0-.25-.15,11,11,0,0,0-4.31,0c-.25.08-.51.12-.78.19-.71-2-1.39-4-2.82-5.41-.41-.39-.83-.76-1.25-1.11,0,0-.16,0-.25,0l-.47,0A4.78,4.78,0,0,0,79.25,72c-.5,0-.81.49-.91,1.07A5.1,5.1,0,0,0,78.44,74.29Z"/><path class="cls-2" d="M110.65,82.14a13.47,13.47,0,0,1-3.92,3.34.32.32,0,0,1-.43-.43h0a17.46,17.46,0,0,0,2-4.36A2.48,2.48,0,0,0,107,77.85a6.21,6.21,0,0,0-3.64-.4,16.12,16.12,0,0,0-4.19,1.62,8.72,8.72,0,0,0-2.64,1.64,1.24,1.24,0,0,0-.29,1.49,2.73,2.73,0,0,0,3.77.89c.93-.53,1.87-1,3-1.66a6,6,0,0,1-1.43,2.36,3.85,3.85,0,0,0-.75,4.35,2.81,2.81,0,0,0,2.76,1.9,17.21,17.21,0,0,0,7.74-2.56,12,12,0,0,0,3.21-3.3c1-1.45,1.79-3,1.34-4.37a3.59,3.59,0,0,1-.06-2.48,2.41,2.41,0,0,0-1.75-2.48,8.12,8.12,0,0,0-2.9-.36c-.18,0-.39,0-.46.18s.12.31.26.42S114.9,76.84,110.65,82.14Z"/><path class="cls-2" d="M79.36,81.93c-.22-.3-.64-.46-.67-.88-.06-.72-.47-.57-.81-.24-.82.81-1.89.9-3.12,1.18a33.5,33.5,0,0,0,1.65-3.37,3.49,3.49,0,0,0-.09-3A2.78,2.78,0,0,0,74.12,74c-1.47-.29-2.94-.81-4.39-.14a5.23,5.23,0,0,1-2.76.25c-.17,0-.35-.3-.49-.06s-.27.51-.06.76c1.09,1.29.77,2.77.64,4.23s-.49,2.84-.76,4.25a2.86,2.86,0,0,0,1.54,3,1.56,1.56,0,0,0,2-.56c.18-.26.34-.54.51-.83.24.07.27.35.45.45.43.23.61.75,1.3.71a25.35,25.35,0,0,0,6.7-1.5C80,84.09,80.17,83,79.36,81.93ZM71,79.86c-.07-.78-.13-1.49-.19-2.19,0-.36.25-.4.5-.38a1.4,1.4,0,0,0,1.12-.44A6.1,6.1,0,0,1,71,79.86Z"/><path class="cls-2" d="M42.39,73.93s.09,0,.1.08c.08.66.77,1,.94,1.57a2.25,2.25,0,0,0,2.33,1.47,2.11,2.11,0,0,1,1.27.12c0,.07,0,.14,0,.18a4.26,4.26,0,0,1-.5.68,5,5,0,0,0,1.71,8.28,5.26,5.26,0,0,0,4,.21,6.13,6.13,0,0,0,1.36-1c1.74-1.28,3.24-2.67,3.11-5.08a18.6,18.6,0,0,1,0-2c.05-1,.54-2,.49-3a2.11,2.11,0,0,1,.25-1.54,5.53,5.53,0,0,1,1.74,2.19A7.62,7.62,0,0,1,59,79.84a7.86,7.86,0,0,1-1.16,3.24,3,3,0,0,0,.89,4.34c1.19.71,2.06.53,2.73-.63a16.47,16.47,0,0,0,1.69-5.37,9.37,9.37,0,0,0-1.78-7.59,4.7,4.7,0,0,0-2.73-2.16,13.42,13.42,0,0,1-2.46-.26c-.26-.1-.48.07-.35.45a2.41,2.41,0,0,1,0,1.48,53.45,53.45,0,0,1-2.08,6.06,6,6,0,0,1-4.19,3.33c.7-1.18,1.48-2.29,2.22-3.42A3.08,3.08,0,0,0,51.09,75a8.53,8.53,0,0,0-3.81-1.16c-1.35-.11-2.68.16-4,.12-.17,0-.41,0-.48-.14"/><path class="cls-2" d="M88,67.06c-.63,1-.49,1.78.3,2.21a13.42,13.42,0,0,0,4.87,1.34,20.13,20.13,0,0,0,9.52-.86,21.32,21.32,0,0,0,10.29-7c.71-.92,1.48-1.79,2.15-2.75a3.27,3.27,0,0,0,.37-1.33c.08-.56.11-1.13.14-1.71s.6-.57.93-.71A15,15,0,0,1,119,55.12c1-.21,1.43.45,2,1a2.34,2.34,0,0,1,.38,2.38,12.84,12.84,0,0,1-2.45,4.71q-2,2.45-4.1,4.74a22.56,22.56,0,0,1-6.35,4.56,23.2,23.2,0,0,1-6.4,2.14,27.62,27.62,0,0,1-3.91.61A21.71,21.71,0,0,1,94.28,75a33,33,0,0,1-3.92-.74,7.86,7.86,0,0,1-3.64-2.16c-.35-.36-.82-.7-.61-1.43.06-.21-.16-.53-.27-.79a1.55,1.55,0,0,1,.8-2.25C87.07,67.41,87.51,67.26,88,67.06Z"/><path class="cls-2" d="M47.67,63.3c0-.12-.06-.2-.21-.22a3,3,0,0,0-2.08,1.6c0,.37-.11.54-.52.55-.87,0-1.73,0-2.59,0A1.77,1.77,0,0,0,41.13,65c-.15,0-.29.06-.44.09-.74-.07-1.24-.14-2-.27l-.18,0-.18,0c0-.1,0-.21,0-.32a28.86,28.86,0,0,0,.27-4.52,5.86,5.86,0,0,0-.87-2.37,1.93,1.93,0,0,0-.87-.53l-.25-.1a6.14,6.14,0,0,0-1.22-.36.53.53,0,0,0-.37,0,.91.91,0,0,0-.17.54l0,.21a3.68,3.68,0,0,0-.06.58c0,.14,0,.29,0,.44-.05.38-.09.77-.13,1.16-.1,1-.21,2-.4,3a1.54,1.54,0,0,1-.37.86l-.19-.09-.25-.12-.68-.35-1.16-.62-1.19-.63-1.87-1.39-1-.77a1.48,1.48,0,0,1-.58-1.69,8.2,8.2,0,0,0,.22-2.14v-.41c0-.73,0-1.48-.58-1.84a10.1,10.1,0,0,1-1.32-1L24.9,52c-.17-.15-.6-.12-.91-.11h-.06a1,1,0,0,0-.16.36c-.05.32-.1.63-.14,1a12.87,12.87,0,0,1-.23,1.36,7.74,7.74,0,0,1-2.24,4.13c-2.78,2.51-3.76,3-7.47,3.84-.6.14-.95.17-1.19,0s-.27-.53-.26-1.17a1.64,1.64,0,0,0-.09-.53,1.5,1.5,0,0,0-.75.11c-.47.18-.49.48-.5,1a4.53,4.53,0,0,1,0,.52c-.27,1.72.63,3,1.67,4.16a2.87,2.87,0,0,0,1.73.9,8.11,8.11,0,0,0,4.23-.69c.29-.14.59-.26.88-.37l.76-.31c2.58-1.19,2.69-1.32,4.56-3.51l0,0a1.3,1.3,0,0,1,.1.15l.11.16a5.4,5.4,0,0,0,1.45,1.59,40.59,40.59,0,0,0,5.14,2.88l.31.14.2.08a3.34,3.34,0,0,1-.3,1,.49.49,0,0,0-.05.16l0,.14a7,7,0,0,1-2.2,3.23l-.12.1-.11-.1a14.41,14.41,0,0,1-3.09-3l-.25-.31a2.15,2.15,0,0,0-.31-.35A1.48,1.48,0,0,1,24,67.78a3.85,3.85,0,0,0-.3-.27,1.37,1.37,0,0,0-1-.1c0,.12-.06.39-.08.55l0,.17a4.91,4.91,0,0,0,0,.86l0,.16a1.74,1.74,0,0,0,.16.76,11.86,11.86,0,0,0,3.36,3.81c.29.22.56.47.85.73l.46.41.15.13-.15.14-1.06,1c-.77.77-1.5,1.49-2.3,2.16-1.53,1.28-3.13,2.51-4.76,3.65A10.49,10.49,0,0,1,14.5,84c-.7.08-1,.35-.91.91a6,6,0,0,1,0,.85c0,.82,0,1.59.77,2.11a.51.51,0,0,1,.17.22l0,.05a1.5,1.5,0,0,0,2.19.76c.44-.21.88-.46,1.3-.7l.25-.14,1.47-.81c1.12-.6,2.27-1.23,3.35-1.94a43.85,43.85,0,0,0,8.44-7.21,1.48,1.48,0,0,1,1.74-.44,19.43,19.43,0,0,0,2.73.56l1,.16a.36.36,0,0,0,.28-.06,5.91,5.91,0,0,1,.52-.48c.66-.59,1.24-1.09,1-2.12a.75.75,0,0,1,.07-.44.7.7,0,0,0,0-.18c0-.18,0-.36.07-.6v-.11l-.13,0a2.36,2.36,0,0,0-.52.2,3.75,3.75,0,0,1-3.19.14.83.83,0,0,1-.56-.44.73.73,0,0,1,.05-.61c.69-1.45,1.34-2.7,2-3.85a1.24,1.24,0,0,1,.93-.48h.21c.3,0,.61.08.92.1l2.29.16.72,0,1.09,0c1.49,0,1.68-.46,3-.79.76-.2,2.17-.58,2.49-1.45C48.73,66,48,64.69,47.67,63.3Z"/></g></g></svg>