<svg xmlns="http://www.w3.org/2000/svg" xmlns:xlink="http://www.w3.org/1999/xlink" viewBox="0 0 1084.29 752.12"><defs><style>.cls-1,.cls-14,.cls-20,.cls-8{fill:none;}.cls-2{fill:#ad835a;}.cls-3{clip-path:url(#clip-path);}.cls-4{fill:#040000;}.cls-10,.cls-5{fill:#983028;}.cls-6{fill:#c6b9af;}.cls-7{fill:#231815;}.cls-10,.cls-14,.cls-15,.cls-17,.cls-20,.cls-8{stroke:#040000;}.cls-10,.cls-14,.cls-8{stroke-linecap:round;}.cls-14,.cls-15,.cls-17,.cls-20,.cls-8{stroke-miterlimit:10;}.cls-8{stroke-width:10.16px;}.cls-9{clip-path:url(#clip-path-2);}.cls-10{stroke-linejoin:round;stroke-width:9.4px;}.cls-11{fill:#fff;}.cls-12{clip-path:url(#clip-path-3);}.cls-13{fill:#f6d8cf;}.cls-14{stroke-width:9.74px;}.cls-15,.cls-17{fill:#fcdcaf;}.cls-15{stroke-width:7.09px;}.cls-16{fill:#858585;}.cls-17{stroke-width:7.83px;}.cls-18{clip-path:url(#clip-path-4);}.cls-19{fill:url(#새_패턴_견본_6);}.cls-20{stroke-width:10.2px;}.cls-21{clip-path:url(#clip-path-5);}</style><clipPath id="clip-path" transform="translate(469.4 -440.89)"><rect class="cls-1" width="595.28" height="841.89"/></clipPath><clipPath id="clip-path-2" transform="translate(469.4 -440.89)"><path class="cls-1" d="M51.54,738.3c19.54-165.2,105.34-246.14,250-246.14S533.18,573.1,552.73,738.3h0c2.74,19.62,7.27,36.78,11.44,56.1,4.91,22.68,20.73,44.77,28.82,66.37,8.31,22.2,19.35,44.67,21.57,69.17,1.74,19.27-3.13,40-22.28,47-19.54,7.08-42.49-1.4-60.25-20.83h0s-10.15,80.14-57.09,142.78C425.76,1164.51,447.7,1193,402,1193c-57.47,0-32.05-100.75-100.48-100.75S258.49,1193,201,1193c-45.71,0-23.77-28.5-73-94.14C81.13,1036.23,71,956.08,71,956.08,53.22,975.51,30.27,984,10.73,976.91c-19.15-6.94-24-27.7-22.28-47,2.22-24.5,15.76-47,24.08-69.17,8.09-21.6,22.65-43.69,27.56-66.37,4.18-19.32,8.7-36.48,11.45-56.1Z"/></clipPath><clipPath id="clip-path-3" transform="translate(469.4 -440.89)"><path class="cls-1" d="M301.72,576.16c-80.78,0-146.26,56.84-146.26,127s65.48,104,146.26,104S448,773.22,448,703.11,382.5,576.16,301.72,576.16Z"/></clipPath><clipPath id="clip-path-4" transform="translate(469.4 -440.89)"><path class="cls-1" d="M393.12,966.32c0,43.27-41,66.33-91.65,66.33s-91.65-23.06-91.65-66.33,41-90.35,91.65-90.35S393.12,923.06,393.12,966.32Z"/></clipPath><pattern id="새_패턴_견본_6" data-name="새 패턴 견본 6" width="68" height="68" patternTransform="translate(2959.51 7938.38) scale(2.55 2.55)" patternUnits="userSpaceOnUse" viewBox="0 0 68 68"><rect class="cls-1" width="68" height="68"/><rect class="cls-2" width="68" height="68"/></pattern><clipPath id="clip-path-5" transform="translate(469.4 -440.89)"><path class="cls-1" d="M386.37,965.44c0,40.08-38,61.44-84.9,61.44s-84.91-21.36-84.91-61.44,38-83.7,84.91-83.7S386.37,925.36,386.37,965.44Z"/></clipPath></defs><g id="레이어_2" data-name="레이어 2"><g id="레이어_1-2" data-name="레이어 1"><g class="cls-3"><path class="cls-2" d="M477,562.25a243.07,243.07,0,0,0-21.46-19.38c.2-.35.41-.69.62-1,7.63-12.2,21.81-24.85,32.31-24.85a11.84,11.84,0,0,1,8.91,3.89c4,4.22,6.18,11.63,5.73,19.33-.79,14.06-5.95,15.59-16.22,18.65A87.53,87.53,0,0,0,477,562.25Z" transform="translate(469.4 -440.89)"/><path class="cls-4" d="M488.43,522.44a6.34,6.34,0,0,1,4.95,2.18c2.94,3.12,4.61,9.12,4.25,15.3-.28,5-1.28,8.32-3,9.86s-5.28,2.64-9.36,3.86c-2.21.65-4.56,1.35-7,2.23q-7.49-7.38-15.56-14.12c7.59-10.59,19-19.31,25.69-19.31m0-10.9c-13.67,0-29.34,15.27-36.94,27.43a56.53,56.53,0,0,0-2.94,5.37,234.93,234.93,0,0,1,27.23,24.53c15.1-8.2,31.33-3.5,32.73-28.34.85-14.63-6.38-29-20.08-29Z" transform="translate(469.4 -440.89)"/><path class="cls-5" d="M140.52,1105.17a240.49,240.49,0,0,1-34-2.53c-5.17-.73-10.44-1.66-15.54-2.56-10.41-1.84-21.19-3.74-32.11-4.1-1.35,0-2.7-.06-4-.06a192.59,192.59,0,0,0-20.54,1.26h-.14a1,1,0,0,1-.85-.46.88.88,0,0,1-.09-.87c19.26-47.25,28.88-114.46,24.5-171.23a.87.87,0,0,1,.21-.73,1.22,1.22,0,0,1,.84-.36.89.89,0,0,1,.72.37l152.89,178.35a1,1,0,0,1-.71,1.68h-.13c-7.25-.66-14.16-1-21.12-1-9.23,0-17.36.57-25.22,1.12S149.47,1105.17,140.52,1105.17Z" transform="translate(469.4 -440.89)"/><path class="cls-4" d="M63.07,935.32,186,1078.66,203,1098.6c-4.24-.24-8.43-.35-12.63-.35-9.4,0-17.61.57-25.55,1.13s-15.55,1.09-24.34,1.09a235.85,235.85,0,0,1-33.35-2.48c-5.08-.72-10.31-1.64-15.37-2.53-10.58-1.87-21.52-3.8-32.77-4.17-1.37,0-2.79-.07-4.21-.07-4.58,0-9.36.22-15,.71,16.82-44.34,25.64-104,23.26-156.61m-4.31-16.48A5.69,5.69,0,0,0,53,925c4.12,53.44-4.38,120.54-24.17,169.1a5.68,5.68,0,0,0,5.29,7.8c.21,0,.42,0,.63,0a192.13,192.13,0,0,1,20-1.24c1.3,0,2.6,0,3.9.07,15.89.52,31.42,4.41,47.15,6.61a244.91,244.91,0,0,0,34.65,2.57c18.22,0,31.74-2.21,49.89-2.21,6.23,0,13,.26,20.69,1l.56,0a5.72,5.72,0,0,0,4.28-9.43C186.32,1064.66,95.79,959.05,63.05,920.86a5.58,5.58,0,0,0-4.29-2Z" transform="translate(469.4 -440.89)"/><path class="cls-5" d="M463.63,1105.17c-9,0-16.95-.56-24.67-1.1s-16-1.12-25.23-1.12c-7,0-13.87.32-21.12,1h-.13a1,1,0,0,1-.71-1.68L544.66,923.91a.9.9,0,0,1,.72-.37,1.22,1.22,0,0,1,.84.36.87.87,0,0,1,.21.73c-4.38,56.77,5.24,124,24.5,171.23a.87.87,0,0,1-.08.87,1,1,0,0,1-.86.46h-.14a192.57,192.57,0,0,0-20.53-1.26q-2,0-4.05.06c-10.92.36-21.69,2.26-32.11,4.1-5.1.9-10.37,1.83-15.54,2.56A240.46,240.46,0,0,1,463.63,1105.17Z" transform="translate(469.4 -440.89)"/><path class="cls-4" d="M548.23,927h0m-7.16,8.35c-2.37,52.65,6.44,112.27,23.27,156.61-5.65-.49-10.44-.71-15-.71-1.42,0-2.83,0-4.2.07-11.26.37-22.2,2.3-32.78,4.17-5.06.89-10.29,1.81-15.37,2.53a235.71,235.71,0,0,1-33.34,2.48c-8.8,0-16.35-.53-24.35-1.09s-16.15-1.13-25.55-1.13c-4.2,0-8.39.11-12.63.35l47.31-55.19,92.66-108.09m4.31-16.48a5.58,5.58,0,0,0-4.29,2c-32.74,38.19-123.27,143.8-152.89,178.34a5.72,5.72,0,0,0,4.28,9.43l.56,0c7.69-.7,14.47-1,20.69-1,18.15,0,31.67,2.21,49.9,2.21a244.89,244.89,0,0,0,34.64-2.57c15.73-2.2,31.26-6.09,47.15-6.61,1.3,0,2.6-.07,3.9-.07a192.13,192.13,0,0,1,20,1.24c.21,0,.42,0,.63,0a5.68,5.68,0,0,0,5.29-7.8C555.49,1045.53,547,978.43,551.11,925a5.69,5.69,0,0,0-5.73-6.15Z" transform="translate(469.4 -440.89)"/><path class="cls-6" d="M360.62,512.49c22.62-12.82,37.61-35.75,48.43-55.16a42.88,42.88,0,0,1,6.51-9.18A6.48,6.48,0,0,1,420.4,446c3.72,0,8.24,2.76,11,6.71,3.82,5.5,6.09,13.43,6.94,24.26a91.94,91.94,0,0,1-.72,21.68c-2,12.14-7,24.5-15.53,37.67Z" transform="translate(469.4 -440.89)"/><path class="cls-7" d="M420.4,451.16c1.75,0,4.83,1.72,6.76,4.5,3.29,4.73,5.26,11.84,6,21.73a86.53,86.53,0,0,1-.67,20.47C430.87,508.2,426.74,518.78,420,530l-48.12-18.68c18.91-13.79,32-34,41.69-51.51a38.14,38.14,0,0,1,5.72-8.11,1.36,1.36,0,0,1,1.15-.56m0-10.27a11.57,11.57,0,0,0-8.53,3.69,48.66,48.66,0,0,0-7.31,10.25c-13.63,24.46-30.76,48.38-57,58.1l76.5,29.69c8.8-12.91,16.06-27.25,18.61-43.13a97.51,97.51,0,0,0,.77-22.9c-.73-9.22-2.58-19.21-7.85-26.79-3.46-5-9.43-8.91-15.19-8.91Z" transform="translate(469.4 -440.89)"/><path class="cls-6" d="M180.94,536.34c-8.49-13.17-13.58-25.53-15.53-37.67a91.94,91.94,0,0,1-.72-21.68c.85-10.83,3.12-18.76,6.94-24.26,2.75-4,7.26-6.71,11-6.71a6.47,6.47,0,0,1,4.84,2.13,42.88,42.88,0,0,1,6.51,9.18c10.82,19.41,25.81,42.34,48.43,55.16Z" transform="translate(469.4 -440.89)"/><path class="cls-7" d="M182.61,440.89v10.27a1.36,1.36,0,0,1,1.15.56,38.14,38.14,0,0,1,5.72,8.11c9.74,17.48,22.78,37.72,41.69,51.51L183.05,530c-6.78-11.24-10.91-21.82-12.57-32.16a86.53,86.53,0,0,1-.67-20.47c.78-9.89,2.75-17,6-21.73,1.93-2.78,5-4.5,6.76-4.5V440.89m0,0c-5.75,0-11.73,3.92-15.19,8.91-5.27,7.58-7.12,17.57-7.85,26.79a97.51,97.51,0,0,0,.77,22.9c2.55,15.88,9.81,30.22,18.61,43.13l76.5-29.69c-26.24-9.72-43.37-33.64-57-58.1a48.66,48.66,0,0,0-7.31-10.25,11.57,11.57,0,0,0-8.53-3.69Z" transform="translate(469.4 -440.89)"/><path class="cls-2" d="M51.54,738.5C71.08,573.71,156.88,493,301.51,493S533.18,573.71,552.73,738.5h0c2.74,19.57,7.27,36.68,11.44,56,4.91,22.62,20.73,44.66,28.82,66.2,8.31,22.14,19.35,44.56,21.57,69,1.74,19.21-3.13,39.92-22.28,46.84-19.54,7.07-42.49-1.39-60.25-20.77h0s-10.15,79.94-57.09,142.42c-49.18,65.47-27.24,93.9-72.95,93.9-57.47,0-32.05-100.49-100.48-100.49s-43,100.49-100.49,100.49c-45.71,0-23.77-28.43-73-93.9C81.13,1035.68,71,955.73,71,955.73c-17.76,19.38-40.71,27.84-60.25,20.77-19.15-6.92-24-27.63-22.28-46.84,2.22-24.44,15.76-46.86,24.08-69,8.09-21.54,22.65-43.58,27.56-66.2,4.18-19.28,8.7-36.39,11.45-56Z" transform="translate(469.4 -440.89)"/><path class="cls-8" d="M504.41,894.44c3.8,20.08,14.24,39.5,27.62,54.13" transform="translate(469.4 -440.89)"/><path class="cls-8" d="M71,948.57c13.38-14.63,23.82-34.05,27.62-54.13" transform="translate(469.4 -440.89)"/><path class="cls-2" d="M127.18,562.25a87.53,87.53,0,0,0-9.89-3.39c-10.27-3.06-15.43-4.59-16.22-18.64-.45-7.71,1.75-15.12,5.73-19.34a11.85,11.85,0,0,1,8.91-3.89c10.5,0,24.68,12.65,32.33,24.87l.6,1A246.21,246.21,0,0,0,127.18,562.25Z" transform="translate(469.4 -440.89)"/><path class="cls-4" d="M115.71,522.44c6.7,0,18.11,8.72,25.69,19.31-5.37,4.48-10.57,9.2-15.55,14.12-2.45-.88-4.8-1.58-7-2.23-4.08-1.22-7.61-2.26-9.37-3.86s-2.69-4.85-3-9.89c-.36-6.15,1.31-12.15,4.25-15.27a6.35,6.35,0,0,1,4.95-2.18m0-10.9c-13.7,0-20.93,14.36-20.08,29,1.4,24.84,17.63,20.14,32.73,28.34a235.75,235.75,0,0,1,27.23-24.53,56.46,56.46,0,0,0-2.93-5.37c-7.61-12.16-23.28-27.43-36.95-27.43Z" transform="translate(469.4 -440.89)"/><g class="cls-9"><path class="cls-10" d="M572.2,702.28c-2.17,11.49-14.28,22.85-18.5,33.66-5,12.88-13.18,23.83-22.58,33.38-7,7.15-27.22,20.27-19.88,33.24,4,7.14,14.3,8.32,21.24,8.53,26.53.79,67.42-9.46,67.42-9.46" transform="translate(469.4 -440.89)"/><path class="cls-10" d="M40.83,702.28a190,190,0,0,0,9.74,33.66c5,12.88,13.17,23.83,22.58,33.38,7,7.15,27.21,20.27,19.88,33.24-4,7.14-14.3,8.32-21.25,8.53-26.53.79-67.42-9.46-67.42-9.46" transform="translate(469.4 -440.89)"/></g><path class="cls-4" d="M301.51,502.33c34.93,0,66.6,4.92,94.13,14.64S447,541.32,467,560.59c40.84,39.49,66.3,99.68,75.68,178.91v.21c2.08,14.88,5.09,28.07,8.27,42,1.09,4.8,2.22,9.77,3.31,14.81,3.23,14.91,10.47,29,17.48,42.7,4.49,8.74,8.72,17,11.75,25.08,1.82,4.85,3.78,9.75,5.67,14.49,6.73,16.84,13.69,34.25,15.3,52,.81,9-.09,17.1-2.62,23.41-2.64,6.59-6.89,10.88-13,13.09A31.54,31.54,0,0,1,578,969.22c-12.83,0-26.86-7.29-38.48-20l-17.66-19.3V955.4a329.83,329.83,0,0,1-10.64,46.07c-7.43,24.52-21.16,60.26-44.42,91.3-21.45,28.63-29.81,50.24-35.92,66-3.59,9.28-6.19,16-9.8,19.44-2.26,2.15-6.46,4.61-19.1,4.61-19.46,0-25.82-14.61-35.38-40.44-9.94-26.87-22.32-60.31-65.1-60.31s-55.17,33.44-65.11,60.31c-9.56,25.83-15.92,40.44-35.38,40.44-12.64,0-16.84-2.46-19.1-4.61-3.61-3.46-6.21-10.16-9.8-19.44-6.11-15.78-14.47-37.39-35.92-66-23.26-31-37-66.78-44.42-91.31a321.29,321.29,0,0,1-10.72-46.65L78.3,933,63.48,949.23c-11.62,12.7-25.65,20-38.48,20a31.54,31.54,0,0,1-10.81-1.86c-6.11-2.21-10.36-6.5-13-13.09-2.53-6.31-3.43-14.4-2.62-23.41,1.42-15.62,8.3-31.18,15-46.23,2.93-6.62,6-13.47,8.52-20.3C25,856.46,28.88,848.47,33,840c6.77-13.93,13.77-28.34,17-43.47,1.09-5,2.22-10,3.31-14.8,3.18-14,6.19-27.16,8.27-42v-.1l0-.11c4.73-40,13.56-75.46,26.23-105.39,12.42-29.33,28.86-54.07,48.85-73.55A193.09,193.09,0,0,1,207.58,517c27.41-9.72,59-14.64,93.93-14.64m0-10.17c-144.63,0-230.43,80.94-250,246.14h0c-2.75,19.62-7.27,36.78-11.45,56.1-4.91,22.68-19.47,44.77-27.56,66.37C4.22,883-9.33,905.44-11.55,929.94c-1.74,19.27,3.13,40,22.28,47A41.66,41.66,0,0,0,25,979.39c15.8,0,32.41-8.46,46-23.31,0,0,10.15,80.15,57.09,142.79,49.18,65.64,27.24,94.14,73,94.14,57.47,0,32-100.75,100.49-100.75S344.52,1193,402,1193c45.71,0,23.77-28.5,72.95-94.14C521.88,1036.23,532,956.09,532,956.09h0c13.57,14.85,30.18,23.31,46,23.31a41.66,41.66,0,0,0,14.27-2.48c19.15-6.94,24-27.7,22.28-47-2.22-24.5-13.26-47-21.57-69.17-8.09-21.6-23.91-43.69-28.82-66.37-4.17-19.32-8.7-36.48-11.44-56.1h0c-19.55-165.2-106.6-246.14-251.22-246.14Z" transform="translate(469.4 -440.89)"/><path class="cls-11" d="M301.68,811.36c-73.29,0-151.61-28.28-151.61-107.65,0-73.1,68-132.58,151.61-132.58s151.61,59.48,151.61,132.58C453.29,783.08,375,811.36,301.68,811.36Z" transform="translate(469.4 -440.89)"/><path class="cls-4" d="M301.68,576.21c80.8,0,146.53,57.2,146.53,127.5,0,32.62-13.9,58.33-41.32,76.39-26,17.13-62.38,26.18-105.21,26.18s-79.21-9-105.2-26.18c-27.42-18.06-41.33-43.77-41.33-76.39,0-70.3,65.74-127.5,146.53-127.5m0-10.16C215.14,566.05,145,627.68,145,703.71s70.15,112.73,156.69,112.73,156.69-36.7,156.69-112.73S388.22,566.05,301.68,566.05Z" transform="translate(469.4 -440.89)"/><g class="cls-12"><ellipse class="cls-13" cx="912.85" cy="266.28" rx="48.68" ry="48.24"/><ellipse class="cls-13" cx="629.4" cy="266.28" rx="48.68" ry="48.24"/></g><path class="cls-4" d="M301.68,574.16c81.93,0,148.58,58.12,148.58,129.55,0,17-3.79,32.38-11.27,45.72-7.08,12.61-17.5,23.51-31,32.38-26.34,17.35-63.11,26.52-106.34,26.52s-80-9.17-106.33-26.52c-13.48-8.87-23.9-19.77-31-32.38-7.48-13.34-11.28-28.72-11.28-45.72,0-71.43,66.65-129.55,148.58-129.55m0-8.11C215.14,566.05,145,627.68,145,703.71s70.15,112.73,156.69,112.73,156.69-36.7,156.69-112.73S388.22,566.05,301.68,566.05Z" transform="translate(469.4 -440.89)"/><ellipse class="cls-4" cx="703.77" cy="220.56" rx="22.63" ry="26.11"/><ellipse class="cls-11" cx="711.62" cy="213.64" rx="6.75" ry="6.76"/><ellipse class="cls-4" cx="838.75" cy="220.56" rx="22.63" ry="26.11"/><ellipse class="cls-11" cx="846.59" cy="213.64" rx="6.75" ry="6.76"/><path class="cls-14" d="M243.94,715.28a230.11,230.11,0,0,0,115.85,0" transform="translate(469.4 -440.89)"/><path class="cls-15" d="M353.51,597.51c-6.3,5.52-14.76,9.28-23.43,8.78-9.64-.56-18.39,3.33-28.22,3.33s-18.58-3.89-28.22-3.33c-8.67.5-17.13-3.26-23.43-8.78-13.39-11.73-9.16-30.29,1.42-42.65,12.16-14.19,31.86-21.3,50.23-21.3s38.07,7.11,50.23,21.3h0C362.67,567.22,366.9,585.78,353.51,597.51Z" transform="translate(469.4 -440.89)"/><path class="cls-16" d="M301.86,613.44a37.6,37.6,0,0,1-37.53-37.58,7.23,7.23,0,0,1,14.45,0,23.08,23.08,0,1,0,46.16,0,7.23,7.23,0,0,1,14.45,0A37.6,37.6,0,0,1,301.86,613.44Z" transform="translate(469.4 -440.89)"/><path class="cls-4" d="M332.17,572.46a3.4,3.4,0,0,1,3.4,3.4,33.71,33.71,0,1,1-67.41,0,3.4,3.4,0,1,1,6.79,0,26.91,26.91,0,1,0,53.82,0,3.4,3.4,0,0,1,3.4-3.4m0-7.65a11.07,11.07,0,0,0-11.05,11.05,19.26,19.26,0,1,1-38.52,0,11,11,0,1,0-22.09,0,41.35,41.35,0,1,0,82.7,0,11.06,11.06,0,0,0-11-11.05Z" transform="translate(469.4 -440.89)"/><path class="cls-17" d="M393.12,966.32c0,43.27-41,66.33-91.65,66.33s-91.65-23.06-91.65-66.33,41-90.35,91.65-90.35S393.12,923.06,393.12,966.32Z" transform="translate(469.4 -440.89)"/><g class="cls-18"><path class="cls-19" d="M-344.62,612.92c4-4.2,2.38-8.49-1-12.29a7.83,7.83,0,0,1-.49-1l-.52-.46-.9-.52a74.67,74.67,0,0,0-7.19-5.73,2.92,2.92,0,0,0-1.92-.59,1.56,1.56,0,0,0-.67-.33c-1.76.22-2.59,1.64-3.65,2.78h0l-1,1h0l-2.18,1.64a211.09,211.09,0,0,1-21.41,11.29c-.81-.78-1.61-1.57-2.49-2.3s-2-1.48-3-2.23l0-.19c-.06-1.25-1-1.51-2-1.87-.48-.19-1-.34-1.48-.49-.79-.56-1.54-1.17-2.33-1.73a2.92,2.92,0,0,0-1.69-.44c-.75-.69-1.57-.21-2.29.27a1.94,1.94,0,0,0-.27.23,3.52,3.52,0,0,0-1.57,3.88c1.08,3.58,2.14,7.18,3,10.81-3.57,1.45-7.13,2.92-10.72,4.31-2.67,1-5.34,2.21-8.08,3-.94.29-4.34,1.54-5.16.79a1.34,1.34,0,0,1-.31-.5,2.1,2.1,0,0,0,.06-.24,3,3,0,0,0,1.16-1.89,2.51,2.51,0,0,0,1.68-2.19,8.89,8.89,0,0,0,.2-1.82,9.09,9.09,0,0,0-.74-5.86c-2.2-4.82-6.9-8.67-11.34-11.35a3.11,3.11,0,0,0-3.57.1,3.41,3.41,0,0,0-1.14.28,2.93,2.93,0,0,0-2.25,1c-6.36,7.92-15.82,12.56-23.3,19.27a20.08,20.08,0,0,0-4.55,5.83,1.34,1.34,0,0,0-.66.88,3.56,3.56,0,0,1,0,.57,15.56,15.56,0,0,0-1.12,4.62,32.5,32.5,0,0,0,1.59,12.88c1.37,3.72,4.82,9.05,9.52,8.07,2.13-.45,3.33-2,4.6-3.58q2.43-3.07,5.12-5.94c1.48-1.58,3-3.08,4.58-4.56,4.81,2.17,9.66,4.27,14.59,6.11,5.53,2.06,10.46,2.16,16.26,1.38a91.61,91.61,0,0,0,14.53-3.31c.1,3-.92,5.92-1,8.91-.07,1-.13,2-.19,3a2.55,2.55,0,0,0-.62,1.83,26.22,26.22,0,0,1-9.09,5.16,6.72,6.72,0,0,0-2.38.66,6.86,6.86,0,0,0-1.66.48c-.6.14-1.2.28-1.81.4-1.85,0-3.73-.51-5.53.34l-4.95.14h0c-1.22-.47-2.36.17-3.54.26-1.18-.13-2.37,0-3.56,0s-2.73-.1-2.85,1.79a.39.39,0,0,0,.21.6c.32,2,.08,4.24,1.51,6h0a5.55,5.55,0,0,0,.6,2.86,12.59,12.59,0,0,0,3.82,5,3.34,3.34,0,0,0,2.2,1.93c.31.08.63.13.94.2.88.35,1.78.64,2.66,1a9.48,9.48,0,0,0,2.43.11,106.69,106.69,0,0,0,13,1.57,2.6,2.6,0,0,0-.26.68c-1,6.94-4,13.48-6.58,20-2.68,6.87-5.44,13.71-8.51,20.41a186.43,186.43,0,0,1-9.73,18.58c-1.36,2.24-3.68,4.71-3.42,7.51a10.15,10.15,0,0,0,2.34,4.9,2.38,2.38,0,0,0,.38,2.18c.63,3.48.91,7.08,3.17,10.06a8.24,8.24,0,0,0,4.93,2.57,1,1,0,0,0,1,.46,1.33,1.33,0,0,0,1.58.16h0l.9-.62h0c2.81-.67,2.95-3.19,3.69-5.3h0c.42-1.56,2-2.52,2.11-4.25h0a17.72,17.72,0,0,0,2.64-5.57h0l.57-.94h0c.8-.86,1-2,1.4-3h0l.11-1c-.19-1.3,1.61-1.92,1.13-3.31,1.25-.21,1.29-1.44,1.75-2.23,1.07-1.84,2-3.79,2.93-5.7h0l.48-1.93c.41-1.79,1.44-3.4,1.52-5.28,0-.11.1-.17.12-.29a.24.24,0,0,1,0-.08c.82-.26,1-1,1.07-1.7a13.17,13.17,0,0,0,2.05-5.51c.21-.66.43-1.31.64-2-.06-1.66,1.4-2.77,1.57-4.35h0c1.28-2.52,1.74-5.32,2.61-8a.74.74,0,0,0,.07-.39h0c.48-1,.95-2.07,1.43-3.1h0c.08-.63.16-1.26.23-1.89.87-.82.79-1.95,1-3a6.28,6.28,0,0,0,.88-2.39c.67-1.8,1.28-3.61,1.85-5.44a1.41,1.41,0,0,0,.15-.51,60.64,60.64,0,0,0,1.93-8.25c0-.06,0-.12.06-.18.19-.68.37-1.36.56-2a2,2,0,0,0,.42-1.42l.07,0c7.19-7.07,16.53-10.33,25.92-13.39l.1,0c2.14.77,4-.4,5.26-1.69a5.5,5.5,0,0,0,.57-6.25c-1.36-2.43-3.45-4.47-5.23-6.67-2.32-.17-3.56-2.18-5.41-3.14l-.08,0a3.51,3.51,0,0,0-2.88-1.64h0c-2-1.5-2.58-1.27-5.62.55l-.13.06c-.54.12-1.11.18-1.64.34a27.71,27.71,0,0,0-3.7,1.43l-.84.39,0,0-.5.16q.63-8.79,1.27-17.6c.56-.3,1.14-.54,1.69-.86,4.14-2.33,8.18-4.85,12.24-7.33a16.16,16.16,0,0,0,5.43-3.22c4.88-2.87,10-5.6,14.52-8.92.32-.24.56-.48.84-.71A2.24,2.24,0,0,0-344.62,612.92Z" transform="translate(469.4 -440.89)"/></g><path class="cls-20" d="M393.12,966.32c0,43.27-41,66.33-91.65,66.33s-91.65-23.06-91.65-66.33,41-90.35,91.65-90.35S393.12,923.06,393.12,966.32Z" transform="translate(469.4 -440.89)"/><g class="cls-21"><path class="cls-2" d="M359.33,920c-.29-.42-.54-.66-1.07-.53-1.95.48-5.34,7.1-4.57,9.41.5,1.5.52,2.27-.9,3q-4.41,2.11-8.94,3.91a6.16,6.16,0,0,0-4.25,1c-.47.31-.92.67-1.37,1a71.22,71.22,0,0,1-7.25,2l-.68.16-.67.16c-.14-.4-.27-.81-.42-1.27A138.43,138.43,0,0,0,322.73,921c-1.39-3-4.13-5.52-6.89-7.85-.84-.71-2.44-.71-3.86-.72h-1a20.46,20.46,0,0,0-4.77.49c-.65.14-1.06.36-1.22.68a3.86,3.86,0,0,0,.26,2.35q.14.45.24.87a23.55,23.55,0,0,0,.75,2.35c.21.58.41,1.16.59,1.75.47,1.57,1,3.13,1.46,4.7,1.23,3.93,2.5,8,3.46,12.07a7,7,0,0,1,.13,3.89l-.83,0-1-.09c-1-.09-2-.18-2.92-.29-1.67-.18-3.35-.39-5-.6s-3.42-.43-5.13-.62c-2.93-.83-5.86-1.68-8.73-2.51L283.35,936c-2.65-.76-4.16-2.56-4.75-5.65a39.3,39.3,0,0,0-2.74-8.63c-.23-.51-.46-1-.68-1.59-1.19-2.82-2.42-5.74-5-6.25a36.78,36.78,0,0,1-6.27-2l-1.66-.63c-.82-.32-2.25.45-3.29,1l-.22.11a4.61,4.61,0,0,0,.07,1.66c.31,1.3.68,2.59,1.05,3.88.53,1.84,1.07,3.74,1.45,5.65,1.48,7.5,1.16,14.05-1,19.47-5.48,14-8,17.49-19.48,26.41-1.87,1.46-3,2.14-4.14,1.74s-1.79-1.63-2.82-4.14a6.92,6.92,0,0,0-1.16-1.89,5.28,5.28,0,0,0-2.42,1.57c-1.32,1.42-.91,2.64-.09,4.67a16.3,16.3,0,0,1,.74,2.07c1.9,7.09,7,10.44,12.56,13.52a10.1,10.1,0,0,0,7.47.84,28.27,28.27,0,0,0,13.44-9.23c.77-1,1.61-1.9,2.43-2.78s1.44-1.55,2.11-2.38c7-8.57,7.14-9.25,10-20.66l0-.11.61.46.62.45a21.15,21.15,0,0,0,7.62,3.92,142.45,142.45,0,0,0,22.43,3.22c.44,0,.87,0,1.3.06l.8,0a14.18,14.18,0,0,1,.52,4.16,3.82,3.82,0,0,0,.12.66c0,.2.08.4.11.6.72,5.08,0,10.13-2.32,15.91l-.22.56-.56-.17c-7.45-2.28-9.5-3.48-15.61-7.05l-1.36-.8a12,12,0,0,0-1.67-.89c-2.26,2.08-4.47,1.12-6.41.25-.48-.21-1-.43-1.47-.6-.75-.26-2,.15-3.54,1.14a20.35,20.35,0,0,0,.61,2.25l.22.71a19,19,0,0,0,1.26,3.36l.31.6a8.08,8.08,0,0,0,1.82,2.71c7.18,5.43,9.69,7,17.83,9.57,1.35.43,2.71,1,4.14,1.54l2.22.87.74.28-.27.77c-.69,1.91-1.33,3.8-2,5.66-1.41,4.18-2.75,8.12-4.41,11.95-3.18,7.31-6.68,14.54-10.41,21.5-3.91,7.3-8.1,12.18-13.17,15.35-2.26,1.41-2.73,2.84-1.62,4.95a30.9,30.9,0,0,1,1.42,3.28c1.25,3.2,2.43,6.23,6.09,7a2.09,2.09,0,0,1,1,.59l.15.14c3.43,2.93,6.3,2.8,8.81-.4,1.17-1.5,2.27-3.13,3.33-4.71l.63-.94c1.23-1.81,2.48-3.6,3.74-5.39,2.86-4.08,5.81-8.3,8.37-12.7a176.58,176.58,0,0,0,17.29-41c.8-2.85,2.33-4.12,5.29-4.38a65.6,65.6,0,0,0,10.32-2c1.19-.3,2.39-.6,3.58-.87a1.29,1.29,0,0,0,.87-.7c.27-.89.63-1.77,1-2.65,1.34-3.29,2.49-6.14-.17-9.67a3.24,3.24,0,0,1-.49-1.8,4.36,4.36,0,0,0-.1-.8c-.2-.75-.45-1.49-.76-2.43l-.14-.44-.38.37a9.06,9.06,0,0,0-1.47,1.58c-2.91,4.4-7.28,5.25-10.76,5.49a3.18,3.18,0,0,1-2.65-.87,3.44,3.44,0,0,1-.85-2.43c0-6.68.2-12.54.51-17.94a4.57,4.57,0,0,1,2.43-3.31l.7-.33c1.13-.3,2.25-.62,3.35-1,2.74-1,5.46-1.94,8.16-2.94.85-.32,1.68-.68,2.53-1,1.28-.5,2.57-1,3.83-1.52,5.14-2.26,5-4.33,8.93-7.64,2.3-2,6.56-5.58,6.23-9.44C367.46,929,362.66,925,359.33,920Z" transform="translate(469.4 -440.89)"/></g></g></g></g></svg>